<?xml version="1.0" encoding="ISO-8859-1"?>
<!DOCTYPE svg PUBLIC "-//W3C//DTD SVG 1.0//EN" "http://www.w3.org/TR/2001/REC-SVG-20010904/DTD/svg10.dtd">
<!-- generated by Grace-5.1.25 -->
<svg xml:space="preserve" width="16.1550in" height="12.4850in" viewBox="0.0000 0.0000 1163.1600 898.9200">
 <g transform="translate(0,898.9200) scale(1,-1)">
  <g style="fill:#FFFFFF; fill-rule:nonzero">
   <path  d="M0.0000,0.0000L0.0000,898.9200L1163.1601,898.9200L1163.1601,0.0000z"/>
  </g>
  <defs>
   <pattern id="pattern4" viewBox="0 0 16 16" width="16" height="16" patternUnits="userSpaceOnUse">
     <rect fill="#FFFFFF" x="0" y="0" width="16" height="16"/>
     <rect x="0" y="15" width="1" height="1"/>
     <rect x="2" y="15" width="1" height="1"/>
     <rect x="4" y="15" width="1" height="1"/>
     <rect x="6" y="15" width="1" height="1"/>
     <rect x="8" y="15" width="1" height="1"/>
     <rect x="10" y="15" width="1" height="1"/>
     <rect x="12" y="15" width="1" height="1"/>
     <rect x="14" y="15" width="1" height="1"/>
     <rect x="1" y="14" width="1" height="1"/>
     <rect x="3" y="14" width="1" height="1"/>
     <rect x="5" y="14" width="1" height="1"/>
     <rect x="7" y="14" width="1" height="1"/>
     <rect x="9" y="14" width="1" height="1"/>
     <rect x="11" y="14" width="1" height="1"/>
     <rect x="13" y="14" width="1" height="1"/>
     <rect x="15" y="14" width="1" height="1"/>
     <rect x="0" y="13" width="1" height="1"/>
     <rect x="2" y="13" width="1" height="1"/>
     <rect x="4" y="13" width="1" height="1"/>
     <rect x="6" y="13" width="1" height="1"/>
     <rect x="8" y="13" width="1" height="1"/>
     <rect x="10" y="13" width="1" height="1"/>
     <rect x="12" y="13" width="1" height="1"/>
     <rect x="14" y="13" width="1" height="1"/>
     <rect x="1" y="12" width="1" height="1"/>
     <rect x="3" y="12" width="1" height="1"/>
     <rect x="5" y="12" width="1" height="1"/>
     <rect x="7" y="12" width="1" height="1"/>
     <rect x="9" y="12" width="1" height="1"/>
     <rect x="11" y="12" width="1" height="1"/>
     <rect x="13" y="12" width="1" height="1"/>
     <rect x="15" y="12" width="1" height="1"/>
     <rect x="0" y="11" width="1" height="1"/>
     <rect x="2" y="11" width="1" height="1"/>
     <rect x="4" y="11" width="1" height="1"/>
     <rect x="6" y="11" width="1" height="1"/>
     <rect x="8" y="11" width="1" height="1"/>
     <rect x="10" y="11" width="1" height="1"/>
     <rect x="12" y="11" width="1" height="1"/>
     <rect x="14" y="11" width="1" height="1"/>
     <rect x="1" y="10" width="1" height="1"/>
     <rect x="3" y="10" width="1" height="1"/>
     <rect x="5" y="10" width="1" height="1"/>
     <rect x="7" y="10" width="1" height="1"/>
     <rect x="9" y="10" width="1" height="1"/>
     <rect x="11" y="10" width="1" height="1"/>
     <rect x="13" y="10" width="1" height="1"/>
     <rect x="15" y="10" width="1" height="1"/>
     <rect x="0" y="9" width="1" height="1"/>
     <rect x="2" y="9" width="1" height="1"/>
     <rect x="4" y="9" width="1" height="1"/>
     <rect x="6" y="9" width="1" height="1"/>
     <rect x="8" y="9" width="1" height="1"/>
     <rect x="10" y="9" width="1" height="1"/>
     <rect x="12" y="9" width="1" height="1"/>
     <rect x="14" y="9" width="1" height="1"/>
     <rect x="1" y="8" width="1" height="1"/>
     <rect x="3" y="8" width="1" height="1"/>
     <rect x="5" y="8" width="1" height="1"/>
     <rect x="7" y="8" width="1" height="1"/>
     <rect x="9" y="8" width="1" height="1"/>
     <rect x="11" y="8" width="1" height="1"/>
     <rect x="13" y="8" width="1" height="1"/>
     <rect x="15" y="8" width="1" height="1"/>
     <rect x="0" y="7" width="1" height="1"/>
     <rect x="2" y="7" width="1" height="1"/>
     <rect x="4" y="7" width="1" height="1"/>
     <rect x="6" y="7" width="1" height="1"/>
     <rect x="8" y="7" width="1" height="1"/>
     <rect x="10" y="7" width="1" height="1"/>
     <rect x="12" y="7" width="1" height="1"/>
     <rect x="14" y="7" width="1" height="1"/>
     <rect x="1" y="6" width="1" height="1"/>
     <rect x="3" y="6" width="1" height="1"/>
     <rect x="5" y="6" width="1" height="1"/>
     <rect x="7" y="6" width="1" height="1"/>
     <rect x="9" y="6" width="1" height="1"/>
     <rect x="11" y="6" width="1" height="1"/>
     <rect x="13" y="6" width="1" height="1"/>
     <rect x="15" y="6" width="1" height="1"/>
     <rect x="0" y="5" width="1" height="1"/>
     <rect x="2" y="5" width="1" height="1"/>
     <rect x="4" y="5" width="1" height="1"/>
     <rect x="6" y="5" width="1" height="1"/>
     <rect x="8" y="5" width="1" height="1"/>
     <rect x="10" y="5" width="1" height="1"/>
     <rect x="12" y="5" width="1" height="1"/>
     <rect x="14" y="5" width="1" height="1"/>
     <rect x="1" y="4" width="1" height="1"/>
     <rect x="3" y="4" width="1" height="1"/>
     <rect x="5" y="4" width="1" height="1"/>
     <rect x="7" y="4" width="1" height="1"/>
     <rect x="9" y="4" width="1" height="1"/>
     <rect x="11" y="4" width="1" height="1"/>
     <rect x="13" y="4" width="1" height="1"/>
     <rect x="15" y="4" width="1" height="1"/>
     <rect x="0" y="3" width="1" height="1"/>
     <rect x="2" y="3" width="1" height="1"/>
     <rect x="4" y="3" width="1" height="1"/>
     <rect x="6" y="3" width="1" height="1"/>
     <rect x="8" y="3" width="1" height="1"/>
     <rect x="10" y="3" width="1" height="1"/>
     <rect x="12" y="3" width="1" height="1"/>
     <rect x="14" y="3" width="1" height="1"/>
     <rect x="1" y="2" width="1" height="1"/>
     <rect x="3" y="2" width="1" height="1"/>
     <rect x="5" y="2" width="1" height="1"/>
     <rect x="7" y="2" width="1" height="1"/>
     <rect x="9" y="2" width="1" height="1"/>
     <rect x="11" y="2" width="1" height="1"/>
     <rect x="13" y="2" width="1" height="1"/>
     <rect x="15" y="2" width="1" height="1"/>
     <rect x="0" y="1" width="1" height="1"/>
     <rect x="2" y="1" width="1" height="1"/>
     <rect x="4" y="1" width="1" height="1"/>
     <rect x="6" y="1" width="1" height="1"/>
     <rect x="8" y="1" width="1" height="1"/>
     <rect x="10" y="1" width="1" height="1"/>
     <rect x="12" y="1" width="1" height="1"/>
     <rect x="14" y="1" width="1" height="1"/>
     <rect x="1" y="0" width="1" height="1"/>
     <rect x="3" y="0" width="1" height="1"/>
     <rect x="5" y="0" width="1" height="1"/>
     <rect x="7" y="0" width="1" height="1"/>
     <rect x="9" y="0" width="1" height="1"/>
     <rect x="11" y="0" width="1" height="1"/>
     <rect x="13" y="0" width="1" height="1"/>
     <rect x="15" y="0" width="1" height="1"/>
   </pattern>
   <filter id="tocolor5" filterUnits="objectBoundingBox"
    color-interpolation-filters="sRGB" x="0%" y="0%" width="100%" height="100%">
    <feComponentTransfer>
      <feFuncR type="discrete" tableValues="1.000000 1.000000"/>
      <feFuncG type="discrete" tableValues="1.000000 1.000000"/>
      <feFuncB type="discrete" tableValues="0.000000 1.000000"/>
    </feComponentTransfer>
   </filter>
  </defs>
  <g style="filter:url(#tocolor5); fill:url(#pattern4); fill-rule:nonzero">
   <path  d="M134.8840,326.3470L139.4027,326.3470L143.9215,326.3470L148.4402,326.3470L152.9589,326.3470L157.4776,326.3470L161.9964,326.3470L166.5151,326.3470L171.0338,326.3470L175.5526,326.3470
             L180.0713,326.3470L184.5900,326.3470L189.1088,326.3470L193.6275,326.3470L198.1462,326.3470L202.6649,326.3470L207.1837,326.3470L211.7024,326.3470L216.2211,326.3470L220.7399,326.3470
             L225.2586,326.3470L229.7773,326.3470L234.2961,326.3470L238.8148,326.3470L243.3335,326.3470L247.8522,326.3470L252.3710,326.3470L256.8897,326.3470L261.4084,326.3470L265.9272,326.3470
             L270.4459,326.3470L274.9646,326.3470L279.4833,326.3470L284.0021,326.3470L288.5208,326.3470L293.0395,326.3470L297.5583,326.3470L302.0770,326.3470L306.5957,326.3470L311.1145,326.3470
             L315.6332,326.3470L320.1519,326.3470L324.6706,326.3470L329.1894,326.3470L333.7081,326.3470L338.2268,326.3470L342.7456,326.3470L347.2643,326.3470L351.7830,326.3470L356.3018,326.3470
             L360.8205,326.3470L365.3392,326.3470L369.8579,326.3470L374.3767,326.3470L378.8954,326.3470L383.4141,326.3470L387.9329,326.3470L392.4516,326.3470L396.9703,326.3470L401.4890,326.3470
             L406.0078,326.3470L410.5265,326.3470L415.0452,326.3470L419.5640,326.3470L424.0827,326.3470L428.6014,326.3470L433.1202,326.3470L437.6389,326.3470L442.1576,326.3470L446.6764,326.3470
             L451.1951,326.3470L455.7138,326.3470L460.2325,326.3470L464.7513,326.3470L469.2700,326.3470L473.7887,326.3470L478.3075,326.3470L482.8262,326.3470L487.3449,326.3470L491.8636,326.3470
             L496.3824,326.3470L500.9011,326.3470L505.4198,326.3470L509.9386,326.3470L514.4573,326.3470L518.9760,326.3470L523.4948,326.3470L528.0135,326.3470L532.5322,326.3470L537.0509,326.3470
             L541.5697,326.3470L546.0884,326.3470L550.6071,326.3470L555.1259,326.3470L559.6446,326.3470L564.1633,326.3470L568.6821,326.3470L573.2008,326.3470L577.7195,326.3470L582.2382,326.3470
             L586.7570,326.3470L591.2757,326.3470L595.7944,326.3470L600.3132,326.3470L604.8319,326.3470L609.3506,326.3470L613.8693,326.3470L618.3881,326.3470L622.9068,326.3470L627.4255,326.3470
             L631.9443,326.3470L636.4630,326.3470L640.9817,326.3470L645.5005,326.3470L650.0192,326.3470L654.5379,326.3470L659.0566,326.3470L663.5754,326.3470L668.0941,326.3470L672.6128,326.3470
             L677.1316,326.3470L681.6503,326.3470L686.1690,326.3470L690.6878,326.3470L695.2065,326.3470L699.7252,326.3470L704.2440,326.3470L708.7627,326.3470L713.2814,326.3470L717.8001,326.3470
             L722.3189,326.3470L726.8376,326.3470L731.3563,326.3470L735.8750,326.3470L740.3938,326.3470L744.9125,326.3470L749.4313,326.3470L753.9500,326.3470L758.4687,326.3470L762.9874,326.3470
             L767.5062,326.3470L772.0249,326.3470L776.5436,326.3470L781.0623,326.3470L785.5811,326.3470L790.0998,326.3470L794.6185,326.3470L799.1373,326.3470L803.6560,326.3470L808.1747,326.3470
             L812.6935,326.3470L817.2122,326.3470L821.7309,326.3470L826.2496,326.3470L830.7684,326.3470L835.2871,326.3470L839.8058,326.3470L844.3245,326.3470L848.8433,326.3470L853.3620,326.3470
             L857.8808,326.3470L862.3995,326.3470L866.9182,326.3470L871.4370,326.3470L875.9557,326.3470L880.4744,326.3470L884.9931,326.3470L889.5119,326.3470L894.0306,326.3470L898.5493,326.3470
             L903.0681,326.3470L907.5868,326.3470L912.1055,326.3470L916.6243,326.3470L921.1430,326.3470L925.6617,326.3470L930.1804,326.3470L934.6992,326.3470L939.2179,326.3470L943.7366,326.3470
             L948.2553,326.3470L952.7741,326.3470L957.2928,326.3470L961.8116,326.3470L966.3303,326.3470L970.8490,326.3470L975.3677,326.3470L979.8865,326.3470L984.4052,326.3470L988.9239,326.3470
             L993.4426,326.3470L997.9614,326.3470L1002.4801,326.3470L1006.9988,326.3470L1011.5176,326.3470L1016.0363,326.3470L1020.5550,326.3470L1025.0738,326.3470L1029.5925,326.3470L1034.1112,326.3470
             L1034.1112,381.0639L134.8840,381.0639z"/>
  </g>
  <g style="fill:none; stroke:#000000; stroke-width:  2.6968; stroke-linecap:butt; stroke-linejoin:miter; stroke-dasharray: 3 8">
   <path d="M134.8840,326.3470L139.4027,326.3470L143.9215,326.3470L148.4402,326.3470L152.9589,326.3470L157.4776,326.3470L161.9964,326.3470L166.5151,326.3470L171.0338,326.3470L175.5526,326.3470
            L180.0713,326.3470L184.5900,326.3470L189.1088,326.3470L193.6275,326.3470L198.1462,326.3470L202.6649,326.3470L207.1837,326.3470L211.7024,326.3470L216.2211,326.3470L220.7399,326.3470
            L225.2586,326.3470L229.7773,326.3470L234.2961,326.3470L238.8148,326.3470L243.3335,326.3470L247.8522,326.3470L252.3710,326.3470L256.8897,326.3470L261.4084,326.3470L265.9272,326.3470
            L270.4459,326.3470L274.9646,326.3470L279.4833,326.3470L284.0021,326.3470L288.5208,326.3470L293.0395,326.3470L297.5583,326.3470L302.0770,326.3470L306.5957,326.3470L311.1145,326.3470
            L315.6332,326.3470L320.1519,326.3470L324.6706,326.3470L329.1894,326.3470L333.7081,326.3470L338.2268,326.3470L342.7456,326.3470L347.2643,326.3470L351.7830,326.3470L356.3018,326.3470
            L360.8205,326.3470L365.3392,326.3470L369.8579,326.3470L374.3767,326.3470L378.8954,326.3470L383.4141,326.3470L387.9329,326.3470L392.4516,326.3470L396.9703,326.3470L401.4890,326.3470
            L406.0078,326.3470L410.5265,326.3470L415.0452,326.3470L419.5640,326.3470L424.0827,326.3470L428.6014,326.3470L433.1202,326.3470L437.6389,326.3470L442.1576,326.3470L446.6764,326.3470
            L451.1951,326.3470L455.7138,326.3470L460.2325,326.3470L464.7513,326.3470L469.2700,326.3470L473.7887,326.3470L478.3075,326.3470L482.8262,326.3470L487.3449,326.3470L491.8636,326.3470
            L496.3824,326.3470L500.9011,326.3470L505.4198,326.3470L509.9386,326.3470L514.4573,326.3470L518.9760,326.3470L523.4948,326.3470L528.0135,326.3470L532.5322,326.3470L537.0509,326.3470
            L541.5697,326.3470L546.0884,326.3470L550.6071,326.3470L555.1259,326.3470L559.6446,326.3470L564.1633,326.3470L568.6821,326.3470L573.2008,326.3470L577.7195,326.3470L582.2382,326.3470
            L586.7570,326.3470L591.2757,326.3470L595.7944,326.3470L600.3132,326.3470L604.8319,326.3470L609.3506,326.3470L613.8693,326.3470L618.3881,326.3470L622.9068,326.3470L627.4255,326.3470
            L631.9443,326.3470L636.4630,326.3470L640.9817,326.3470L645.5005,326.3470L650.0192,326.3470L654.5379,326.3470L659.0566,326.3470L663.5754,326.3470L668.0941,326.3470L672.6128,326.3470
            L677.1316,326.3470L681.6503,326.3470L686.1690,326.3470L690.6878,326.3470L695.2065,326.3470L699.7252,326.3470L704.2440,326.3470L708.7627,326.3470L713.2814,326.3470L717.8001,326.3470
            L722.3189,326.3470L726.8376,326.3470L731.3563,326.3470L735.8750,326.3470L740.3938,326.3470L744.9125,326.3470L749.4313,326.3470L753.9500,326.3470L758.4687,326.3470L762.9874,326.3470
            L767.5062,326.3470L772.0249,326.3470L776.5436,326.3470L781.0623,326.3470L785.5811,326.3470L790.0998,326.3470L794.6185,326.3470L799.1373,326.3470L803.6560,326.3470L808.1747,326.3470
            L812.6935,326.3470L817.2122,326.3470L821.7309,326.3470L826.2496,326.3470L830.7684,326.3470L835.2871,326.3470L839.8058,326.3470L844.3245,326.3470L848.8433,326.3470L853.3620,326.3470
            L857.8808,326.3470L862.3995,326.3470L866.9182,326.3470L871.4370,326.3470L875.9557,326.3470L880.4744,326.3470L884.9931,326.3470L889.5119,326.3470L894.0306,326.3470L898.5493,326.3470
            L903.0681,326.3470L907.5868,326.3470L912.1055,326.3470L916.6243,326.3470L921.1430,326.3470L925.6617,326.3470L930.1804,326.3470L934.6992,326.3470L939.2179,326.3470L943.7366,326.3470
            L948.2553,326.3470L952.7741,326.3470L957.2928,326.3470L961.8116,326.3470L966.3303,326.3470L970.8490,326.3470L975.3677,326.3470L979.8865,326.3470L984.4052,326.3470L988.9239,326.3470
            L993.4426,326.3470L997.9614,326.3470L1002.4801,326.3470L1006.9988,326.3470L1011.5176,326.3470L1016.0363,326.3470L1020.5550,326.3470L1025.0738,326.3470L1029.5925,326.3470L1034.1112,326.3470"/>
  </g>
  <g style="filter:url(#tocolor5); fill:url(#pattern4); fill-rule:nonzero">
   <path  d="M134.8840,435.7808L139.4027,435.7808L143.9215,435.7808L148.4402,435.7808L152.9589,435.7808L157.4776,435.7808L161.9964,435.7808L166.5151,435.7808L171.0338,435.7808L175.5526,435.7808
             L180.0713,435.7808L184.5900,435.7808L189.1088,435.7808L193.6275,435.7808L198.1462,435.7808L202.6649,435.7808L207.1837,435.7808L211.7024,435.7808L216.2211,435.7808L220.7399,435.7808
             L225.2586,435.7808L229.7773,435.7808L234.2961,435.7808L238.8148,435.7808L243.3335,435.7808L247.8522,435.7808L252.3710,435.7808L256.8897,435.7808L261.4084,435.7808L265.9272,435.7808
             L270.4459,435.7808L274.9646,435.7808L279.4833,435.7808L284.0021,435.7808L288.5208,435.7808L293.0395,435.7808L297.5583,435.7808L302.0770,435.7808L306.5957,435.7808L311.1145,435.7808
             L315.6332,435.7808L320.1519,435.7808L324.6706,435.7808L329.1894,435.7808L333.7081,435.7808L338.2268,435.7808L342.7456,435.7808L347.2643,435.7808L351.7830,435.7808L356.3018,435.7808
             L360.8205,435.7808L365.3392,435.7808L369.8579,435.7808L374.3767,435.7808L378.8954,435.7808L383.4141,435.7808L387.9329,435.7808L392.4516,435.7808L396.9703,435.7808L401.4890,435.7808
             L406.0078,435.7808L410.5265,435.7808L415.0452,435.7808L419.5640,435.7808L424.0827,435.7808L428.6014,435.7808L433.1202,435.7808L437.6389,435.7808L442.1576,435.7808L446.6764,435.7808
             L451.1951,435.7808L455.7138,435.7808L460.2325,435.7808L464.7513,435.7808L469.2700,435.7808L473.7887,435.7808L478.3075,435.7808L482.8262,435.7808L487.3449,435.7808L491.8636,435.7808
             L496.3824,435.7808L500.9011,435.7808L505.4198,435.7808L509.9386,435.7808L514.4573,435.7808L518.9760,435.7808L523.4948,435.7808L528.0135,435.7808L532.5322,435.7808L537.0509,435.7808
             L541.5697,435.7808L546.0884,435.7808L550.6071,435.7808L555.1259,435.7808L559.6446,435.7808L564.1633,435.7808L568.6821,435.7808L573.2008,435.7808L577.7195,435.7808L582.2382,435.7808
             L586.7570,435.7808L591.2757,435.7808L595.7944,435.7808L600.3132,435.7808L604.8319,435.7808L609.3506,435.7808L613.8693,435.7808L618.3881,435.7808L622.9068,435.7808L627.4255,435.7808
             L631.9443,435.7808L636.4630,435.7808L640.9817,435.7808L645.5005,435.7808L650.0192,435.7808L654.5379,435.7808L659.0566,435.7808L663.5754,435.7808L668.0941,435.7808L672.6128,435.7808
             L677.1316,435.7808L681.6503,435.7808L686.1690,435.7808L690.6878,435.7808L695.2065,435.7808L699.7252,435.7808L704.2440,435.7808L708.7627,435.7808L713.2814,435.7808L717.8001,435.7808
             L722.3189,435.7808L726.8376,435.7808L731.3563,435.7808L735.8750,435.7808L740.3938,435.7808L744.9125,435.7808L749.4313,435.7808L753.9500,435.7808L758.4687,435.7808L762.9874,435.7808
             L767.5062,435.7808L772.0249,435.7808L776.5436,435.7808L781.0623,435.7808L785.5811,435.7808L790.0998,435.7808L794.6185,435.7808L799.1373,435.7808L803.6560,435.7808L808.1747,435.7808
             L812.6935,435.7808L817.2122,435.7808L821.7309,435.7808L826.2496,435.7808L830.7684,435.7808L835.2871,435.7808L839.8058,435.7808L844.3245,435.7808L848.8433,435.7808L853.3620,435.7808
             L857.8808,435.7808L862.3995,435.7808L866.9182,435.7808L871.4370,435.7808L875.9557,435.7808L880.4744,435.7808L884.9931,435.7808L889.5119,435.7808L894.0306,435.7808L898.5493,435.7808
             L903.0681,435.7808L907.5868,435.7808L912.1055,435.7808L916.6243,435.7808L921.1430,435.7808L925.6617,435.7808L930.1804,435.7808L934.6992,435.7808L939.2179,435.7808L943.7366,435.7808
             L948.2553,435.7808L952.7741,435.7808L957.2928,435.7808L961.8116,435.7808L966.3303,435.7808L970.8490,435.7808L975.3677,435.7808L979.8865,435.7808L984.4052,435.7808L988.9239,435.7808
             L993.4426,435.7808L997.9614,435.7808L1002.4801,435.7808L1006.9988,435.7808L1011.5176,435.7808L1016.0363,435.7808L1020.5550,435.7808L1025.0738,435.7808L1029.5925,435.7808L1034.1112,435.7808
             L1034.1112,381.0639L134.8840,381.0639z"/>
  </g>
  <g style="fill:none; stroke:#000000; stroke-width:  2.6968; stroke-linecap:butt; stroke-linejoin:miter; stroke-dasharray: 3 8">
   <path d="M134.8840,435.7808L139.4027,435.7808L143.9215,435.7808L148.4402,435.7808L152.9589,435.7808L157.4776,435.7808L161.9964,435.7808L166.5151,435.7808L171.0338,435.7808L175.5526,435.7808
            L180.0713,435.7808L184.5900,435.7808L189.1088,435.7808L193.6275,435.7808L198.1462,435.7808L202.6649,435.7808L207.1837,435.7808L211.7024,435.7808L216.2211,435.7808L220.7399,435.7808
            L225.2586,435.7808L229.7773,435.7808L234.2961,435.7808L238.8148,435.7808L243.3335,435.7808L247.8522,435.7808L252.3710,435.7808L256.8897,435.7808L261.4084,435.7808L265.9272,435.7808
            L270.4459,435.7808L274.9646,435.7808L279.4833,435.7808L284.0021,435.7808L288.5208,435.7808L293.0395,435.7808L297.5583,435.7808L302.0770,435.7808L306.5957,435.7808L311.1145,435.7808
            L315.6332,435.7808L320.1519,435.7808L324.6706,435.7808L329.1894,435.7808L333.7081,435.7808L338.2268,435.7808L342.7456,435.7808L347.2643,435.7808L351.7830,435.7808L356.3018,435.7808
            L360.8205,435.7808L365.3392,435.7808L369.8579,435.7808L374.3767,435.7808L378.8954,435.7808L383.4141,435.7808L387.9329,435.7808L392.4516,435.7808L396.9703,435.7808L401.4890,435.7808
            L406.0078,435.7808L410.5265,435.7808L415.0452,435.7808L419.5640,435.7808L424.0827,435.7808L428.6014,435.7808L433.1202,435.7808L437.6389,435.7808L442.1576,435.7808L446.6764,435.7808
            L451.1951,435.7808L455.7138,435.7808L460.2325,435.7808L464.7513,435.7808L469.2700,435.7808L473.7887,435.7808L478.3075,435.7808L482.8262,435.7808L487.3449,435.7808L491.8636,435.7808
            L496.3824,435.7808L500.9011,435.7808L505.4198,435.7808L509.9386,435.7808L514.4573,435.7808L518.9760,435.7808L523.4948,435.7808L528.0135,435.7808L532.5322,435.7808L537.0509,435.7808
            L541.5697,435.7808L546.0884,435.7808L550.6071,435.7808L555.1259,435.7808L559.6446,435.7808L564.1633,435.7808L568.6821,435.7808L573.2008,435.7808L577.7195,435.7808L582.2382,435.7808
            L586.7570,435.7808L591.2757,435.7808L595.7944,435.7808L600.3132,435.7808L604.8319,435.7808L609.3506,435.7808L613.8693,435.7808L618.3881,435.7808L622.9068,435.7808L627.4255,435.7808
            L631.9443,435.7808L636.4630,435.7808L640.9817,435.7808L645.5005,435.7808L650.0192,435.7808L654.5379,435.7808L659.0566,435.7808L663.5754,435.7808L668.0941,435.7808L672.6128,435.7808
            L677.1316,435.7808L681.6503,435.7808L686.1690,435.7808L690.6878,435.7808L695.2065,435.7808L699.7252,435.7808L704.2440,435.7808L708.7627,435.7808L713.2814,435.7808L717.8001,435.7808
            L722.3189,435.7808L726.8376,435.7808L731.3563,435.7808L735.8750,435.7808L740.3938,435.7808L744.9125,435.7808L749.4313,435.7808L753.9500,435.7808L758.4687,435.7808L762.9874,435.7808
            L767.5062,435.7808L772.0249,435.7808L776.5436,435.7808L781.0623,435.7808L785.5811,435.7808L790.0998,435.7808L794.6185,435.7808L799.1373,435.7808L803.6560,435.7808L808.1747,435.7808
            L812.6935,435.7808L817.2122,435.7808L821.7309,435.7808L826.2496,435.7808L830.7684,435.7808L835.2871,435.7808L839.8058,435.7808L844.3245,435.7808L848.8433,435.7808L853.3620,435.7808
            L857.8808,435.7808L862.3995,435.7808L866.9182,435.7808L871.4370,435.7808L875.9557,435.7808L880.4744,435.7808L884.9931,435.7808L889.5119,435.7808L894.0306,435.7808L898.5493,435.7808
            L903.0681,435.7808L907.5868,435.7808L912.1055,435.7808L916.6243,435.7808L921.1430,435.7808L925.6617,435.7808L930.1804,435.7808L934.6992,435.7808L939.2179,435.7808L943.7366,435.7808
            L948.2553,435.7808L952.7741,435.7808L957.2928,435.7808L961.8116,435.7808L966.3303,435.7808L970.8490,435.7808L975.3677,435.7808L979.8865,435.7808L984.4052,435.7808L988.9239,435.7808
            L993.4426,435.7808L997.9614,435.7808L1002.4801,435.7808L1006.9988,435.7808L1011.5176,435.7808L1016.0363,435.7808L1020.5550,435.7808L1025.0738,435.7808L1029.5925,435.7808L1034.1112,435.7808"/>
   <path d="M134.8840,381.0639L139.4027,381.0639L143.9215,381.0639L148.4402,381.0639L152.9589,381.0639L157.4776,381.0639L161.9964,381.0639L166.5151,381.0639L171.0338,381.0639L175.5526,381.0639
            L180.0713,381.0639L184.5900,381.0639L189.1088,381.0639L193.6275,381.0639L198.1462,381.0639L202.6649,381.0639L207.1837,381.0639L211.7024,381.0639L216.2211,381.0639L220.7399,381.0639
            L225.2586,381.0639L229.7773,381.0639L234.2961,381.0639L238.8148,381.0639L243.3335,381.0639L247.8522,381.0639L252.3710,381.0639L256.8897,381.0639L261.4084,381.0639L265.9272,381.0639
            L270.4459,381.0639L274.9646,381.0639L279.4833,381.0639L284.0021,381.0639L288.5208,381.0639L293.0395,381.0639L297.5583,381.0639L302.0770,381.0639L306.5957,381.0639L311.1145,381.0639
            L315.6332,381.0639L320.1519,381.0639L324.6706,381.0639L329.1894,381.0639L333.7081,381.0639L338.2268,381.0639L342.7456,381.0639L347.2643,381.0639L351.7830,381.0639L356.3018,381.0639
            L360.8205,381.0639L365.3392,381.0639L369.8579,381.0639L374.3767,381.0639L378.8954,381.0639L383.4141,381.0639L387.9329,381.0639L392.4516,381.0639L396.9703,381.0639L401.4890,381.0639
            L406.0078,381.0639L410.5265,381.0639L415.0452,381.0639L419.5640,381.0639L424.0827,381.0639L428.6014,381.0639L433.1202,381.0639L437.6389,381.0639L442.1576,381.0639L446.6764,381.0639
            L451.1951,381.0639L455.7138,381.0639L460.2325,381.0639L464.7513,381.0639L469.2700,381.0639L473.7887,381.0639L478.3075,381.0639L482.8262,381.0639L487.3449,381.0639L491.8636,381.0639
            L496.3824,381.0639L500.9011,381.0639L505.4198,381.0639L509.9386,381.0639L514.4573,381.0639L518.9760,381.0639L523.4948,381.0639L528.0135,381.0639L532.5322,381.0639L537.0509,381.0639
            L541.5697,381.0639L546.0884,381.0639L550.6071,381.0639L555.1259,381.0639L559.6446,381.0639L564.1633,381.0639L568.6821,381.0639L573.2008,381.0639L577.7195,381.0639L582.2382,381.0639
            L586.7570,381.0639L591.2757,381.0639L595.7944,381.0639L600.3132,381.0639L604.8319,381.0639L609.3506,381.0639L613.8693,381.0639L618.3881,381.0639L622.9068,381.0639L627.4255,381.0639
            L631.9443,381.0639L636.4630,381.0639L640.9817,381.0639L645.5005,381.0639L650.0192,381.0639L654.5379,381.0639L659.0566,381.0639L663.5754,381.0639L668.0941,381.0639L672.6128,381.0639
            L677.1316,381.0639L681.6503,381.0639L686.1690,381.0639L690.6878,381.0639L695.2065,381.0639L699.7252,381.0639L704.2440,381.0639L708.7627,381.0639L713.2814,381.0639L717.8001,381.0639
            L722.3189,381.0639L726.8376,381.0639L731.3563,381.0639L735.8750,381.0639L740.3938,381.0639L744.9125,381.0639L749.4313,381.0639L753.9500,381.0639L758.4687,381.0639L762.9874,381.0639
            L767.5062,381.0639L772.0249,381.0639L776.5436,381.0639L781.0623,381.0639L785.5811,381.0639L790.0998,381.0639L794.6185,381.0639L799.1373,381.0639L803.6560,381.0639L808.1747,381.0639
            L812.6935,381.0639L817.2122,381.0639L821.7309,381.0639L826.2496,381.0639L830.7684,381.0639L835.2871,381.0639L839.8058,381.0639L844.3245,381.0639L848.8433,381.0639L853.3620,381.0639
            L857.8808,381.0639L862.3995,381.0639L866.9182,381.0639L871.4370,381.0639L875.9557,381.0639L880.4744,381.0639L884.9931,381.0639L889.5119,381.0639L894.0306,381.0639L898.5493,381.0639
            L903.0681,381.0639L907.5868,381.0639L912.1055,381.0639L916.6243,381.0639L921.1430,381.0639L925.6617,381.0639L930.1804,381.0639L934.6992,381.0639L939.2179,381.0639L943.7366,381.0639
            L948.2553,381.0639L952.7741,381.0639L957.2928,381.0639L961.8116,381.0639L966.3303,381.0639L970.8490,381.0639L975.3677,381.0639L979.8865,381.0639L984.4052,381.0639L988.9239,381.0639
            L993.4426,381.0639L997.9614,381.0639L1002.4801,381.0639L1006.9988,381.0639L1011.5176,381.0639L1016.0363,381.0639L1020.5550,381.0639L1025.0738,381.0639L1029.5925,381.0639L1034.1112,381.0639"/>
  </g>
  <g style="fill:none; stroke:#008B00; stroke-width:  2.6968; stroke-linecap:butt; stroke-linejoin:miter; stroke-dasharray:none">
   <path d="M179.8454,161.4667L224.8067,172.2458L224.8067,172.3700L269.7681,186.3853L269.7681,186.2611L314.7294,202.8878L359.6908,551.1768L404.6522,550.0146L449.6135,568.9264L494.5749,568.5908
            L539.5362,593.4638L584.4976,576.6262L629.4590,576.3961L674.4203,618.7085L719.3817,588.2568L764.3431,686.1825L809.3044,647.4701L854.2658,617.9684L899.2271,694.0383L944.1885,719.7422
            L989.1499,649.4431L1034.1112,670.5842"/>
  </g>
  <g style="fill:#008B00; fill-rule:nonzero">
   <ellipse  rx="4.4946" ry="4.4946" cx="179.8454" cy="161.4667"/>
  </g>
  <g style="fill:none; stroke:#008B00; stroke-width:  2.6968; stroke-linecap:butt; stroke-linejoin:miter; stroke-dasharray:none">
   <ellipse  rx="4.4946" ry="4.4946" cx="179.8454" cy="161.4667"/>
  </g>
  <g style="fill:#008B00; fill-rule:nonzero">
   <ellipse  rx="4.4946" ry="4.4946" cx="224.8067" cy="172.2458"/>
  </g>
  <g style="fill:none; stroke:#008B00; stroke-width:  2.6968; stroke-linecap:butt; stroke-linejoin:miter; stroke-dasharray:none">
   <ellipse  rx="4.4946" ry="4.4946" cx="224.8067" cy="172.2458"/>
  </g>
  <g style="fill:#008B00; fill-rule:nonzero">
   <ellipse  rx="4.4946" ry="4.4946" cx="224.8067" cy="172.3700"/>
  </g>
  <g style="fill:none; stroke:#008B00; stroke-width:  2.6968; stroke-linecap:butt; stroke-linejoin:miter; stroke-dasharray:none">
   <ellipse  rx="4.4946" ry="4.4946" cx="224.8067" cy="172.3700"/>
  </g>
  <g style="fill:#008B00; fill-rule:nonzero">
   <ellipse  rx="4.4946" ry="4.4946" cx="269.7681" cy="186.3853"/>
  </g>
  <g style="fill:none; stroke:#008B00; stroke-width:  2.6968; stroke-linecap:butt; stroke-linejoin:miter; stroke-dasharray:none">
   <ellipse  rx="4.4946" ry="4.4946" cx="269.7681" cy="186.3853"/>
  </g>
  <g style="fill:#008B00; fill-rule:nonzero">
   <ellipse  rx="4.4946" ry="4.4946" cx="269.7681" cy="186.2611"/>
  </g>
  <g style="fill:none; stroke:#008B00; stroke-width:  2.6968; stroke-linecap:butt; stroke-linejoin:miter; stroke-dasharray:none">
   <ellipse  rx="4.4946" ry="4.4946" cx="269.7681" cy="186.2611"/>
  </g>
  <g style="fill:#008B00; fill-rule:nonzero">
   <ellipse  rx="4.4946" ry="4.4946" cx="314.7294" cy="202.8878"/>
  </g>
  <g style="fill:none; stroke:#008B00; stroke-width:  2.6968; stroke-linecap:butt; stroke-linejoin:miter; stroke-dasharray:none">
   <ellipse  rx="4.4946" ry="4.4946" cx="314.7294" cy="202.8878"/>
  </g>
  <g style="fill:#008B00; fill-rule:nonzero">
   <ellipse  rx="4.4946" ry="4.4946" cx="359.6908" cy="551.1768"/>
  </g>
  <g style="fill:none; stroke:#008B00; stroke-width:  2.6968; stroke-linecap:butt; stroke-linejoin:miter; stroke-dasharray:none">
   <ellipse  rx="4.4946" ry="4.4946" cx="359.6908" cy="551.1768"/>
  </g>
  <g style="fill:#008B00; fill-rule:nonzero">
   <ellipse  rx="4.4946" ry="4.4946" cx="404.6522" cy="550.0146"/>
  </g>
  <g style="fill:none; stroke:#008B00; stroke-width:  2.6968; stroke-linecap:butt; stroke-linejoin:miter; stroke-dasharray:none">
   <ellipse  rx="4.4946" ry="4.4946" cx="404.6522" cy="550.0146"/>
  </g>
  <g style="fill:#008B00; fill-rule:nonzero">
   <ellipse  rx="4.4946" ry="4.4946" cx="449.6135" cy="568.9264"/>
  </g>
  <g style="fill:none; stroke:#008B00; stroke-width:  2.6968; stroke-linecap:butt; stroke-linejoin:miter; stroke-dasharray:none">
   <ellipse  rx="4.4946" ry="4.4946" cx="449.6135" cy="568.9264"/>
  </g>
  <g style="fill:#008B00; fill-rule:nonzero">
   <ellipse  rx="4.4946" ry="4.4946" cx="494.5749" cy="568.5908"/>
  </g>
  <g style="fill:none; stroke:#008B00; stroke-width:  2.6968; stroke-linecap:butt; stroke-linejoin:miter; stroke-dasharray:none">
   <ellipse  rx="4.4946" ry="4.4946" cx="494.5749" cy="568.5908"/>
  </g>
  <g style="fill:#008B00; fill-rule:nonzero">
   <ellipse  rx="4.4946" ry="4.4946" cx="539.5362" cy="593.4638"/>
  </g>
  <g style="fill:none; stroke:#008B00; stroke-width:  2.6968; stroke-linecap:butt; stroke-linejoin:miter; stroke-dasharray:none">
   <ellipse  rx="4.4946" ry="4.4946" cx="539.5362" cy="593.4638"/>
  </g>
  <g style="fill:#008B00; fill-rule:nonzero">
   <ellipse  rx="4.4946" ry="4.4946" cx="584.4976" cy="576.6262"/>
  </g>
  <g style="fill:none; stroke:#008B00; stroke-width:  2.6968; stroke-linecap:butt; stroke-linejoin:miter; stroke-dasharray:none">
   <ellipse  rx="4.4946" ry="4.4946" cx="584.4976" cy="576.6262"/>
  </g>
  <g style="fill:#008B00; fill-rule:nonzero">
   <ellipse  rx="4.4946" ry="4.4946" cx="629.4590" cy="576.3961"/>
  </g>
  <g style="fill:none; stroke:#008B00; stroke-width:  2.6968; stroke-linecap:butt; stroke-linejoin:miter; stroke-dasharray:none">
   <ellipse  rx="4.4946" ry="4.4946" cx="629.4590" cy="576.3961"/>
  </g>
  <g style="fill:#008B00; fill-rule:nonzero">
   <ellipse  rx="4.4946" ry="4.4946" cx="674.4203" cy="618.7085"/>
  </g>
  <g style="fill:none; stroke:#008B00; stroke-width:  2.6968; stroke-linecap:butt; stroke-linejoin:miter; stroke-dasharray:none">
   <ellipse  rx="4.4946" ry="4.4946" cx="674.4203" cy="618.7085"/>
  </g>
  <g style="fill:#008B00; fill-rule:nonzero">
   <ellipse  rx="4.4946" ry="4.4946" cx="719.3817" cy="588.2568"/>
  </g>
  <g style="fill:none; stroke:#008B00; stroke-width:  2.6968; stroke-linecap:butt; stroke-linejoin:miter; stroke-dasharray:none">
   <ellipse  rx="4.4946" ry="4.4946" cx="719.3817" cy="588.2568"/>
  </g>
  <g style="fill:#008B00; fill-rule:nonzero">
   <ellipse  rx="4.4946" ry="4.4946" cx="764.3431" cy="686.1825"/>
  </g>
  <g style="fill:none; stroke:#008B00; stroke-width:  2.6968; stroke-linecap:butt; stroke-linejoin:miter; stroke-dasharray:none">
   <ellipse  rx="4.4946" ry="4.4946" cx="764.3431" cy="686.1825"/>
  </g>
  <g style="fill:#008B00; fill-rule:nonzero">
   <ellipse  rx="4.4946" ry="4.4946" cx="809.3044" cy="647.4701"/>
  </g>
  <g style="fill:none; stroke:#008B00; stroke-width:  2.6968; stroke-linecap:butt; stroke-linejoin:miter; stroke-dasharray:none">
   <ellipse  rx="4.4946" ry="4.4946" cx="809.3044" cy="647.4701"/>
  </g>
  <g style="fill:#008B00; fill-rule:nonzero">
   <ellipse  rx="4.4946" ry="4.4946" cx="854.2658" cy="617.9684"/>
  </g>
  <g style="fill:none; stroke:#008B00; stroke-width:  2.6968; stroke-linecap:butt; stroke-linejoin:miter; stroke-dasharray:none">
   <ellipse  rx="4.4946" ry="4.4946" cx="854.2658" cy="617.9684"/>
  </g>
  <g style="fill:#008B00; fill-rule:nonzero">
   <ellipse  rx="4.4946" ry="4.4946" cx="899.2271" cy="694.0383"/>
  </g>
  <g style="fill:none; stroke:#008B00; stroke-width:  2.6968; stroke-linecap:butt; stroke-linejoin:miter; stroke-dasharray:none">
   <ellipse  rx="4.4946" ry="4.4946" cx="899.2271" cy="694.0383"/>
  </g>
  <g style="fill:#008B00; fill-rule:nonzero">
   <ellipse  rx="4.4946" ry="4.4946" cx="944.1885" cy="719.7422"/>
  </g>
  <g style="fill:none; stroke:#008B00; stroke-width:  2.6968; stroke-linecap:butt; stroke-linejoin:miter; stroke-dasharray:none">
   <ellipse  rx="4.4946" ry="4.4946" cx="944.1885" cy="719.7422"/>
  </g>
  <g style="fill:#008B00; fill-rule:nonzero">
   <ellipse  rx="4.4946" ry="4.4946" cx="989.1499" cy="649.4431"/>
  </g>
  <g style="fill:none; stroke:#008B00; stroke-width:  2.6968; stroke-linecap:butt; stroke-linejoin:miter; stroke-dasharray:none">
   <ellipse  rx="4.4946" ry="4.4946" cx="989.1499" cy="649.4431"/>
  </g>
  <g style="fill:#008B00; fill-rule:nonzero">
   <ellipse  rx="4.4946" ry="4.4946" cx="1034.1112" cy="670.5842"/>
  </g>
  <g style="fill:none; stroke:#008B00; stroke-width:  2.6968; stroke-linecap:butt; stroke-linejoin:miter; stroke-dasharray:none">
   <ellipse  rx="4.4946" ry="4.4946" cx="1034.1112" cy="670.5842"/>
  </g>
  <g style="fill:none; stroke:#FF0000; stroke-width:  2.6968; stroke-linecap:butt; stroke-linejoin:miter; stroke-dasharray:none">
   <path d="M179.8454,425.7204L224.8067,469.6528L269.7681,542.0300L314.7294,491.1158L359.6908,565.3729L404.6522,438.2879L449.6135,547.0526L494.5749,503.5385L539.5362,547.6830L584.4976,620.1636
            L629.4590,612.4894L674.4203,634.6801"/>
  </g>
  <g style="fill:#FF0000; fill-rule:nonzero">
   <ellipse  rx="4.4946" ry="4.4946" cx="179.8454" cy="425.7204"/>
  </g>
  <g style="fill:none; stroke:#FF0000; stroke-width:  2.6968; stroke-linecap:butt; stroke-linejoin:miter; stroke-dasharray:none">
   <ellipse  rx="4.4946" ry="4.4946" cx="179.8454" cy="425.7204"/>
  </g>
  <g style="fill:#FF0000; fill-rule:nonzero">
   <ellipse  rx="4.4946" ry="4.4946" cx="224.8067" cy="469.6528"/>
  </g>
  <g style="fill:none; stroke:#FF0000; stroke-width:  2.6968; stroke-linecap:butt; stroke-linejoin:miter; stroke-dasharray:none">
   <ellipse  rx="4.4946" ry="4.4946" cx="224.8067" cy="469.6528"/>
  </g>
  <g style="fill:#FF0000; fill-rule:nonzero">
   <ellipse  rx="4.4946" ry="4.4946" cx="269.7681" cy="542.0300"/>
  </g>
  <g style="fill:none; stroke:#FF0000; stroke-width:  2.6968; stroke-linecap:butt; stroke-linejoin:miter; stroke-dasharray:none">
   <ellipse  rx="4.4946" ry="4.4946" cx="269.7681" cy="542.0300"/>
  </g>
  <g style="fill:#FF0000; fill-rule:nonzero">
   <ellipse  rx="4.4946" ry="4.4946" cx="314.7294" cy="491.1158"/>
  </g>
  <g style="fill:none; stroke:#FF0000; stroke-width:  2.6968; stroke-linecap:butt; stroke-linejoin:miter; stroke-dasharray:none">
   <ellipse  rx="4.4946" ry="4.4946" cx="314.7294" cy="491.1158"/>
  </g>
  <g style="fill:#FF0000; fill-rule:nonzero">
   <ellipse  rx="4.4946" ry="4.4946" cx="359.6908" cy="565.3729"/>
  </g>
  <g style="fill:none; stroke:#FF0000; stroke-width:  2.6968; stroke-linecap:butt; stroke-linejoin:miter; stroke-dasharray:none">
   <ellipse  rx="4.4946" ry="4.4946" cx="359.6908" cy="565.3729"/>
  </g>
  <g style="fill:#FF0000; fill-rule:nonzero">
   <ellipse  rx="4.4946" ry="4.4946" cx="404.6522" cy="438.2879"/>
  </g>
  <g style="fill:none; stroke:#FF0000; stroke-width:  2.6968; stroke-linecap:butt; stroke-linejoin:miter; stroke-dasharray:none">
   <ellipse  rx="4.4946" ry="4.4946" cx="404.6522" cy="438.2879"/>
  </g>
  <g style="fill:#FF0000; fill-rule:nonzero">
   <ellipse  rx="4.4946" ry="4.4946" cx="449.6135" cy="547.0526"/>
  </g>
  <g style="fill:none; stroke:#FF0000; stroke-width:  2.6968; stroke-linecap:butt; stroke-linejoin:miter; stroke-dasharray:none">
   <ellipse  rx="4.4946" ry="4.4946" cx="449.6135" cy="547.0526"/>
  </g>
  <g style="fill:#FF0000; fill-rule:nonzero">
   <ellipse  rx="4.4946" ry="4.4946" cx="494.5749" cy="503.5385"/>
  </g>
  <g style="fill:none; stroke:#FF0000; stroke-width:  2.6968; stroke-linecap:butt; stroke-linejoin:miter; stroke-dasharray:none">
   <ellipse  rx="4.4946" ry="4.4946" cx="494.5749" cy="503.5385"/>
  </g>
  <g style="fill:#FF0000; fill-rule:nonzero">
   <ellipse  rx="4.4946" ry="4.4946" cx="539.5362" cy="547.6830"/>
  </g>
  <g style="fill:none; stroke:#FF0000; stroke-width:  2.6968; stroke-linecap:butt; stroke-linejoin:miter; stroke-dasharray:none">
   <ellipse  rx="4.4946" ry="4.4946" cx="539.5362" cy="547.6830"/>
  </g>
  <g style="fill:#FF0000; fill-rule:nonzero">
   <ellipse  rx="4.4946" ry="4.4946" cx="584.4976" cy="620.1636"/>
  </g>
  <g style="fill:none; stroke:#FF0000; stroke-width:  2.6968; stroke-linecap:butt; stroke-linejoin:miter; stroke-dasharray:none">
   <ellipse  rx="4.4946" ry="4.4946" cx="584.4976" cy="620.1636"/>
  </g>
  <g style="fill:#FF0000; fill-rule:nonzero">
   <ellipse  rx="4.4946" ry="4.4946" cx="629.4590" cy="612.4894"/>
  </g>
  <g style="fill:none; stroke:#FF0000; stroke-width:  2.6968; stroke-linecap:butt; stroke-linejoin:miter; stroke-dasharray:none">
   <ellipse  rx="4.4946" ry="4.4946" cx="629.4590" cy="612.4894"/>
  </g>
  <g style="fill:#FF0000; fill-rule:nonzero">
   <ellipse  rx="4.4946" ry="4.4946" cx="674.4203" cy="634.6801"/>
  </g>
  <g style="fill:none; stroke:#FF0000; stroke-width:  2.6968; stroke-linecap:butt; stroke-linejoin:miter; stroke-dasharray:none">
   <ellipse  rx="4.4946" ry="4.4946" cx="674.4203" cy="634.6801"/>
  </g>
  <g style="fill:none; stroke:#000000; stroke-width:  2.6968; stroke-linecap:butt; stroke-linejoin:miter; stroke-dasharray:none">
   <path d="M134.8840,134.8380L1034.1112,134.8380"/>
   <path d="M134.8840,764.0820L1034.1112,764.0820"/>
   <path d="M179.8454,134.8380L179.8454,143.8272"/>
   <path d="M179.8454,764.0820L179.8454,755.0928"/>
   <path d="M269.7681,134.8380L269.7681,143.8272"/>
   <path d="M269.7681,764.0820L269.7681,755.0928"/>
   <path d="M359.6908,134.8380L359.6908,143.8272"/>
   <path d="M359.6908,764.0820L359.6908,755.0928"/>
   <path d="M449.6135,134.8380L449.6135,143.8272"/>
   <path d="M449.6135,764.0820L449.6135,755.0928"/>
   <path d="M539.5362,134.8380L539.5362,143.8272"/>
   <path d="M539.5362,764.0820L539.5362,755.0928"/>
   <path d="M629.4590,134.8380L629.4590,143.8272"/>
   <path d="M629.4590,764.0820L629.4590,755.0928"/>
   <path d="M719.3817,134.8380L719.3817,143.8272"/>
   <path d="M719.3817,764.0820L719.3817,755.0928"/>
   <path d="M809.3044,134.8380L809.3044,143.8272"/>
   <path d="M809.3044,764.0820L809.3044,755.0928"/>
   <path d="M899.2271,134.8380L899.2271,143.8272"/>
   <path d="M899.2271,764.0820L899.2271,755.0928"/>
   <path d="M989.1499,134.8380L989.1499,143.8272"/>
   <path d="M989.1499,764.0820L989.1499,755.0928"/>
   <path d="M134.8840,134.8380L134.8840,148.3218"/>
   <path d="M134.8840,764.0820L134.8840,750.5982"/>
   <path d="M224.8067,134.8380L224.8067,148.3218"/>
   <path d="M224.8067,764.0820L224.8067,750.5982"/>
   <path d="M314.7294,134.8380L314.7294,148.3218"/>
   <path d="M314.7294,764.0820L314.7294,750.5982"/>
   <path d="M404.6522,134.8380L404.6522,148.3218"/>
   <path d="M404.6522,764.0820L404.6522,750.5982"/>
   <path d="M494.5749,134.8380L494.5749,148.3218"/>
   <path d="M494.5749,764.0820L494.5749,750.5982"/>
   <path d="M584.4976,134.8380L584.4976,148.3218"/>
   <path d="M584.4976,764.0820L584.4976,750.5982"/>
   <path d="M674.4203,134.8380L674.4203,148.3218"/>
   <path d="M674.4203,764.0820L674.4203,750.5982"/>
   <path d="M764.3431,134.8380L764.3431,148.3218"/>
   <path d="M764.3431,764.0820L764.3431,750.5982"/>
   <path d="M854.2658,134.8380L854.2658,148.3218"/>
   <path d="M854.2658,764.0820L854.2658,750.5982"/>
   <path d="M944.1885,134.8380L944.1885,148.3218"/>
   <path d="M944.1885,764.0820L944.1885,750.5982"/>
   <path d="M1034.1112,134.8380L1034.1112,148.3218"/>
   <path d="M1034.1112,764.0820L1034.1112,750.5982"/>
  </g>
  <g style="fill:#000000; fill-rule:nonzero">
   <text   style="font-family:'Times','Nimbus Roman No9 L'; font-style:normal; font-weight:bold; font-size:898.9200" transform="matrix(0.0280,0.0000,-0.0000,-0.0280,128.9440,108.5688)">0</text>
   <text   style="font-family:'Times','Nimbus Roman No9 L'; font-style:normal; font-weight:bold; font-size:898.9200" transform="matrix(0.0280,0.0000,-0.0000,-0.0280,218.8667,108.5688)">2</text>
   <text   style="font-family:'Times','Nimbus Roman No9 L'; font-style:normal; font-weight:bold; font-size:898.9200" transform="matrix(0.0280,0.0000,-0.0000,-0.0280,308.7894,108.5688)">4</text>
   <text   style="font-family:'Times','Nimbus Roman No9 L'; font-style:normal; font-weight:bold; font-size:898.9200" transform="matrix(0.0280,0.0000,-0.0000,-0.0280,398.7122,108.5688)">6</text>
   <text   style="font-family:'Times','Nimbus Roman No9 L'; font-style:normal; font-weight:bold; font-size:898.9200" transform="matrix(0.0280,0.0000,-0.0000,-0.0280,488.6349,108.5688)">8</text>
   <text   style="font-family:'Times','Nimbus Roman No9 L'; font-style:normal; font-weight:bold; font-size:898.9200" transform="matrix(0.0280,0.0000,-0.0000,-0.0280,572.2576,108.5688)">10</text>
   <text   style="font-family:'Times','Nimbus Roman No9 L'; font-style:normal; font-weight:bold; font-size:898.9200" transform="matrix(0.0280,0.0000,-0.0000,-0.0280,662.1803,108.5688)">12</text>
   <text   style="font-family:'Times','Nimbus Roman No9 L'; font-style:normal; font-weight:bold; font-size:898.9200" transform="matrix(0.0280,0.0000,-0.0000,-0.0280,752.1031,108.5688)">14</text>
   <text   style="font-family:'Times','Nimbus Roman No9 L'; font-style:normal; font-weight:bold; font-size:898.9200" transform="matrix(0.0280,0.0000,-0.0000,-0.0280,842.0258,108.5688)">16</text>
   <text   style="font-family:'Times','Nimbus Roman No9 L'; font-style:normal; font-weight:bold; font-size:898.9200" transform="matrix(0.0280,0.0000,-0.0000,-0.0280,931.9485,108.5688)">18</text>
   <text   style="font-family:'Times','Nimbus Roman No9 L'; font-style:normal; font-weight:bold; font-size:898.9200" transform="matrix(0.0280,0.0000,-0.0000,-0.0280,1021.8712,108.5688)">20</text>
   <text   style="font-family:'Times','Nimbus Roman No9 L'; font-style:normal; font-weight:bold; font-size:898.9200" transform="matrix(0.0280,0.0000,-0.0000,-0.0280,469.2976,81.9396)">Number of Hydrogen</text>
  </g>
  <g style="fill:none; stroke:#000000; stroke-width:  1.3484; stroke-linecap:butt; stroke-linejoin:miter; stroke-dasharray:none">
   <path d="M134.8840,134.8380L134.8840,764.0820"/>
   <path d="M1034.1112,134.8380L1034.1112,764.0820"/>
  </g>
  <g style="fill:none; stroke:#000000; stroke-width:  2.6968; stroke-linecap:butt; stroke-linejoin:miter; stroke-dasharray:none">
   <path d="M134.8840,134.8380L139.3786,134.8380"/>
   <path d="M1034.1112,134.8380L1029.6166,134.8380"/>
   <path d="M134.8840,189.5549L139.3786,189.5549"/>
   <path d="M1034.1112,189.5549L1029.6166,189.5549"/>
   <path d="M134.8840,244.2717L139.3786,244.2717"/>
   <path d="M1034.1112,244.2717L1029.6166,244.2717"/>
   <path d="M134.8840,298.9886L139.3786,298.9886"/>
   <path d="M1034.1112,298.9886L1029.6166,298.9886"/>
   <path d="M134.8840,353.7055L139.3786,353.7055"/>
   <path d="M1034.1112,353.7055L1029.6166,353.7055"/>
   <path d="M134.8840,408.4223L139.3786,408.4223"/>
   <path d="M1034.1112,408.4223L1029.6166,408.4223"/>
   <path d="M134.8840,463.1392L139.3786,463.1392"/>
   <path d="M1034.1112,463.1392L1029.6166,463.1392"/>
   <path d="M134.8840,517.8561L139.3786,517.8561"/>
   <path d="M1034.1112,517.8561L1029.6166,517.8561"/>
   <path d="M134.8840,572.5730L139.3786,572.5730"/>
   <path d="M1034.1112,572.5730L1029.6166,572.5730"/>
   <path d="M134.8840,627.2898L139.3786,627.2898"/>
   <path d="M1034.1112,627.2898L1029.6166,627.2898"/>
   <path d="M134.8840,682.0067L139.3786,682.0067"/>
   <path d="M1034.1112,682.0067L1029.6166,682.0067"/>
   <path d="M134.8840,736.7236L139.3786,736.7236"/>
   <path d="M1034.1112,736.7236L1029.6166,736.7236"/>
   <path d="M134.8840,162.1964L148.3678,162.1964"/>
   <path d="M1034.1112,162.1964L1020.6274,162.1964"/>
   <path d="M134.8840,216.9133L148.3678,216.9133"/>
   <path d="M1034.1112,216.9133L1020.6274,216.9133"/>
   <path d="M134.8840,271.6302L148.3678,271.6302"/>
   <path d="M1034.1112,271.6302L1020.6274,271.6302"/>
   <path d="M134.8840,326.3470L148.3678,326.3470"/>
   <path d="M1034.1112,326.3470L1020.6274,326.3470"/>
   <path d="M134.8840,381.0639L148.3678,381.0639"/>
   <path d="M1034.1112,381.0639L1020.6274,381.0639"/>
   <path d="M134.8840,435.7808L148.3678,435.7808"/>
   <path d="M1034.1112,435.7808L1020.6274,435.7808"/>
   <path d="M134.8840,490.4977L148.3678,490.4977"/>
   <path d="M1034.1112,490.4977L1020.6274,490.4977"/>
   <path d="M134.8840,545.2145L148.3678,545.2145"/>
   <path d="M1034.1112,545.2145L1020.6274,545.2145"/>
   <path d="M134.8840,599.9314L148.3678,599.9314"/>
   <path d="M1034.1112,599.9314L1020.6274,599.9314"/>
   <path d="M134.8840,654.6483L148.3678,654.6483"/>
   <path d="M1034.1112,654.6483L1020.6274,654.6483"/>
   <path d="M134.8840,709.3651L148.3678,709.3651"/>
   <path d="M1034.1112,709.3651L1020.6274,709.3651"/>
  </g>
  <g style="fill:#000000; fill-rule:nonzero">
   <text   style="font-family:'Times','Nimbus Roman No9 L'; font-style:normal; font-weight:bold; font-size:898.9200" transform="matrix(0.0280,0.0000,-0.0000,-0.0280,86.6548,153.7364)">-0.4</text>
   <text   style="font-family:'Times','Nimbus Roman No9 L'; font-style:normal; font-weight:bold; font-size:898.9200" transform="matrix(0.0280,0.0000,-0.0000,-0.0280,86.6548,208.4533)">-0.3</text>
   <text   style="font-family:'Times','Nimbus Roman No9 L'; font-style:normal; font-weight:bold; font-size:898.9200" transform="matrix(0.0280,0.0000,-0.0000,-0.0280,86.6548,263.1702)">-0.2</text>
   <text   style="font-family:'Times','Nimbus Roman No9 L'; font-style:normal; font-weight:bold; font-size:898.9200" transform="matrix(0.0280,0.0000,-0.0000,-0.0280,87.3748,317.8870)">-0.1</text>
   <text   style="font-family:'Times','Nimbus Roman No9 L'; font-style:normal; font-weight:bold; font-size:898.9200" transform="matrix(0.0280,0.0000,-0.0000,-0.0280,114.0148,372.6039)">0</text>
   <text   style="font-family:'Times','Nimbus Roman No9 L'; font-style:normal; font-weight:bold; font-size:898.9200" transform="matrix(0.0280,0.0000,-0.0000,-0.0280,96.0148,427.3208)">0.1</text>
   <text   style="font-family:'Times','Nimbus Roman No9 L'; font-style:normal; font-weight:bold; font-size:898.9200" transform="matrix(0.0280,0.0000,-0.0000,-0.0280,95.2948,482.0377)">0.2</text>
   <text   style="font-family:'Times','Nimbus Roman No9 L'; font-style:normal; font-weight:bold; font-size:898.9200" transform="matrix(0.0280,0.0000,-0.0000,-0.0280,95.2948,536.7545)">0.3</text>
   <text   style="font-family:'Times','Nimbus Roman No9 L'; font-style:normal; font-weight:bold; font-size:898.9200" transform="matrix(0.0280,0.0000,-0.0000,-0.0280,95.2948,591.4714)">0.4</text>
   <text   style="font-family:'Times','Nimbus Roman No9 L'; font-style:normal; font-weight:bold; font-size:898.9200" transform="matrix(0.0280,0.0000,-0.0000,-0.0280,95.2948,646.1883)">0.5</text>
   <text   style="font-family:'Times','Nimbus Roman No9 L'; font-style:normal; font-weight:bold; font-size:898.9200" transform="matrix(0.0280,0.0000,-0.0000,-0.0280,95.2948,700.9051)">0.6</text>
   <text   style="font-family:'Times','Nimbus Roman No9 L'; font-style:normal; font-weight:bold; font-size:898.9200" transform="matrix(0.0000,0.0280,0.0280,-0.0000,72.6256,256.5000)">Differential Gibbs Free Energy (eV)</text>
  </g>
  <g style="fill:none; stroke:#000000; stroke-width:  2.6968; stroke-linecap:butt; stroke-linejoin:miter; stroke-dasharray:none">
   <path d="M134.8840,134.8380L134.8840,764.0820L1034.1112,764.0820L1034.1112,134.8380z"/>
  </g>
  <g style="fill:#FFFFFF; fill-rule:nonzero">
   <path  d="M764.3429,317.7602L764.3429,235.3768L949.0195,235.3768L949.0195,317.7602z"/>
  </g>
  <g style="fill:none; stroke:#000000; stroke-width:  2.6968; stroke-linecap:butt; stroke-linejoin:miter; stroke-dasharray:none">
   <path d="M764.3429,317.7602L764.3429,235.3768L949.0195,235.3768L949.0195,317.7602z"/>
  </g>
  <g style="fill:#000000; fill-rule:nonzero">
   <text   style="font-family:'Times','Nimbus Roman No9 L'; font-style:normal; font-weight:bold; font-size:898.9200" transform="matrix(0.0280,0.0000,-0.0000,-0.0280,833.1103,291.4910)">Ni</text>
   <text   style="font-family:'Times','Nimbus Roman No9 L'; font-style:normal; font-weight:bold; font-size:898.9200" transform="matrix(0.0198,0.0000,-0.0000,-0.0198,858.3103,281.4231)">3</text>
   <text   style="font-family:'Times','Nimbus Roman No9 L'; font-style:normal; font-weight:bold; font-size:898.9200" transform="matrix(0.0280,0.0000,-0.0000,-0.0280,867.3103,291.4910)">P</text>
   <text   style="font-family:'Times','Nimbus Roman No9 L'; font-style:normal; font-weight:bold; font-size:898.9200" transform="matrix(0.0198,0.0000,-0.0000,-0.0198,882.7903,281.4231)">2</text>
  </g>
  <g style="fill:none; stroke:#008B00; stroke-width:  2.6968; stroke-linecap:butt; stroke-linejoin:miter; stroke-dasharray:none">
   <path d="M779.1751,294.9171L815.1319,294.9171"/>
  </g>
  <g style="fill:#008B00; fill-rule:nonzero">
   <ellipse  rx="4.4946" ry="4.4946" cx="779.1751" cy="294.9171"/>
  </g>
  <g style="fill:none; stroke:#008B00; stroke-width:  2.6968; stroke-linecap:butt; stroke-linejoin:miter; stroke-dasharray:none">
   <ellipse  rx="4.4946" ry="4.4946" cx="779.1751" cy="294.9171"/>
  </g>
  <g style="fill:#008B00; fill-rule:nonzero">
   <ellipse  rx="4.4946" ry="4.4946" cx="815.1319" cy="294.9171"/>
  </g>
  <g style="fill:none; stroke:#008B00; stroke-width:  2.6968; stroke-linecap:butt; stroke-linejoin:miter; stroke-dasharray:none">
   <ellipse  rx="4.4946" ry="4.4946" cx="815.1319" cy="294.9171"/>
  </g>
  <g style="fill:#000000; fill-rule:nonzero">
   <text   style="font-family:'Times','Nimbus Roman No9 L'; font-style:normal; font-weight:bold; font-size:898.9200" transform="matrix(0.0280,0.0000,-0.0000,-0.0280,833.1103,254.7939)">Ni</text>
   <text   style="font-family:'Times','Nimbus Roman No9 L'; font-style:normal; font-weight:bold; font-size:898.9200" transform="matrix(0.0198,0.0000,-0.0000,-0.0198,858.3103,244.7260)">3</text>
   <text   style="font-family:'Times','Nimbus Roman No9 L'; font-style:normal; font-weight:bold; font-size:898.9200" transform="matrix(0.0280,0.0000,-0.0000,-0.0280,867.3103,254.7939)">P</text>
   <text   style="font-family:'Times','Nimbus Roman No9 L'; font-style:normal; font-weight:bold; font-size:898.9200" transform="matrix(0.0198,0.0000,-0.0000,-0.0198,882.7903,244.7260)">2</text>
   <text   style="font-family:'Times','Nimbus Roman No9 L'; font-style:normal; font-weight:bold; font-size:898.9200" transform="matrix(0.0280,0.0000,-0.0000,-0.0280,891.7903,254.7939)">+ 4P</text>
  </g>
  <g style="fill:none; stroke:#FF0000; stroke-width:  2.6968; stroke-linecap:butt; stroke-linejoin:miter; stroke-dasharray:none">
   <path d="M779.1751,258.2200L815.1319,258.2200"/>
  </g>
  <g style="fill:#FF0000; fill-rule:nonzero">
   <ellipse  rx="4.4946" ry="4.4946" cx="779.1751" cy="258.2200"/>
  </g>
  <g style="fill:none; stroke:#FF0000; stroke-width:  2.6968; stroke-linecap:butt; stroke-linejoin:miter; stroke-dasharray:none">
   <ellipse  rx="4.4946" ry="4.4946" cx="779.1751" cy="258.2200"/>
  </g>
  <g style="fill:#FF0000; fill-rule:nonzero">
   <ellipse  rx="4.4946" ry="4.4946" cx="815.1319" cy="258.2200"/>
  </g>
  <g style="fill:none; stroke:#FF0000; stroke-width:  2.6968; stroke-linecap:butt; stroke-linejoin:miter; stroke-dasharray:none">
   <ellipse  rx="4.4946" ry="4.4946" cx="815.1319" cy="258.2200"/>
  </g>
 </g>
</svg>
