<?xml version="1.0" encoding="ISO-8859-1"?>
<!DOCTYPE svg PUBLIC "-//W3C//DTD SVG 1.0//EN" "http://www.w3.org/TR/2001/REC-SVG-20010904/DTD/svg10.dtd">
<!-- generated by Grace-5.1.25 -->
<svg xml:space="preserve" width="16.1550in" height="12.4850in" viewBox="0.0000 0.0000 1163.1600 898.9200">
 <g transform="translate(0,898.9200) scale(1,-1)">
  <g style="fill:#FFFFFF; fill-rule:nonzero">
   <path  d="M0.0000,0.0000L0.0000,898.9200L1163.1601,898.9200L1163.1601,0.0000z"/>
  </g>
  <defs>
   <pattern id="pattern4" viewBox="0 0 16 16" width="16" height="16" patternUnits="userSpaceOnUse">
     <rect fill="#FFFFFF" x="0" y="0" width="16" height="16"/>
     <rect x="0" y="15" width="1" height="1"/>
     <rect x="2" y="15" width="1" height="1"/>
     <rect x="4" y="15" width="1" height="1"/>
     <rect x="6" y="15" width="1" height="1"/>
     <rect x="8" y="15" width="1" height="1"/>
     <rect x="10" y="15" width="1" height="1"/>
     <rect x="12" y="15" width="1" height="1"/>
     <rect x="14" y="15" width="1" height="1"/>
     <rect x="1" y="14" width="1" height="1"/>
     <rect x="3" y="14" width="1" height="1"/>
     <rect x="5" y="14" width="1" height="1"/>
     <rect x="7" y="14" width="1" height="1"/>
     <rect x="9" y="14" width="1" height="1"/>
     <rect x="11" y="14" width="1" height="1"/>
     <rect x="13" y="14" width="1" height="1"/>
     <rect x="15" y="14" width="1" height="1"/>
     <rect x="0" y="13" width="1" height="1"/>
     <rect x="2" y="13" width="1" height="1"/>
     <rect x="4" y="13" width="1" height="1"/>
     <rect x="6" y="13" width="1" height="1"/>
     <rect x="8" y="13" width="1" height="1"/>
     <rect x="10" y="13" width="1" height="1"/>
     <rect x="12" y="13" width="1" height="1"/>
     <rect x="14" y="13" width="1" height="1"/>
     <rect x="1" y="12" width="1" height="1"/>
     <rect x="3" y="12" width="1" height="1"/>
     <rect x="5" y="12" width="1" height="1"/>
     <rect x="7" y="12" width="1" height="1"/>
     <rect x="9" y="12" width="1" height="1"/>
     <rect x="11" y="12" width="1" height="1"/>
     <rect x="13" y="12" width="1" height="1"/>
     <rect x="15" y="12" width="1" height="1"/>
     <rect x="0" y="11" width="1" height="1"/>
     <rect x="2" y="11" width="1" height="1"/>
     <rect x="4" y="11" width="1" height="1"/>
     <rect x="6" y="11" width="1" height="1"/>
     <rect x="8" y="11" width="1" height="1"/>
     <rect x="10" y="11" width="1" height="1"/>
     <rect x="12" y="11" width="1" height="1"/>
     <rect x="14" y="11" width="1" height="1"/>
     <rect x="1" y="10" width="1" height="1"/>
     <rect x="3" y="10" width="1" height="1"/>
     <rect x="5" y="10" width="1" height="1"/>
     <rect x="7" y="10" width="1" height="1"/>
     <rect x="9" y="10" width="1" height="1"/>
     <rect x="11" y="10" width="1" height="1"/>
     <rect x="13" y="10" width="1" height="1"/>
     <rect x="15" y="10" width="1" height="1"/>
     <rect x="0" y="9" width="1" height="1"/>
     <rect x="2" y="9" width="1" height="1"/>
     <rect x="4" y="9" width="1" height="1"/>
     <rect x="6" y="9" width="1" height="1"/>
     <rect x="8" y="9" width="1" height="1"/>
     <rect x="10" y="9" width="1" height="1"/>
     <rect x="12" y="9" width="1" height="1"/>
     <rect x="14" y="9" width="1" height="1"/>
     <rect x="1" y="8" width="1" height="1"/>
     <rect x="3" y="8" width="1" height="1"/>
     <rect x="5" y="8" width="1" height="1"/>
     <rect x="7" y="8" width="1" height="1"/>
     <rect x="9" y="8" width="1" height="1"/>
     <rect x="11" y="8" width="1" height="1"/>
     <rect x="13" y="8" width="1" height="1"/>
     <rect x="15" y="8" width="1" height="1"/>
     <rect x="0" y="7" width="1" height="1"/>
     <rect x="2" y="7" width="1" height="1"/>
     <rect x="4" y="7" width="1" height="1"/>
     <rect x="6" y="7" width="1" height="1"/>
     <rect x="8" y="7" width="1" height="1"/>
     <rect x="10" y="7" width="1" height="1"/>
     <rect x="12" y="7" width="1" height="1"/>
     <rect x="14" y="7" width="1" height="1"/>
     <rect x="1" y="6" width="1" height="1"/>
     <rect x="3" y="6" width="1" height="1"/>
     <rect x="5" y="6" width="1" height="1"/>
     <rect x="7" y="6" width="1" height="1"/>
     <rect x="9" y="6" width="1" height="1"/>
     <rect x="11" y="6" width="1" height="1"/>
     <rect x="13" y="6" width="1" height="1"/>
     <rect x="15" y="6" width="1" height="1"/>
     <rect x="0" y="5" width="1" height="1"/>
     <rect x="2" y="5" width="1" height="1"/>
     <rect x="4" y="5" width="1" height="1"/>
     <rect x="6" y="5" width="1" height="1"/>
     <rect x="8" y="5" width="1" height="1"/>
     <rect x="10" y="5" width="1" height="1"/>
     <rect x="12" y="5" width="1" height="1"/>
     <rect x="14" y="5" width="1" height="1"/>
     <rect x="1" y="4" width="1" height="1"/>
     <rect x="3" y="4" width="1" height="1"/>
     <rect x="5" y="4" width="1" height="1"/>
     <rect x="7" y="4" width="1" height="1"/>
     <rect x="9" y="4" width="1" height="1"/>
     <rect x="11" y="4" width="1" height="1"/>
     <rect x="13" y="4" width="1" height="1"/>
     <rect x="15" y="4" width="1" height="1"/>
     <rect x="0" y="3" width="1" height="1"/>
     <rect x="2" y="3" width="1" height="1"/>
     <rect x="4" y="3" width="1" height="1"/>
     <rect x="6" y="3" width="1" height="1"/>
     <rect x="8" y="3" width="1" height="1"/>
     <rect x="10" y="3" width="1" height="1"/>
     <rect x="12" y="3" width="1" height="1"/>
     <rect x="14" y="3" width="1" height="1"/>
     <rect x="1" y="2" width="1" height="1"/>
     <rect x="3" y="2" width="1" height="1"/>
     <rect x="5" y="2" width="1" height="1"/>
     <rect x="7" y="2" width="1" height="1"/>
     <rect x="9" y="2" width="1" height="1"/>
     <rect x="11" y="2" width="1" height="1"/>
     <rect x="13" y="2" width="1" height="1"/>
     <rect x="15" y="2" width="1" height="1"/>
     <rect x="0" y="1" width="1" height="1"/>
     <rect x="2" y="1" width="1" height="1"/>
     <rect x="4" y="1" width="1" height="1"/>
     <rect x="6" y="1" width="1" height="1"/>
     <rect x="8" y="1" width="1" height="1"/>
     <rect x="10" y="1" width="1" height="1"/>
     <rect x="12" y="1" width="1" height="1"/>
     <rect x="14" y="1" width="1" height="1"/>
     <rect x="1" y="0" width="1" height="1"/>
     <rect x="3" y="0" width="1" height="1"/>
     <rect x="5" y="0" width="1" height="1"/>
     <rect x="7" y="0" width="1" height="1"/>
     <rect x="9" y="0" width="1" height="1"/>
     <rect x="11" y="0" width="1" height="1"/>
     <rect x="13" y="0" width="1" height="1"/>
     <rect x="15" y="0" width="1" height="1"/>
   </pattern>
   <filter id="tocolor5" filterUnits="objectBoundingBox"
    color-interpolation-filters="sRGB" x="0%" y="0%" width="100%" height="100%">
    <feComponentTransfer>
      <feFuncR type="discrete" tableValues="1.000000 1.000000"/>
      <feFuncG type="discrete" tableValues="1.000000 1.000000"/>
      <feFuncB type="discrete" tableValues="0.000000 1.000000"/>
    </feComponentTransfer>
   </filter>
  </defs>
  <g style="filter:url(#tocolor5); fill:url(#pattern4); fill-rule:nonzero">
   <path  d="M134.8840,386.5356L140.9090,386.5356L146.9339,386.5356L152.9589,386.5356L158.9839,386.5356L165.0089,386.5356L171.0338,386.5356L177.0588,386.5356L183.0838,386.5356L189.1088,386.5356
             L195.1337,386.5356L201.1587,386.5356L207.1837,386.5356L213.2086,386.5356L219.2336,386.5356L225.2586,386.5356L231.2836,386.5356L237.3085,386.5356L243.3335,386.5356L249.3585,386.5356
             L255.3835,386.5356L261.4084,386.5356L267.4334,386.5356L273.4584,386.5356L279.4833,386.5356L285.5083,386.5356L291.5333,386.5356L297.5583,386.5356L303.5832,386.5356L309.6082,386.5356
             L315.6332,386.5356L321.6582,386.5356L327.6831,386.5356L333.7081,386.5356L339.7331,386.5356L345.7580,386.5356L351.7830,386.5356L357.8080,386.5356L363.8330,386.5356L369.8579,386.5356
             L375.8829,386.5356L381.9079,386.5356L387.9329,386.5356L393.9578,386.5356L399.9828,386.5356L406.0078,386.5356L412.0328,386.5356L418.0577,386.5356L424.0827,386.5356L430.1077,386.5356
             L436.1326,386.5356L442.1576,386.5356L448.1826,386.5356L454.2076,386.5356L460.2325,386.5356L466.2575,386.5356L472.2825,386.5356L478.3075,386.5356L484.3324,386.5356L490.3574,386.5356
             L496.3824,386.5356L502.4074,386.5356L508.4323,386.5356L514.4573,386.5356L520.4823,386.5356L526.5072,386.5356L532.5322,386.5356L538.5572,386.5356L544.5822,386.5356L550.6071,386.5356
             L556.6321,386.5356L562.6571,386.5356L568.6821,386.5356L574.7070,386.5356L580.7320,386.5356L586.7570,386.5356L592.7819,386.5356L598.8069,386.5356L604.8319,386.5356L610.8569,386.5356
             L616.8818,386.5356L622.9068,386.5356L628.9318,386.5356L634.9568,386.5356L640.9817,386.5356L647.0067,386.5356L653.0317,386.5356L659.0566,386.5356L665.0816,386.5356L671.1066,386.5356
             L677.1316,386.5356L683.1565,386.5356L689.1815,386.5356L695.2065,386.5356L701.2315,386.5356L707.2564,386.5356L713.2814,386.5356L719.3064,386.5356L725.3313,386.5356L731.3563,386.5356
             L737.3813,386.5356L743.4063,386.5356L749.4312,386.5356L755.4562,386.5356L761.4812,386.5356L767.5062,386.5356L773.5311,386.5356L779.5561,386.5356L785.5811,386.5356L791.6061,386.5356
             L797.6310,386.5356L803.6560,386.5356L809.6809,386.5356L815.7060,386.5356L821.7309,386.5356L827.7559,386.5356L833.7808,386.5356L839.8058,386.5356L845.8308,386.5356L851.8558,386.5356
             L857.8808,386.5356L863.9057,386.5356L869.9307,386.5356L875.9557,386.5356L881.9807,386.5356L888.0056,386.5356L894.0306,386.5356L900.0556,386.5356L906.0806,386.5356L912.1055,386.5356
             L918.1305,386.5356L924.1555,386.5356L930.1805,386.5356L936.2054,386.5356L942.2304,386.5356L948.2553,386.5356L954.2803,386.5356L960.3053,386.5356L966.3303,386.5356L972.3552,386.5356
             L978.3802,386.5356L984.4052,386.5356L990.4302,386.5356L996.4551,386.5356L1002.4801,386.5356L1008.5051,386.5356L1014.5301,386.5356L1020.5550,386.5356L1026.5800,386.5356L1032.6050,386.5356
             L1034.1112,386.5356L1034.1112,449.4600L1034.1112,449.4600L134.8840,449.4600z"/>
  </g>
  <g style="fill:none; stroke:#000000; stroke-width:  2.6968; stroke-linecap:butt; stroke-linejoin:miter; stroke-dasharray: 3 8">
   <path d="M134.8840,386.5356L140.9090,386.5356L146.9339,386.5356L152.9589,386.5356L158.9839,386.5356L165.0089,386.5356L171.0338,386.5356L177.0588,386.5356L183.0838,386.5356L189.1088,386.5356
            L195.1337,386.5356L201.1587,386.5356L207.1837,386.5356L213.2086,386.5356L219.2336,386.5356L225.2586,386.5356L231.2836,386.5356L237.3085,386.5356L243.3335,386.5356L249.3585,386.5356
            L255.3835,386.5356L261.4084,386.5356L267.4334,386.5356L273.4584,386.5356L279.4833,386.5356L285.5083,386.5356L291.5333,386.5356L297.5583,386.5356L303.5832,386.5356L309.6082,386.5356
            L315.6332,386.5356L321.6582,386.5356L327.6831,386.5356L333.7081,386.5356L339.7331,386.5356L345.7580,386.5356L351.7830,386.5356L357.8080,386.5356L363.8330,386.5356L369.8579,386.5356
            L375.8829,386.5356L381.9079,386.5356L387.9329,386.5356L393.9578,386.5356L399.9828,386.5356L406.0078,386.5356L412.0328,386.5356L418.0577,386.5356L424.0827,386.5356L430.1077,386.5356
            L436.1326,386.5356L442.1576,386.5356L448.1826,386.5356L454.2076,386.5356L460.2325,386.5356L466.2575,386.5356L472.2825,386.5356L478.3075,386.5356L484.3324,386.5356L490.3574,386.5356
            L496.3824,386.5356L502.4074,386.5356L508.4323,386.5356L514.4573,386.5356L520.4823,386.5356L526.5072,386.5356L532.5322,386.5356L538.5572,386.5356L544.5822,386.5356L550.6071,386.5356
            L556.6321,386.5356L562.6571,386.5356L568.6821,386.5356L574.7070,386.5356L580.7320,386.5356L586.7570,386.5356L592.7819,386.5356L598.8069,386.5356L604.8319,386.5356L610.8569,386.5356
            L616.8818,386.5356L622.9068,386.5356L628.9318,386.5356L634.9568,386.5356L640.9817,386.5356L647.0067,386.5356L653.0317,386.5356L659.0566,386.5356L665.0816,386.5356L671.1066,386.5356
            L677.1316,386.5356L683.1565,386.5356L689.1815,386.5356L695.2065,386.5356L701.2315,386.5356L707.2564,386.5356L713.2814,386.5356L719.3064,386.5356L725.3313,386.5356L731.3563,386.5356
            L737.3813,386.5356L743.4063,386.5356L749.4312,386.5356L755.4562,386.5356L761.4812,386.5356L767.5062,386.5356L773.5311,386.5356L779.5561,386.5356L785.5811,386.5356L791.6061,386.5356
            L797.6310,386.5356L803.6560,386.5356L809.6809,386.5356L815.7060,386.5356L821.7309,386.5356L827.7559,386.5356L833.7808,386.5356L839.8058,386.5356L845.8308,386.5356L851.8558,386.5356
            L857.8808,386.5356L863.9057,386.5356L869.9307,386.5356L875.9557,386.5356L881.9807,386.5356L888.0056,386.5356L894.0306,386.5356L900.0556,386.5356L906.0806,386.5356L912.1055,386.5356
            L918.1305,386.5356L924.1555,386.5356L930.1805,386.5356L936.2054,386.5356L942.2304,386.5356L948.2553,386.5356L954.2803,386.5356L960.3053,386.5356L966.3303,386.5356L972.3552,386.5356
            L978.3802,386.5356L984.4052,386.5356L990.4302,386.5356L996.4551,386.5356L1002.4801,386.5356L1008.5051,386.5356L1014.5301,386.5356L1020.5550,386.5356L1026.5800,386.5356L1032.6050,386.5356
            L1034.2011,386.5356"/>
  </g>
  <g style="filter:url(#tocolor5); fill:url(#pattern4); fill-rule:nonzero">
   <path  d="M134.8840,512.3844L140.9090,512.3844L146.9339,512.3844L152.9589,512.3844L158.9839,512.3844L165.0089,512.3844L171.0338,512.3844L177.0588,512.3844L183.0838,512.3844L189.1088,512.3844
             L195.1337,512.3844L201.1587,512.3844L207.1837,512.3844L213.2086,512.3844L219.2336,512.3844L225.2586,512.3844L231.2836,512.3844L237.3085,512.3844L243.3335,512.3844L249.3585,512.3844
             L255.3835,512.3844L261.4084,512.3844L267.4334,512.3844L273.4584,512.3844L279.4833,512.3844L285.5083,512.3844L291.5333,512.3844L297.5583,512.3844L303.5832,512.3844L309.6082,512.3844
             L315.6332,512.3844L321.6582,512.3844L327.6831,512.3844L333.7081,512.3844L339.7331,512.3844L345.7580,512.3844L351.7830,512.3844L357.8080,512.3844L363.8330,512.3844L369.8579,512.3844
             L375.8829,512.3844L381.9079,512.3844L387.9329,512.3844L393.9578,512.3844L399.9828,512.3844L406.0078,512.3844L412.0328,512.3844L418.0577,512.3844L424.0827,512.3844L430.1077,512.3844
             L436.1326,512.3844L442.1576,512.3844L448.1826,512.3844L454.2076,512.3844L460.2325,512.3844L466.2575,512.3844L472.2825,512.3844L478.3075,512.3844L484.3324,512.3844L490.3574,512.3844
             L496.3824,512.3844L502.4074,512.3844L508.4323,512.3844L514.4573,512.3844L520.4823,512.3844L526.5072,512.3844L532.5322,512.3844L538.5572,512.3844L544.5822,512.3844L550.6071,512.3844
             L556.6321,512.3844L562.6571,512.3844L568.6821,512.3844L574.7070,512.3844L580.7320,512.3844L586.7570,512.3844L592.7819,512.3844L598.8069,512.3844L604.8319,512.3844L610.8569,512.3844
             L616.8818,512.3844L622.9068,512.3844L628.9318,512.3844L634.9568,512.3844L640.9817,512.3844L647.0067,512.3844L653.0317,512.3844L659.0566,512.3844L665.0816,512.3844L671.1066,512.3844
             L677.1316,512.3844L683.1565,512.3844L689.1815,512.3844L695.2065,512.3844L701.2315,512.3844L707.2564,512.3844L713.2814,512.3844L719.3064,512.3844L725.3313,512.3844L731.3563,512.3844
             L737.3813,512.3844L743.4063,512.3844L749.4312,512.3844L755.4562,512.3844L761.4812,512.3844L767.5062,512.3844L773.5311,512.3844L779.5561,512.3844L785.5811,512.3844L791.6061,512.3844
             L797.6310,512.3844L803.6560,512.3844L809.6809,512.3844L815.7060,512.3844L821.7309,512.3844L827.7559,512.3844L833.7808,512.3844L839.8058,512.3844L845.8308,512.3844L851.8558,512.3844
             L857.8808,512.3844L863.9057,512.3844L869.9307,512.3844L875.9557,512.3844L881.9807,512.3844L888.0056,512.3844L894.0306,512.3844L900.0556,512.3844L906.0806,512.3844L912.1055,512.3844
             L918.1305,512.3844L924.1555,512.3844L930.1805,512.3844L936.2054,512.3844L942.2304,512.3844L948.2553,512.3844L954.2803,512.3844L960.3053,512.3844L966.3303,512.3844L972.3552,512.3844
             L978.3802,512.3844L984.4052,512.3844L990.4302,512.3844L996.4551,512.3844L1002.4801,512.3844L1008.5051,512.3844L1014.5301,512.3844L1020.5550,512.3844L1026.5800,512.3844L1032.6050,512.3844
             L1034.1112,512.3844L1034.1112,449.4600L1034.1112,449.4600L134.8840,449.4600z"/>
  </g>
  <g style="fill:none; stroke:#000000; stroke-width:  2.6968; stroke-linecap:butt; stroke-linejoin:miter; stroke-dasharray: 3 8">
   <path d="M134.8840,512.3844L140.9090,512.3844L146.9339,512.3844L152.9589,512.3844L158.9839,512.3844L165.0089,512.3844L171.0338,512.3844L177.0588,512.3844L183.0838,512.3844L189.1088,512.3844
            L195.1337,512.3844L201.1587,512.3844L207.1837,512.3844L213.2086,512.3844L219.2336,512.3844L225.2586,512.3844L231.2836,512.3844L237.3085,512.3844L243.3335,512.3844L249.3585,512.3844
            L255.3835,512.3844L261.4084,512.3844L267.4334,512.3844L273.4584,512.3844L279.4833,512.3844L285.5083,512.3844L291.5333,512.3844L297.5583,512.3844L303.5832,512.3844L309.6082,512.3844
            L315.6332,512.3844L321.6582,512.3844L327.6831,512.3844L333.7081,512.3844L339.7331,512.3844L345.7580,512.3844L351.7830,512.3844L357.8080,512.3844L363.8330,512.3844L369.8579,512.3844
            L375.8829,512.3844L381.9079,512.3844L387.9329,512.3844L393.9578,512.3844L399.9828,512.3844L406.0078,512.3844L412.0328,512.3844L418.0577,512.3844L424.0827,512.3844L430.1077,512.3844
            L436.1326,512.3844L442.1576,512.3844L448.1826,512.3844L454.2076,512.3844L460.2325,512.3844L466.2575,512.3844L472.2825,512.3844L478.3075,512.3844L484.3324,512.3844L490.3574,512.3844
            L496.3824,512.3844L502.4074,512.3844L508.4323,512.3844L514.4573,512.3844L520.4823,512.3844L526.5072,512.3844L532.5322,512.3844L538.5572,512.3844L544.5822,512.3844L550.6071,512.3844
            L556.6321,512.3844L562.6571,512.3844L568.6821,512.3844L574.7070,512.3844L580.7320,512.3844L586.7570,512.3844L592.7819,512.3844L598.8069,512.3844L604.8319,512.3844L610.8569,512.3844
            L616.8818,512.3844L622.9068,512.3844L628.9318,512.3844L634.9568,512.3844L640.9817,512.3844L647.0067,512.3844L653.0317,512.3844L659.0566,512.3844L665.0816,512.3844L671.1066,512.3844
            L677.1316,512.3844L683.1565,512.3844L689.1815,512.3844L695.2065,512.3844L701.2315,512.3844L707.2564,512.3844L713.2814,512.3844L719.3064,512.3844L725.3313,512.3844L731.3563,512.3844
            L737.3813,512.3844L743.4063,512.3844L749.4312,512.3844L755.4562,512.3844L761.4812,512.3844L767.5062,512.3844L773.5311,512.3844L779.5561,512.3844L785.5811,512.3844L791.6061,512.3844
            L797.6310,512.3844L803.6560,512.3844L809.6809,512.3844L815.7060,512.3844L821.7309,512.3844L827.7559,512.3844L833.7808,512.3844L839.8058,512.3844L845.8308,512.3844L851.8558,512.3844
            L857.8808,512.3844L863.9057,512.3844L869.9307,512.3844L875.9557,512.3844L881.9807,512.3844L888.0056,512.3844L894.0306,512.3844L900.0556,512.3844L906.0806,512.3844L912.1055,512.3844
            L918.1305,512.3844L924.1555,512.3844L930.1805,512.3844L936.2054,512.3844L942.2304,512.3844L948.2553,512.3844L954.2803,512.3844L960.3053,512.3844L966.3303,512.3844L972.3552,512.3844
            L978.3802,512.3844L984.4052,512.3844L990.4302,512.3844L996.4551,512.3844L1002.4801,512.3844L1008.5051,512.3844L1014.5301,512.3844L1020.5550,512.3844L1026.5800,512.3844L1032.6050,512.3844
            L1034.2011,512.3844"/>
   <path d="M134.8840,449.4600L140.9090,449.4600L146.9339,449.4600L152.9589,449.4600L158.9839,449.4600L165.0089,449.4600L171.0338,449.4600L177.0588,449.4600L183.0838,449.4600L189.1088,449.4600
            L195.1337,449.4600L201.1587,449.4600L207.1837,449.4600L213.2086,449.4600L219.2336,449.4600L225.2586,449.4600L231.2836,449.4600L237.3085,449.4600L243.3335,449.4600L249.3585,449.4600
            L255.3835,449.4600L261.4084,449.4600L267.4334,449.4600L273.4584,449.4600L279.4833,449.4600L285.5083,449.4600L291.5333,449.4600L297.5583,449.4600L303.5832,449.4600L309.6082,449.4600
            L315.6332,449.4600L321.6582,449.4600L327.6831,449.4600L333.7081,449.4600L339.7331,449.4600L345.7580,449.4600L351.7830,449.4600L357.8080,449.4600L363.8330,449.4600L369.8579,449.4600
            L375.8829,449.4600L381.9079,449.4600L387.9329,449.4600L393.9578,449.4600L399.9828,449.4600L406.0078,449.4600L412.0328,449.4600L418.0577,449.4600L424.0827,449.4600L430.1077,449.4600
            L436.1326,449.4600L442.1576,449.4600L448.1826,449.4600L454.2076,449.4600L460.2325,449.4600L466.2575,449.4600L472.2825,449.4600L478.3075,449.4600L484.3324,449.4600L490.3574,449.4600
            L496.3824,449.4600L502.4074,449.4600L508.4323,449.4600L514.4573,449.4600L520.4823,449.4600L526.5072,449.4600L532.5322,449.4600L538.5572,449.4600L544.5822,449.4600L550.6071,449.4600
            L556.6321,449.4600L562.6571,449.4600L568.6821,449.4600L574.7070,449.4600L580.7320,449.4600L586.7570,449.4600L592.7819,449.4600L598.8069,449.4600L604.8319,449.4600L610.8569,449.4600
            L616.8818,449.4600L622.9068,449.4600L628.9318,449.4600L634.9568,449.4600L640.9817,449.4600L647.0067,449.4600L653.0317,449.4600L659.0566,449.4600L665.0816,449.4600L671.1066,449.4600
            L677.1316,449.4600L683.1565,449.4600L689.1815,449.4600L695.2065,449.4600L701.2315,449.4600L707.2564,449.4600L713.2814,449.4600L719.3064,449.4600L725.3313,449.4600L731.3563,449.4600
            L737.3813,449.4600L743.4063,449.4600L749.4312,449.4600L755.4562,449.4600L761.4812,449.4600L767.5062,449.4600L773.5311,449.4600L779.5561,449.4600L785.5811,449.4600L791.6061,449.4600
            L797.6310,449.4600L803.6560,449.4600L809.6809,449.4600L815.7060,449.4600L821.7309,449.4600L827.7559,449.4600L833.7808,449.4600L839.8058,449.4600L845.8308,449.4600L851.8558,449.4600
            L857.8808,449.4600L863.9057,449.4600L869.9307,449.4600L875.9557,449.4600L881.9807,449.4600L888.0056,449.4600L894.0306,449.4600L900.0556,449.4600L906.0806,449.4600L912.1055,449.4600
            L918.1305,449.4600L924.1555,449.4600L930.1805,449.4600L936.2054,449.4600L942.2304,449.4600L948.2553,449.4600L954.2803,449.4600L960.3053,449.4600L966.3303,449.4600L972.3552,449.4600
            L978.3802,449.4600L984.4052,449.4600L990.4302,449.4600L996.4551,449.4600L1002.4801,449.4600L1008.5051,449.4600L1014.5301,449.4600L1020.5550,449.4600L1026.5800,449.4600L1032.6050,449.4600
            L1034.2011,449.4600"/>
  </g>
  <g style="fill:none; stroke:#008B00; stroke-width:  2.6968; stroke-linecap:butt; stroke-linejoin:miter; stroke-dasharray: 19 8">
   <path d="M194.8325,159.4196L254.7810,173.3475L314.7294,191.4501L374.6779,213.2155L434.6264,582.4490L494.5749,580.2314L554.5234,601.6362L614.4718,601.8705L674.4203,629.9879L734.3688,618.7612
            L794.3173,616.0190L854.2658,657.0968L914.2143,622.4529L974.1627,739.3085"/>
  </g>
  <g style="fill:#008B00; fill-rule:nonzero">
   <path  d="M191.0121,155.5992L191.0121,163.2400L198.6529,163.2400L198.6529,155.5992z"/>
  </g>
  <g style="fill:none; stroke:#008B00; stroke-width:  2.6968; stroke-linecap:butt; stroke-linejoin:miter; stroke-dasharray:none">
   <path d="M191.0121,155.5992L191.0121,163.2400L198.6529,163.2400L198.6529,155.5992z"/>
  </g>
  <g style="fill:#008B00; fill-rule:nonzero">
   <path  d="M250.9605,169.5271L250.9605,177.1679L258.6014,177.1679L258.6014,169.5271z"/>
  </g>
  <g style="fill:none; stroke:#008B00; stroke-width:  2.6968; stroke-linecap:butt; stroke-linejoin:miter; stroke-dasharray:none">
   <path d="M250.9605,169.5271L250.9605,177.1679L258.6014,177.1679L258.6014,169.5271z"/>
  </g>
  <g style="fill:#008B00; fill-rule:nonzero">
   <path  d="M310.9090,187.6297L310.9090,195.2706L318.5498,195.2706L318.5498,187.6297z"/>
  </g>
  <g style="fill:none; stroke:#008B00; stroke-width:  2.6968; stroke-linecap:butt; stroke-linejoin:miter; stroke-dasharray:none">
   <path d="M310.9090,187.6297L310.9090,195.2706L318.5498,195.2706L318.5498,187.6297z"/>
  </g>
  <g style="fill:#008B00; fill-rule:nonzero">
   <path  d="M370.8575,209.3951L370.8575,217.0359L378.4983,217.0359L378.4983,209.3951z"/>
  </g>
  <g style="fill:none; stroke:#008B00; stroke-width:  2.6968; stroke-linecap:butt; stroke-linejoin:miter; stroke-dasharray:none">
   <path d="M370.8575,209.3951L370.8575,217.0359L378.4983,217.0359L378.4983,209.3951z"/>
  </g>
  <g style="fill:#008B00; fill-rule:nonzero">
   <path  d="M430.8060,578.6286L430.8060,586.2694L438.4468,586.2694L438.4468,578.6286z"/>
  </g>
  <g style="fill:none; stroke:#008B00; stroke-width:  2.6968; stroke-linecap:butt; stroke-linejoin:miter; stroke-dasharray:none">
   <path d="M430.8060,578.6286L430.8060,586.2694L438.4468,586.2694L438.4468,578.6286z"/>
  </g>
  <g style="fill:#008B00; fill-rule:nonzero">
   <path  d="M490.7545,576.4110L490.7545,584.0518L498.3953,584.0518L498.3953,576.4110z"/>
  </g>
  <g style="fill:none; stroke:#008B00; stroke-width:  2.6968; stroke-linecap:butt; stroke-linejoin:miter; stroke-dasharray:none">
   <path d="M490.7545,576.4110L490.7545,584.0518L498.3953,584.0518L498.3953,576.4110z"/>
  </g>
  <g style="fill:#008B00; fill-rule:nonzero">
   <path  d="M550.7030,597.8158L550.7030,605.4566L558.3438,605.4566L558.3438,597.8158z"/>
  </g>
  <g style="fill:none; stroke:#008B00; stroke-width:  2.6968; stroke-linecap:butt; stroke-linejoin:miter; stroke-dasharray:none">
   <path d="M550.7030,597.8158L550.7030,605.4566L558.3438,605.4566L558.3438,597.8158z"/>
  </g>
  <g style="fill:#008B00; fill-rule:nonzero">
   <path  d="M610.6514,598.0500L610.6514,605.6909L618.2923,605.6909L618.2923,598.0500z"/>
  </g>
  <g style="fill:none; stroke:#008B00; stroke-width:  2.6968; stroke-linecap:butt; stroke-linejoin:miter; stroke-dasharray:none">
   <path d="M610.6514,598.0500L610.6514,605.6909L618.2923,605.6909L618.2923,598.0500z"/>
  </g>
  <g style="fill:#008B00; fill-rule:nonzero">
   <path  d="M670.5999,626.1674L670.5999,633.8083L678.2407,633.8083L678.2407,626.1674z"/>
  </g>
  <g style="fill:none; stroke:#008B00; stroke-width:  2.6968; stroke-linecap:butt; stroke-linejoin:miter; stroke-dasharray:none">
   <path d="M670.5999,626.1674L670.5999,633.8083L678.2407,633.8083L678.2407,626.1674z"/>
  </g>
  <g style="fill:#008B00; fill-rule:nonzero">
   <path  d="M730.5484,614.9408L730.5484,622.5816L738.1892,622.5816L738.1892,614.9408z"/>
  </g>
  <g style="fill:none; stroke:#008B00; stroke-width:  2.6968; stroke-linecap:butt; stroke-linejoin:miter; stroke-dasharray:none">
   <path d="M730.5484,614.9408L730.5484,622.5816L738.1892,622.5816L738.1892,614.9408z"/>
  </g>
  <g style="fill:#008B00; fill-rule:nonzero">
   <path  d="M790.4969,612.1985L790.4969,619.8394L798.1377,619.8394L798.1377,612.1985z"/>
  </g>
  <g style="fill:none; stroke:#008B00; stroke-width:  2.6968; stroke-linecap:butt; stroke-linejoin:miter; stroke-dasharray:none">
   <path d="M790.4969,612.1985L790.4969,619.8394L798.1377,619.8394L798.1377,612.1985z"/>
  </g>
  <g style="fill:#008B00; fill-rule:nonzero">
   <path  d="M850.4454,653.2764L850.4454,660.9172L858.0862,660.9172L858.0862,653.2764z"/>
  </g>
  <g style="fill:none; stroke:#008B00; stroke-width:  2.6968; stroke-linecap:butt; stroke-linejoin:miter; stroke-dasharray:none">
   <path d="M850.4454,653.2764L850.4454,660.9172L858.0862,660.9172L858.0862,653.2764z"/>
  </g>
  <g style="fill:#008B00; fill-rule:nonzero">
   <path  d="M910.3938,618.6325L910.3938,626.2733L918.0347,626.2733L918.0347,618.6325z"/>
  </g>
  <g style="fill:none; stroke:#008B00; stroke-width:  2.6968; stroke-linecap:butt; stroke-linejoin:miter; stroke-dasharray:none">
   <path d="M910.3938,618.6325L910.3938,626.2733L918.0347,626.2733L918.0347,618.6325z"/>
  </g>
  <g style="fill:#008B00; fill-rule:nonzero">
   <path  d="M970.3423,735.4881L970.3423,743.1289L977.9831,743.1289L977.9831,735.4881z"/>
  </g>
  <g style="fill:none; stroke:#008B00; stroke-width:  2.6968; stroke-linecap:butt; stroke-linejoin:miter; stroke-dasharray:none">
   <path d="M970.3423,735.4881L970.3423,743.1289L977.9831,743.1289L977.9831,735.4881z"/>
  </g>
  <g style="fill:none; stroke:#FF0000; stroke-width:  2.6968; stroke-linecap:butt; stroke-linejoin:miter; stroke-dasharray: 19 8">
   <path d="M194.8325,473.7281L254.7810,511.6574L314.7294,583.9330L374.6779,538.3617L434.6264,617.9322L494.5749,469.9675L554.5234,586.3674L614.4718,554.6012"/>
  </g>
  <g style="fill:#FF0000; fill-rule:nonzero">
   <path  d="M191.0121,469.9077L191.0121,477.5485L198.6529,477.5485L198.6529,469.9077z"/>
  </g>
  <g style="fill:none; stroke:#FF0000; stroke-width:  2.6968; stroke-linecap:butt; stroke-linejoin:miter; stroke-dasharray:none">
   <path d="M191.0121,469.9077L191.0121,477.5485L198.6529,477.5485L198.6529,469.9077z"/>
  </g>
  <g style="fill:#FF0000; fill-rule:nonzero">
   <path  d="M250.9605,507.8370L250.9605,515.4778L258.6014,515.4778L258.6014,507.8370z"/>
  </g>
  <g style="fill:none; stroke:#FF0000; stroke-width:  2.6968; stroke-linecap:butt; stroke-linejoin:miter; stroke-dasharray:none">
   <path d="M250.9605,507.8370L250.9605,515.4778L258.6014,515.4778L258.6014,507.8370z"/>
  </g>
  <g style="fill:#FF0000; fill-rule:nonzero">
   <path  d="M310.9090,580.1126L310.9090,587.7534L318.5498,587.7534L318.5498,580.1126z"/>
  </g>
  <g style="fill:none; stroke:#FF0000; stroke-width:  2.6968; stroke-linecap:butt; stroke-linejoin:miter; stroke-dasharray:none">
   <path d="M310.9090,580.1126L310.9090,587.7534L318.5498,587.7534L318.5498,580.1126z"/>
  </g>
  <g style="fill:#FF0000; fill-rule:nonzero">
   <path  d="M370.8575,534.5413L370.8575,542.1821L378.4983,542.1821L378.4983,534.5413z"/>
  </g>
  <g style="fill:none; stroke:#FF0000; stroke-width:  2.6968; stroke-linecap:butt; stroke-linejoin:miter; stroke-dasharray:none">
   <path d="M370.8575,534.5413L370.8575,542.1821L378.4983,542.1821L378.4983,534.5413z"/>
  </g>
  <g style="fill:#FF0000; fill-rule:nonzero">
   <path  d="M430.8060,614.1118L430.8060,621.7526L438.4468,621.7526L438.4468,614.1118z"/>
  </g>
  <g style="fill:none; stroke:#FF0000; stroke-width:  2.6968; stroke-linecap:butt; stroke-linejoin:miter; stroke-dasharray:none">
   <path d="M430.8060,614.1118L430.8060,621.7526L438.4468,621.7526L438.4468,614.1118z"/>
  </g>
  <g style="fill:#FF0000; fill-rule:nonzero">
   <path  d="M490.7545,466.1471L490.7545,473.7879L498.3953,473.7879L498.3953,466.1471z"/>
  </g>
  <g style="fill:none; stroke:#FF0000; stroke-width:  2.6968; stroke-linecap:butt; stroke-linejoin:miter; stroke-dasharray:none">
   <path d="M490.7545,466.1471L490.7545,473.7879L498.3953,473.7879L498.3953,466.1471z"/>
  </g>
  <g style="fill:#FF0000; fill-rule:nonzero">
   <path  d="M550.7030,582.5470L550.7030,590.1878L558.3438,590.1878L558.3438,582.5470z"/>
  </g>
  <g style="fill:none; stroke:#FF0000; stroke-width:  2.6968; stroke-linecap:butt; stroke-linejoin:miter; stroke-dasharray:none">
   <path d="M550.7030,582.5470L550.7030,590.1878L558.3438,590.1878L558.3438,582.5470z"/>
  </g>
  <g style="fill:#FF0000; fill-rule:nonzero">
   <path  d="M610.6514,550.7808L610.6514,558.4216L618.2923,558.4216L618.2923,550.7808z"/>
  </g>
  <g style="fill:none; stroke:#FF0000; stroke-width:  2.6968; stroke-linecap:butt; stroke-linejoin:miter; stroke-dasharray:none">
   <path d="M610.6514,550.7808L610.6514,558.4216L618.2923,558.4216L618.2923,550.7808z"/>
  </g>
  <g style="fill:none; stroke:#000000; stroke-width:  2.6968; stroke-linecap:butt; stroke-linejoin:miter; stroke-dasharray:none">
   <path d="M134.8840,134.8380L1034.1112,134.8380"/>
   <path d="M134.8840,764.0820L1034.1112,764.0820"/>
   <path d="M194.8325,134.8380L194.8325,143.8272"/>
   <path d="M194.8325,764.0820L194.8325,755.0928"/>
   <path d="M314.7294,134.8380L314.7294,143.8272"/>
   <path d="M314.7294,764.0820L314.7294,755.0928"/>
   <path d="M434.6264,134.8380L434.6264,143.8272"/>
   <path d="M434.6264,764.0820L434.6264,755.0928"/>
   <path d="M554.5234,134.8380L554.5234,143.8272"/>
   <path d="M554.5234,764.0820L554.5234,755.0928"/>
   <path d="M674.4203,134.8380L674.4203,143.8272"/>
   <path d="M674.4203,764.0820L674.4203,755.0928"/>
   <path d="M794.3173,134.8380L794.3173,143.8272"/>
   <path d="M794.3173,764.0820L794.3173,755.0928"/>
   <path d="M914.2143,134.8380L914.2143,143.8272"/>
   <path d="M914.2143,764.0820L914.2143,755.0928"/>
   <path d="M1034.1112,134.8380L1034.1112,143.8272"/>
   <path d="M1034.1112,764.0820L1034.1112,755.0928"/>
   <path d="M134.8840,134.8380L134.8840,148.3218"/>
   <path d="M134.8840,764.0820L134.8840,750.5982"/>
   <path d="M254.7810,134.8380L254.7810,148.3218"/>
   <path d="M254.7810,764.0820L254.7810,750.5982"/>
   <path d="M374.6779,134.8380L374.6779,148.3218"/>
   <path d="M374.6779,764.0820L374.6779,750.5982"/>
   <path d="M494.5749,134.8380L494.5749,148.3218"/>
   <path d="M494.5749,764.0820L494.5749,750.5982"/>
   <path d="M614.4718,134.8380L614.4718,148.3218"/>
   <path d="M614.4718,764.0820L614.4718,750.5982"/>
   <path d="M734.3688,134.8380L734.3688,148.3218"/>
   <path d="M734.3688,764.0820L734.3688,750.5982"/>
   <path d="M854.2658,134.8380L854.2658,148.3218"/>
   <path d="M854.2658,764.0820L854.2658,750.5982"/>
   <path d="M974.1627,134.8380L974.1627,148.3218"/>
   <path d="M974.1627,764.0820L974.1627,750.5982"/>
  </g>
  <g style="fill:#000000; fill-rule:nonzero">
   <text   style="font-family:'Times','Nimbus Roman No9 L'; font-style:normal; font-weight:bold; font-size:898.9200" transform="matrix(0.0280,0.0000,-0.0000,-0.0280,128.9440,108.5688)">0</text>
   <text   style="font-family:'Times','Nimbus Roman No9 L'; font-style:normal; font-weight:bold; font-size:898.9200" transform="matrix(0.0280,0.0000,-0.0000,-0.0280,248.8410,108.5688)">2</text>
   <text   style="font-family:'Times','Nimbus Roman No9 L'; font-style:normal; font-weight:bold; font-size:898.9200" transform="matrix(0.0280,0.0000,-0.0000,-0.0280,368.7379,108.5688)">4</text>
   <text   style="font-family:'Times','Nimbus Roman No9 L'; font-style:normal; font-weight:bold; font-size:898.9200" transform="matrix(0.0280,0.0000,-0.0000,-0.0280,488.6349,108.5688)">6</text>
   <text   style="font-family:'Times','Nimbus Roman No9 L'; font-style:normal; font-weight:bold; font-size:898.9200" transform="matrix(0.0280,0.0000,-0.0000,-0.0280,608.5318,108.5688)">8</text>
   <text   style="font-family:'Times','Nimbus Roman No9 L'; font-style:normal; font-weight:bold; font-size:898.9200" transform="matrix(0.0280,0.0000,-0.0000,-0.0280,722.1288,108.5688)">10</text>
   <text   style="font-family:'Times','Nimbus Roman No9 L'; font-style:normal; font-weight:bold; font-size:898.9200" transform="matrix(0.0280,0.0000,-0.0000,-0.0280,842.0258,108.5688)">12</text>
   <text   style="font-family:'Times','Nimbus Roman No9 L'; font-style:normal; font-weight:bold; font-size:898.9200" transform="matrix(0.0280,0.0000,-0.0000,-0.0280,961.9227,108.5688)">14</text>
   <text   style="font-family:'Times','Nimbus Roman No9 L'; font-style:normal; font-weight:bold; font-size:898.9200" transform="matrix(0.0280,0.0000,-0.0000,-0.0280,469.2976,81.9396)">Number of Hydrogen</text>
  </g>
  <g style="fill:none; stroke:#000000; stroke-width:  1.3484; stroke-linecap:butt; stroke-linejoin:miter; stroke-dasharray:none">
   <path d="M134.8840,134.8380L134.8840,764.0820"/>
   <path d="M1034.1112,134.8380L1034.1112,764.0820"/>
  </g>
  <g style="fill:none; stroke:#000000; stroke-width:  2.6968; stroke-linecap:butt; stroke-linejoin:miter; stroke-dasharray:none">
   <path d="M134.8840,166.3002L139.3786,166.3002"/>
   <path d="M1034.1112,166.3002L1029.6166,166.3002"/>
   <path d="M134.8840,229.2246L139.3786,229.2246"/>
   <path d="M1034.1112,229.2246L1029.6166,229.2246"/>
   <path d="M134.8840,292.1490L139.3786,292.1490"/>
   <path d="M1034.1112,292.1490L1029.6166,292.1490"/>
   <path d="M134.8840,355.0734L139.3786,355.0734"/>
   <path d="M1034.1112,355.0734L1029.6166,355.0734"/>
   <path d="M134.8840,417.9978L139.3786,417.9978"/>
   <path d="M1034.1112,417.9978L1029.6166,417.9978"/>
   <path d="M134.8840,480.9222L139.3786,480.9222"/>
   <path d="M1034.1112,480.9222L1029.6166,480.9222"/>
   <path d="M134.8840,543.8466L139.3786,543.8466"/>
   <path d="M1034.1112,543.8466L1029.6166,543.8466"/>
   <path d="M134.8840,606.7710L139.3786,606.7710"/>
   <path d="M1034.1112,606.7710L1029.6166,606.7710"/>
   <path d="M134.8840,669.6954L139.3786,669.6954"/>
   <path d="M1034.1112,669.6954L1029.6166,669.6954"/>
   <path d="M134.8840,732.6198L139.3786,732.6198"/>
   <path d="M1034.1112,732.6198L1029.6166,732.6198"/>
   <path d="M134.8840,134.8380L148.3678,134.8380"/>
   <path d="M1034.1112,134.8380L1020.6274,134.8380"/>
   <path d="M134.8840,197.7624L148.3678,197.7624"/>
   <path d="M1034.1112,197.7624L1020.6274,197.7624"/>
   <path d="M134.8840,260.6868L148.3678,260.6868"/>
   <path d="M1034.1112,260.6868L1020.6274,260.6868"/>
   <path d="M134.8840,323.6112L148.3678,323.6112"/>
   <path d="M1034.1112,323.6112L1020.6274,323.6112"/>
   <path d="M134.8840,386.5356L148.3678,386.5356"/>
   <path d="M1034.1112,386.5356L1020.6274,386.5356"/>
   <path d="M134.8840,449.4600L148.3678,449.4600"/>
   <path d="M1034.1112,449.4600L1020.6274,449.4600"/>
   <path d="M134.8840,512.3844L148.3678,512.3844"/>
   <path d="M1034.1112,512.3844L1020.6274,512.3844"/>
   <path d="M134.8840,575.3088L148.3678,575.3088"/>
   <path d="M1034.1112,575.3088L1020.6274,575.3088"/>
   <path d="M134.8840,638.2332L148.3678,638.2332"/>
   <path d="M1034.1112,638.2332L1020.6274,638.2332"/>
   <path d="M134.8840,701.1576L148.3678,701.1576"/>
   <path d="M1034.1112,701.1576L1020.6274,701.1576"/>
   <path d="M134.8840,764.0820L148.3678,764.0820"/>
   <path d="M1034.1112,764.0820L1020.6274,764.0820"/>
  </g>
  <g style="fill:#000000; fill-rule:nonzero">
   <text   style="font-family:'Times','Nimbus Roman No9 L'; font-style:normal; font-weight:bold; font-size:898.9200" transform="matrix(0.0280,0.0000,-0.0000,-0.0280,86.6548,126.3780)">-0.5</text>
   <text   style="font-family:'Times','Nimbus Roman No9 L'; font-style:normal; font-weight:bold; font-size:898.9200" transform="matrix(0.0280,0.0000,-0.0000,-0.0280,86.6548,189.3024)">-0.4</text>
   <text   style="font-family:'Times','Nimbus Roman No9 L'; font-style:normal; font-weight:bold; font-size:898.9200" transform="matrix(0.0280,0.0000,-0.0000,-0.0280,86.6548,252.2268)">-0.3</text>
   <text   style="font-family:'Times','Nimbus Roman No9 L'; font-style:normal; font-weight:bold; font-size:898.9200" transform="matrix(0.0280,0.0000,-0.0000,-0.0280,86.6548,315.1512)">-0.2</text>
   <text   style="font-family:'Times','Nimbus Roman No9 L'; font-style:normal; font-weight:bold; font-size:898.9200" transform="matrix(0.0280,0.0000,-0.0000,-0.0280,87.3748,378.0756)">-0.1</text>
   <text   style="font-family:'Times','Nimbus Roman No9 L'; font-style:normal; font-weight:bold; font-size:898.9200" transform="matrix(0.0280,0.0000,-0.0000,-0.0280,114.0148,441.0000)">0</text>
   <text   style="font-family:'Times','Nimbus Roman No9 L'; font-style:normal; font-weight:bold; font-size:898.9200" transform="matrix(0.0280,0.0000,-0.0000,-0.0280,96.0148,503.9244)">0.1</text>
   <text   style="font-family:'Times','Nimbus Roman No9 L'; font-style:normal; font-weight:bold; font-size:898.9200" transform="matrix(0.0280,0.0000,-0.0000,-0.0280,95.2948,566.8488)">0.2</text>
   <text   style="font-family:'Times','Nimbus Roman No9 L'; font-style:normal; font-weight:bold; font-size:898.9200" transform="matrix(0.0280,0.0000,-0.0000,-0.0280,95.2948,629.7732)">0.3</text>
   <text   style="font-family:'Times','Nimbus Roman No9 L'; font-style:normal; font-weight:bold; font-size:898.9200" transform="matrix(0.0280,0.0000,-0.0000,-0.0280,95.2948,692.6976)">0.4</text>
   <text   style="font-family:'Times','Nimbus Roman No9 L'; font-style:normal; font-weight:bold; font-size:898.9200" transform="matrix(0.0280,0.0000,-0.0000,-0.0280,95.2948,755.6220)">0.5</text>
   <text   style="font-family:'Times','Nimbus Roman No9 L'; font-style:normal; font-weight:bold; font-size:898.9200" transform="matrix(0.0000,0.0280,0.0280,-0.0000,72.6256,256.5000)">Differential Gibbs Free Energy (eV)</text>
  </g>
  <g style="fill:none; stroke:#000000; stroke-width:  2.6968; stroke-linecap:butt; stroke-linejoin:miter; stroke-dasharray:none">
   <path d="M134.8840,134.8380L134.8840,764.0820L1034.1112,764.0820L1034.1112,134.8380z"/>
  </g>
  <g style="fill:#FFFFFF; fill-rule:nonzero">
   <path  d="M764.3429,317.7602L764.3429,235.3768L1012.7853,235.3768L1012.7853,317.7602z"/>
  </g>
  <g style="fill:none; stroke:#000000; stroke-width:  2.6968; stroke-linecap:butt; stroke-linejoin:miter; stroke-dasharray:none">
   <path d="M764.3429,317.7602L764.3429,235.3768L1012.7853,235.3768L1012.7853,317.7602z"/>
  </g>
  <g style="fill:#000000; fill-rule:nonzero">
   <text   style="font-family:'Times','Nimbus Roman No9 L'; font-style:normal; font-weight:bold; font-size:898.9200" transform="matrix(0.0280,0.0000,-0.0000,-0.0280,832.4361,291.4910)">Ni</text>
   <text   style="font-family:'Times','Nimbus Roman No9 L'; font-style:normal; font-weight:bold; font-size:898.9200" transform="matrix(0.0198,0.0000,-0.0000,-0.0198,857.6361,281.4231)">3</text>
   <text   style="font-family:'Times','Nimbus Roman No9 L'; font-style:normal; font-weight:bold; font-size:898.9200" transform="matrix(0.0280,0.0000,-0.0000,-0.0280,866.6361,291.4910)">P</text>
   <text   style="font-family:'Times','Nimbus Roman No9 L'; font-style:normal; font-weight:bold; font-size:898.9200" transform="matrix(0.0198,0.0000,-0.0000,-0.0198,882.1161,281.4231)">2</text>
   <text   style="font-family:'Times','Nimbus Roman No9 L'; font-style:normal; font-weight:bold; font-size:898.9200" transform="matrix(0.0280,0.0000,-0.0000,-0.0280,891.1161,291.4910)"> vdW</text>
  </g>
  <g style="fill:none; stroke:#008B00; stroke-width:  2.6968; stroke-linecap:butt; stroke-linejoin:miter; stroke-dasharray: 19 8">
   <path d="M778.5009,294.9171L814.4577,294.9171"/>
  </g>
  <g style="fill:#008B00; fill-rule:nonzero">
   <path  d="M774.6805,291.0967L774.6805,298.7375L782.3213,298.7375L782.3213,291.0967z"/>
  </g>
  <g style="fill:none; stroke:#008B00; stroke-width:  2.6968; stroke-linecap:butt; stroke-linejoin:miter; stroke-dasharray:none">
   <path d="M774.6805,291.0967L774.6805,298.7375L782.3213,298.7375L782.3213,291.0967z"/>
  </g>
  <g style="fill:#008B00; fill-rule:nonzero">
   <path  d="M810.6373,291.0967L810.6373,298.7375L818.2781,298.7375L818.2781,291.0967z"/>
  </g>
  <g style="fill:none; stroke:#008B00; stroke-width:  2.6968; stroke-linecap:butt; stroke-linejoin:miter; stroke-dasharray:none">
   <path d="M810.6373,291.0967L810.6373,298.7375L818.2781,298.7375L818.2781,291.0967z"/>
  </g>
  <g style="fill:#000000; fill-rule:nonzero">
   <text   style="font-family:'Times','Nimbus Roman No9 L'; font-style:normal; font-weight:bold; font-size:898.9200" transform="matrix(0.0280,0.0000,-0.0000,-0.0280,832.4361,254.7939)">Ni</text>
   <text   style="font-family:'Times','Nimbus Roman No9 L'; font-style:normal; font-weight:bold; font-size:898.9200" transform="matrix(0.0198,0.0000,-0.0000,-0.0198,857.6361,244.7260)">3</text>
   <text   style="font-family:'Times','Nimbus Roman No9 L'; font-style:normal; font-weight:bold; font-size:898.9200" transform="matrix(0.0280,0.0000,-0.0000,-0.0280,866.6361,254.7939)">P</text>
   <text   style="font-family:'Times','Nimbus Roman No9 L'; font-style:normal; font-weight:bold; font-size:898.9200" transform="matrix(0.0198,0.0000,-0.0000,-0.0198,882.1161,244.7260)">2</text>
   <text   style="font-family:'Times','Nimbus Roman No9 L'; font-style:normal; font-weight:bold; font-size:898.9200" transform="matrix(0.0280,0.0000,-0.0000,-0.0280,891.1161,254.7939)"> + 4P vdW</text>
  </g>
  <g style="fill:none; stroke:#FF0000; stroke-width:  2.6968; stroke-linecap:butt; stroke-linejoin:miter; stroke-dasharray: 19 8">
   <path d="M778.5009,258.2200L814.4577,258.2200"/>
  </g>
  <g style="fill:#FF0000; fill-rule:nonzero">
   <path  d="M774.6805,254.3996L774.6805,262.0404L782.3213,262.0404L782.3213,254.3996z"/>
  </g>
  <g style="fill:none; stroke:#FF0000; stroke-width:  2.6968; stroke-linecap:butt; stroke-linejoin:miter; stroke-dasharray:none">
   <path d="M774.6805,254.3996L774.6805,262.0404L782.3213,262.0404L782.3213,254.3996z"/>
  </g>
  <g style="fill:#FF0000; fill-rule:nonzero">
   <path  d="M810.6373,254.3996L810.6373,262.0404L818.2781,262.0404L818.2781,254.3996z"/>
  </g>
  <g style="fill:none; stroke:#FF0000; stroke-width:  2.6968; stroke-linecap:butt; stroke-linejoin:miter; stroke-dasharray:none">
   <path d="M810.6373,254.3996L810.6373,262.0404L818.2781,262.0404L818.2781,254.3996z"/>
  </g>
 </g>
</svg>
