<?xml version="1.0" encoding="ISO-8859-1"?>
<!DOCTYPE svg PUBLIC "-//W3C//DTD SVG 1.0//EN" "http://www.w3.org/TR/2001/REC-SVG-20010904/DTD/svg10.dtd">
<!-- generated by Grace-5.1.25 -->
<svg xml:space="preserve" width="16.1550in" height="12.4850in" viewBox="0.0000 0.0000 1163.1600 898.9200">
 <g transform="translate(0,898.9200) scale(1,-1)">
  <g style="fill:#FFFFFF; fill-rule:nonzero">
   <path  d="M0.0000,0.0000L0.0000,898.9200L1163.1601,898.9200L1163.1601,0.0000z"/>
  </g>
  <g style="fill:none; stroke:#000000; stroke-width:  2.6968; stroke-linecap:butt; stroke-linejoin:miter; stroke-dasharray: 19 8">
   <path d="M134.8370,528.1155L139.3542,528.1155L143.8714,528.1155L148.3885,528.1155L152.9057,528.1155L157.4228,528.1155L161.9400,528.1155L166.4571,528.1155L170.9743,528.1155L175.4915,528.1155
            L180.0086,528.1155L184.5258,528.1155L189.0429,528.1155L193.5601,528.1155L198.0772,528.1155L202.5944,528.1155L207.1115,528.1155L211.6287,528.1155L216.1459,528.1155L220.6630,528.1155
            L225.1802,528.1155L229.6973,528.1155L234.2145,528.1155L238.7316,528.1155L243.2488,528.1155L247.7659,528.1155L252.2831,528.1155L256.8003,528.1155L261.3174,528.1155L265.8346,528.1155
            L270.3517,528.1155L274.8689,528.1155L279.3860,528.1155L283.9032,528.1155L288.4203,528.1155L292.9375,528.1155L297.4547,528.1155L301.9718,528.1155L306.4890,528.1155L311.0061,528.1155
            L315.5233,528.1155L320.0404,528.1155L324.5576,528.1155L329.0748,528.1155L333.5919,528.1155L338.1091,528.1155L342.6262,528.1155L347.1434,528.1155L351.6605,528.1155L356.1777,528.1155
            L360.6948,528.1155L365.2120,528.1155L369.7292,528.1155L374.2463,528.1155L378.7635,528.1155L383.2806,528.1155L387.7978,528.1155L392.3149,528.1155L396.8321,528.1155L401.3492,528.1155
            L405.8664,528.1155L410.3836,528.1155L414.9007,528.1155L419.4179,528.1155L423.9350,528.1155L428.4522,528.1155L432.9693,528.1155L437.4865,528.1155L442.0037,528.1155L446.5208,528.1155
            L451.0380,528.1155L455.5551,528.1155L460.0723,528.1155L464.5894,528.1155L469.1066,528.1155L473.6237,528.1155L478.1409,528.1155L482.6581,528.1155L487.1752,528.1155L491.6924,528.1155
            L496.2095,528.1155L500.7267,528.1155L505.2438,528.1155L509.7610,528.1155L514.2782,528.1155L518.7953,528.1155L523.3125,528.1155L527.8296,528.1155L532.3468,528.1155L536.8639,528.1155
            L541.3811,528.1155L545.8982,528.1155L550.4154,528.1155L554.9326,528.1155L559.4497,528.1155L563.9669,528.1155L568.4840,528.1155L573.0012,528.1155L577.5183,528.1155L582.0355,528.1155
            L586.5526,528.1155L591.0698,528.1155L595.5869,528.1155L600.1041,528.1155L604.6213,528.1155L609.1384,528.1155L613.6556,528.1155L618.1727,528.1155L622.6899,528.1155L627.2071,528.1155
            L631.7242,528.1155L636.2414,528.1155L640.7585,528.1155L645.2757,528.1155L649.7928,528.1155L654.3100,528.1155L658.8271,528.1155L663.3443,528.1155L667.8614,528.1155L672.3786,528.1155
            L676.8958,528.1155L681.4129,528.1155L685.9301,528.1155L690.4472,528.1155L694.9644,528.1155L699.4815,528.1155L703.9987,528.1155L708.5159,528.1155L713.0330,528.1155L717.5502,528.1155
            L722.0673,528.1155L726.5845,528.1155L731.1017,528.1155L735.6188,528.1155L740.1360,528.1155L744.6531,528.1155L749.1703,528.1155L753.6874,528.1155L758.2046,528.1155L762.7217,528.1155
            L767.2389,528.1155L771.7560,528.1155L776.2732,528.1155L780.7903,528.1155L785.3075,528.1155L789.8247,528.1155L794.3418,528.1155L798.8590,528.1155L803.3761,528.1155L807.8933,528.1155
            L812.4104,528.1155L816.9276,528.1155L821.4448,528.1155L825.9619,528.1155L830.4791,528.1155L834.9962,528.1155L839.5134,528.1155L844.0305,528.1155L848.5477,528.1155L853.0648,528.1155
            L857.5820,528.1155L862.0992,528.1155L866.6163,528.1155L871.1335,528.1155L875.6506,528.1155L880.1678,528.1155L884.6849,528.1155L889.2021,528.1155L893.7192,528.1155L898.2364,528.1155
            L902.7536,528.1155L907.2707,528.1155L911.7879,528.1155L916.3050,528.1155L920.8222,528.1155L925.3394,528.1155L929.8565,528.1155L934.3737,528.1155L938.8908,528.1155L943.4080,528.1155
            L947.9251,528.1155L952.4423,528.1155L956.9594,528.1155L961.4766,528.1155L965.9937,528.1155L970.5109,528.1155L975.0280,528.1155L979.5452,528.1155L984.0624,528.1155L988.5795,528.1155
            L993.0967,528.1155L997.6138,528.1155L1002.1310,528.1155L1006.6482,528.1155L1011.1653,528.1155L1015.6825,528.1155L1020.1996,528.1155L1024.7168,528.1155L1029.2339,528.1155L1033.7511,528.1155"/>
   <path d="M134.8370,685.4267L139.3542,685.4267L143.8714,685.4267L148.3885,685.4267L152.9057,685.4267L157.4228,685.4267L161.9400,685.4267L166.4571,685.4267L170.9743,685.4267L175.4915,685.4267
            L180.0086,685.4267L184.5258,685.4267L189.0429,685.4267L193.5601,685.4267L198.0772,685.4267L202.5944,685.4267L207.1115,685.4267L211.6287,685.4267L216.1459,685.4267L220.6630,685.4267
            L225.1802,685.4267L229.6973,685.4267L234.2145,685.4267L238.7316,685.4267L243.2488,685.4267L247.7659,685.4267L252.2831,685.4267L256.8003,685.4267L261.3174,685.4267L265.8346,685.4267
            L270.3517,685.4267L274.8689,685.4267L279.3860,685.4267L283.9032,685.4267L288.4203,685.4267L292.9375,685.4267L297.4547,685.4267L301.9718,685.4267L306.4890,685.4267L311.0061,685.4267
            L315.5233,685.4267L320.0404,685.4267L324.5576,685.4267L329.0748,685.4267L333.5919,685.4267L338.1091,685.4267L342.6262,685.4267L347.1434,685.4267L351.6605,685.4267L356.1777,685.4267
            L360.6948,685.4267L365.2120,685.4267L369.7292,685.4267L374.2463,685.4267L378.7635,685.4267L383.2806,685.4267L387.7978,685.4267L392.3149,685.4267L396.8321,685.4267L401.3492,685.4267
            L405.8664,685.4267L410.3836,685.4267L414.9007,685.4267L419.4179,685.4267L423.9350,685.4267L428.4522,685.4267L432.9693,685.4267L437.4865,685.4267L442.0037,685.4267L446.5208,685.4267
            L451.0380,685.4267L455.5551,685.4267L460.0723,685.4267L464.5894,685.4267L469.1066,685.4267L473.6237,685.4267L478.1409,685.4267L482.6581,685.4267L487.1752,685.4267L491.6924,685.4267
            L496.2095,685.4267L500.7267,685.4267L505.2438,685.4267L509.7610,685.4267L514.2782,685.4267L518.7953,685.4267L523.3125,685.4267L527.8296,685.4267L532.3468,685.4267L536.8639,685.4267
            L541.3811,685.4267L545.8982,685.4267L550.4154,685.4267L554.9326,685.4267L559.4497,685.4267L563.9669,685.4267L568.4840,685.4267L573.0012,685.4267L577.5183,685.4267L582.0355,685.4267
            L586.5526,685.4267L591.0698,685.4267L595.5869,685.4267L600.1041,685.4267L604.6213,685.4267L609.1384,685.4267L613.6556,685.4267L618.1727,685.4267L622.6899,685.4267L627.2071,685.4267
            L631.7242,685.4267L636.2414,685.4267L640.7585,685.4267L645.2757,685.4267L649.7928,685.4267L654.3100,685.4267L658.8271,685.4267L663.3443,685.4267L667.8614,685.4267L672.3786,685.4267
            L676.8958,685.4267L681.4129,685.4267L685.9301,685.4267L690.4472,685.4267L694.9644,685.4267L699.4815,685.4267L703.9987,685.4267L708.5159,685.4267L713.0330,685.4267L717.5502,685.4267
            L722.0673,685.4267L726.5845,685.4267L731.1017,685.4267L735.6188,685.4267L740.1360,685.4267L744.6531,685.4267L749.1703,685.4267L753.6874,685.4267L758.2046,685.4267L762.7217,685.4267
            L767.2389,685.4267L771.7560,685.4267L776.2732,685.4267L780.7903,685.4267L785.3075,685.4267L789.8247,685.4267L794.3418,685.4267L798.8590,685.4267L803.3761,685.4267L807.8933,685.4267
            L812.4104,685.4267L816.9276,685.4267L821.4448,685.4267L825.9619,685.4267L830.4791,685.4267L834.9962,685.4267L839.5134,685.4267L844.0305,685.4267L848.5477,685.4267L853.0648,685.4267
            L857.5820,685.4267L862.0992,685.4267L866.6163,685.4267L871.1335,685.4267L875.6506,685.4267L880.1678,685.4267L884.6849,685.4267L889.2021,685.4267L893.7192,685.4267L898.2364,685.4267
            L902.7536,685.4267L907.2707,685.4267L911.7879,685.4267L916.3050,685.4267L920.8222,685.4267L925.3394,685.4267L929.8565,685.4267L934.3737,685.4267L938.8908,685.4267L943.4080,685.4267
            L947.9251,685.4267L952.4423,685.4267L956.9594,685.4267L961.4766,685.4267L965.9937,685.4267L970.5109,685.4267L975.0280,685.4267L979.5452,685.4267L984.0624,685.4267L988.5795,685.4267
            L993.0967,685.4267L997.6138,685.4267L1002.1310,685.4267L1006.6482,685.4267L1011.1653,685.4267L1015.6825,685.4267L1020.1996,685.4267L1024.7168,685.4267L1029.2339,685.4267L1033.7511,685.4267"/>
   <path d="M134.8370,606.7711L139.3542,606.7711L143.8714,606.7711L148.3885,606.7711L152.9057,606.7711L157.4228,606.7711L161.9400,606.7711L166.4571,606.7711L170.9743,606.7711L175.4915,606.7711
            L180.0086,606.7711L184.5258,606.7711L189.0429,606.7711L193.5601,606.7711L198.0772,606.7711L202.5944,606.7711L207.1115,606.7711L211.6287,606.7711L216.1459,606.7711L220.6630,606.7711
            L225.1802,606.7711L229.6973,606.7711L234.2145,606.7711L238.7316,606.7711L243.2488,606.7711L247.7659,606.7711L252.2831,606.7711L256.8003,606.7711L261.3174,606.7711L265.8346,606.7711
            L270.3517,606.7711L274.8689,606.7711L279.3860,606.7711L283.9032,606.7711L288.4203,606.7711L292.9375,606.7711L297.4547,606.7711L301.9718,606.7711L306.4890,606.7711L311.0061,606.7711
            L315.5233,606.7711L320.0404,606.7711L324.5576,606.7711L329.0748,606.7711L333.5919,606.7711L338.1091,606.7711L342.6262,606.7711L347.1434,606.7711L351.6605,606.7711L356.1777,606.7711
            L360.6948,606.7711L365.2120,606.7711L369.7292,606.7711L374.2463,606.7711L378.7635,606.7711L383.2806,606.7711L387.7978,606.7711L392.3149,606.7711L396.8321,606.7711L401.3492,606.7711
            L405.8664,606.7711L410.3836,606.7711L414.9007,606.7711L419.4179,606.7711L423.9350,606.7711L428.4522,606.7711L432.9693,606.7711L437.4865,606.7711L442.0037,606.7711L446.5208,606.7711
            L451.0380,606.7711L455.5551,606.7711L460.0723,606.7711L464.5894,606.7711L469.1066,606.7711L473.6237,606.7711L478.1409,606.7711L482.6581,606.7711L487.1752,606.7711L491.6924,606.7711
            L496.2095,606.7711L500.7267,606.7711L505.2438,606.7711L509.7610,606.7711L514.2782,606.7711L518.7953,606.7711L523.3125,606.7711L527.8296,606.7711L532.3468,606.7711L536.8639,606.7711
            L541.3811,606.7711L545.8982,606.7711L550.4154,606.7711L554.9326,606.7711L559.4497,606.7711L563.9669,606.7711L568.4840,606.7711L573.0012,606.7711L577.5183,606.7711L582.0355,606.7711
            L586.5526,606.7711L591.0698,606.7711L595.5869,606.7711L600.1041,606.7711L604.6213,606.7711L609.1384,606.7711L613.6556,606.7711L618.1727,606.7711L622.6899,606.7711L627.2071,606.7711
            L631.7242,606.7711L636.2414,606.7711L640.7585,606.7711L645.2757,606.7711L649.7928,606.7711L654.3100,606.7711L658.8271,606.7711L663.3443,606.7711L667.8614,606.7711L672.3786,606.7711
            L676.8958,606.7711L681.4129,606.7711L685.9301,606.7711L690.4472,606.7711L694.9644,606.7711L699.4815,606.7711L703.9987,606.7711L708.5159,606.7711L713.0330,606.7711L717.5502,606.7711
            L722.0673,606.7711L726.5845,606.7711L731.1017,606.7711L735.6188,606.7711L740.1360,606.7711L744.6531,606.7711L749.1703,606.7711L753.6874,606.7711L758.2046,606.7711L762.7217,606.7711
            L767.2389,606.7711L771.7560,606.7711L776.2732,606.7711L780.7903,606.7711L785.3075,606.7711L789.8247,606.7711L794.3418,606.7711L798.8590,606.7711L803.3761,606.7711L807.8933,606.7711
            L812.4104,606.7711L816.9276,606.7711L821.4448,606.7711L825.9619,606.7711L830.4791,606.7711L834.9962,606.7711L839.5134,606.7711L844.0305,606.7711L848.5477,606.7711L853.0648,606.7711
            L857.5820,606.7711L862.0992,606.7711L866.6163,606.7711L871.1335,606.7711L875.6506,606.7711L880.1678,606.7711L884.6849,606.7711L889.2021,606.7711L893.7192,606.7711L898.2364,606.7711
            L902.7536,606.7711L907.2707,606.7711L911.7879,606.7711L916.3050,606.7711L920.8222,606.7711L925.3394,606.7711L929.8565,606.7711L934.3737,606.7711L938.8908,606.7711L943.4080,606.7711
            L947.9251,606.7711L952.4423,606.7711L956.9594,606.7711L961.4766,606.7711L965.9937,606.7711L970.5109,606.7711L975.0280,606.7711L979.5452,606.7711L984.0624,606.7711L988.5795,606.7711
            L993.0967,606.7711L997.6138,606.7711L1002.1310,606.7711L1006.6482,606.7711L1011.1653,606.7711L1015.6825,606.7711L1020.1996,606.7711L1024.7168,606.7711L1029.2339,606.7711L1033.7511,606.7711"/>
  </g>
  <g style="fill:none; stroke:#008B00; stroke-width:  2.6968; stroke-linecap:butt; stroke-linejoin:miter; stroke-dasharray: 13 8">
   <path d="M179.7827,186.7983L224.7285,194.5458L269.6742,203.9035L314.6199,214.5129L359.5656,321.0117L404.5113,391.7325L449.4570,446.1310L494.4027,486.8696L539.3484,522.5280L584.2941,548.6342
            L629.2398,569.9638L674.1855,592.8072L719.1312,608.7689L764.0769,632.5053L809.0226,649.3668L853.9683,661.4702L898.9140,678.5820L943.8597,695.8452L988.8054,705.9725L1033.7511,716.6067"/>
  </g>
  <g style="fill:#008B00; fill-rule:nonzero">
   <ellipse  rx="4.4946" ry="4.4946" cx="179.7827" cy="186.7983"/>
  </g>
  <g style="fill:none; stroke:#008B00; stroke-width:  2.6968; stroke-linecap:butt; stroke-linejoin:miter; stroke-dasharray:none">
   <ellipse  rx="4.4946" ry="4.4946" cx="179.7827" cy="186.7983"/>
  </g>
  <g style="fill:#008B00; fill-rule:nonzero">
   <ellipse  rx="4.4946" ry="4.4946" cx="224.7285" cy="194.5458"/>
  </g>
  <g style="fill:none; stroke:#008B00; stroke-width:  2.6968; stroke-linecap:butt; stroke-linejoin:miter; stroke-dasharray:none">
   <ellipse  rx="4.4946" ry="4.4946" cx="224.7285" cy="194.5458"/>
  </g>
  <g style="fill:#008B00; fill-rule:nonzero">
   <ellipse  rx="4.4946" ry="4.4946" cx="269.6742" cy="203.9035"/>
  </g>
  <g style="fill:none; stroke:#008B00; stroke-width:  2.6968; stroke-linecap:butt; stroke-linejoin:miter; stroke-dasharray:none">
   <ellipse  rx="4.4946" ry="4.4946" cx="269.6742" cy="203.9035"/>
  </g>
  <g style="fill:#008B00; fill-rule:nonzero">
   <ellipse  rx="4.4946" ry="4.4946" cx="314.6199" cy="214.5129"/>
  </g>
  <g style="fill:none; stroke:#008B00; stroke-width:  2.6968; stroke-linecap:butt; stroke-linejoin:miter; stroke-dasharray:none">
   <ellipse  rx="4.4946" ry="4.4946" cx="314.6199" cy="214.5129"/>
  </g>
  <g style="fill:#008B00; fill-rule:nonzero">
   <ellipse  rx="4.4946" ry="4.4946" cx="359.5656" cy="321.0117"/>
  </g>
  <g style="fill:none; stroke:#008B00; stroke-width:  2.6968; stroke-linecap:butt; stroke-linejoin:miter; stroke-dasharray:none">
   <ellipse  rx="4.4946" ry="4.4946" cx="359.5656" cy="321.0117"/>
  </g>
  <g style="fill:#008B00; fill-rule:nonzero">
   <ellipse  rx="4.4946" ry="4.4946" cx="404.5113" cy="391.7325"/>
  </g>
  <g style="fill:none; stroke:#008B00; stroke-width:  2.6968; stroke-linecap:butt; stroke-linejoin:miter; stroke-dasharray:none">
   <ellipse  rx="4.4946" ry="4.4946" cx="404.5113" cy="391.7325"/>
  </g>
  <g style="fill:#008B00; fill-rule:nonzero">
   <ellipse  rx="4.4946" ry="4.4946" cx="449.4570" cy="446.1310"/>
  </g>
  <g style="fill:none; stroke:#008B00; stroke-width:  2.6968; stroke-linecap:butt; stroke-linejoin:miter; stroke-dasharray:none">
   <ellipse  rx="4.4946" ry="4.4946" cx="449.4570" cy="446.1310"/>
  </g>
  <g style="fill:#008B00; fill-rule:nonzero">
   <ellipse  rx="4.4946" ry="4.4946" cx="494.4027" cy="486.8696"/>
  </g>
  <g style="fill:none; stroke:#008B00; stroke-width:  2.6968; stroke-linecap:butt; stroke-linejoin:miter; stroke-dasharray:none">
   <ellipse  rx="4.4946" ry="4.4946" cx="494.4027" cy="486.8696"/>
  </g>
  <g style="fill:#008B00; fill-rule:nonzero">
   <ellipse  rx="4.4946" ry="4.4946" cx="539.3484" cy="522.5280"/>
  </g>
  <g style="fill:none; stroke:#008B00; stroke-width:  2.6968; stroke-linecap:butt; stroke-linejoin:miter; stroke-dasharray:none">
   <ellipse  rx="4.4946" ry="4.4946" cx="539.3484" cy="522.5280"/>
  </g>
  <g style="fill:#008B00; fill-rule:nonzero">
   <ellipse  rx="4.4946" ry="4.4946" cx="584.2941" cy="548.6342"/>
  </g>
  <g style="fill:none; stroke:#008B00; stroke-width:  2.6968; stroke-linecap:butt; stroke-linejoin:miter; stroke-dasharray:none">
   <ellipse  rx="4.4946" ry="4.4946" cx="584.2941" cy="548.6342"/>
  </g>
  <g style="fill:#008B00; fill-rule:nonzero">
   <ellipse  rx="4.4946" ry="4.4946" cx="629.2398" cy="569.9638"/>
  </g>
  <g style="fill:none; stroke:#008B00; stroke-width:  2.6968; stroke-linecap:butt; stroke-linejoin:miter; stroke-dasharray:none">
   <ellipse  rx="4.4946" ry="4.4946" cx="629.2398" cy="569.9638"/>
  </g>
  <g style="fill:#008B00; fill-rule:nonzero">
   <ellipse  rx="4.4946" ry="4.4946" cx="674.1855" cy="592.8072"/>
  </g>
  <g style="fill:none; stroke:#008B00; stroke-width:  2.6968; stroke-linecap:butt; stroke-linejoin:miter; stroke-dasharray:none">
   <ellipse  rx="4.4946" ry="4.4946" cx="674.1855" cy="592.8072"/>
  </g>
  <g style="fill:#008B00; fill-rule:nonzero">
   <ellipse  rx="4.4946" ry="4.4946" cx="719.1312" cy="608.7689"/>
  </g>
  <g style="fill:none; stroke:#008B00; stroke-width:  2.6968; stroke-linecap:butt; stroke-linejoin:miter; stroke-dasharray:none">
   <ellipse  rx="4.4946" ry="4.4946" cx="719.1312" cy="608.7689"/>
  </g>
  <g style="fill:#008B00; fill-rule:nonzero">
   <ellipse  rx="4.4946" ry="4.4946" cx="764.0769" cy="632.5053"/>
  </g>
  <g style="fill:none; stroke:#008B00; stroke-width:  2.6968; stroke-linecap:butt; stroke-linejoin:miter; stroke-dasharray:none">
   <ellipse  rx="4.4946" ry="4.4946" cx="764.0769" cy="632.5053"/>
  </g>
  <g style="fill:#008B00; fill-rule:nonzero">
   <ellipse  rx="4.4946" ry="4.4946" cx="809.0226" cy="649.3668"/>
  </g>
  <g style="fill:none; stroke:#008B00; stroke-width:  2.6968; stroke-linecap:butt; stroke-linejoin:miter; stroke-dasharray:none">
   <ellipse  rx="4.4946" ry="4.4946" cx="809.0226" cy="649.3668"/>
  </g>
  <g style="fill:#008B00; fill-rule:nonzero">
   <ellipse  rx="4.4946" ry="4.4946" cx="853.9683" cy="661.4702"/>
  </g>
  <g style="fill:none; stroke:#008B00; stroke-width:  2.6968; stroke-linecap:butt; stroke-linejoin:miter; stroke-dasharray:none">
   <ellipse  rx="4.4946" ry="4.4946" cx="853.9683" cy="661.4702"/>
  </g>
  <g style="fill:#008B00; fill-rule:nonzero">
   <ellipse  rx="4.4946" ry="4.4946" cx="898.9140" cy="678.5820"/>
  </g>
  <g style="fill:none; stroke:#008B00; stroke-width:  2.6968; stroke-linecap:butt; stroke-linejoin:miter; stroke-dasharray:none">
   <ellipse  rx="4.4946" ry="4.4946" cx="898.9140" cy="678.5820"/>
  </g>
  <g style="fill:#008B00; fill-rule:nonzero">
   <ellipse  rx="4.4946" ry="4.4946" cx="943.8597" cy="695.8452"/>
  </g>
  <g style="fill:none; stroke:#008B00; stroke-width:  2.6968; stroke-linecap:butt; stroke-linejoin:miter; stroke-dasharray:none">
   <ellipse  rx="4.4946" ry="4.4946" cx="943.8597" cy="695.8452"/>
  </g>
  <g style="fill:#008B00; fill-rule:nonzero">
   <ellipse  rx="4.4946" ry="4.4946" cx="988.8054" cy="705.9725"/>
  </g>
  <g style="fill:none; stroke:#008B00; stroke-width:  2.6968; stroke-linecap:butt; stroke-linejoin:miter; stroke-dasharray:none">
   <ellipse  rx="4.4946" ry="4.4946" cx="988.8054" cy="705.9725"/>
  </g>
  <g style="fill:#008B00; fill-rule:nonzero">
   <ellipse  rx="4.4946" ry="4.4946" cx="1033.7511" cy="716.6067"/>
  </g>
  <g style="fill:none; stroke:#008B00; stroke-width:  2.6968; stroke-linecap:butt; stroke-linejoin:miter; stroke-dasharray:none">
   <ellipse  rx="4.4946" ry="4.4946" cx="1033.7511" cy="716.6067"/>
  </g>
  <g style="fill:none; stroke:#FF0000; stroke-width:  2.6968; stroke-linecap:butt; stroke-linejoin:miter; stroke-dasharray: 13 8">
   <path d="M179.7827,566.6634L224.7285,598.2398L269.6742,643.4460L314.6199,647.7518L359.5656,671.6843L404.5113,657.1918L449.4570,669.1756L494.4027,670.3445L539.3484,678.3045L584.2941,695.0916
            L629.2398,707.8237L674.1855,721.0920"/>
  </g>
  <g style="fill:#FF0000; fill-rule:nonzero">
   <ellipse  rx="4.4946" ry="4.4946" cx="179.7827" cy="566.6634"/>
  </g>
  <g style="fill:none; stroke:#FF0000; stroke-width:  2.6968; stroke-linecap:butt; stroke-linejoin:miter; stroke-dasharray:none">
   <ellipse  rx="4.4946" ry="4.4946" cx="179.7827" cy="566.6634"/>
  </g>
  <g style="fill:#FF0000; fill-rule:nonzero">
   <ellipse  rx="4.4946" ry="4.4946" cx="224.7285" cy="598.2398"/>
  </g>
  <g style="fill:none; stroke:#FF0000; stroke-width:  2.6968; stroke-linecap:butt; stroke-linejoin:miter; stroke-dasharray:none">
   <ellipse  rx="4.4946" ry="4.4946" cx="224.7285" cy="598.2398"/>
  </g>
  <g style="fill:#FF0000; fill-rule:nonzero">
   <ellipse  rx="4.4946" ry="4.4946" cx="269.6742" cy="643.4460"/>
  </g>
  <g style="fill:none; stroke:#FF0000; stroke-width:  2.6968; stroke-linecap:butt; stroke-linejoin:miter; stroke-dasharray:none">
   <ellipse  rx="4.4946" ry="4.4946" cx="269.6742" cy="643.4460"/>
  </g>
  <g style="fill:#FF0000; fill-rule:nonzero">
   <ellipse  rx="4.4946" ry="4.4946" cx="314.6199" cy="647.7518"/>
  </g>
  <g style="fill:none; stroke:#FF0000; stroke-width:  2.6968; stroke-linecap:butt; stroke-linejoin:miter; stroke-dasharray:none">
   <ellipse  rx="4.4946" ry="4.4946" cx="314.6199" cy="647.7518"/>
  </g>
  <g style="fill:#FF0000; fill-rule:nonzero">
   <ellipse  rx="4.4946" ry="4.4946" cx="359.5656" cy="671.6843"/>
  </g>
  <g style="fill:none; stroke:#FF0000; stroke-width:  2.6968; stroke-linecap:butt; stroke-linejoin:miter; stroke-dasharray:none">
   <ellipse  rx="4.4946" ry="4.4946" cx="359.5656" cy="671.6843"/>
  </g>
  <g style="fill:#FF0000; fill-rule:nonzero">
   <ellipse  rx="4.4946" ry="4.4946" cx="404.5113" cy="657.1918"/>
  </g>
  <g style="fill:none; stroke:#FF0000; stroke-width:  2.6968; stroke-linecap:butt; stroke-linejoin:miter; stroke-dasharray:none">
   <ellipse  rx="4.4946" ry="4.4946" cx="404.5113" cy="657.1918"/>
  </g>
  <g style="fill:#FF0000; fill-rule:nonzero">
   <ellipse  rx="4.4946" ry="4.4946" cx="449.4570" cy="669.1756"/>
  </g>
  <g style="fill:none; stroke:#FF0000; stroke-width:  2.6968; stroke-linecap:butt; stroke-linejoin:miter; stroke-dasharray:none">
   <ellipse  rx="4.4946" ry="4.4946" cx="449.4570" cy="669.1756"/>
  </g>
  <g style="fill:#FF0000; fill-rule:nonzero">
   <ellipse  rx="4.4946" ry="4.4946" cx="494.4027" cy="670.3445"/>
  </g>
  <g style="fill:none; stroke:#FF0000; stroke-width:  2.6968; stroke-linecap:butt; stroke-linejoin:miter; stroke-dasharray:none">
   <ellipse  rx="4.4946" ry="4.4946" cx="494.4027" cy="670.3445"/>
  </g>
  <g style="fill:#FF0000; fill-rule:nonzero">
   <ellipse  rx="4.4946" ry="4.4946" cx="539.3484" cy="678.3045"/>
  </g>
  <g style="fill:none; stroke:#FF0000; stroke-width:  2.6968; stroke-linecap:butt; stroke-linejoin:miter; stroke-dasharray:none">
   <ellipse  rx="4.4946" ry="4.4946" cx="539.3484" cy="678.3045"/>
  </g>
  <g style="fill:#FF0000; fill-rule:nonzero">
   <ellipse  rx="4.4946" ry="4.4946" cx="584.2941" cy="695.0916"/>
  </g>
  <g style="fill:none; stroke:#FF0000; stroke-width:  2.6968; stroke-linecap:butt; stroke-linejoin:miter; stroke-dasharray:none">
   <ellipse  rx="4.4946" ry="4.4946" cx="584.2941" cy="695.0916"/>
  </g>
  <g style="fill:#FF0000; fill-rule:nonzero">
   <ellipse  rx="4.4946" ry="4.4946" cx="629.2398" cy="707.8237"/>
  </g>
  <g style="fill:none; stroke:#FF0000; stroke-width:  2.6968; stroke-linecap:butt; stroke-linejoin:miter; stroke-dasharray:none">
   <ellipse  rx="4.4946" ry="4.4946" cx="629.2398" cy="707.8237"/>
  </g>
  <g style="fill:#FF0000; fill-rule:nonzero">
   <ellipse  rx="4.4946" ry="4.4946" cx="674.1855" cy="721.0920"/>
  </g>
  <g style="fill:none; stroke:#FF0000; stroke-width:  2.6968; stroke-linecap:butt; stroke-linejoin:miter; stroke-dasharray:none">
   <ellipse  rx="4.4946" ry="4.4946" cx="674.1855" cy="721.0920"/>
  </g>
  <g style="fill:none; stroke:#000000; stroke-width:  2.6968; stroke-linecap:butt; stroke-linejoin:miter; stroke-dasharray:none">
   <path d="M134.8370,134.8377L1033.7511,134.8377"/>
   <path d="M134.8370,764.0822L1033.7511,764.0822"/>
   <path d="M179.7827,134.8377L179.7827,143.8269"/>
   <path d="M179.7827,764.0822L179.7827,755.0930"/>
   <path d="M269.6742,134.8377L269.6742,143.8269"/>
   <path d="M269.6742,764.0822L269.6742,755.0930"/>
   <path d="M359.5656,134.8377L359.5656,143.8269"/>
   <path d="M359.5656,764.0822L359.5656,755.0930"/>
   <path d="M449.4570,134.8377L449.4570,143.8269"/>
   <path d="M449.4570,764.0822L449.4570,755.0930"/>
   <path d="M539.3484,134.8377L539.3484,143.8269"/>
   <path d="M539.3484,764.0822L539.3484,755.0930"/>
   <path d="M629.2398,134.8377L629.2398,143.8269"/>
   <path d="M629.2398,764.0822L629.2398,755.0930"/>
   <path d="M719.1312,134.8377L719.1312,143.8269"/>
   <path d="M719.1312,764.0822L719.1312,755.0930"/>
   <path d="M809.0226,134.8377L809.0226,143.8269"/>
   <path d="M809.0226,764.0822L809.0226,755.0930"/>
   <path d="M898.9140,134.8377L898.9140,143.8269"/>
   <path d="M898.9140,764.0822L898.9140,755.0930"/>
   <path d="M988.8054,134.8377L988.8054,143.8269"/>
   <path d="M988.8054,764.0822L988.8054,755.0930"/>
   <path d="M134.8370,134.8377L134.8370,148.3215"/>
   <path d="M134.8370,764.0822L134.8370,750.5984"/>
   <path d="M224.7285,134.8377L224.7285,148.3215"/>
   <path d="M224.7285,764.0822L224.7285,750.5984"/>
   <path d="M314.6199,134.8377L314.6199,148.3215"/>
   <path d="M314.6199,764.0822L314.6199,750.5984"/>
   <path d="M404.5113,134.8377L404.5113,148.3215"/>
   <path d="M404.5113,764.0822L404.5113,750.5984"/>
   <path d="M494.4027,134.8377L494.4027,148.3215"/>
   <path d="M494.4027,764.0822L494.4027,750.5984"/>
   <path d="M584.2941,134.8377L584.2941,148.3215"/>
   <path d="M584.2941,764.0822L584.2941,750.5984"/>
   <path d="M674.1855,134.8377L674.1855,148.3215"/>
   <path d="M674.1855,764.0822L674.1855,750.5984"/>
   <path d="M764.0769,134.8377L764.0769,148.3215"/>
   <path d="M764.0769,764.0822L764.0769,750.5984"/>
   <path d="M853.9683,134.8377L853.9683,148.3215"/>
   <path d="M853.9683,764.0822L853.9683,750.5984"/>
   <path d="M943.8597,134.8377L943.8597,148.3215"/>
   <path d="M943.8597,764.0822L943.8597,750.5984"/>
   <path d="M1033.7511,134.8377L1033.7511,148.3215"/>
   <path d="M1033.7511,764.0822L1033.7511,750.5984"/>
  </g>
  <g style="fill:#000000; fill-rule:nonzero">
   <text   style="font-family:'Times','Nimbus Roman No9 L'; font-style:normal; font-weight:bold; font-size:898.9200" transform="matrix(0.0280,0.0000,-0.0000,-0.0280,128.8970,108.5685)">0</text>
   <text   style="font-family:'Times','Nimbus Roman No9 L'; font-style:normal; font-weight:bold; font-size:898.9200" transform="matrix(0.0280,0.0000,-0.0000,-0.0280,218.7885,108.5685)">2</text>
   <text   style="font-family:'Times','Nimbus Roman No9 L'; font-style:normal; font-weight:bold; font-size:898.9200" transform="matrix(0.0280,0.0000,-0.0000,-0.0280,308.6799,108.5685)">4</text>
   <text   style="font-family:'Times','Nimbus Roman No9 L'; font-style:normal; font-weight:bold; font-size:898.9200" transform="matrix(0.0280,0.0000,-0.0000,-0.0280,398.5713,108.5685)">6</text>
   <text   style="font-family:'Times','Nimbus Roman No9 L'; font-style:normal; font-weight:bold; font-size:898.9200" transform="matrix(0.0280,0.0000,-0.0000,-0.0280,488.4627,108.5685)">8</text>
   <text   style="font-family:'Times','Nimbus Roman No9 L'; font-style:normal; font-weight:bold; font-size:898.9200" transform="matrix(0.0280,0.0000,-0.0000,-0.0280,572.0541,108.5685)">10</text>
   <text   style="font-family:'Times','Nimbus Roman No9 L'; font-style:normal; font-weight:bold; font-size:898.9200" transform="matrix(0.0280,0.0000,-0.0000,-0.0280,661.9455,108.5685)">12</text>
   <text   style="font-family:'Times','Nimbus Roman No9 L'; font-style:normal; font-weight:bold; font-size:898.9200" transform="matrix(0.0280,0.0000,-0.0000,-0.0280,751.8369,108.5685)">14</text>
   <text   style="font-family:'Times','Nimbus Roman No9 L'; font-style:normal; font-weight:bold; font-size:898.9200" transform="matrix(0.0280,0.0000,-0.0000,-0.0280,841.7283,108.5685)">16</text>
   <text   style="font-family:'Times','Nimbus Roman No9 L'; font-style:normal; font-weight:bold; font-size:898.9200" transform="matrix(0.0280,0.0000,-0.0000,-0.0280,931.6197,108.5685)">18</text>
   <text   style="font-family:'Times','Nimbus Roman No9 L'; font-style:normal; font-weight:bold; font-size:898.9200" transform="matrix(0.0280,0.0000,-0.0000,-0.0280,1021.5111,108.5685)">20</text>
   <text   style="font-family:'Times','Nimbus Roman No9 L'; font-style:normal; font-weight:bold; font-size:898.9200" transform="matrix(0.0280,0.0000,-0.0000,-0.0280,469.0941,81.9393)">Number of Hydrogen</text>
  </g>
  <g style="fill:none; stroke:#000000; stroke-width:  1.3484; stroke-linecap:butt; stroke-linejoin:miter; stroke-dasharray:none">
   <path d="M134.8370,134.8377L134.8370,764.0822"/>
   <path d="M1033.7511,134.8377L1033.7511,764.0822"/>
  </g>
  <g style="fill:none; stroke:#000000; stroke-width:  2.6968; stroke-linecap:butt; stroke-linejoin:miter; stroke-dasharray:none">
   <path d="M134.8370,174.1655L139.3316,174.1655"/>
   <path d="M1033.7511,174.1655L1029.2565,174.1655"/>
   <path d="M134.8370,252.8210L139.3316,252.8210"/>
   <path d="M1033.7511,252.8210L1029.2565,252.8210"/>
   <path d="M134.8370,331.4766L139.3316,331.4766"/>
   <path d="M1033.7511,331.4766L1029.2565,331.4766"/>
   <path d="M134.8370,410.1322L139.3316,410.1322"/>
   <path d="M1033.7511,410.1322L1029.2565,410.1322"/>
   <path d="M134.8370,488.7877L139.3316,488.7877"/>
   <path d="M1033.7511,488.7877L1029.2565,488.7877"/>
   <path d="M134.8370,567.4433L139.3316,567.4433"/>
   <path d="M1033.7511,567.4433L1029.2565,567.4433"/>
   <path d="M134.8370,646.0989L139.3316,646.0989"/>
   <path d="M1033.7511,646.0989L1029.2565,646.0989"/>
   <path d="M134.8370,724.7544L139.3316,724.7544"/>
   <path d="M1033.7511,724.7544L1029.2565,724.7544"/>
   <path d="M134.8370,213.4932L148.3208,213.4932"/>
   <path d="M1033.7511,213.4932L1020.2673,213.4932"/>
   <path d="M134.8370,292.1488L148.3208,292.1488"/>
   <path d="M1033.7511,292.1488L1020.2673,292.1488"/>
   <path d="M134.8370,370.8044L148.3208,370.8044"/>
   <path d="M1033.7511,370.8044L1020.2673,370.8044"/>
   <path d="M134.8370,449.4600L148.3208,449.4600"/>
   <path d="M1033.7511,449.4600L1020.2673,449.4600"/>
   <path d="M134.8370,528.1155L148.3208,528.1155"/>
   <path d="M1033.7511,528.1155L1020.2673,528.1155"/>
   <path d="M134.8370,606.7711L148.3208,606.7711"/>
   <path d="M1033.7511,606.7711L1020.2673,606.7711"/>
   <path d="M134.8370,685.4267L148.3208,685.4267"/>
   <path d="M1033.7511,685.4267L1020.2673,685.4267"/>
   <path d="M134.8370,764.0822L148.3208,764.0822"/>
   <path d="M1033.7511,764.0822L1020.2673,764.0822"/>
  </g>
  <g style="fill:#000000; fill-rule:nonzero">
   <text   style="font-family:'Times','Nimbus Roman No9 L'; font-style:normal; font-weight:bold; font-size:898.9200" transform="matrix(0.0280,0.0000,-0.0000,-0.0280,86.6078,205.0332)">-0.5</text>
   <text   style="font-family:'Times','Nimbus Roman No9 L'; font-style:normal; font-weight:bold; font-size:898.9200" transform="matrix(0.0280,0.0000,-0.0000,-0.0280,86.6078,283.6888)">-0.4</text>
   <text   style="font-family:'Times','Nimbus Roman No9 L'; font-style:normal; font-weight:bold; font-size:898.9200" transform="matrix(0.0280,0.0000,-0.0000,-0.0280,86.6078,362.3444)">-0.3</text>
   <text   style="font-family:'Times','Nimbus Roman No9 L'; font-style:normal; font-weight:bold; font-size:898.9200" transform="matrix(0.0280,0.0000,-0.0000,-0.0280,86.6078,441.0000)">-0.2</text>
   <text   style="font-family:'Times','Nimbus Roman No9 L'; font-style:normal; font-weight:bold; font-size:898.9200" transform="matrix(0.0280,0.0000,-0.0000,-0.0280,87.3278,519.6555)">-0.1</text>
   <text   style="font-family:'Times','Nimbus Roman No9 L'; font-style:normal; font-weight:bold; font-size:898.9200" transform="matrix(0.0280,0.0000,-0.0000,-0.0280,113.9678,598.3111)">0</text>
   <text   style="font-family:'Times','Nimbus Roman No9 L'; font-style:normal; font-weight:bold; font-size:898.9200" transform="matrix(0.0280,0.0000,-0.0000,-0.0280,95.9678,676.9667)">0.1</text>
   <text   style="font-family:'Times','Nimbus Roman No9 L'; font-style:normal; font-weight:bold; font-size:898.9200" transform="matrix(0.0280,0.0000,-0.0000,-0.0280,95.2478,755.6222)">0.2</text>
   <text   style="font-family:'Times','Nimbus Roman No9 L'; font-style:normal; font-weight:bold; font-size:898.9200" transform="matrix(0.0000,0.0280,0.0280,-0.0000,72.2186,287.4600)">Gibbs Free Energy per H (eV)</text>
  </g>
  <g style="fill:none; stroke:#000000; stroke-width:  2.6968; stroke-linecap:butt; stroke-linejoin:miter; stroke-dasharray:none">
   <path d="M134.8370,134.8377L134.8370,764.0822L1033.7511,764.0822L1033.7511,134.8377z"/>
  </g>
  <g style="fill:#FFFFFF; fill-rule:nonzero">
   <path  d="M764.0772,263.8250L764.0772,181.4416L948.7538,181.4416L948.7538,263.8250z"/>
  </g>
  <g style="fill:none; stroke:#000000; stroke-width:  2.6968; stroke-linecap:butt; stroke-linejoin:miter; stroke-dasharray:none">
   <path d="M764.0772,263.8250L764.0772,181.4416L948.7538,181.4416L948.7538,263.8250z"/>
  </g>
  <g style="fill:#000000; fill-rule:nonzero">
   <text   style="font-family:'Times','Nimbus Roman No9 L'; font-style:normal; font-weight:bold; font-size:898.9200" transform="matrix(0.0280,0.0000,-0.0000,-0.0280,832.8446,237.5558)">Ni</text>
   <text   style="font-family:'Times','Nimbus Roman No9 L'; font-style:normal; font-weight:bold; font-size:898.9200" transform="matrix(0.0198,0.0000,-0.0000,-0.0198,858.0446,227.4879)">3</text>
   <text   style="font-family:'Times','Nimbus Roman No9 L'; font-style:normal; font-weight:bold; font-size:898.9200" transform="matrix(0.0280,0.0000,-0.0000,-0.0280,867.0446,237.5558)">P</text>
   <text   style="font-family:'Times','Nimbus Roman No9 L'; font-style:normal; font-weight:bold; font-size:898.9200" transform="matrix(0.0198,0.0000,-0.0000,-0.0198,882.5246,227.4879)">2</text>
  </g>
  <g style="fill:none; stroke:#008B00; stroke-width:  2.6968; stroke-linecap:butt; stroke-linejoin:miter; stroke-dasharray: 13 8">
   <path d="M778.9094,240.9819L814.8662,240.9819"/>
  </g>
  <g style="fill:#008B00; fill-rule:nonzero">
   <ellipse  rx="4.4946" ry="4.4946" cx="778.9094" cy="240.9819"/>
  </g>
  <g style="fill:none; stroke:#008B00; stroke-width:  2.6968; stroke-linecap:butt; stroke-linejoin:miter; stroke-dasharray:none">
   <ellipse  rx="4.4946" ry="4.4946" cx="778.9094" cy="240.9819"/>
  </g>
  <g style="fill:#008B00; fill-rule:nonzero">
   <ellipse  rx="4.4946" ry="4.4946" cx="814.8662" cy="240.9819"/>
  </g>
  <g style="fill:none; stroke:#008B00; stroke-width:  2.6968; stroke-linecap:butt; stroke-linejoin:miter; stroke-dasharray:none">
   <ellipse  rx="4.4946" ry="4.4946" cx="814.8662" cy="240.9819"/>
  </g>
  <g style="fill:#000000; fill-rule:nonzero">
   <text   style="font-family:'Times','Nimbus Roman No9 L'; font-style:normal; font-weight:bold; font-size:898.9200" transform="matrix(0.0280,0.0000,-0.0000,-0.0280,832.8446,200.8587)">Ni</text>
   <text   style="font-family:'Times','Nimbus Roman No9 L'; font-style:normal; font-weight:bold; font-size:898.9200" transform="matrix(0.0198,0.0000,-0.0000,-0.0198,858.0446,190.7908)">3</text>
   <text   style="font-family:'Times','Nimbus Roman No9 L'; font-style:normal; font-weight:bold; font-size:898.9200" transform="matrix(0.0280,0.0000,-0.0000,-0.0280,867.0446,200.8587)">P</text>
   <text   style="font-family:'Times','Nimbus Roman No9 L'; font-style:normal; font-weight:bold; font-size:898.9200" transform="matrix(0.0198,0.0000,-0.0000,-0.0198,882.5246,190.7908)">2</text>
   <text   style="font-family:'Times','Nimbus Roman No9 L'; font-style:normal; font-weight:bold; font-size:898.9200" transform="matrix(0.0280,0.0000,-0.0000,-0.0280,891.5246,200.8587)">+ 4P</text>
  </g>
  <g style="fill:none; stroke:#FF0000; stroke-width:  2.6968; stroke-linecap:butt; stroke-linejoin:miter; stroke-dasharray: 13 8">
   <path d="M778.9094,204.2848L814.8662,204.2848"/>
  </g>
  <g style="fill:#FF0000; fill-rule:nonzero">
   <ellipse  rx="4.4946" ry="4.4946" cx="778.9094" cy="204.2848"/>
  </g>
  <g style="fill:none; stroke:#FF0000; stroke-width:  2.6968; stroke-linecap:butt; stroke-linejoin:miter; stroke-dasharray:none">
   <ellipse  rx="4.4946" ry="4.4946" cx="778.9094" cy="204.2848"/>
  </g>
  <g style="fill:#FF0000; fill-rule:nonzero">
   <ellipse  rx="4.4946" ry="4.4946" cx="814.8662" cy="204.2848"/>
  </g>
  <g style="fill:none; stroke:#FF0000; stroke-width:  2.6968; stroke-linecap:butt; stroke-linejoin:miter; stroke-dasharray:none">
   <ellipse  rx="4.4946" ry="4.4946" cx="814.8662" cy="204.2848"/>
  </g>
 </g>
</svg>
