<?xml version="1.0" encoding="ISO-8859-1"?>
<!DOCTYPE svg PUBLIC "-//W3C//DTD SVG 1.0//EN" "http://www.w3.org/TR/2001/REC-SVG-20010904/DTD/svg10.dtd">
<!-- generated by Grace-5.1.25 -->
<svg xml:space="preserve" width="16.1550in" height="12.4850in" viewBox="0.0000 0.0000 1163.1600 898.9200">
 <g transform="translate(0,898.9200) scale(1,-1)">
  <g style="fill:#FFFFFF; fill-rule:nonzero">
   <path  d="M0.0000,0.0000L0.0000,898.9200L1163.1601,898.9200L1163.1601,0.0000z"/>
  </g>
  <defs>
   <pattern id="pattern4" viewBox="0 0 16 16" width="16" height="16" patternUnits="userSpaceOnUse">
     <rect fill="#FFFFFF" x="0" y="0" width="16" height="16"/>
     <rect x="0" y="15" width="1" height="1"/>
     <rect x="2" y="15" width="1" height="1"/>
     <rect x="4" y="15" width="1" height="1"/>
     <rect x="6" y="15" width="1" height="1"/>
     <rect x="8" y="15" width="1" height="1"/>
     <rect x="10" y="15" width="1" height="1"/>
     <rect x="12" y="15" width="1" height="1"/>
     <rect x="14" y="15" width="1" height="1"/>
     <rect x="1" y="14" width="1" height="1"/>
     <rect x="3" y="14" width="1" height="1"/>
     <rect x="5" y="14" width="1" height="1"/>
     <rect x="7" y="14" width="1" height="1"/>
     <rect x="9" y="14" width="1" height="1"/>
     <rect x="11" y="14" width="1" height="1"/>
     <rect x="13" y="14" width="1" height="1"/>
     <rect x="15" y="14" width="1" height="1"/>
     <rect x="0" y="13" width="1" height="1"/>
     <rect x="2" y="13" width="1" height="1"/>
     <rect x="4" y="13" width="1" height="1"/>
     <rect x="6" y="13" width="1" height="1"/>
     <rect x="8" y="13" width="1" height="1"/>
     <rect x="10" y="13" width="1" height="1"/>
     <rect x="12" y="13" width="1" height="1"/>
     <rect x="14" y="13" width="1" height="1"/>
     <rect x="1" y="12" width="1" height="1"/>
     <rect x="3" y="12" width="1" height="1"/>
     <rect x="5" y="12" width="1" height="1"/>
     <rect x="7" y="12" width="1" height="1"/>
     <rect x="9" y="12" width="1" height="1"/>
     <rect x="11" y="12" width="1" height="1"/>
     <rect x="13" y="12" width="1" height="1"/>
     <rect x="15" y="12" width="1" height="1"/>
     <rect x="0" y="11" width="1" height="1"/>
     <rect x="2" y="11" width="1" height="1"/>
     <rect x="4" y="11" width="1" height="1"/>
     <rect x="6" y="11" width="1" height="1"/>
     <rect x="8" y="11" width="1" height="1"/>
     <rect x="10" y="11" width="1" height="1"/>
     <rect x="12" y="11" width="1" height="1"/>
     <rect x="14" y="11" width="1" height="1"/>
     <rect x="1" y="10" width="1" height="1"/>
     <rect x="3" y="10" width="1" height="1"/>
     <rect x="5" y="10" width="1" height="1"/>
     <rect x="7" y="10" width="1" height="1"/>
     <rect x="9" y="10" width="1" height="1"/>
     <rect x="11" y="10" width="1" height="1"/>
     <rect x="13" y="10" width="1" height="1"/>
     <rect x="15" y="10" width="1" height="1"/>
     <rect x="0" y="9" width="1" height="1"/>
     <rect x="2" y="9" width="1" height="1"/>
     <rect x="4" y="9" width="1" height="1"/>
     <rect x="6" y="9" width="1" height="1"/>
     <rect x="8" y="9" width="1" height="1"/>
     <rect x="10" y="9" width="1" height="1"/>
     <rect x="12" y="9" width="1" height="1"/>
     <rect x="14" y="9" width="1" height="1"/>
     <rect x="1" y="8" width="1" height="1"/>
     <rect x="3" y="8" width="1" height="1"/>
     <rect x="5" y="8" width="1" height="1"/>
     <rect x="7" y="8" width="1" height="1"/>
     <rect x="9" y="8" width="1" height="1"/>
     <rect x="11" y="8" width="1" height="1"/>
     <rect x="13" y="8" width="1" height="1"/>
     <rect x="15" y="8" width="1" height="1"/>
     <rect x="0" y="7" width="1" height="1"/>
     <rect x="2" y="7" width="1" height="1"/>
     <rect x="4" y="7" width="1" height="1"/>
     <rect x="6" y="7" width="1" height="1"/>
     <rect x="8" y="7" width="1" height="1"/>
     <rect x="10" y="7" width="1" height="1"/>
     <rect x="12" y="7" width="1" height="1"/>
     <rect x="14" y="7" width="1" height="1"/>
     <rect x="1" y="6" width="1" height="1"/>
     <rect x="3" y="6" width="1" height="1"/>
     <rect x="5" y="6" width="1" height="1"/>
     <rect x="7" y="6" width="1" height="1"/>
     <rect x="9" y="6" width="1" height="1"/>
     <rect x="11" y="6" width="1" height="1"/>
     <rect x="13" y="6" width="1" height="1"/>
     <rect x="15" y="6" width="1" height="1"/>
     <rect x="0" y="5" width="1" height="1"/>
     <rect x="2" y="5" width="1" height="1"/>
     <rect x="4" y="5" width="1" height="1"/>
     <rect x="6" y="5" width="1" height="1"/>
     <rect x="8" y="5" width="1" height="1"/>
     <rect x="10" y="5" width="1" height="1"/>
     <rect x="12" y="5" width="1" height="1"/>
     <rect x="14" y="5" width="1" height="1"/>
     <rect x="1" y="4" width="1" height="1"/>
     <rect x="3" y="4" width="1" height="1"/>
     <rect x="5" y="4" width="1" height="1"/>
     <rect x="7" y="4" width="1" height="1"/>
     <rect x="9" y="4" width="1" height="1"/>
     <rect x="11" y="4" width="1" height="1"/>
     <rect x="13" y="4" width="1" height="1"/>
     <rect x="15" y="4" width="1" height="1"/>
     <rect x="0" y="3" width="1" height="1"/>
     <rect x="2" y="3" width="1" height="1"/>
     <rect x="4" y="3" width="1" height="1"/>
     <rect x="6" y="3" width="1" height="1"/>
     <rect x="8" y="3" width="1" height="1"/>
     <rect x="10" y="3" width="1" height="1"/>
     <rect x="12" y="3" width="1" height="1"/>
     <rect x="14" y="3" width="1" height="1"/>
     <rect x="1" y="2" width="1" height="1"/>
     <rect x="3" y="2" width="1" height="1"/>
     <rect x="5" y="2" width="1" height="1"/>
     <rect x="7" y="2" width="1" height="1"/>
     <rect x="9" y="2" width="1" height="1"/>
     <rect x="11" y="2" width="1" height="1"/>
     <rect x="13" y="2" width="1" height="1"/>
     <rect x="15" y="2" width="1" height="1"/>
     <rect x="0" y="1" width="1" height="1"/>
     <rect x="2" y="1" width="1" height="1"/>
     <rect x="4" y="1" width="1" height="1"/>
     <rect x="6" y="1" width="1" height="1"/>
     <rect x="8" y="1" width="1" height="1"/>
     <rect x="10" y="1" width="1" height="1"/>
     <rect x="12" y="1" width="1" height="1"/>
     <rect x="14" y="1" width="1" height="1"/>
     <rect x="1" y="0" width="1" height="1"/>
     <rect x="3" y="0" width="1" height="1"/>
     <rect x="5" y="0" width="1" height="1"/>
     <rect x="7" y="0" width="1" height="1"/>
     <rect x="9" y="0" width="1" height="1"/>
     <rect x="11" y="0" width="1" height="1"/>
     <rect x="13" y="0" width="1" height="1"/>
     <rect x="15" y="0" width="1" height="1"/>
   </pattern>
   <filter id="tocolor5" filterUnits="objectBoundingBox"
    color-interpolation-filters="sRGB" x="0%" y="0%" width="100%" height="100%">
    <feComponentTransfer>
      <feFuncR type="discrete" tableValues="1.000000 1.000000"/>
      <feFuncG type="discrete" tableValues="1.000000 1.000000"/>
      <feFuncB type="discrete" tableValues="0.000000 1.000000"/>
    </feComponentTransfer>
   </filter>
  </defs>
  <g style="filter:url(#tocolor5); fill:url(#pattern4); fill-rule:nonzero">
   <path  d="M134.8840,344.5860L139.4027,344.5860L143.9215,344.5860L148.4402,344.5860L152.9589,344.5860L157.4776,344.5860L161.9964,344.5860L166.5151,344.5860L171.0338,344.5860L175.5526,344.5860
             L180.0713,344.5860L184.5900,344.5860L189.1088,344.5860L193.6275,344.5860L198.1462,344.5860L202.6649,344.5860L207.1837,344.5860L211.7024,344.5860L216.2211,344.5860L220.7399,344.5860
             L225.2586,344.5860L229.7773,344.5860L234.2961,344.5860L238.8148,344.5860L243.3335,344.5860L247.8522,344.5860L252.3710,344.5860L256.8897,344.5860L261.4084,344.5860L265.9272,344.5860
             L270.4459,344.5860L274.9646,344.5860L279.4833,344.5860L284.0021,344.5860L288.5208,344.5860L293.0395,344.5860L297.5583,344.5860L302.0770,344.5860L306.5957,344.5860L311.1145,344.5860
             L315.6332,344.5860L320.1519,344.5860L324.6706,344.5860L329.1894,344.5860L333.7081,344.5860L338.2268,344.5860L342.7456,344.5860L347.2643,344.5860L351.7830,344.5860L356.3018,344.5860
             L360.8205,344.5860L365.3392,344.5860L369.8579,344.5860L374.3767,344.5860L378.8954,344.5860L383.4141,344.5860L387.9329,344.5860L392.4516,344.5860L396.9703,344.5860L401.4890,344.5860
             L406.0078,344.5860L410.5265,344.5860L415.0452,344.5860L419.5640,344.5860L424.0827,344.5860L428.6014,344.5860L433.1202,344.5860L437.6389,344.5860L442.1576,344.5860L446.6764,344.5860
             L451.1951,344.5860L455.7138,344.5860L460.2325,344.5860L464.7513,344.5860L469.2700,344.5860L473.7887,344.5860L478.3075,344.5860L482.8262,344.5860L487.3449,344.5860L491.8636,344.5860
             L496.3824,344.5860L500.9011,344.5860L505.4198,344.5860L509.9386,344.5860L514.4573,344.5860L518.9760,344.5860L523.4948,344.5860L528.0135,344.5860L532.5322,344.5860L537.0509,344.5860
             L541.5697,344.5860L546.0884,344.5860L550.6071,344.5860L555.1259,344.5860L559.6446,344.5860L564.1633,344.5860L568.6821,344.5860L573.2008,344.5860L577.7195,344.5860L582.2382,344.5860
             L586.7570,344.5860L591.2757,344.5860L595.7944,344.5860L600.3132,344.5860L604.8319,344.5860L609.3506,344.5860L613.8693,344.5860L618.3881,344.5860L622.9068,344.5860L627.4255,344.5860
             L631.9443,344.5860L636.4630,344.5860L640.9817,344.5860L645.5005,344.5860L650.0192,344.5860L654.5379,344.5860L659.0566,344.5860L663.5754,344.5860L668.0941,344.5860L672.6128,344.5860
             L677.1316,344.5860L681.6503,344.5860L686.1690,344.5860L690.6878,344.5860L695.2065,344.5860L699.7252,344.5860L704.2440,344.5860L708.7627,344.5860L713.2814,344.5860L717.8001,344.5860
             L722.3189,344.5860L726.8376,344.5860L731.3563,344.5860L735.8750,344.5860L740.3938,344.5860L744.9125,344.5860L749.4313,344.5860L753.9500,344.5860L758.4687,344.5860L762.9874,344.5860
             L767.5062,344.5860L772.0249,344.5860L776.5436,344.5860L781.0623,344.5860L785.5811,344.5860L790.0998,344.5860L794.6185,344.5860L799.1373,344.5860L803.6560,344.5860L808.1747,344.5860
             L812.6935,344.5860L817.2122,344.5860L821.7309,344.5860L826.2496,344.5860L830.7684,344.5860L835.2871,344.5860L839.8058,344.5860L844.3245,344.5860L848.8433,344.5860L853.3620,344.5860
             L857.8808,344.5860L862.3995,344.5860L866.9182,344.5860L871.4370,344.5860L875.9557,344.5860L880.4744,344.5860L884.9931,344.5860L889.5119,344.5860L894.0306,344.5860L898.5493,344.5860
             L903.0681,344.5860L907.5868,344.5860L912.1055,344.5860L916.6243,344.5860L921.1430,344.5860L925.6617,344.5860L930.1804,344.5860L934.6992,344.5860L939.2179,344.5860L943.7366,344.5860
             L948.2553,344.5860L952.7741,344.5860L957.2928,344.5860L961.8116,344.5860L966.3303,344.5860L970.8490,344.5860L975.3677,344.5860L979.8865,344.5860L984.4052,344.5860L988.9239,344.5860
             L993.4426,344.5860L997.9614,344.5860L1002.4801,344.5860L1006.9988,344.5860L1011.5176,344.5860L1016.0363,344.5860L1020.5550,344.5860L1025.0738,344.5860L1029.5925,344.5860L1034.1112,344.5860
             L1034.1112,397.0230L134.8840,397.0230z"/>
  </g>
  <g style="fill:none; stroke:#000000; stroke-width:  2.6968; stroke-linecap:butt; stroke-linejoin:miter; stroke-dasharray: 3 8">
   <path d="M134.8840,344.5860L139.4027,344.5860L143.9215,344.5860L148.4402,344.5860L152.9589,344.5860L157.4776,344.5860L161.9964,344.5860L166.5151,344.5860L171.0338,344.5860L175.5526,344.5860
            L180.0713,344.5860L184.5900,344.5860L189.1088,344.5860L193.6275,344.5860L198.1462,344.5860L202.6649,344.5860L207.1837,344.5860L211.7024,344.5860L216.2211,344.5860L220.7399,344.5860
            L225.2586,344.5860L229.7773,344.5860L234.2961,344.5860L238.8148,344.5860L243.3335,344.5860L247.8522,344.5860L252.3710,344.5860L256.8897,344.5860L261.4084,344.5860L265.9272,344.5860
            L270.4459,344.5860L274.9646,344.5860L279.4833,344.5860L284.0021,344.5860L288.5208,344.5860L293.0395,344.5860L297.5583,344.5860L302.0770,344.5860L306.5957,344.5860L311.1145,344.5860
            L315.6332,344.5860L320.1519,344.5860L324.6706,344.5860L329.1894,344.5860L333.7081,344.5860L338.2268,344.5860L342.7456,344.5860L347.2643,344.5860L351.7830,344.5860L356.3018,344.5860
            L360.8205,344.5860L365.3392,344.5860L369.8579,344.5860L374.3767,344.5860L378.8954,344.5860L383.4141,344.5860L387.9329,344.5860L392.4516,344.5860L396.9703,344.5860L401.4890,344.5860
            L406.0078,344.5860L410.5265,344.5860L415.0452,344.5860L419.5640,344.5860L424.0827,344.5860L428.6014,344.5860L433.1202,344.5860L437.6389,344.5860L442.1576,344.5860L446.6764,344.5860
            L451.1951,344.5860L455.7138,344.5860L460.2325,344.5860L464.7513,344.5860L469.2700,344.5860L473.7887,344.5860L478.3075,344.5860L482.8262,344.5860L487.3449,344.5860L491.8636,344.5860
            L496.3824,344.5860L500.9011,344.5860L505.4198,344.5860L509.9386,344.5860L514.4573,344.5860L518.9760,344.5860L523.4948,344.5860L528.0135,344.5860L532.5322,344.5860L537.0509,344.5860
            L541.5697,344.5860L546.0884,344.5860L550.6071,344.5860L555.1259,344.5860L559.6446,344.5860L564.1633,344.5860L568.6821,344.5860L573.2008,344.5860L577.7195,344.5860L582.2382,344.5860
            L586.7570,344.5860L591.2757,344.5860L595.7944,344.5860L600.3132,344.5860L604.8319,344.5860L609.3506,344.5860L613.8693,344.5860L618.3881,344.5860L622.9068,344.5860L627.4255,344.5860
            L631.9443,344.5860L636.4630,344.5860L640.9817,344.5860L645.5005,344.5860L650.0192,344.5860L654.5379,344.5860L659.0566,344.5860L663.5754,344.5860L668.0941,344.5860L672.6128,344.5860
            L677.1316,344.5860L681.6503,344.5860L686.1690,344.5860L690.6878,344.5860L695.2065,344.5860L699.7252,344.5860L704.2440,344.5860L708.7627,344.5860L713.2814,344.5860L717.8001,344.5860
            L722.3189,344.5860L726.8376,344.5860L731.3563,344.5860L735.8750,344.5860L740.3938,344.5860L744.9125,344.5860L749.4313,344.5860L753.9500,344.5860L758.4687,344.5860L762.9874,344.5860
            L767.5062,344.5860L772.0249,344.5860L776.5436,344.5860L781.0623,344.5860L785.5811,344.5860L790.0998,344.5860L794.6185,344.5860L799.1373,344.5860L803.6560,344.5860L808.1747,344.5860
            L812.6935,344.5860L817.2122,344.5860L821.7309,344.5860L826.2496,344.5860L830.7684,344.5860L835.2871,344.5860L839.8058,344.5860L844.3245,344.5860L848.8433,344.5860L853.3620,344.5860
            L857.8808,344.5860L862.3995,344.5860L866.9182,344.5860L871.4370,344.5860L875.9557,344.5860L880.4744,344.5860L884.9931,344.5860L889.5119,344.5860L894.0306,344.5860L898.5493,344.5860
            L903.0681,344.5860L907.5868,344.5860L912.1055,344.5860L916.6243,344.5860L921.1430,344.5860L925.6617,344.5860L930.1804,344.5860L934.6992,344.5860L939.2179,344.5860L943.7366,344.5860
            L948.2553,344.5860L952.7741,344.5860L957.2928,344.5860L961.8116,344.5860L966.3303,344.5860L970.8490,344.5860L975.3677,344.5860L979.8865,344.5860L984.4052,344.5860L988.9239,344.5860
            L993.4426,344.5860L997.9614,344.5860L1002.4801,344.5860L1006.9988,344.5860L1011.5176,344.5860L1016.0363,344.5860L1020.5550,344.5860L1025.0738,344.5860L1029.5925,344.5860L1034.1112,344.5860"/>
  </g>
  <g style="filter:url(#tocolor5); fill:url(#pattern4); fill-rule:nonzero">
   <path  d="M134.8840,449.4600L139.4027,449.4600L143.9215,449.4600L148.4402,449.4600L152.9589,449.4600L157.4776,449.4600L161.9964,449.4600L166.5151,449.4600L171.0338,449.4600L175.5526,449.4600
             L180.0713,449.4600L184.5900,449.4600L189.1088,449.4600L193.6275,449.4600L198.1462,449.4600L202.6649,449.4600L207.1837,449.4600L211.7024,449.4600L216.2211,449.4600L220.7399,449.4600
             L225.2586,449.4600L229.7773,449.4600L234.2961,449.4600L238.8148,449.4600L243.3335,449.4600L247.8522,449.4600L252.3710,449.4600L256.8897,449.4600L261.4084,449.4600L265.9272,449.4600
             L270.4459,449.4600L274.9646,449.4600L279.4833,449.4600L284.0021,449.4600L288.5208,449.4600L293.0395,449.4600L297.5583,449.4600L302.0770,449.4600L306.5957,449.4600L311.1145,449.4600
             L315.6332,449.4600L320.1519,449.4600L324.6706,449.4600L329.1894,449.4600L333.7081,449.4600L338.2268,449.4600L342.7456,449.4600L347.2643,449.4600L351.7830,449.4600L356.3018,449.4600
             L360.8205,449.4600L365.3392,449.4600L369.8579,449.4600L374.3767,449.4600L378.8954,449.4600L383.4141,449.4600L387.9329,449.4600L392.4516,449.4600L396.9703,449.4600L401.4890,449.4600
             L406.0078,449.4600L410.5265,449.4600L415.0452,449.4600L419.5640,449.4600L424.0827,449.4600L428.6014,449.4600L433.1202,449.4600L437.6389,449.4600L442.1576,449.4600L446.6764,449.4600
             L451.1951,449.4600L455.7138,449.4600L460.2325,449.4600L464.7513,449.4600L469.2700,449.4600L473.7887,449.4600L478.3075,449.4600L482.8262,449.4600L487.3449,449.4600L491.8636,449.4600
             L496.3824,449.4600L500.9011,449.4600L505.4198,449.4600L509.9386,449.4600L514.4573,449.4600L518.9760,449.4600L523.4948,449.4600L528.0135,449.4600L532.5322,449.4600L537.0509,449.4600
             L541.5697,449.4600L546.0884,449.4600L550.6071,449.4600L555.1259,449.4600L559.6446,449.4600L564.1633,449.4600L568.6821,449.4600L573.2008,449.4600L577.7195,449.4600L582.2382,449.4600
             L586.7570,449.4600L591.2757,449.4600L595.7944,449.4600L600.3132,449.4600L604.8319,449.4600L609.3506,449.4600L613.8693,449.4600L618.3881,449.4600L622.9068,449.4600L627.4255,449.4600
             L631.9443,449.4600L636.4630,449.4600L640.9817,449.4600L645.5005,449.4600L650.0192,449.4600L654.5379,449.4600L659.0566,449.4600L663.5754,449.4600L668.0941,449.4600L672.6128,449.4600
             L677.1316,449.4600L681.6503,449.4600L686.1690,449.4600L690.6878,449.4600L695.2065,449.4600L699.7252,449.4600L704.2440,449.4600L708.7627,449.4600L713.2814,449.4600L717.8001,449.4600
             L722.3189,449.4600L726.8376,449.4600L731.3563,449.4600L735.8750,449.4600L740.3938,449.4600L744.9125,449.4600L749.4313,449.4600L753.9500,449.4600L758.4687,449.4600L762.9874,449.4600
             L767.5062,449.4600L772.0249,449.4600L776.5436,449.4600L781.0623,449.4600L785.5811,449.4600L790.0998,449.4600L794.6185,449.4600L799.1373,449.4600L803.6560,449.4600L808.1747,449.4600
             L812.6935,449.4600L817.2122,449.4600L821.7309,449.4600L826.2496,449.4600L830.7684,449.4600L835.2871,449.4600L839.8058,449.4600L844.3245,449.4600L848.8433,449.4600L853.3620,449.4600
             L857.8808,449.4600L862.3995,449.4600L866.9182,449.4600L871.4370,449.4600L875.9557,449.4600L880.4744,449.4600L884.9931,449.4600L889.5119,449.4600L894.0306,449.4600L898.5493,449.4600
             L903.0681,449.4600L907.5868,449.4600L912.1055,449.4600L916.6243,449.4600L921.1430,449.4600L925.6617,449.4600L930.1804,449.4600L934.6992,449.4600L939.2179,449.4600L943.7366,449.4600
             L948.2553,449.4600L952.7741,449.4600L957.2928,449.4600L961.8116,449.4600L966.3303,449.4600L970.8490,449.4600L975.3677,449.4600L979.8865,449.4600L984.4052,449.4600L988.9239,449.4600
             L993.4426,449.4600L997.9614,449.4600L1002.4801,449.4600L1006.9988,449.4600L1011.5176,449.4600L1016.0363,449.4600L1020.5550,449.4600L1025.0738,449.4600L1029.5925,449.4600L1034.1112,449.4600
             L1034.1112,397.0230L134.8840,397.0230z"/>
  </g>
  <g style="fill:none; stroke:#000000; stroke-width:  2.6968; stroke-linecap:butt; stroke-linejoin:miter; stroke-dasharray: 3 8">
   <path d="M134.8840,449.4600L139.4027,449.4600L143.9215,449.4600L148.4402,449.4600L152.9589,449.4600L157.4776,449.4600L161.9964,449.4600L166.5151,449.4600L171.0338,449.4600L175.5526,449.4600
            L180.0713,449.4600L184.5900,449.4600L189.1088,449.4600L193.6275,449.4600L198.1462,449.4600L202.6649,449.4600L207.1837,449.4600L211.7024,449.4600L216.2211,449.4600L220.7399,449.4600
            L225.2586,449.4600L229.7773,449.4600L234.2961,449.4600L238.8148,449.4600L243.3335,449.4600L247.8522,449.4600L252.3710,449.4600L256.8897,449.4600L261.4084,449.4600L265.9272,449.4600
            L270.4459,449.4600L274.9646,449.4600L279.4833,449.4600L284.0021,449.4600L288.5208,449.4600L293.0395,449.4600L297.5583,449.4600L302.0770,449.4600L306.5957,449.4600L311.1145,449.4600
            L315.6332,449.4600L320.1519,449.4600L324.6706,449.4600L329.1894,449.4600L333.7081,449.4600L338.2268,449.4600L342.7456,449.4600L347.2643,449.4600L351.7830,449.4600L356.3018,449.4600
            L360.8205,449.4600L365.3392,449.4600L369.8579,449.4600L374.3767,449.4600L378.8954,449.4600L383.4141,449.4600L387.9329,449.4600L392.4516,449.4600L396.9703,449.4600L401.4890,449.4600
            L406.0078,449.4600L410.5265,449.4600L415.0452,449.4600L419.5640,449.4600L424.0827,449.4600L428.6014,449.4600L433.1202,449.4600L437.6389,449.4600L442.1576,449.4600L446.6764,449.4600
            L451.1951,449.4600L455.7138,449.4600L460.2325,449.4600L464.7513,449.4600L469.2700,449.4600L473.7887,449.4600L478.3075,449.4600L482.8262,449.4600L487.3449,449.4600L491.8636,449.4600
            L496.3824,449.4600L500.9011,449.4600L505.4198,449.4600L509.9386,449.4600L514.4573,449.4600L518.9760,449.4600L523.4948,449.4600L528.0135,449.4600L532.5322,449.4600L537.0509,449.4600
            L541.5697,449.4600L546.0884,449.4600L550.6071,449.4600L555.1259,449.4600L559.6446,449.4600L564.1633,449.4600L568.6821,449.4600L573.2008,449.4600L577.7195,449.4600L582.2382,449.4600
            L586.7570,449.4600L591.2757,449.4600L595.7944,449.4600L600.3132,449.4600L604.8319,449.4600L609.3506,449.4600L613.8693,449.4600L618.3881,449.4600L622.9068,449.4600L627.4255,449.4600
            L631.9443,449.4600L636.4630,449.4600L640.9817,449.4600L645.5005,449.4600L650.0192,449.4600L654.5379,449.4600L659.0566,449.4600L663.5754,449.4600L668.0941,449.4600L672.6128,449.4600
            L677.1316,449.4600L681.6503,449.4600L686.1690,449.4600L690.6878,449.4600L695.2065,449.4600L699.7252,449.4600L704.2440,449.4600L708.7627,449.4600L713.2814,449.4600L717.8001,449.4600
            L722.3189,449.4600L726.8376,449.4600L731.3563,449.4600L735.8750,449.4600L740.3938,449.4600L744.9125,449.4600L749.4313,449.4600L753.9500,449.4600L758.4687,449.4600L762.9874,449.4600
            L767.5062,449.4600L772.0249,449.4600L776.5436,449.4600L781.0623,449.4600L785.5811,449.4600L790.0998,449.4600L794.6185,449.4600L799.1373,449.4600L803.6560,449.4600L808.1747,449.4600
            L812.6935,449.4600L817.2122,449.4600L821.7309,449.4600L826.2496,449.4600L830.7684,449.4600L835.2871,449.4600L839.8058,449.4600L844.3245,449.4600L848.8433,449.4600L853.3620,449.4600
            L857.8808,449.4600L862.3995,449.4600L866.9182,449.4600L871.4370,449.4600L875.9557,449.4600L880.4744,449.4600L884.9931,449.4600L889.5119,449.4600L894.0306,449.4600L898.5493,449.4600
            L903.0681,449.4600L907.5868,449.4600L912.1055,449.4600L916.6243,449.4600L921.1430,449.4600L925.6617,449.4600L930.1804,449.4600L934.6992,449.4600L939.2179,449.4600L943.7366,449.4600
            L948.2553,449.4600L952.7741,449.4600L957.2928,449.4600L961.8116,449.4600L966.3303,449.4600L970.8490,449.4600L975.3677,449.4600L979.8865,449.4600L984.4052,449.4600L988.9239,449.4600
            L993.4426,449.4600L997.9614,449.4600L1002.4801,449.4600L1006.9988,449.4600L1011.5176,449.4600L1016.0363,449.4600L1020.5550,449.4600L1025.0738,449.4600L1029.5925,449.4600L1034.1112,449.4600"/>
   <path d="M134.8840,397.0230L139.4027,397.0230L143.9215,397.0230L148.4402,397.0230L152.9589,397.0230L157.4776,397.0230L161.9964,397.0230L166.5151,397.0230L171.0338,397.0230L175.5526,397.0230
            L180.0713,397.0230L184.5900,397.0230L189.1088,397.0230L193.6275,397.0230L198.1462,397.0230L202.6649,397.0230L207.1837,397.0230L211.7024,397.0230L216.2211,397.0230L220.7399,397.0230
            L225.2586,397.0230L229.7773,397.0230L234.2961,397.0230L238.8148,397.0230L243.3335,397.0230L247.8522,397.0230L252.3710,397.0230L256.8897,397.0230L261.4084,397.0230L265.9272,397.0230
            L270.4459,397.0230L274.9646,397.0230L279.4833,397.0230L284.0021,397.0230L288.5208,397.0230L293.0395,397.0230L297.5583,397.0230L302.0770,397.0230L306.5957,397.0230L311.1145,397.0230
            L315.6332,397.0230L320.1519,397.0230L324.6706,397.0230L329.1894,397.0230L333.7081,397.0230L338.2268,397.0230L342.7456,397.0230L347.2643,397.0230L351.7830,397.0230L356.3018,397.0230
            L360.8205,397.0230L365.3392,397.0230L369.8579,397.0230L374.3767,397.0230L378.8954,397.0230L383.4141,397.0230L387.9329,397.0230L392.4516,397.0230L396.9703,397.0230L401.4890,397.0230
            L406.0078,397.0230L410.5265,397.0230L415.0452,397.0230L419.5640,397.0230L424.0827,397.0230L428.6014,397.0230L433.1202,397.0230L437.6389,397.0230L442.1576,397.0230L446.6764,397.0230
            L451.1951,397.0230L455.7138,397.0230L460.2325,397.0230L464.7513,397.0230L469.2700,397.0230L473.7887,397.0230L478.3075,397.0230L482.8262,397.0230L487.3449,397.0230L491.8636,397.0230
            L496.3824,397.0230L500.9011,397.0230L505.4198,397.0230L509.9386,397.0230L514.4573,397.0230L518.9760,397.0230L523.4948,397.0230L528.0135,397.0230L532.5322,397.0230L537.0509,397.0230
            L541.5697,397.0230L546.0884,397.0230L550.6071,397.0230L555.1259,397.0230L559.6446,397.0230L564.1633,397.0230L568.6821,397.0230L573.2008,397.0230L577.7195,397.0230L582.2382,397.0230
            L586.7570,397.0230L591.2757,397.0230L595.7944,397.0230L600.3132,397.0230L604.8319,397.0230L609.3506,397.0230L613.8693,397.0230L618.3881,397.0230L622.9068,397.0230L627.4255,397.0230
            L631.9443,397.0230L636.4630,397.0230L640.9817,397.0230L645.5005,397.0230L650.0192,397.0230L654.5379,397.0230L659.0566,397.0230L663.5754,397.0230L668.0941,397.0230L672.6128,397.0230
            L677.1316,397.0230L681.6503,397.0230L686.1690,397.0230L690.6878,397.0230L695.2065,397.0230L699.7252,397.0230L704.2440,397.0230L708.7627,397.0230L713.2814,397.0230L717.8001,397.0230
            L722.3189,397.0230L726.8376,397.0230L731.3563,397.0230L735.8750,397.0230L740.3938,397.0230L744.9125,397.0230L749.4313,397.0230L753.9500,397.0230L758.4687,397.0230L762.9874,397.0230
            L767.5062,397.0230L772.0249,397.0230L776.5436,397.0230L781.0623,397.0230L785.5811,397.0230L790.0998,397.0230L794.6185,397.0230L799.1373,397.0230L803.6560,397.0230L808.1747,397.0230
            L812.6935,397.0230L817.2122,397.0230L821.7309,397.0230L826.2496,397.0230L830.7684,397.0230L835.2871,397.0230L839.8058,397.0230L844.3245,397.0230L848.8433,397.0230L853.3620,397.0230
            L857.8808,397.0230L862.3995,397.0230L866.9182,397.0230L871.4370,397.0230L875.9557,397.0230L880.4744,397.0230L884.9931,397.0230L889.5119,397.0230L894.0306,397.0230L898.5493,397.0230
            L903.0681,397.0230L907.5868,397.0230L912.1055,397.0230L916.6243,397.0230L921.1430,397.0230L925.6617,397.0230L930.1804,397.0230L934.6992,397.0230L939.2179,397.0230L943.7366,397.0230
            L948.2553,397.0230L952.7741,397.0230L957.2928,397.0230L961.8116,397.0230L966.3303,397.0230L970.8490,397.0230L975.3677,397.0230L979.8865,397.0230L984.4052,397.0230L988.9239,397.0230
            L993.4426,397.0230L997.9614,397.0230L1002.4801,397.0230L1006.9988,397.0230L1011.5176,397.0230L1016.0363,397.0230L1020.5550,397.0230L1025.0738,397.0230L1029.5925,397.0230L1034.1112,397.0230"/>
  </g>
  <g style="fill:none; stroke:#008B00; stroke-width:  2.6968; stroke-linecap:butt; stroke-linejoin:miter; stroke-dasharray:none">
   <path d="M179.8454,186.5757L224.8067,196.9057L224.8067,197.0246L269.7681,210.4560L269.7681,210.3370L314.7294,226.2709L359.6908,560.0479L404.6522,558.9341L449.6135,577.0579L494.5749,576.7363
            L539.5362,600.5729L584.4976,584.4369L629.4590,584.2164L674.4203,624.7657L719.3817,595.5829L764.3431,689.4283L809.3044,652.3289L854.2658,624.0564L899.2271,696.9568L944.1885,721.5897
            L989.1499,654.2197L1034.1112,674.4799"/>
  </g>
  <g style="fill:#008B00; fill-rule:nonzero">
   <ellipse  rx="4.4946" ry="4.4946" cx="179.8454" cy="186.5757"/>
  </g>
  <g style="fill:none; stroke:#008B00; stroke-width:  2.6968; stroke-linecap:butt; stroke-linejoin:miter; stroke-dasharray:none">
   <ellipse  rx="4.4946" ry="4.4946" cx="179.8454" cy="186.5757"/>
  </g>
  <g style="fill:#008B00; fill-rule:nonzero">
   <ellipse  rx="4.4946" ry="4.4946" cx="224.8067" cy="196.9057"/>
  </g>
  <g style="fill:none; stroke:#008B00; stroke-width:  2.6968; stroke-linecap:butt; stroke-linejoin:miter; stroke-dasharray:none">
   <ellipse  rx="4.4946" ry="4.4946" cx="224.8067" cy="196.9057"/>
  </g>
  <g style="fill:#008B00; fill-rule:nonzero">
   <ellipse  rx="4.4946" ry="4.4946" cx="224.8067" cy="197.0246"/>
  </g>
  <g style="fill:none; stroke:#008B00; stroke-width:  2.6968; stroke-linecap:butt; stroke-linejoin:miter; stroke-dasharray:none">
   <ellipse  rx="4.4946" ry="4.4946" cx="224.8067" cy="197.0246"/>
  </g>
  <g style="fill:#008B00; fill-rule:nonzero">
   <ellipse  rx="4.4946" ry="4.4946" cx="269.7681" cy="210.4560"/>
  </g>
  <g style="fill:none; stroke:#008B00; stroke-width:  2.6968; stroke-linecap:butt; stroke-linejoin:miter; stroke-dasharray:none">
   <ellipse  rx="4.4946" ry="4.4946" cx="269.7681" cy="210.4560"/>
  </g>
  <g style="fill:#008B00; fill-rule:nonzero">
   <ellipse  rx="4.4946" ry="4.4946" cx="269.7681" cy="210.3370"/>
  </g>
  <g style="fill:none; stroke:#008B00; stroke-width:  2.6968; stroke-linecap:butt; stroke-linejoin:miter; stroke-dasharray:none">
   <ellipse  rx="4.4946" ry="4.4946" cx="269.7681" cy="210.3370"/>
  </g>
  <g style="fill:#008B00; fill-rule:nonzero">
   <ellipse  rx="4.4946" ry="4.4946" cx="314.7294" cy="226.2709"/>
  </g>
  <g style="fill:none; stroke:#008B00; stroke-width:  2.6968; stroke-linecap:butt; stroke-linejoin:miter; stroke-dasharray:none">
   <ellipse  rx="4.4946" ry="4.4946" cx="314.7294" cy="226.2709"/>
  </g>
  <g style="fill:#008B00; fill-rule:nonzero">
   <ellipse  rx="4.4946" ry="4.4946" cx="359.6908" cy="560.0479"/>
  </g>
  <g style="fill:none; stroke:#008B00; stroke-width:  2.6968; stroke-linecap:butt; stroke-linejoin:miter; stroke-dasharray:none">
   <ellipse  rx="4.4946" ry="4.4946" cx="359.6908" cy="560.0479"/>
  </g>
  <g style="fill:#008B00; fill-rule:nonzero">
   <ellipse  rx="4.4946" ry="4.4946" cx="404.6522" cy="558.9341"/>
  </g>
  <g style="fill:none; stroke:#008B00; stroke-width:  2.6968; stroke-linecap:butt; stroke-linejoin:miter; stroke-dasharray:none">
   <ellipse  rx="4.4946" ry="4.4946" cx="404.6522" cy="558.9341"/>
  </g>
  <g style="fill:#008B00; fill-rule:nonzero">
   <ellipse  rx="4.4946" ry="4.4946" cx="449.6135" cy="577.0579"/>
  </g>
  <g style="fill:none; stroke:#008B00; stroke-width:  2.6968; stroke-linecap:butt; stroke-linejoin:miter; stroke-dasharray:none">
   <ellipse  rx="4.4946" ry="4.4946" cx="449.6135" cy="577.0579"/>
  </g>
  <g style="fill:#008B00; fill-rule:nonzero">
   <ellipse  rx="4.4946" ry="4.4946" cx="494.5749" cy="576.7363"/>
  </g>
  <g style="fill:none; stroke:#008B00; stroke-width:  2.6968; stroke-linecap:butt; stroke-linejoin:miter; stroke-dasharray:none">
   <ellipse  rx="4.4946" ry="4.4946" cx="494.5749" cy="576.7363"/>
  </g>
  <g style="fill:#008B00; fill-rule:nonzero">
   <ellipse  rx="4.4946" ry="4.4946" cx="539.5362" cy="600.5729"/>
  </g>
  <g style="fill:none; stroke:#008B00; stroke-width:  2.6968; stroke-linecap:butt; stroke-linejoin:miter; stroke-dasharray:none">
   <ellipse  rx="4.4946" ry="4.4946" cx="539.5362" cy="600.5729"/>
  </g>
  <g style="fill:#008B00; fill-rule:nonzero">
   <ellipse  rx="4.4946" ry="4.4946" cx="584.4976" cy="584.4369"/>
  </g>
  <g style="fill:none; stroke:#008B00; stroke-width:  2.6968; stroke-linecap:butt; stroke-linejoin:miter; stroke-dasharray:none">
   <ellipse  rx="4.4946" ry="4.4946" cx="584.4976" cy="584.4369"/>
  </g>
  <g style="fill:#008B00; fill-rule:nonzero">
   <ellipse  rx="4.4946" ry="4.4946" cx="629.4590" cy="584.2164"/>
  </g>
  <g style="fill:none; stroke:#008B00; stroke-width:  2.6968; stroke-linecap:butt; stroke-linejoin:miter; stroke-dasharray:none">
   <ellipse  rx="4.4946" ry="4.4946" cx="629.4590" cy="584.2164"/>
  </g>
  <g style="fill:#008B00; fill-rule:nonzero">
   <ellipse  rx="4.4946" ry="4.4946" cx="674.4203" cy="624.7657"/>
  </g>
  <g style="fill:none; stroke:#008B00; stroke-width:  2.6968; stroke-linecap:butt; stroke-linejoin:miter; stroke-dasharray:none">
   <ellipse  rx="4.4946" ry="4.4946" cx="674.4203" cy="624.7657"/>
  </g>
  <g style="fill:#008B00; fill-rule:nonzero">
   <ellipse  rx="4.4946" ry="4.4946" cx="719.3817" cy="595.5829"/>
  </g>
  <g style="fill:none; stroke:#008B00; stroke-width:  2.6968; stroke-linecap:butt; stroke-linejoin:miter; stroke-dasharray:none">
   <ellipse  rx="4.4946" ry="4.4946" cx="719.3817" cy="595.5829"/>
  </g>
  <g style="fill:#008B00; fill-rule:nonzero">
   <ellipse  rx="4.4946" ry="4.4946" cx="764.3431" cy="689.4283"/>
  </g>
  <g style="fill:none; stroke:#008B00; stroke-width:  2.6968; stroke-linecap:butt; stroke-linejoin:miter; stroke-dasharray:none">
   <ellipse  rx="4.4946" ry="4.4946" cx="764.3431" cy="689.4283"/>
  </g>
  <g style="fill:#008B00; fill-rule:nonzero">
   <ellipse  rx="4.4946" ry="4.4946" cx="809.3044" cy="652.3289"/>
  </g>
  <g style="fill:none; stroke:#008B00; stroke-width:  2.6968; stroke-linecap:butt; stroke-linejoin:miter; stroke-dasharray:none">
   <ellipse  rx="4.4946" ry="4.4946" cx="809.3044" cy="652.3289"/>
  </g>
  <g style="fill:#008B00; fill-rule:nonzero">
   <ellipse  rx="4.4946" ry="4.4946" cx="854.2658" cy="624.0564"/>
  </g>
  <g style="fill:none; stroke:#008B00; stroke-width:  2.6968; stroke-linecap:butt; stroke-linejoin:miter; stroke-dasharray:none">
   <ellipse  rx="4.4946" ry="4.4946" cx="854.2658" cy="624.0564"/>
  </g>
  <g style="fill:#008B00; fill-rule:nonzero">
   <ellipse  rx="4.4946" ry="4.4946" cx="899.2271" cy="696.9568"/>
  </g>
  <g style="fill:none; stroke:#008B00; stroke-width:  2.6968; stroke-linecap:butt; stroke-linejoin:miter; stroke-dasharray:none">
   <ellipse  rx="4.4946" ry="4.4946" cx="899.2271" cy="696.9568"/>
  </g>
  <g style="fill:#008B00; fill-rule:nonzero">
   <ellipse  rx="4.4946" ry="4.4946" cx="944.1885" cy="721.5897"/>
  </g>
  <g style="fill:none; stroke:#008B00; stroke-width:  2.6968; stroke-linecap:butt; stroke-linejoin:miter; stroke-dasharray:none">
   <ellipse  rx="4.4946" ry="4.4946" cx="944.1885" cy="721.5897"/>
  </g>
  <g style="fill:#008B00; fill-rule:nonzero">
   <ellipse  rx="4.4946" ry="4.4946" cx="989.1499" cy="654.2197"/>
  </g>
  <g style="fill:none; stroke:#008B00; stroke-width:  2.6968; stroke-linecap:butt; stroke-linejoin:miter; stroke-dasharray:none">
   <ellipse  rx="4.4946" ry="4.4946" cx="989.1499" cy="654.2197"/>
  </g>
  <g style="fill:#008B00; fill-rule:nonzero">
   <ellipse  rx="4.4946" ry="4.4946" cx="1034.1112" cy="674.4799"/>
  </g>
  <g style="fill:none; stroke:#008B00; stroke-width:  2.6968; stroke-linecap:butt; stroke-linejoin:miter; stroke-dasharray:none">
   <ellipse  rx="4.4946" ry="4.4946" cx="1034.1112" cy="674.4799"/>
  </g>
  <g style="fill:none; stroke:#008B00; stroke-width:  2.6968; stroke-linecap:butt; stroke-linejoin:miter; stroke-dasharray: 19 8">
   <path d="M179.8454,155.3227L224.8067,166.9292L269.7681,182.0148L314.7294,200.1526L359.6908,507.8472L404.6522,505.9992L449.6135,523.8365L494.5749,524.0317L539.5362,547.4629L584.4976,538.1073
            L629.4590,535.8221L674.4203,570.0537L719.3817,541.1837L764.3431,638.5634"/>
  </g>
  <g style="fill:#008B00; fill-rule:nonzero">
   <path  d="M176.0249,151.5023L176.0249,159.1431L183.6658,159.1431L183.6658,151.5023z"/>
  </g>
  <g style="fill:none; stroke:#008B00; stroke-width:  2.6968; stroke-linecap:butt; stroke-linejoin:miter; stroke-dasharray:none">
   <path d="M176.0249,151.5023L176.0249,159.1431L183.6658,159.1431L183.6658,151.5023z"/>
  </g>
  <g style="fill:#008B00; fill-rule:nonzero">
   <path  d="M220.9863,163.1088L220.9863,170.7496L228.6271,170.7496L228.6271,163.1088z"/>
  </g>
  <g style="fill:none; stroke:#008B00; stroke-width:  2.6968; stroke-linecap:butt; stroke-linejoin:miter; stroke-dasharray:none">
   <path d="M220.9863,163.1088L220.9863,170.7496L228.6271,170.7496L228.6271,163.1088z"/>
  </g>
  <g style="fill:#008B00; fill-rule:nonzero">
   <path  d="M265.9477,178.1944L265.9477,185.8352L273.5885,185.8352L273.5885,178.1944z"/>
  </g>
  <g style="fill:none; stroke:#008B00; stroke-width:  2.6968; stroke-linecap:butt; stroke-linejoin:miter; stroke-dasharray:none">
   <path d="M265.9477,178.1944L265.9477,185.8352L273.5885,185.8352L273.5885,178.1944z"/>
  </g>
  <g style="fill:#008B00; fill-rule:nonzero">
   <path  d="M310.9090,196.3322L310.9090,203.9730L318.5498,203.9730L318.5498,196.3322z"/>
  </g>
  <g style="fill:none; stroke:#008B00; stroke-width:  2.6968; stroke-linecap:butt; stroke-linejoin:miter; stroke-dasharray:none">
   <path d="M310.9090,196.3322L310.9090,203.9730L318.5498,203.9730L318.5498,196.3322z"/>
  </g>
  <g style="fill:#008B00; fill-rule:nonzero">
   <path  d="M355.8704,504.0268L355.8704,511.6676L363.5112,511.6676L363.5112,504.0268z"/>
  </g>
  <g style="fill:none; stroke:#008B00; stroke-width:  2.6968; stroke-linecap:butt; stroke-linejoin:miter; stroke-dasharray:none">
   <path d="M355.8704,504.0268L355.8704,511.6676L363.5112,511.6676L363.5112,504.0268z"/>
  </g>
  <g style="fill:#008B00; fill-rule:nonzero">
   <path  d="M400.8318,502.1788L400.8318,509.8196L408.4726,509.8196L408.4726,502.1788z"/>
  </g>
  <g style="fill:none; stroke:#008B00; stroke-width:  2.6968; stroke-linecap:butt; stroke-linejoin:miter; stroke-dasharray:none">
   <path d="M400.8318,502.1788L400.8318,509.8196L408.4726,509.8196L408.4726,502.1788z"/>
  </g>
  <g style="fill:#008B00; fill-rule:nonzero">
   <path  d="M445.7931,520.0161L445.7931,527.6569L453.4339,527.6569L453.4339,520.0161z"/>
  </g>
  <g style="fill:none; stroke:#008B00; stroke-width:  2.6968; stroke-linecap:butt; stroke-linejoin:miter; stroke-dasharray:none">
   <path d="M445.7931,520.0161L445.7931,527.6569L453.4339,527.6569L453.4339,520.0161z"/>
  </g>
  <g style="fill:#008B00; fill-rule:nonzero">
   <path  d="M490.7545,520.2113L490.7545,527.8521L498.3953,527.8521L498.3953,520.2113z"/>
  </g>
  <g style="fill:none; stroke:#008B00; stroke-width:  2.6968; stroke-linecap:butt; stroke-linejoin:miter; stroke-dasharray:none">
   <path d="M490.7545,520.2113L490.7545,527.8521L498.3953,527.8521L498.3953,520.2113z"/>
  </g>
  <g style="fill:#008B00; fill-rule:nonzero">
   <path  d="M535.7158,543.6425L535.7158,551.2833L543.3567,551.2833L543.3567,543.6425z"/>
  </g>
  <g style="fill:none; stroke:#008B00; stroke-width:  2.6968; stroke-linecap:butt; stroke-linejoin:miter; stroke-dasharray:none">
   <path d="M535.7158,543.6425L535.7158,551.2833L543.3567,551.2833L543.3567,543.6425z"/>
  </g>
  <g style="fill:#008B00; fill-rule:nonzero">
   <path  d="M580.6772,534.2869L580.6772,541.9277L588.3180,541.9277L588.3180,534.2869z"/>
  </g>
  <g style="fill:none; stroke:#008B00; stroke-width:  2.6968; stroke-linecap:butt; stroke-linejoin:miter; stroke-dasharray:none">
   <path d="M580.6772,534.2869L580.6772,541.9277L588.3180,541.9277L588.3180,534.2869z"/>
  </g>
  <g style="fill:#008B00; fill-rule:nonzero">
   <path  d="M625.6386,532.0017L625.6386,539.6425L633.2794,539.6425L633.2794,532.0017z"/>
  </g>
  <g style="fill:none; stroke:#008B00; stroke-width:  2.6968; stroke-linecap:butt; stroke-linejoin:miter; stroke-dasharray:none">
   <path d="M625.6386,532.0017L625.6386,539.6425L633.2794,539.6425L633.2794,532.0017z"/>
  </g>
  <g style="fill:#008B00; fill-rule:nonzero">
   <path  d="M670.5999,566.2333L670.5999,573.8741L678.2407,573.8741L678.2407,566.2333z"/>
  </g>
  <g style="fill:none; stroke:#008B00; stroke-width:  2.6968; stroke-linecap:butt; stroke-linejoin:miter; stroke-dasharray:none">
   <path d="M670.5999,566.2333L670.5999,573.8741L678.2407,573.8741L678.2407,566.2333z"/>
  </g>
  <g style="fill:#008B00; fill-rule:nonzero">
   <path  d="M715.5613,537.3633L715.5613,545.0041L723.2021,545.0041L723.2021,537.3633z"/>
  </g>
  <g style="fill:none; stroke:#008B00; stroke-width:  2.6968; stroke-linecap:butt; stroke-linejoin:miter; stroke-dasharray:none">
   <path d="M715.5613,537.3633L715.5613,545.0041L723.2021,545.0041L723.2021,537.3633z"/>
  </g>
  <g style="fill:#008B00; fill-rule:nonzero">
   <path  d="M760.5226,634.7430L760.5226,642.3838L768.1635,642.3838L768.1635,634.7430z"/>
  </g>
  <g style="fill:none; stroke:#008B00; stroke-width:  2.6968; stroke-linecap:butt; stroke-linejoin:miter; stroke-dasharray:none">
   <path d="M760.5226,634.7430L760.5226,642.3838L768.1635,642.3838L768.1635,634.7430z"/>
  </g>
  <g style="fill:none; stroke:#FF0000; stroke-width:  2.6968; stroke-linecap:butt; stroke-linejoin:miter; stroke-dasharray:none">
   <path d="M179.8454,439.8188L224.8067,481.9206L269.7681,551.2822L314.7294,502.4894L359.6908,573.6524L404.6522,451.8627L449.6135,556.0955L494.5749,514.3945L539.5362,556.6996L584.4976,626.1602
            L629.4590,618.8058L674.4203,640.0719"/>
  </g>
  <g style="fill:#FF0000; fill-rule:nonzero">
   <ellipse  rx="4.4946" ry="4.4946" cx="179.8454" cy="439.8188"/>
  </g>
  <g style="fill:none; stroke:#FF0000; stroke-width:  2.6968; stroke-linecap:butt; stroke-linejoin:miter; stroke-dasharray:none">
   <ellipse  rx="4.4946" ry="4.4946" cx="179.8454" cy="439.8188"/>
  </g>
  <g style="fill:#FF0000; fill-rule:nonzero">
   <ellipse  rx="4.4946" ry="4.4946" cx="224.8067" cy="481.9206"/>
  </g>
  <g style="fill:none; stroke:#FF0000; stroke-width:  2.6968; stroke-linecap:butt; stroke-linejoin:miter; stroke-dasharray:none">
   <ellipse  rx="4.4946" ry="4.4946" cx="224.8067" cy="481.9206"/>
  </g>
  <g style="fill:#FF0000; fill-rule:nonzero">
   <ellipse  rx="4.4946" ry="4.4946" cx="269.7681" cy="551.2822"/>
  </g>
  <g style="fill:none; stroke:#FF0000; stroke-width:  2.6968; stroke-linecap:butt; stroke-linejoin:miter; stroke-dasharray:none">
   <ellipse  rx="4.4946" ry="4.4946" cx="269.7681" cy="551.2822"/>
  </g>
  <g style="fill:#FF0000; fill-rule:nonzero">
   <ellipse  rx="4.4946" ry="4.4946" cx="314.7294" cy="502.4894"/>
  </g>
  <g style="fill:none; stroke:#FF0000; stroke-width:  2.6968; stroke-linecap:butt; stroke-linejoin:miter; stroke-dasharray:none">
   <ellipse  rx="4.4946" ry="4.4946" cx="314.7294" cy="502.4894"/>
  </g>
  <g style="fill:#FF0000; fill-rule:nonzero">
   <ellipse  rx="4.4946" ry="4.4946" cx="359.6908" cy="573.6524"/>
  </g>
  <g style="fill:none; stroke:#FF0000; stroke-width:  2.6968; stroke-linecap:butt; stroke-linejoin:miter; stroke-dasharray:none">
   <ellipse  rx="4.4946" ry="4.4946" cx="359.6908" cy="573.6524"/>
  </g>
  <g style="fill:#FF0000; fill-rule:nonzero">
   <ellipse  rx="4.4946" ry="4.4946" cx="404.6522" cy="451.8627"/>
  </g>
  <g style="fill:none; stroke:#FF0000; stroke-width:  2.6968; stroke-linecap:butt; stroke-linejoin:miter; stroke-dasharray:none">
   <ellipse  rx="4.4946" ry="4.4946" cx="404.6522" cy="451.8627"/>
  </g>
  <g style="fill:#FF0000; fill-rule:nonzero">
   <ellipse  rx="4.4946" ry="4.4946" cx="449.6135" cy="556.0955"/>
  </g>
  <g style="fill:none; stroke:#FF0000; stroke-width:  2.6968; stroke-linecap:butt; stroke-linejoin:miter; stroke-dasharray:none">
   <ellipse  rx="4.4946" ry="4.4946" cx="449.6135" cy="556.0955"/>
  </g>
  <g style="fill:#FF0000; fill-rule:nonzero">
   <ellipse  rx="4.4946" ry="4.4946" cx="494.5749" cy="514.3945"/>
  </g>
  <g style="fill:none; stroke:#FF0000; stroke-width:  2.6968; stroke-linecap:butt; stroke-linejoin:miter; stroke-dasharray:none">
   <ellipse  rx="4.4946" ry="4.4946" cx="494.5749" cy="514.3945"/>
  </g>
  <g style="fill:#FF0000; fill-rule:nonzero">
   <ellipse  rx="4.4946" ry="4.4946" cx="539.5362" cy="556.6996"/>
  </g>
  <g style="fill:none; stroke:#FF0000; stroke-width:  2.6968; stroke-linecap:butt; stroke-linejoin:miter; stroke-dasharray:none">
   <ellipse  rx="4.4946" ry="4.4946" cx="539.5362" cy="556.6996"/>
  </g>
  <g style="fill:#FF0000; fill-rule:nonzero">
   <ellipse  rx="4.4946" ry="4.4946" cx="584.4976" cy="626.1602"/>
  </g>
  <g style="fill:none; stroke:#FF0000; stroke-width:  2.6968; stroke-linecap:butt; stroke-linejoin:miter; stroke-dasharray:none">
   <ellipse  rx="4.4946" ry="4.4946" cx="584.4976" cy="626.1602"/>
  </g>
  <g style="fill:#FF0000; fill-rule:nonzero">
   <ellipse  rx="4.4946" ry="4.4946" cx="629.4590" cy="618.8058"/>
  </g>
  <g style="fill:none; stroke:#FF0000; stroke-width:  2.6968; stroke-linecap:butt; stroke-linejoin:miter; stroke-dasharray:none">
   <ellipse  rx="4.4946" ry="4.4946" cx="629.4590" cy="618.8058"/>
  </g>
  <g style="fill:#FF0000; fill-rule:nonzero">
   <ellipse  rx="4.4946" ry="4.4946" cx="674.4203" cy="640.0719"/>
  </g>
  <g style="fill:none; stroke:#FF0000; stroke-width:  2.6968; stroke-linecap:butt; stroke-linejoin:miter; stroke-dasharray:none">
   <ellipse  rx="4.4946" ry="4.4946" cx="674.4203" cy="640.0719"/>
  </g>
  <g style="fill:none; stroke:#FF0000; stroke-width:  2.6968; stroke-linecap:butt; stroke-linejoin:miter; stroke-dasharray: 19 8">
   <path d="M179.8454,417.2464L224.8067,448.8542L269.7681,509.0838L314.7294,471.1078L359.6908,537.4165L404.6522,414.1126L449.6135,511.1125L494.5749,484.6407"/>
  </g>
  <g style="fill:#FF0000; fill-rule:nonzero">
   <path  d="M176.0249,413.4260L176.0249,421.0668L183.6658,421.0668L183.6658,413.4260z"/>
  </g>
  <g style="fill:none; stroke:#FF0000; stroke-width:  2.6968; stroke-linecap:butt; stroke-linejoin:miter; stroke-dasharray:none">
   <path d="M176.0249,413.4260L176.0249,421.0668L183.6658,421.0668L183.6658,413.4260z"/>
  </g>
  <g style="fill:#FF0000; fill-rule:nonzero">
   <path  d="M220.9863,445.0337L220.9863,452.6746L228.6271,452.6746L228.6271,445.0337z"/>
  </g>
  <g style="fill:none; stroke:#FF0000; stroke-width:  2.6968; stroke-linecap:butt; stroke-linejoin:miter; stroke-dasharray:none">
   <path d="M220.9863,445.0337L220.9863,452.6746L228.6271,452.6746L228.6271,445.0337z"/>
  </g>
  <g style="fill:#FF0000; fill-rule:nonzero">
   <path  d="M265.9477,505.2634L265.9477,512.9042L273.5885,512.9042L273.5885,505.2634z"/>
  </g>
  <g style="fill:none; stroke:#FF0000; stroke-width:  2.6968; stroke-linecap:butt; stroke-linejoin:miter; stroke-dasharray:none">
   <path d="M265.9477,505.2634L265.9477,512.9042L273.5885,512.9042L273.5885,505.2634z"/>
  </g>
  <g style="fill:#FF0000; fill-rule:nonzero">
   <path  d="M310.9090,467.2873L310.9090,474.9282L318.5498,474.9282L318.5498,467.2873z"/>
  </g>
  <g style="fill:none; stroke:#FF0000; stroke-width:  2.6968; stroke-linecap:butt; stroke-linejoin:miter; stroke-dasharray:none">
   <path d="M310.9090,467.2873L310.9090,474.9282L318.5498,474.9282L318.5498,467.2873z"/>
  </g>
  <g style="fill:#FF0000; fill-rule:nonzero">
   <path  d="M355.8704,533.5961L355.8704,541.2369L363.5112,541.2369L363.5112,533.5961z"/>
  </g>
  <g style="fill:none; stroke:#FF0000; stroke-width:  2.6968; stroke-linecap:butt; stroke-linejoin:miter; stroke-dasharray:none">
   <path d="M355.8704,533.5961L355.8704,541.2369L363.5112,541.2369L363.5112,533.5961z"/>
  </g>
  <g style="fill:#FF0000; fill-rule:nonzero">
   <path  d="M400.8318,410.2922L400.8318,417.9330L408.4726,417.9330L408.4726,410.2922z"/>
  </g>
  <g style="fill:none; stroke:#FF0000; stroke-width:  2.6968; stroke-linecap:butt; stroke-linejoin:miter; stroke-dasharray:none">
   <path d="M400.8318,410.2922L400.8318,417.9330L408.4726,417.9330L408.4726,410.2922z"/>
  </g>
  <g style="fill:#FF0000; fill-rule:nonzero">
   <path  d="M445.7931,507.2921L445.7931,514.9329L453.4339,514.9329L453.4339,507.2921z"/>
  </g>
  <g style="fill:none; stroke:#FF0000; stroke-width:  2.6968; stroke-linecap:butt; stroke-linejoin:miter; stroke-dasharray:none">
   <path d="M445.7931,507.2921L445.7931,514.9329L453.4339,514.9329L453.4339,507.2921z"/>
  </g>
  <g style="fill:#FF0000; fill-rule:nonzero">
   <path  d="M490.7545,480.8202L490.7545,488.4611L498.3953,488.4611L498.3953,480.8202z"/>
  </g>
  <g style="fill:none; stroke:#FF0000; stroke-width:  2.6968; stroke-linecap:butt; stroke-linejoin:miter; stroke-dasharray:none">
   <path d="M490.7545,480.8202L490.7545,488.4611L498.3953,488.4611L498.3953,480.8202z"/>
  </g>
  <g style="fill:none; stroke:#000000; stroke-width:  2.6968; stroke-linecap:butt; stroke-linejoin:miter; stroke-dasharray:none">
   <path d="M134.8840,134.8380L1034.1112,134.8380"/>
   <path d="M134.8840,764.0820L1034.1112,764.0820"/>
   <path d="M179.8454,134.8380L179.8454,143.8272"/>
   <path d="M179.8454,764.0820L179.8454,755.0928"/>
   <path d="M269.7681,134.8380L269.7681,143.8272"/>
   <path d="M269.7681,764.0820L269.7681,755.0928"/>
   <path d="M359.6908,134.8380L359.6908,143.8272"/>
   <path d="M359.6908,764.0820L359.6908,755.0928"/>
   <path d="M449.6135,134.8380L449.6135,143.8272"/>
   <path d="M449.6135,764.0820L449.6135,755.0928"/>
   <path d="M539.5362,134.8380L539.5362,143.8272"/>
   <path d="M539.5362,764.0820L539.5362,755.0928"/>
   <path d="M629.4590,134.8380L629.4590,143.8272"/>
   <path d="M629.4590,764.0820L629.4590,755.0928"/>
   <path d="M719.3817,134.8380L719.3817,143.8272"/>
   <path d="M719.3817,764.0820L719.3817,755.0928"/>
   <path d="M809.3044,134.8380L809.3044,143.8272"/>
   <path d="M809.3044,764.0820L809.3044,755.0928"/>
   <path d="M899.2271,134.8380L899.2271,143.8272"/>
   <path d="M899.2271,764.0820L899.2271,755.0928"/>
   <path d="M989.1499,134.8380L989.1499,143.8272"/>
   <path d="M989.1499,764.0820L989.1499,755.0928"/>
   <path d="M134.8840,134.8380L134.8840,148.3218"/>
   <path d="M134.8840,764.0820L134.8840,750.5982"/>
   <path d="M224.8067,134.8380L224.8067,148.3218"/>
   <path d="M224.8067,764.0820L224.8067,750.5982"/>
   <path d="M314.7294,134.8380L314.7294,148.3218"/>
   <path d="M314.7294,764.0820L314.7294,750.5982"/>
   <path d="M404.6522,134.8380L404.6522,148.3218"/>
   <path d="M404.6522,764.0820L404.6522,750.5982"/>
   <path d="M494.5749,134.8380L494.5749,148.3218"/>
   <path d="M494.5749,764.0820L494.5749,750.5982"/>
   <path d="M584.4976,134.8380L584.4976,148.3218"/>
   <path d="M584.4976,764.0820L584.4976,750.5982"/>
   <path d="M674.4203,134.8380L674.4203,148.3218"/>
   <path d="M674.4203,764.0820L674.4203,750.5982"/>
   <path d="M764.3431,134.8380L764.3431,148.3218"/>
   <path d="M764.3431,764.0820L764.3431,750.5982"/>
   <path d="M854.2658,134.8380L854.2658,148.3218"/>
   <path d="M854.2658,764.0820L854.2658,750.5982"/>
   <path d="M944.1885,134.8380L944.1885,148.3218"/>
   <path d="M944.1885,764.0820L944.1885,750.5982"/>
   <path d="M1034.1112,134.8380L1034.1112,148.3218"/>
   <path d="M1034.1112,764.0820L1034.1112,750.5982"/>
  </g>
  <g style="fill:#000000; fill-rule:nonzero">
   <text   style="font-family:'Times','Nimbus Roman No9 L'; font-style:normal; font-weight:bold; font-size:898.9200" transform="matrix(0.0280,0.0000,-0.0000,-0.0280,128.9440,108.5688)">0</text>
   <text   style="font-family:'Times','Nimbus Roman No9 L'; font-style:normal; font-weight:bold; font-size:898.9200" transform="matrix(0.0280,0.0000,-0.0000,-0.0280,218.8667,108.5688)">2</text>
   <text   style="font-family:'Times','Nimbus Roman No9 L'; font-style:normal; font-weight:bold; font-size:898.9200" transform="matrix(0.0280,0.0000,-0.0000,-0.0280,308.7894,108.5688)">4</text>
   <text   style="font-family:'Times','Nimbus Roman No9 L'; font-style:normal; font-weight:bold; font-size:898.9200" transform="matrix(0.0280,0.0000,-0.0000,-0.0280,398.7122,108.5688)">6</text>
   <text   style="font-family:'Times','Nimbus Roman No9 L'; font-style:normal; font-weight:bold; font-size:898.9200" transform="matrix(0.0280,0.0000,-0.0000,-0.0280,488.6349,108.5688)">8</text>
   <text   style="font-family:'Times','Nimbus Roman No9 L'; font-style:normal; font-weight:bold; font-size:898.9200" transform="matrix(0.0280,0.0000,-0.0000,-0.0280,572.2576,108.5688)">10</text>
   <text   style="font-family:'Times','Nimbus Roman No9 L'; font-style:normal; font-weight:bold; font-size:898.9200" transform="matrix(0.0280,0.0000,-0.0000,-0.0280,662.1803,108.5688)">12</text>
   <text   style="font-family:'Times','Nimbus Roman No9 L'; font-style:normal; font-weight:bold; font-size:898.9200" transform="matrix(0.0280,0.0000,-0.0000,-0.0280,752.1031,108.5688)">14</text>
   <text   style="font-family:'Times','Nimbus Roman No9 L'; font-style:normal; font-weight:bold; font-size:898.9200" transform="matrix(0.0280,0.0000,-0.0000,-0.0280,842.0258,108.5688)">16</text>
   <text   style="font-family:'Times','Nimbus Roman No9 L'; font-style:normal; font-weight:bold; font-size:898.9200" transform="matrix(0.0280,0.0000,-0.0000,-0.0280,931.9485,108.5688)">18</text>
   <text   style="font-family:'Times','Nimbus Roman No9 L'; font-style:normal; font-weight:bold; font-size:898.9200" transform="matrix(0.0280,0.0000,-0.0000,-0.0280,1021.8712,108.5688)">20</text>
   <text   style="font-family:'Times','Nimbus Roman No9 L'; font-style:normal; font-weight:bold; font-size:898.9200" transform="matrix(0.0280,0.0000,-0.0000,-0.0280,469.2976,81.9396)">Number of Hydrogen</text>
  </g>
  <g style="fill:none; stroke:#000000; stroke-width:  1.3484; stroke-linecap:butt; stroke-linejoin:miter; stroke-dasharray:none">
   <path d="M134.8840,134.8380L134.8840,764.0820"/>
   <path d="M1034.1112,134.8380L1034.1112,764.0820"/>
  </g>
  <g style="fill:none; stroke:#000000; stroke-width:  2.6968; stroke-linecap:butt; stroke-linejoin:miter; stroke-dasharray:none">
   <path d="M134.8840,161.0565L139.3786,161.0565"/>
   <path d="M1034.1112,161.0565L1029.6166,161.0565"/>
   <path d="M134.8840,213.4935L139.3786,213.4935"/>
   <path d="M1034.1112,213.4935L1029.6166,213.4935"/>
   <path d="M134.8840,265.9305L139.3786,265.9305"/>
   <path d="M1034.1112,265.9305L1029.6166,265.9305"/>
   <path d="M134.8840,318.3675L139.3786,318.3675"/>
   <path d="M1034.1112,318.3675L1029.6166,318.3675"/>
   <path d="M134.8840,370.8045L139.3786,370.8045"/>
   <path d="M1034.1112,370.8045L1029.6166,370.8045"/>
   <path d="M134.8840,423.2415L139.3786,423.2415"/>
   <path d="M1034.1112,423.2415L1029.6166,423.2415"/>
   <path d="M134.8840,475.6785L139.3786,475.6785"/>
   <path d="M1034.1112,475.6785L1029.6166,475.6785"/>
   <path d="M134.8840,528.1155L139.3786,528.1155"/>
   <path d="M1034.1112,528.1155L1029.6166,528.1155"/>
   <path d="M134.8840,580.5525L139.3786,580.5525"/>
   <path d="M1034.1112,580.5525L1029.6166,580.5525"/>
   <path d="M134.8840,632.9895L139.3786,632.9895"/>
   <path d="M1034.1112,632.9895L1029.6166,632.9895"/>
   <path d="M134.8840,685.4265L139.3786,685.4265"/>
   <path d="M1034.1112,685.4265L1029.6166,685.4265"/>
   <path d="M134.8840,737.8635L139.3786,737.8635"/>
   <path d="M1034.1112,737.8635L1029.6166,737.8635"/>
   <path d="M134.8840,134.8380L148.3678,134.8380"/>
   <path d="M1034.1112,134.8380L1020.6274,134.8380"/>
   <path d="M134.8840,187.2750L148.3678,187.2750"/>
   <path d="M1034.1112,187.2750L1020.6274,187.2750"/>
   <path d="M134.8840,239.7120L148.3678,239.7120"/>
   <path d="M1034.1112,239.7120L1020.6274,239.7120"/>
   <path d="M134.8840,292.1490L148.3678,292.1490"/>
   <path d="M1034.1112,292.1490L1020.6274,292.1490"/>
   <path d="M134.8840,344.5860L148.3678,344.5860"/>
   <path d="M1034.1112,344.5860L1020.6274,344.5860"/>
   <path d="M134.8840,397.0230L148.3678,397.0230"/>
   <path d="M1034.1112,397.0230L1020.6274,397.0230"/>
   <path d="M134.8840,449.4600L148.3678,449.4600"/>
   <path d="M1034.1112,449.4600L1020.6274,449.4600"/>
   <path d="M134.8840,501.8970L148.3678,501.8970"/>
   <path d="M1034.1112,501.8970L1020.6274,501.8970"/>
   <path d="M134.8840,554.3340L148.3678,554.3340"/>
   <path d="M1034.1112,554.3340L1020.6274,554.3340"/>
   <path d="M134.8840,606.7710L148.3678,606.7710"/>
   <path d="M1034.1112,606.7710L1020.6274,606.7710"/>
   <path d="M134.8840,659.2080L148.3678,659.2080"/>
   <path d="M1034.1112,659.2080L1020.6274,659.2080"/>
   <path d="M134.8840,711.6450L148.3678,711.6450"/>
   <path d="M1034.1112,711.6450L1020.6274,711.6450"/>
  </g>
  <g style="fill:#000000; fill-rule:nonzero">
   <text   style="font-family:'Times','Nimbus Roman No9 L'; font-style:normal; font-weight:bold; font-size:898.9200" transform="matrix(0.0280,0.0000,-0.0000,-0.0280,86.6548,126.3780)">-0.5</text>
   <text   style="font-family:'Times','Nimbus Roman No9 L'; font-style:normal; font-weight:bold; font-size:898.9200" transform="matrix(0.0280,0.0000,-0.0000,-0.0280,86.6548,178.8150)">-0.4</text>
   <text   style="font-family:'Times','Nimbus Roman No9 L'; font-style:normal; font-weight:bold; font-size:898.9200" transform="matrix(0.0280,0.0000,-0.0000,-0.0280,86.6548,231.2520)">-0.3</text>
   <text   style="font-family:'Times','Nimbus Roman No9 L'; font-style:normal; font-weight:bold; font-size:898.9200" transform="matrix(0.0280,0.0000,-0.0000,-0.0280,86.6548,283.6890)">-0.2</text>
   <text   style="font-family:'Times','Nimbus Roman No9 L'; font-style:normal; font-weight:bold; font-size:898.9200" transform="matrix(0.0280,0.0000,-0.0000,-0.0280,87.3748,336.1260)">-0.1</text>
   <text   style="font-family:'Times','Nimbus Roman No9 L'; font-style:normal; font-weight:bold; font-size:898.9200" transform="matrix(0.0280,0.0000,-0.0000,-0.0280,114.0148,388.5630)">0</text>
   <text   style="font-family:'Times','Nimbus Roman No9 L'; font-style:normal; font-weight:bold; font-size:898.9200" transform="matrix(0.0280,0.0000,-0.0000,-0.0280,96.0148,441.0000)">0.1</text>
   <text   style="font-family:'Times','Nimbus Roman No9 L'; font-style:normal; font-weight:bold; font-size:898.9200" transform="matrix(0.0280,0.0000,-0.0000,-0.0280,95.2948,493.4370)">0.2</text>
   <text   style="font-family:'Times','Nimbus Roman No9 L'; font-style:normal; font-weight:bold; font-size:898.9200" transform="matrix(0.0280,0.0000,-0.0000,-0.0280,95.2948,545.8740)">0.3</text>
   <text   style="font-family:'Times','Nimbus Roman No9 L'; font-style:normal; font-weight:bold; font-size:898.9200" transform="matrix(0.0280,0.0000,-0.0000,-0.0280,95.2948,598.3110)">0.4</text>
   <text   style="font-family:'Times','Nimbus Roman No9 L'; font-style:normal; font-weight:bold; font-size:898.9200" transform="matrix(0.0280,0.0000,-0.0000,-0.0280,95.2948,650.7480)">0.5</text>
   <text   style="font-family:'Times','Nimbus Roman No9 L'; font-style:normal; font-weight:bold; font-size:898.9200" transform="matrix(0.0280,0.0000,-0.0000,-0.0280,95.2948,703.1850)">0.6</text>
   <text   style="font-family:'Times','Nimbus Roman No9 L'; font-style:normal; font-weight:bold; font-size:898.9200" transform="matrix(0.0000,0.0280,0.0280,-0.0000,72.6256,256.5000)">Differential Gibbs Free Energy (eV)</text>
  </g>
  <g style="fill:none; stroke:#000000; stroke-width:  2.6968; stroke-linecap:butt; stroke-linejoin:miter; stroke-dasharray:none">
   <path d="M134.8840,134.8380L134.8840,764.0820L1034.1112,764.0820L1034.1112,134.8380z"/>
  </g>
  <g style="fill:#FFFFFF; fill-rule:nonzero">
   <path  d="M764.3429,317.7602L764.3429,161.9826L1013.4595,161.9826L1013.4595,317.7602z"/>
  </g>
  <g style="fill:none; stroke:#000000; stroke-width:  2.6968; stroke-linecap:butt; stroke-linejoin:miter; stroke-dasharray:none">
   <path d="M764.3429,317.7602L764.3429,161.9826L1013.4595,161.9826L1013.4595,317.7602z"/>
  </g>
  <g style="fill:#000000; fill-rule:nonzero">
   <text   style="font-family:'Times','Nimbus Roman No9 L'; font-style:normal; font-weight:bold; font-size:898.9200" transform="matrix(0.0280,0.0000,-0.0000,-0.0280,833.1103,291.4910)">Ni</text>
   <text   style="font-family:'Times','Nimbus Roman No9 L'; font-style:normal; font-weight:bold; font-size:898.9200" transform="matrix(0.0198,0.0000,-0.0000,-0.0198,858.3103,281.4231)">3</text>
   <text   style="font-family:'Times','Nimbus Roman No9 L'; font-style:normal; font-weight:bold; font-size:898.9200" transform="matrix(0.0280,0.0000,-0.0000,-0.0280,867.3103,291.4910)">P</text>
   <text   style="font-family:'Times','Nimbus Roman No9 L'; font-style:normal; font-weight:bold; font-size:898.9200" transform="matrix(0.0198,0.0000,-0.0000,-0.0198,882.7903,281.4231)">2</text>
  </g>
  <g style="fill:none; stroke:#008B00; stroke-width:  2.6968; stroke-linecap:butt; stroke-linejoin:miter; stroke-dasharray:none">
   <path d="M779.1751,294.9171L815.1319,294.9171"/>
  </g>
  <g style="fill:#008B00; fill-rule:nonzero">
   <ellipse  rx="4.4946" ry="4.4946" cx="779.1751" cy="294.9171"/>
  </g>
  <g style="fill:none; stroke:#008B00; stroke-width:  2.6968; stroke-linecap:butt; stroke-linejoin:miter; stroke-dasharray:none">
   <ellipse  rx="4.4946" ry="4.4946" cx="779.1751" cy="294.9171"/>
  </g>
  <g style="fill:#008B00; fill-rule:nonzero">
   <ellipse  rx="4.4946" ry="4.4946" cx="815.1319" cy="294.9171"/>
  </g>
  <g style="fill:none; stroke:#008B00; stroke-width:  2.6968; stroke-linecap:butt; stroke-linejoin:miter; stroke-dasharray:none">
   <ellipse  rx="4.4946" ry="4.4946" cx="815.1319" cy="294.9171"/>
  </g>
  <g style="fill:#000000; fill-rule:nonzero">
   <text   style="font-family:'Times','Nimbus Roman No9 L'; font-style:normal; font-weight:bold; font-size:898.9200" transform="matrix(0.0280,0.0000,-0.0000,-0.0280,833.1103,254.7939)">Ni</text>
   <text   style="font-family:'Times','Nimbus Roman No9 L'; font-style:normal; font-weight:bold; font-size:898.9200" transform="matrix(0.0198,0.0000,-0.0000,-0.0198,858.3103,244.7260)">3</text>
   <text   style="font-family:'Times','Nimbus Roman No9 L'; font-style:normal; font-weight:bold; font-size:898.9200" transform="matrix(0.0280,0.0000,-0.0000,-0.0280,867.3103,254.7939)">P</text>
   <text   style="font-family:'Times','Nimbus Roman No9 L'; font-style:normal; font-weight:bold; font-size:898.9200" transform="matrix(0.0198,0.0000,-0.0000,-0.0198,882.7903,244.7260)">2</text>
   <text   style="font-family:'Times','Nimbus Roman No9 L'; font-style:normal; font-weight:bold; font-size:898.9200" transform="matrix(0.0280,0.0000,-0.0000,-0.0280,891.7903,254.7939)"> vdW</text>
  </g>
  <g style="fill:none; stroke:#008B00; stroke-width:  2.6968; stroke-linecap:butt; stroke-linejoin:miter; stroke-dasharray: 19 8">
   <path d="M779.1751,258.2200L815.1319,258.2200"/>
  </g>
  <g style="fill:#008B00; fill-rule:nonzero">
   <path  d="M775.3547,254.3996L775.3547,262.0404L782.9955,262.0404L782.9955,254.3996z"/>
  </g>
  <g style="fill:none; stroke:#008B00; stroke-width:  2.6968; stroke-linecap:butt; stroke-linejoin:miter; stroke-dasharray:none">
   <path d="M775.3547,254.3996L775.3547,262.0404L782.9955,262.0404L782.9955,254.3996z"/>
  </g>
  <g style="fill:#008B00; fill-rule:nonzero">
   <path  d="M811.3115,254.3996L811.3115,262.0404L818.9523,262.0404L818.9523,254.3996z"/>
  </g>
  <g style="fill:none; stroke:#008B00; stroke-width:  2.6968; stroke-linecap:butt; stroke-linejoin:miter; stroke-dasharray:none">
   <path d="M811.3115,254.3996L811.3115,262.0404L818.9523,262.0404L818.9523,254.3996z"/>
  </g>
  <g style="fill:#000000; fill-rule:nonzero">
   <text   style="font-family:'Times','Nimbus Roman No9 L'; font-style:normal; font-weight:bold; font-size:898.9200" transform="matrix(0.0280,0.0000,-0.0000,-0.0280,833.1103,218.0968)">Ni</text>
   <text   style="font-family:'Times','Nimbus Roman No9 L'; font-style:normal; font-weight:bold; font-size:898.9200" transform="matrix(0.0198,0.0000,-0.0000,-0.0198,858.3103,208.0289)">3</text>
   <text   style="font-family:'Times','Nimbus Roman No9 L'; font-style:normal; font-weight:bold; font-size:898.9200" transform="matrix(0.0280,0.0000,-0.0000,-0.0280,867.3103,218.0968)">P</text>
   <text   style="font-family:'Times','Nimbus Roman No9 L'; font-style:normal; font-weight:bold; font-size:898.9200" transform="matrix(0.0198,0.0000,-0.0000,-0.0198,882.7903,208.0289)">2</text>
   <text   style="font-family:'Times','Nimbus Roman No9 L'; font-style:normal; font-weight:bold; font-size:898.9200" transform="matrix(0.0280,0.0000,-0.0000,-0.0280,891.7903,218.0968)">+ 4P</text>
  </g>
  <g style="fill:none; stroke:#FF0000; stroke-width:  2.6968; stroke-linecap:butt; stroke-linejoin:miter; stroke-dasharray:none">
   <path d="M779.1751,221.5229L815.1319,221.5229"/>
  </g>
  <g style="fill:#FF0000; fill-rule:nonzero">
   <ellipse  rx="4.4946" ry="4.4946" cx="779.1751" cy="221.5229"/>
  </g>
  <g style="fill:none; stroke:#FF0000; stroke-width:  2.6968; stroke-linecap:butt; stroke-linejoin:miter; stroke-dasharray:none">
   <ellipse  rx="4.4946" ry="4.4946" cx="779.1751" cy="221.5229"/>
  </g>
  <g style="fill:#FF0000; fill-rule:nonzero">
   <ellipse  rx="4.4946" ry="4.4946" cx="815.1319" cy="221.5229"/>
  </g>
  <g style="fill:none; stroke:#FF0000; stroke-width:  2.6968; stroke-linecap:butt; stroke-linejoin:miter; stroke-dasharray:none">
   <ellipse  rx="4.4946" ry="4.4946" cx="815.1319" cy="221.5229"/>
  </g>
  <g style="fill:#000000; fill-rule:nonzero">
   <text   style="font-family:'Times','Nimbus Roman No9 L'; font-style:normal; font-weight:bold; font-size:898.9200" transform="matrix(0.0280,0.0000,-0.0000,-0.0280,833.1103,181.3997)">Ni</text>
   <text   style="font-family:'Times','Nimbus Roman No9 L'; font-style:normal; font-weight:bold; font-size:898.9200" transform="matrix(0.0198,0.0000,-0.0000,-0.0198,858.3103,171.3318)">3</text>
   <text   style="font-family:'Times','Nimbus Roman No9 L'; font-style:normal; font-weight:bold; font-size:898.9200" transform="matrix(0.0280,0.0000,-0.0000,-0.0280,867.3103,181.3997)">P</text>
   <text   style="font-family:'Times','Nimbus Roman No9 L'; font-style:normal; font-weight:bold; font-size:898.9200" transform="matrix(0.0198,0.0000,-0.0000,-0.0198,882.7903,171.3318)">2</text>
   <text   style="font-family:'Times','Nimbus Roman No9 L'; font-style:normal; font-weight:bold; font-size:898.9200" transform="matrix(0.0280,0.0000,-0.0000,-0.0280,891.7903,181.3997)"> + 4P vdW</text>
  </g>
  <g style="fill:none; stroke:#FF0000; stroke-width:  2.6968; stroke-linecap:butt; stroke-linejoin:miter; stroke-dasharray: 19 8">
   <path d="M779.1751,184.8258L815.1319,184.8258"/>
  </g>
  <g style="fill:#FF0000; fill-rule:nonzero">
   <path  d="M775.3547,181.0054L775.3547,188.6462L782.9955,188.6462L782.9955,181.0054z"/>
  </g>
  <g style="fill:none; stroke:#FF0000; stroke-width:  2.6968; stroke-linecap:butt; stroke-linejoin:miter; stroke-dasharray:none">
   <path d="M775.3547,181.0054L775.3547,188.6462L782.9955,188.6462L782.9955,181.0054z"/>
  </g>
  <g style="fill:#FF0000; fill-rule:nonzero">
   <path  d="M811.3115,181.0054L811.3115,188.6462L818.9523,188.6462L818.9523,181.0054z"/>
  </g>
  <g style="fill:none; stroke:#FF0000; stroke-width:  2.6968; stroke-linecap:butt; stroke-linejoin:miter; stroke-dasharray:none">
   <path d="M811.3115,181.0054L811.3115,188.6462L818.9523,188.6462L818.9523,181.0054z"/>
  </g>
 </g>
</svg>
