<?xml version="1.0" encoding="ISO-8859-1"?>
<!DOCTYPE svg PUBLIC "-//W3C//DTD SVG 1.0//EN" "http://www.w3.org/TR/2001/REC-SVG-20010904/DTD/svg10.dtd">
<!-- generated by Grace-5.1.25 -->
<svg xml:space="preserve" width="16.1550in" height="12.4850in" viewBox="0.0000 0.0000 1163.1600 898.9200">
 <g transform="translate(0,898.9200) scale(1,-1)">
  <g style="fill:#FFFFFF; fill-rule:nonzero">
   <path  d="M0.0000,0.0000L0.0000,898.9200L1163.1601,898.9200L1163.1601,0.0000z"/>
  </g>
  <defs>
   <pattern id="pattern4" viewBox="0 0 16 16" width="16" height="16" patternUnits="userSpaceOnUse">
     <rect fill="#FFFFFF" x="0" y="0" width="16" height="16"/>
     <rect x="0" y="15" width="1" height="1"/>
     <rect x="2" y="15" width="1" height="1"/>
     <rect x="4" y="15" width="1" height="1"/>
     <rect x="6" y="15" width="1" height="1"/>
     <rect x="8" y="15" width="1" height="1"/>
     <rect x="10" y="15" width="1" height="1"/>
     <rect x="12" y="15" width="1" height="1"/>
     <rect x="14" y="15" width="1" height="1"/>
     <rect x="1" y="14" width="1" height="1"/>
     <rect x="3" y="14" width="1" height="1"/>
     <rect x="5" y="14" width="1" height="1"/>
     <rect x="7" y="14" width="1" height="1"/>
     <rect x="9" y="14" width="1" height="1"/>
     <rect x="11" y="14" width="1" height="1"/>
     <rect x="13" y="14" width="1" height="1"/>
     <rect x="15" y="14" width="1" height="1"/>
     <rect x="0" y="13" width="1" height="1"/>
     <rect x="2" y="13" width="1" height="1"/>
     <rect x="4" y="13" width="1" height="1"/>
     <rect x="6" y="13" width="1" height="1"/>
     <rect x="8" y="13" width="1" height="1"/>
     <rect x="10" y="13" width="1" height="1"/>
     <rect x="12" y="13" width="1" height="1"/>
     <rect x="14" y="13" width="1" height="1"/>
     <rect x="1" y="12" width="1" height="1"/>
     <rect x="3" y="12" width="1" height="1"/>
     <rect x="5" y="12" width="1" height="1"/>
     <rect x="7" y="12" width="1" height="1"/>
     <rect x="9" y="12" width="1" height="1"/>
     <rect x="11" y="12" width="1" height="1"/>
     <rect x="13" y="12" width="1" height="1"/>
     <rect x="15" y="12" width="1" height="1"/>
     <rect x="0" y="11" width="1" height="1"/>
     <rect x="2" y="11" width="1" height="1"/>
     <rect x="4" y="11" width="1" height="1"/>
     <rect x="6" y="11" width="1" height="1"/>
     <rect x="8" y="11" width="1" height="1"/>
     <rect x="10" y="11" width="1" height="1"/>
     <rect x="12" y="11" width="1" height="1"/>
     <rect x="14" y="11" width="1" height="1"/>
     <rect x="1" y="10" width="1" height="1"/>
     <rect x="3" y="10" width="1" height="1"/>
     <rect x="5" y="10" width="1" height="1"/>
     <rect x="7" y="10" width="1" height="1"/>
     <rect x="9" y="10" width="1" height="1"/>
     <rect x="11" y="10" width="1" height="1"/>
     <rect x="13" y="10" width="1" height="1"/>
     <rect x="15" y="10" width="1" height="1"/>
     <rect x="0" y="9" width="1" height="1"/>
     <rect x="2" y="9" width="1" height="1"/>
     <rect x="4" y="9" width="1" height="1"/>
     <rect x="6" y="9" width="1" height="1"/>
     <rect x="8" y="9" width="1" height="1"/>
     <rect x="10" y="9" width="1" height="1"/>
     <rect x="12" y="9" width="1" height="1"/>
     <rect x="14" y="9" width="1" height="1"/>
     <rect x="1" y="8" width="1" height="1"/>
     <rect x="3" y="8" width="1" height="1"/>
     <rect x="5" y="8" width="1" height="1"/>
     <rect x="7" y="8" width="1" height="1"/>
     <rect x="9" y="8" width="1" height="1"/>
     <rect x="11" y="8" width="1" height="1"/>
     <rect x="13" y="8" width="1" height="1"/>
     <rect x="15" y="8" width="1" height="1"/>
     <rect x="0" y="7" width="1" height="1"/>
     <rect x="2" y="7" width="1" height="1"/>
     <rect x="4" y="7" width="1" height="1"/>
     <rect x="6" y="7" width="1" height="1"/>
     <rect x="8" y="7" width="1" height="1"/>
     <rect x="10" y="7" width="1" height="1"/>
     <rect x="12" y="7" width="1" height="1"/>
     <rect x="14" y="7" width="1" height="1"/>
     <rect x="1" y="6" width="1" height="1"/>
     <rect x="3" y="6" width="1" height="1"/>
     <rect x="5" y="6" width="1" height="1"/>
     <rect x="7" y="6" width="1" height="1"/>
     <rect x="9" y="6" width="1" height="1"/>
     <rect x="11" y="6" width="1" height="1"/>
     <rect x="13" y="6" width="1" height="1"/>
     <rect x="15" y="6" width="1" height="1"/>
     <rect x="0" y="5" width="1" height="1"/>
     <rect x="2" y="5" width="1" height="1"/>
     <rect x="4" y="5" width="1" height="1"/>
     <rect x="6" y="5" width="1" height="1"/>
     <rect x="8" y="5" width="1" height="1"/>
     <rect x="10" y="5" width="1" height="1"/>
     <rect x="12" y="5" width="1" height="1"/>
     <rect x="14" y="5" width="1" height="1"/>
     <rect x="1" y="4" width="1" height="1"/>
     <rect x="3" y="4" width="1" height="1"/>
     <rect x="5" y="4" width="1" height="1"/>
     <rect x="7" y="4" width="1" height="1"/>
     <rect x="9" y="4" width="1" height="1"/>
     <rect x="11" y="4" width="1" height="1"/>
     <rect x="13" y="4" width="1" height="1"/>
     <rect x="15" y="4" width="1" height="1"/>
     <rect x="0" y="3" width="1" height="1"/>
     <rect x="2" y="3" width="1" height="1"/>
     <rect x="4" y="3" width="1" height="1"/>
     <rect x="6" y="3" width="1" height="1"/>
     <rect x="8" y="3" width="1" height="1"/>
     <rect x="10" y="3" width="1" height="1"/>
     <rect x="12" y="3" width="1" height="1"/>
     <rect x="14" y="3" width="1" height="1"/>
     <rect x="1" y="2" width="1" height="1"/>
     <rect x="3" y="2" width="1" height="1"/>
     <rect x="5" y="2" width="1" height="1"/>
     <rect x="7" y="2" width="1" height="1"/>
     <rect x="9" y="2" width="1" height="1"/>
     <rect x="11" y="2" width="1" height="1"/>
     <rect x="13" y="2" width="1" height="1"/>
     <rect x="15" y="2" width="1" height="1"/>
     <rect x="0" y="1" width="1" height="1"/>
     <rect x="2" y="1" width="1" height="1"/>
     <rect x="4" y="1" width="1" height="1"/>
     <rect x="6" y="1" width="1" height="1"/>
     <rect x="8" y="1" width="1" height="1"/>
     <rect x="10" y="1" width="1" height="1"/>
     <rect x="12" y="1" width="1" height="1"/>
     <rect x="14" y="1" width="1" height="1"/>
     <rect x="1" y="0" width="1" height="1"/>
     <rect x="3" y="0" width="1" height="1"/>
     <rect x="5" y="0" width="1" height="1"/>
     <rect x="7" y="0" width="1" height="1"/>
     <rect x="9" y="0" width="1" height="1"/>
     <rect x="11" y="0" width="1" height="1"/>
     <rect x="13" y="0" width="1" height="1"/>
     <rect x="15" y="0" width="1" height="1"/>
   </pattern>
   <filter id="tocolor5" filterUnits="objectBoundingBox"
    color-interpolation-filters="sRGB" x="0%" y="0%" width="100%" height="100%">
    <feComponentTransfer>
      <feFuncR type="discrete" tableValues="1.000000 1.000000"/>
      <feFuncG type="discrete" tableValues="1.000000 1.000000"/>
      <feFuncB type="discrete" tableValues="0.000000 1.000000"/>
    </feComponentTransfer>
   </filter>
  </defs>
  <g style="filter:url(#tocolor5); fill:url(#pattern4); fill-rule:nonzero">
   <path  d="M134.9308,674.1900L137.3343,674.1900L139.7379,674.1900L142.1415,674.1900L144.5451,674.1900L146.9487,674.1900L149.3522,674.1900L151.7558,674.1900L154.1594,674.1900L156.5630,674.1900
             L158.9666,674.1900L161.3701,674.1900L163.7737,674.1900L166.1773,674.1900L168.5809,674.1900L170.9845,674.1900L173.3880,674.1900L175.7916,674.1900L178.1952,674.1900L180.5988,674.1900
             L183.0024,674.1900L185.4060,674.1900L187.8095,674.1900L190.2131,674.1900L192.6167,674.1900L195.0203,674.1900L197.4239,674.1900L199.8274,674.1900L202.2310,674.1900L204.6346,674.1900
             L207.0382,674.1900L209.4418,674.1900L211.8453,674.1900L214.2489,674.1900L216.6525,674.1900L219.0561,674.1900L221.4597,674.1900L223.8632,674.1900L226.2668,674.1900L228.6704,674.1900
             L231.0740,674.1900L233.4776,674.1900L235.8812,674.1900L238.2847,674.1900L240.6883,674.1900L243.0919,674.1900L245.4955,674.1900L247.8991,674.1900L250.3026,674.1900L252.7062,674.1900
             L255.1098,674.1900L257.5134,674.1900L259.9170,674.1900L262.3205,674.1900L264.7241,674.1900L267.1277,674.1900L269.5313,674.1900L271.9349,674.1900L274.3384,674.1900L276.7420,674.1900
             L279.1456,674.1900L281.5492,674.1900L283.9528,674.1900L286.3564,674.1900L288.7599,674.1900L291.1635,674.1900L293.5671,674.1900L295.9707,674.1900L298.3743,674.1900L300.7778,674.1900
             L303.1814,674.1900L305.5850,674.1900L307.9886,674.1900L310.3922,674.1900L312.7957,674.1900L315.1993,674.1900L317.6029,674.1900L320.0065,674.1900L322.4101,674.1900L324.8136,674.1900
             L327.2172,674.1900L329.6208,674.1900L332.0244,674.1900L334.4280,674.1900L336.8316,674.1900L339.2351,674.1900L341.6387,674.1900L344.0423,674.1900L346.4459,674.1900L348.8495,674.1900
             L351.2530,674.1900L353.6566,674.1900L356.0602,674.1900L358.4638,674.1900L360.8674,674.1900L363.2709,674.1900L365.6745,674.1900L368.0781,674.1900L370.4817,674.1900L372.8853,674.1900
             L375.2888,674.1900L377.6924,674.1900L380.0960,674.1900L382.4996,674.1900L384.9032,674.1900L387.3067,674.1900L389.7103,674.1900L392.1139,674.1900L394.5175,674.1900L396.9211,674.1900
             L399.3247,674.1900L401.7282,674.1900L404.1318,674.1900L406.5354,674.1900L408.9390,674.1900L411.3426,674.1900L413.7461,674.1900L416.1497,674.1900L418.5533,674.1900L420.9569,674.1900
             L423.3605,674.1900L425.7640,674.1900L428.1676,674.1900L430.5712,674.1900L432.9748,674.1900L435.3784,674.1900L437.7819,674.1900L440.1855,674.1900L442.5891,674.1900L444.9927,674.1900
             L447.3963,674.1900L449.7999,674.1900L452.2034,674.1900L454.6070,674.1900L457.0106,674.1900L459.4142,674.1900L461.8178,674.1900L464.2213,674.1900L466.6249,674.1900L469.0285,674.1900
             L471.4321,674.1900L473.8357,674.1900L476.2392,674.1900L478.6428,674.1900L481.0464,674.1900L483.4500,674.1900L485.8536,674.1900L488.2572,674.1900L490.6607,674.1900L493.0643,674.1900
             L495.4679,674.1900L497.8715,674.1900L500.2751,674.1900L502.6786,674.1900L505.0822,674.1900L507.4858,674.1900L509.8894,674.1900L512.2930,674.1900L514.6965,674.1900L517.1001,674.1900
             L519.5037,674.1900L521.9073,674.1900L524.3109,674.1900L526.7144,674.1900L529.1180,674.1900L531.5216,674.1900L533.9252,674.1900L536.3288,674.1900L538.7323,674.1900L541.1359,674.1900
             L543.5395,674.1900L545.9431,674.1900L548.3467,674.1900L550.7503,674.1900L553.1538,674.1900L555.5574,674.1900L557.9610,674.1900L560.3646,674.1900L562.7682,674.1900L565.1717,674.1900
             L567.5753,674.1900L569.9789,674.1900L572.3825,674.1900L574.7861,674.1900L577.1896,674.1900L579.5932,674.1900L581.9968,674.1900L584.4004,674.1900L586.8040,674.1900L589.2075,674.1900
             L591.6111,674.1900L594.0147,674.1900L596.4183,674.1900L598.8219,674.1900L601.2255,674.1900L603.6290,674.1900L606.0326,674.1900L608.4362,674.1900L610.8398,674.1900L613.2434,674.1900
             L615.6469,674.1900L618.0505,674.1900L620.4541,674.1900L622.8577,674.1900L625.2613,674.1900L627.6648,674.1900L630.0684,674.1900L632.4720,674.1900L634.8756,674.1900L637.2792,674.1900
             L639.6827,674.1900L642.0863,674.1900L644.4899,674.1900L646.8935,674.1900L649.2971,674.1900L651.7007,674.1900L654.1042,674.1900L656.5078,674.1900L658.9114,674.1900L661.3150,674.1900
             L663.7186,674.1900L666.1221,674.1900L668.5257,674.1900L670.9293,674.1900L673.3329,674.1900L675.7365,674.1900L678.1400,674.1900L680.5436,674.1900L682.9472,674.1900L685.3508,674.1900
             L687.7544,674.1900L690.1579,674.1900L692.5615,674.1900L694.9651,674.1900L697.3687,674.1900L699.7723,674.1900L702.1758,674.1900L704.5794,674.1900L706.9830,674.1900L709.3866,674.1900
             L711.7902,674.1900L714.1938,674.1900L716.5973,674.1900L719.0009,674.1900L721.4045,674.1900L723.8081,674.1900L726.2117,674.1900L728.6152,674.1900L731.0188,674.1900L733.4224,674.1900
             L735.8260,674.1900L738.2296,674.1900L740.6331,674.1900L743.0368,674.1900L745.4403,674.1900L747.8439,674.1900L750.2475,674.1900L752.6510,674.1900L755.0546,674.1900L757.4582,674.1900
             L759.8618,674.1900L762.2654,674.1900L764.6690,674.1900L767.0725,674.1900L769.4761,674.1900L771.8797,674.1900L774.2833,674.1900L776.6869,674.1900L779.0904,674.1900L781.4940,674.1900
             L783.8976,674.1900L786.3012,674.1900L788.7048,674.1900L791.1084,674.1900L793.5119,674.1900L795.9155,674.1900L798.3191,674.1900L800.7226,674.1900L803.1263,674.1900L805.5298,674.1900
             L807.9334,674.1900L810.3370,674.1900L812.7406,674.1900L815.1441,674.1900L817.5478,674.1900L819.9513,674.1900L822.3549,674.1900L824.7585,674.1900L827.1620,674.1900L829.5656,674.1900
             L831.9692,674.1900L834.3728,674.1900L836.7764,674.1900L839.1800,674.1900L841.5835,674.1900L843.9871,674.1900L846.3907,674.1900L848.7943,674.1900L851.1979,674.1900L853.6015,674.1900
             L856.0050,674.1900L858.4086,674.1900L860.8122,674.1900L863.2158,674.1900L865.6194,674.1900L868.0229,674.1900L870.4265,674.1900L872.8301,674.1900L875.2337,674.1900L877.6373,674.1900
             L880.0409,674.1900L882.4444,674.1900L884.8480,674.1900L887.2516,674.1900L889.6551,674.1900L892.0588,674.1900L894.4623,674.1900L896.8659,674.1900L899.2695,674.1900L901.6731,674.1900
             L904.0766,674.1900L906.4802,674.1900L908.8838,674.1900L911.2874,674.1900L913.6910,674.1900L916.0945,674.1900L918.4981,674.1900L920.9017,674.1900L923.3053,674.1900L925.7089,674.1900
             L928.1125,674.1900L930.5160,674.1900L932.9196,674.1900L935.3232,674.1900L937.7268,674.1900L940.1304,674.1900L942.5340,674.1900L944.9375,674.1900L947.3411,674.1900L949.7447,674.1900
             L952.1483,674.1900L954.5519,674.1900L956.9554,674.1900L959.3590,674.1900L961.7626,674.1900L964.1662,674.1900L966.5697,674.1900L968.9734,674.1900L971.3769,674.1900L973.7805,674.1900
             L976.1841,674.1900L978.5876,674.1900L980.9912,674.1900L983.3948,674.1900L985.7984,674.1900L988.2020,674.1900L990.6056,674.1900L993.0091,674.1900L995.4127,674.1900L997.8163,674.1900
             L1000.2199,674.1900L1002.6235,674.1900L1005.0270,674.1900L1007.4306,674.1900L1009.8342,674.1900L1012.2378,674.1900L1014.6414,674.1900L1017.0450,674.1900L1019.4485,674.1900L1021.8521,674.1900
             L1024.2557,674.1900L1026.6592,674.1900L1029.0629,674.1900L1031.4664,674.1900L1033.8700,674.1900L1034.4709,674.1900L1034.4709,584.2980L1034.4709,584.2980L134.9308,584.2980z"/>
  </g>
  <g style="fill:none; stroke:#000000; stroke-width:  2.6968; stroke-linecap:butt; stroke-linejoin:miter; stroke-dasharray: 3 8">
   <path d="M134.9308,674.1900L137.3343,674.1900L139.7379,674.1900L142.1415,674.1900L144.5451,674.1900L146.9487,674.1900L149.3522,674.1900L151.7558,674.1900L154.1594,674.1900L156.5630,674.1900
            L158.9666,674.1900L161.3701,674.1900L163.7737,674.1900L166.1773,674.1900L168.5809,674.1900L170.9845,674.1900L173.3880,674.1900L175.7916,674.1900L178.1952,674.1900L180.5988,674.1900
            L183.0024,674.1900L185.4060,674.1900L187.8095,674.1900L190.2131,674.1900L192.6167,674.1900L195.0203,674.1900L197.4239,674.1900L199.8274,674.1900L202.2310,674.1900L204.6346,674.1900
            L207.0382,674.1900L209.4418,674.1900L211.8453,674.1900L214.2489,674.1900L216.6525,674.1900L219.0561,674.1900L221.4597,674.1900L223.8632,674.1900L226.2668,674.1900L228.6704,674.1900
            L231.0740,674.1900L233.4776,674.1900L235.8812,674.1900L238.2847,674.1900L240.6883,674.1900L243.0919,674.1900L245.4955,674.1900L247.8991,674.1900L250.3026,674.1900L252.7062,674.1900
            L255.1098,674.1900L257.5134,674.1900L259.9170,674.1900L262.3205,674.1900L264.7241,674.1900L267.1277,674.1900L269.5313,674.1900L271.9349,674.1900L274.3384,674.1900L276.7420,674.1900
            L279.1456,674.1900L281.5492,674.1900L283.9528,674.1900L286.3564,674.1900L288.7599,674.1900L291.1635,674.1900L293.5671,674.1900L295.9707,674.1900L298.3743,674.1900L300.7778,674.1900
            L303.1814,674.1900L305.5850,674.1900L307.9886,674.1900L310.3922,674.1900L312.7957,674.1900L315.1993,674.1900L317.6029,674.1900L320.0065,674.1900L322.4101,674.1900L324.8136,674.1900
            L327.2172,674.1900L329.6208,674.1900L332.0244,674.1900L334.4280,674.1900L336.8316,674.1900L339.2351,674.1900L341.6387,674.1900L344.0423,674.1900L346.4459,674.1900L348.8495,674.1900
            L351.2530,674.1900L353.6566,674.1900L356.0602,674.1900L358.4638,674.1900L360.8674,674.1900L363.2709,674.1900L365.6745,674.1900L368.0781,674.1900L370.4817,674.1900L372.8853,674.1900
            L375.2888,674.1900L377.6924,674.1900L380.0960,674.1900L382.4996,674.1900L384.9032,674.1900L387.3067,674.1900L389.7103,674.1900L392.1139,674.1900L394.5175,674.1900L396.9211,674.1900
            L399.3247,674.1900L401.7282,674.1900L404.1318,674.1900L406.5354,674.1900L408.9390,674.1900L411.3426,674.1900L413.7461,674.1900L416.1497,674.1900L418.5533,674.1900L420.9569,674.1900
            L423.3605,674.1900L425.7640,674.1900L428.1676,674.1900L430.5712,674.1900L432.9748,674.1900L435.3784,674.1900L437.7819,674.1900L440.1855,674.1900L442.5891,674.1900L444.9927,674.1900
            L447.3963,674.1900L449.7999,674.1900L452.2034,674.1900L454.6070,674.1900L457.0106,674.1900L459.4142,674.1900L461.8178,674.1900L464.2213,674.1900L466.6249,674.1900L469.0285,674.1900
            L471.4321,674.1900L473.8357,674.1900L476.2392,674.1900L478.6428,674.1900L481.0464,674.1900L483.4500,674.1900L485.8536,674.1900L488.2572,674.1900L490.6607,674.1900L493.0643,674.1900
            L495.4679,674.1900L497.8715,674.1900L500.2751,674.1900L502.6786,674.1900L505.0822,674.1900L507.4858,674.1900L509.8894,674.1900L512.2930,674.1900L514.6965,674.1900L517.1001,674.1900
            L519.5037,674.1900L521.9073,674.1900L524.3109,674.1900L526.7144,674.1900L529.1180,674.1900L531.5216,674.1900L533.9252,674.1900L536.3288,674.1900L538.7323,674.1900L541.1359,674.1900
            L543.5395,674.1900L545.9431,674.1900L548.3467,674.1900L550.7503,674.1900L553.1538,674.1900L555.5574,674.1900L557.9610,674.1900L560.3646,674.1900L562.7682,674.1900L565.1717,674.1900
            L567.5753,674.1900L569.9789,674.1900L572.3825,674.1900L574.7861,674.1900L577.1896,674.1900L579.5932,674.1900L581.9968,674.1900L584.4004,674.1900L586.8040,674.1900L589.2075,674.1900
            L591.6111,674.1900L594.0147,674.1900L596.4183,674.1900L598.8219,674.1900L601.2255,674.1900L603.6290,674.1900L606.0326,674.1900L608.4362,674.1900L610.8398,674.1900L613.2434,674.1900
            L615.6469,674.1900L618.0505,674.1900L620.4541,674.1900L622.8577,674.1900L625.2613,674.1900L627.6648,674.1900L630.0684,674.1900L632.4720,674.1900L634.8756,674.1900L637.2792,674.1900
            L639.6827,674.1900L642.0863,674.1900L644.4899,674.1900L646.8935,674.1900L649.2971,674.1900L651.7007,674.1900L654.1042,674.1900L656.5078,674.1900L658.9114,674.1900L661.3150,674.1900
            L663.7186,674.1900L666.1221,674.1900L668.5257,674.1900L670.9293,674.1900L673.3329,674.1900L675.7365,674.1900L678.1400,674.1900L680.5436,674.1900L682.9472,674.1900L685.3508,674.1900
            L687.7544,674.1900L690.1579,674.1900L692.5615,674.1900L694.9651,674.1900L697.3687,674.1900L699.7723,674.1900L702.1758,674.1900L704.5794,674.1900L706.9830,674.1900L709.3866,674.1900
            L711.7902,674.1900L714.1938,674.1900L716.5973,674.1900L719.0009,674.1900L721.4045,674.1900L723.8081,674.1900L726.2117,674.1900L728.6152,674.1900L731.0188,674.1900L733.4224,674.1900
            L735.8260,674.1900L738.2296,674.1900L740.6331,674.1900L743.0368,674.1900L745.4403,674.1900L747.8439,674.1900L750.2475,674.1900L752.6510,674.1900L755.0546,674.1900L757.4582,674.1900
            L759.8618,674.1900L762.2654,674.1900L764.6690,674.1900L767.0725,674.1900L769.4761,674.1900L771.8797,674.1900L774.2833,674.1900L776.6869,674.1900L779.0904,674.1900L781.4940,674.1900
            L783.8976,674.1900L786.3012,674.1900L788.7048,674.1900L791.1084,674.1900L793.5119,674.1900L795.9155,674.1900L798.3191,674.1900L800.7226,674.1900L803.1263,674.1900L805.5298,674.1900
            L807.9334,674.1900L810.3370,674.1900L812.7406,674.1900L815.1441,674.1900L817.5478,674.1900L819.9513,674.1900L822.3549,674.1900L824.7585,674.1900L827.1620,674.1900L829.5656,674.1900
            L831.9692,674.1900L834.3728,674.1900L836.7764,674.1900L839.1800,674.1900L841.5835,674.1900L843.9871,674.1900L846.3907,674.1900L848.7943,674.1900L851.1979,674.1900L853.6015,674.1900
            L856.0050,674.1900L858.4086,674.1900L860.8122,674.1900L863.2158,674.1900L865.6194,674.1900L868.0229,674.1900L870.4265,674.1900L872.8301,674.1900L875.2337,674.1900L877.6373,674.1900
            L880.0409,674.1900L882.4444,674.1900L884.8480,674.1900L887.2516,674.1900L889.6551,674.1900L892.0588,674.1900L894.4623,674.1900L896.8659,674.1900L899.2695,674.1900L901.6731,674.1900
            L904.0766,674.1900L906.4802,674.1900L908.8838,674.1900L911.2874,674.1900L913.6910,674.1900L916.0945,674.1900L918.4981,674.1900L920.9017,674.1900L923.3053,674.1900L925.7089,674.1900
            L928.1125,674.1900L930.5160,674.1900L932.9196,674.1900L935.3232,674.1900L937.7268,674.1900L940.1304,674.1900L942.5340,674.1900L944.9375,674.1900L947.3411,674.1900L949.7447,674.1900
            L952.1483,674.1900L954.5519,674.1900L956.9554,674.1900L959.3590,674.1900L961.7626,674.1900L964.1662,674.1900L966.5697,674.1900L968.9734,674.1900L971.3769,674.1900L973.7805,674.1900
            L976.1841,674.1900L978.5876,674.1900L980.9912,674.1900L983.3948,674.1900L985.7984,674.1900L988.2020,674.1900L990.6056,674.1900L993.0091,674.1900L995.4127,674.1900L997.8163,674.1900
            L1000.2199,674.1900L1002.6235,674.1900L1005.0270,674.1900L1007.4306,674.1900L1009.8342,674.1900L1012.2378,674.1900L1014.6414,674.1900L1017.0450,674.1900L1019.4485,674.1900L1021.8521,674.1900
            L1024.2557,674.1900L1026.6592,674.1900L1029.0629,674.1900L1031.4664,674.1900L1033.8700,674.1900L1034.5608,674.1900"/>
  </g>
  <g style="filter:url(#tocolor5); fill:url(#pattern4); fill-rule:nonzero">
   <path  d="M134.9308,494.4060L137.3343,494.4060L139.7379,494.4060L142.1415,494.4060L144.5451,494.4060L146.9487,494.4060L149.3522,494.4060L151.7558,494.4060L154.1594,494.4060L156.5630,494.4060
             L158.9666,494.4060L161.3701,494.4060L163.7737,494.4060L166.1773,494.4060L168.5809,494.4060L170.9845,494.4060L173.3880,494.4060L175.7916,494.4060L178.1952,494.4060L180.5988,494.4060
             L183.0024,494.4060L185.4060,494.4060L187.8095,494.4060L190.2131,494.4060L192.6167,494.4060L195.0203,494.4060L197.4239,494.4060L199.8274,494.4060L202.2310,494.4060L204.6346,494.4060
             L207.0382,494.4060L209.4418,494.4060L211.8453,494.4060L214.2489,494.4060L216.6525,494.4060L219.0561,494.4060L221.4597,494.4060L223.8632,494.4060L226.2668,494.4060L228.6704,494.4060
             L231.0740,494.4060L233.4776,494.4060L235.8812,494.4060L238.2847,494.4060L240.6883,494.4060L243.0919,494.4060L245.4955,494.4060L247.8991,494.4060L250.3026,494.4060L252.7062,494.4060
             L255.1098,494.4060L257.5134,494.4060L259.9170,494.4060L262.3205,494.4060L264.7241,494.4060L267.1277,494.4060L269.5313,494.4060L271.9349,494.4060L274.3384,494.4060L276.7420,494.4060
             L279.1456,494.4060L281.5492,494.4060L283.9528,494.4060L286.3564,494.4060L288.7599,494.4060L291.1635,494.4060L293.5671,494.4060L295.9707,494.4060L298.3743,494.4060L300.7778,494.4060
             L303.1814,494.4060L305.5850,494.4060L307.9886,494.4060L310.3922,494.4060L312.7957,494.4060L315.1993,494.4060L317.6029,494.4060L320.0065,494.4060L322.4101,494.4060L324.8136,494.4060
             L327.2172,494.4060L329.6208,494.4060L332.0244,494.4060L334.4280,494.4060L336.8316,494.4060L339.2351,494.4060L341.6387,494.4060L344.0423,494.4060L346.4459,494.4060L348.8495,494.4060
             L351.2530,494.4060L353.6566,494.4060L356.0602,494.4060L358.4638,494.4060L360.8674,494.4060L363.2709,494.4060L365.6745,494.4060L368.0781,494.4060L370.4817,494.4060L372.8853,494.4060
             L375.2888,494.4060L377.6924,494.4060L380.0960,494.4060L382.4996,494.4060L384.9032,494.4060L387.3067,494.4060L389.7103,494.4060L392.1139,494.4060L394.5175,494.4060L396.9211,494.4060
             L399.3247,494.4060L401.7282,494.4060L404.1318,494.4060L406.5354,494.4060L408.9390,494.4060L411.3426,494.4060L413.7461,494.4060L416.1497,494.4060L418.5533,494.4060L420.9569,494.4060
             L423.3605,494.4060L425.7640,494.4060L428.1676,494.4060L430.5712,494.4060L432.9748,494.4060L435.3784,494.4060L437.7819,494.4060L440.1855,494.4060L442.5891,494.4060L444.9927,494.4060
             L447.3963,494.4060L449.7999,494.4060L452.2034,494.4060L454.6070,494.4060L457.0106,494.4060L459.4142,494.4060L461.8178,494.4060L464.2213,494.4060L466.6249,494.4060L469.0285,494.4060
             L471.4321,494.4060L473.8357,494.4060L476.2392,494.4060L478.6428,494.4060L481.0464,494.4060L483.4500,494.4060L485.8536,494.4060L488.2572,494.4060L490.6607,494.4060L493.0643,494.4060
             L495.4679,494.4060L497.8715,494.4060L500.2751,494.4060L502.6786,494.4060L505.0822,494.4060L507.4858,494.4060L509.8894,494.4060L512.2930,494.4060L514.6965,494.4060L517.1001,494.4060
             L519.5037,494.4060L521.9073,494.4060L524.3109,494.4060L526.7144,494.4060L529.1180,494.4060L531.5216,494.4060L533.9252,494.4060L536.3288,494.4060L538.7323,494.4060L541.1359,494.4060
             L543.5395,494.4060L545.9431,494.4060L548.3467,494.4060L550.7503,494.4060L553.1538,494.4060L555.5574,494.4060L557.9610,494.4060L560.3646,494.4060L562.7682,494.4060L565.1717,494.4060
             L567.5753,494.4060L569.9789,494.4060L572.3825,494.4060L574.7861,494.4060L577.1896,494.4060L579.5932,494.4060L581.9968,494.4060L584.4004,494.4060L586.8040,494.4060L589.2075,494.4060
             L591.6111,494.4060L594.0147,494.4060L596.4183,494.4060L598.8219,494.4060L601.2255,494.4060L603.6290,494.4060L606.0326,494.4060L608.4362,494.4060L610.8398,494.4060L613.2434,494.4060
             L615.6469,494.4060L618.0505,494.4060L620.4541,494.4060L622.8577,494.4060L625.2613,494.4060L627.6648,494.4060L630.0684,494.4060L632.4720,494.4060L634.8756,494.4060L637.2792,494.4060
             L639.6827,494.4060L642.0863,494.4060L644.4899,494.4060L646.8935,494.4060L649.2971,494.4060L651.7007,494.4060L654.1042,494.4060L656.5078,494.4060L658.9114,494.4060L661.3150,494.4060
             L663.7186,494.4060L666.1221,494.4060L668.5257,494.4060L670.9293,494.4060L673.3329,494.4060L675.7365,494.4060L678.1400,494.4060L680.5436,494.4060L682.9472,494.4060L685.3508,494.4060
             L687.7544,494.4060L690.1579,494.4060L692.5615,494.4060L694.9651,494.4060L697.3687,494.4060L699.7723,494.4060L702.1758,494.4060L704.5794,494.4060L706.9830,494.4060L709.3866,494.4060
             L711.7902,494.4060L714.1938,494.4060L716.5973,494.4060L719.0009,494.4060L721.4045,494.4060L723.8081,494.4060L726.2117,494.4060L728.6152,494.4060L731.0188,494.4060L733.4224,494.4060
             L735.8260,494.4060L738.2296,494.4060L740.6331,494.4060L743.0368,494.4060L745.4403,494.4060L747.8439,494.4060L750.2475,494.4060L752.6510,494.4060L755.0546,494.4060L757.4582,494.4060
             L759.8618,494.4060L762.2654,494.4060L764.6690,494.4060L767.0725,494.4060L769.4761,494.4060L771.8797,494.4060L774.2833,494.4060L776.6869,494.4060L779.0904,494.4060L781.4940,494.4060
             L783.8976,494.4060L786.3012,494.4060L788.7048,494.4060L791.1084,494.4060L793.5119,494.4060L795.9155,494.4060L798.3191,494.4060L800.7226,494.4060L803.1263,494.4060L805.5298,494.4060
             L807.9334,494.4060L810.3370,494.4060L812.7406,494.4060L815.1441,494.4060L817.5478,494.4060L819.9513,494.4060L822.3549,494.4060L824.7585,494.4060L827.1620,494.4060L829.5656,494.4060
             L831.9692,494.4060L834.3728,494.4060L836.7764,494.4060L839.1800,494.4060L841.5835,494.4060L843.9871,494.4060L846.3907,494.4060L848.7943,494.4060L851.1979,494.4060L853.6015,494.4060
             L856.0050,494.4060L858.4086,494.4060L860.8122,494.4060L863.2158,494.4060L865.6194,494.4060L868.0229,494.4060L870.4265,494.4060L872.8301,494.4060L875.2337,494.4060L877.6373,494.4060
             L880.0409,494.4060L882.4444,494.4060L884.8480,494.4060L887.2516,494.4060L889.6551,494.4060L892.0588,494.4060L894.4623,494.4060L896.8659,494.4060L899.2695,494.4060L901.6731,494.4060
             L904.0766,494.4060L906.4802,494.4060L908.8838,494.4060L911.2874,494.4060L913.6910,494.4060L916.0945,494.4060L918.4981,494.4060L920.9017,494.4060L923.3053,494.4060L925.7089,494.4060
             L928.1125,494.4060L930.5160,494.4060L932.9196,494.4060L935.3232,494.4060L937.7268,494.4060L940.1304,494.4060L942.5340,494.4060L944.9375,494.4060L947.3411,494.4060L949.7447,494.4060
             L952.1483,494.4060L954.5519,494.4060L956.9554,494.4060L959.3590,494.4060L961.7626,494.4060L964.1662,494.4060L966.5697,494.4060L968.9734,494.4060L971.3769,494.4060L973.7805,494.4060
             L976.1841,494.4060L978.5876,494.4060L980.9912,494.4060L983.3948,494.4060L985.7984,494.4060L988.2020,494.4060L990.6056,494.4060L993.0091,494.4060L995.4127,494.4060L997.8163,494.4060
             L1000.2199,494.4060L1002.6235,494.4060L1005.0270,494.4060L1007.4306,494.4060L1009.8342,494.4060L1012.2378,494.4060L1014.6414,494.4060L1017.0450,494.4060L1019.4485,494.4060L1021.8521,494.4060
             L1024.2557,494.4060L1026.6592,494.4060L1029.0629,494.4060L1031.4664,494.4060L1033.8700,494.4060L1034.4709,494.4060L1034.4709,584.2980L1034.4709,584.2980L134.9308,584.2980z"/>
  </g>
  <g style="fill:none; stroke:#000000; stroke-width:  2.6968; stroke-linecap:butt; stroke-linejoin:miter; stroke-dasharray: 3 8">
   <path d="M134.9308,494.4060L137.3343,494.4060L139.7379,494.4060L142.1415,494.4060L144.5451,494.4060L146.9487,494.4060L149.3522,494.4060L151.7558,494.4060L154.1594,494.4060L156.5630,494.4060
            L158.9666,494.4060L161.3701,494.4060L163.7737,494.4060L166.1773,494.4060L168.5809,494.4060L170.9845,494.4060L173.3880,494.4060L175.7916,494.4060L178.1952,494.4060L180.5988,494.4060
            L183.0024,494.4060L185.4060,494.4060L187.8095,494.4060L190.2131,494.4060L192.6167,494.4060L195.0203,494.4060L197.4239,494.4060L199.8274,494.4060L202.2310,494.4060L204.6346,494.4060
            L207.0382,494.4060L209.4418,494.4060L211.8453,494.4060L214.2489,494.4060L216.6525,494.4060L219.0561,494.4060L221.4597,494.4060L223.8632,494.4060L226.2668,494.4060L228.6704,494.4060
            L231.0740,494.4060L233.4776,494.4060L235.8812,494.4060L238.2847,494.4060L240.6883,494.4060L243.0919,494.4060L245.4955,494.4060L247.8991,494.4060L250.3026,494.4060L252.7062,494.4060
            L255.1098,494.4060L257.5134,494.4060L259.9170,494.4060L262.3205,494.4060L264.7241,494.4060L267.1277,494.4060L269.5313,494.4060L271.9349,494.4060L274.3384,494.4060L276.7420,494.4060
            L279.1456,494.4060L281.5492,494.4060L283.9528,494.4060L286.3564,494.4060L288.7599,494.4060L291.1635,494.4060L293.5671,494.4060L295.9707,494.4060L298.3743,494.4060L300.7778,494.4060
            L303.1814,494.4060L305.5850,494.4060L307.9886,494.4060L310.3922,494.4060L312.7957,494.4060L315.1993,494.4060L317.6029,494.4060L320.0065,494.4060L322.4101,494.4060L324.8136,494.4060
            L327.2172,494.4060L329.6208,494.4060L332.0244,494.4060L334.4280,494.4060L336.8316,494.4060L339.2351,494.4060L341.6387,494.4060L344.0423,494.4060L346.4459,494.4060L348.8495,494.4060
            L351.2530,494.4060L353.6566,494.4060L356.0602,494.4060L358.4638,494.4060L360.8674,494.4060L363.2709,494.4060L365.6745,494.4060L368.0781,494.4060L370.4817,494.4060L372.8853,494.4060
            L375.2888,494.4060L377.6924,494.4060L380.0960,494.4060L382.4996,494.4060L384.9032,494.4060L387.3067,494.4060L389.7103,494.4060L392.1139,494.4060L394.5175,494.4060L396.9211,494.4060
            L399.3247,494.4060L401.7282,494.4060L404.1318,494.4060L406.5354,494.4060L408.9390,494.4060L411.3426,494.4060L413.7461,494.4060L416.1497,494.4060L418.5533,494.4060L420.9569,494.4060
            L423.3605,494.4060L425.7640,494.4060L428.1676,494.4060L430.5712,494.4060L432.9748,494.4060L435.3784,494.4060L437.7819,494.4060L440.1855,494.4060L442.5891,494.4060L444.9927,494.4060
            L447.3963,494.4060L449.7999,494.4060L452.2034,494.4060L454.6070,494.4060L457.0106,494.4060L459.4142,494.4060L461.8178,494.4060L464.2213,494.4060L466.6249,494.4060L469.0285,494.4060
            L471.4321,494.4060L473.8357,494.4060L476.2392,494.4060L478.6428,494.4060L481.0464,494.4060L483.4500,494.4060L485.8536,494.4060L488.2572,494.4060L490.6607,494.4060L493.0643,494.4060
            L495.4679,494.4060L497.8715,494.4060L500.2751,494.4060L502.6786,494.4060L505.0822,494.4060L507.4858,494.4060L509.8894,494.4060L512.2930,494.4060L514.6965,494.4060L517.1001,494.4060
            L519.5037,494.4060L521.9073,494.4060L524.3109,494.4060L526.7144,494.4060L529.1180,494.4060L531.5216,494.4060L533.9252,494.4060L536.3288,494.4060L538.7323,494.4060L541.1359,494.4060
            L543.5395,494.4060L545.9431,494.4060L548.3467,494.4060L550.7503,494.4060L553.1538,494.4060L555.5574,494.4060L557.9610,494.4060L560.3646,494.4060L562.7682,494.4060L565.1717,494.4060
            L567.5753,494.4060L569.9789,494.4060L572.3825,494.4060L574.7861,494.4060L577.1896,494.4060L579.5932,494.4060L581.9968,494.4060L584.4004,494.4060L586.8040,494.4060L589.2075,494.4060
            L591.6111,494.4060L594.0147,494.4060L596.4183,494.4060L598.8219,494.4060L601.2255,494.4060L603.6290,494.4060L606.0326,494.4060L608.4362,494.4060L610.8398,494.4060L613.2434,494.4060
            L615.6469,494.4060L618.0505,494.4060L620.4541,494.4060L622.8577,494.4060L625.2613,494.4060L627.6648,494.4060L630.0684,494.4060L632.4720,494.4060L634.8756,494.4060L637.2792,494.4060
            L639.6827,494.4060L642.0863,494.4060L644.4899,494.4060L646.8935,494.4060L649.2971,494.4060L651.7007,494.4060L654.1042,494.4060L656.5078,494.4060L658.9114,494.4060L661.3150,494.4060
            L663.7186,494.4060L666.1221,494.4060L668.5257,494.4060L670.9293,494.4060L673.3329,494.4060L675.7365,494.4060L678.1400,494.4060L680.5436,494.4060L682.9472,494.4060L685.3508,494.4060
            L687.7544,494.4060L690.1579,494.4060L692.5615,494.4060L694.9651,494.4060L697.3687,494.4060L699.7723,494.4060L702.1758,494.4060L704.5794,494.4060L706.9830,494.4060L709.3866,494.4060
            L711.7902,494.4060L714.1938,494.4060L716.5973,494.4060L719.0009,494.4060L721.4045,494.4060L723.8081,494.4060L726.2117,494.4060L728.6152,494.4060L731.0188,494.4060L733.4224,494.4060
            L735.8260,494.4060L738.2296,494.4060L740.6331,494.4060L743.0368,494.4060L745.4403,494.4060L747.8439,494.4060L750.2475,494.4060L752.6510,494.4060L755.0546,494.4060L757.4582,494.4060
            L759.8618,494.4060L762.2654,494.4060L764.6690,494.4060L767.0725,494.4060L769.4761,494.4060L771.8797,494.4060L774.2833,494.4060L776.6869,494.4060L779.0904,494.4060L781.4940,494.4060
            L783.8976,494.4060L786.3012,494.4060L788.7048,494.4060L791.1084,494.4060L793.5119,494.4060L795.9155,494.4060L798.3191,494.4060L800.7226,494.4060L803.1263,494.4060L805.5298,494.4060
            L807.9334,494.4060L810.3370,494.4060L812.7406,494.4060L815.1441,494.4060L817.5478,494.4060L819.9513,494.4060L822.3549,494.4060L824.7585,494.4060L827.1620,494.4060L829.5656,494.4060
            L831.9692,494.4060L834.3728,494.4060L836.7764,494.4060L839.1800,494.4060L841.5835,494.4060L843.9871,494.4060L846.3907,494.4060L848.7943,494.4060L851.1979,494.4060L853.6015,494.4060
            L856.0050,494.4060L858.4086,494.4060L860.8122,494.4060L863.2158,494.4060L865.6194,494.4060L868.0229,494.4060L870.4265,494.4060L872.8301,494.4060L875.2337,494.4060L877.6373,494.4060
            L880.0409,494.4060L882.4444,494.4060L884.8480,494.4060L887.2516,494.4060L889.6551,494.4060L892.0588,494.4060L894.4623,494.4060L896.8659,494.4060L899.2695,494.4060L901.6731,494.4060
            L904.0766,494.4060L906.4802,494.4060L908.8838,494.4060L911.2874,494.4060L913.6910,494.4060L916.0945,494.4060L918.4981,494.4060L920.9017,494.4060L923.3053,494.4060L925.7089,494.4060
            L928.1125,494.4060L930.5160,494.4060L932.9196,494.4060L935.3232,494.4060L937.7268,494.4060L940.1304,494.4060L942.5340,494.4060L944.9375,494.4060L947.3411,494.4060L949.7447,494.4060
            L952.1483,494.4060L954.5519,494.4060L956.9554,494.4060L959.3590,494.4060L961.7626,494.4060L964.1662,494.4060L966.5697,494.4060L968.9734,494.4060L971.3769,494.4060L973.7805,494.4060
            L976.1841,494.4060L978.5876,494.4060L980.9912,494.4060L983.3948,494.4060L985.7984,494.4060L988.2020,494.4060L990.6056,494.4060L993.0091,494.4060L995.4127,494.4060L997.8163,494.4060
            L1000.2199,494.4060L1002.6235,494.4060L1005.0270,494.4060L1007.4306,494.4060L1009.8342,494.4060L1012.2378,494.4060L1014.6414,494.4060L1017.0450,494.4060L1019.4485,494.4060L1021.8521,494.4060
            L1024.2557,494.4060L1026.6592,494.4060L1029.0629,494.4060L1031.4664,494.4060L1033.8700,494.4060L1034.5608,494.4060"/>
   <path d="M134.9308,584.2980L137.3343,584.2980L139.7379,584.2980L142.1415,584.2980L144.5451,584.2980L146.9487,584.2980L149.3522,584.2980L151.7558,584.2980L154.1594,584.2980L156.5630,584.2980
            L158.9666,584.2980L161.3701,584.2980L163.7737,584.2980L166.1773,584.2980L168.5809,584.2980L170.9845,584.2980L173.3880,584.2980L175.7916,584.2980L178.1952,584.2980L180.5988,584.2980
            L183.0024,584.2980L185.4060,584.2980L187.8095,584.2980L190.2131,584.2980L192.6167,584.2980L195.0203,584.2980L197.4239,584.2980L199.8274,584.2980L202.2310,584.2980L204.6346,584.2980
            L207.0382,584.2980L209.4418,584.2980L211.8453,584.2980L214.2489,584.2980L216.6525,584.2980L219.0561,584.2980L221.4597,584.2980L223.8632,584.2980L226.2668,584.2980L228.6704,584.2980
            L231.0740,584.2980L233.4776,584.2980L235.8812,584.2980L238.2847,584.2980L240.6883,584.2980L243.0919,584.2980L245.4955,584.2980L247.8991,584.2980L250.3026,584.2980L252.7062,584.2980
            L255.1098,584.2980L257.5134,584.2980L259.9170,584.2980L262.3205,584.2980L264.7241,584.2980L267.1277,584.2980L269.5313,584.2980L271.9349,584.2980L274.3384,584.2980L276.7420,584.2980
            L279.1456,584.2980L281.5492,584.2980L283.9528,584.2980L286.3564,584.2980L288.7599,584.2980L291.1635,584.2980L293.5671,584.2980L295.9707,584.2980L298.3743,584.2980L300.7778,584.2980
            L303.1814,584.2980L305.5850,584.2980L307.9886,584.2980L310.3922,584.2980L312.7957,584.2980L315.1993,584.2980L317.6029,584.2980L320.0065,584.2980L322.4101,584.2980L324.8136,584.2980
            L327.2172,584.2980L329.6208,584.2980L332.0244,584.2980L334.4280,584.2980L336.8316,584.2980L339.2351,584.2980L341.6387,584.2980L344.0423,584.2980L346.4459,584.2980L348.8495,584.2980
            L351.2530,584.2980L353.6566,584.2980L356.0602,584.2980L358.4638,584.2980L360.8674,584.2980L363.2709,584.2980L365.6745,584.2980L368.0781,584.2980L370.4817,584.2980L372.8853,584.2980
            L375.2888,584.2980L377.6924,584.2980L380.0960,584.2980L382.4996,584.2980L384.9032,584.2980L387.3067,584.2980L389.7103,584.2980L392.1139,584.2980L394.5175,584.2980L396.9211,584.2980
            L399.3247,584.2980L401.7282,584.2980L404.1318,584.2980L406.5354,584.2980L408.9390,584.2980L411.3426,584.2980L413.7461,584.2980L416.1497,584.2980L418.5533,584.2980L420.9569,584.2980
            L423.3605,584.2980L425.7640,584.2980L428.1676,584.2980L430.5712,584.2980L432.9748,584.2980L435.3784,584.2980L437.7819,584.2980L440.1855,584.2980L442.5891,584.2980L444.9927,584.2980
            L447.3963,584.2980L449.7999,584.2980L452.2034,584.2980L454.6070,584.2980L457.0106,584.2980L459.4142,584.2980L461.8178,584.2980L464.2213,584.2980L466.6249,584.2980L469.0285,584.2980
            L471.4321,584.2980L473.8357,584.2980L476.2392,584.2980L478.6428,584.2980L481.0464,584.2980L483.4500,584.2980L485.8536,584.2980L488.2572,584.2980L490.6607,584.2980L493.0643,584.2980
            L495.4679,584.2980L497.8715,584.2980L500.2751,584.2980L502.6786,584.2980L505.0822,584.2980L507.4858,584.2980L509.8894,584.2980L512.2930,584.2980L514.6965,584.2980L517.1001,584.2980
            L519.5037,584.2980L521.9073,584.2980L524.3109,584.2980L526.7144,584.2980L529.1180,584.2980L531.5216,584.2980L533.9252,584.2980L536.3288,584.2980L538.7323,584.2980L541.1359,584.2980
            L543.5395,584.2980L545.9431,584.2980L548.3467,584.2980L550.7503,584.2980L553.1538,584.2980L555.5574,584.2980L557.9610,584.2980L560.3646,584.2980L562.7682,584.2980L565.1717,584.2980
            L567.5753,584.2980L569.9789,584.2980L572.3825,584.2980L574.7861,584.2980L577.1896,584.2980L579.5932,584.2980L581.9968,584.2980L584.4004,584.2980L586.8040,584.2980L589.2075,584.2980
            L591.6111,584.2980L594.0147,584.2980L596.4183,584.2980L598.8219,584.2980L601.2255,584.2980L603.6290,584.2980L606.0326,584.2980L608.4362,584.2980L610.8398,584.2980L613.2434,584.2980
            L615.6469,584.2980L618.0505,584.2980L620.4541,584.2980L622.8577,584.2980L625.2613,584.2980L627.6648,584.2980L630.0684,584.2980L632.4720,584.2980L634.8756,584.2980L637.2792,584.2980
            L639.6827,584.2980L642.0863,584.2980L644.4899,584.2980L646.8935,584.2980L649.2971,584.2980L651.7007,584.2980L654.1042,584.2980L656.5078,584.2980L658.9114,584.2980L661.3150,584.2980
            L663.7186,584.2980L666.1221,584.2980L668.5257,584.2980L670.9293,584.2980L673.3329,584.2980L675.7365,584.2980L678.1400,584.2980L680.5436,584.2980L682.9472,584.2980L685.3508,584.2980
            L687.7544,584.2980L690.1579,584.2980L692.5615,584.2980L694.9651,584.2980L697.3687,584.2980L699.7723,584.2980L702.1758,584.2980L704.5794,584.2980L706.9830,584.2980L709.3866,584.2980
            L711.7902,584.2980L714.1938,584.2980L716.5973,584.2980L719.0009,584.2980L721.4045,584.2980L723.8081,584.2980L726.2117,584.2980L728.6152,584.2980L731.0188,584.2980L733.4224,584.2980
            L735.8260,584.2980L738.2296,584.2980L740.6331,584.2980L743.0368,584.2980L745.4403,584.2980L747.8439,584.2980L750.2475,584.2980L752.6510,584.2980L755.0546,584.2980L757.4582,584.2980
            L759.8618,584.2980L762.2654,584.2980L764.6690,584.2980L767.0725,584.2980L769.4761,584.2980L771.8797,584.2980L774.2833,584.2980L776.6869,584.2980L779.0904,584.2980L781.4940,584.2980
            L783.8976,584.2980L786.3012,584.2980L788.7048,584.2980L791.1084,584.2980L793.5119,584.2980L795.9155,584.2980L798.3191,584.2980L800.7226,584.2980L803.1263,584.2980L805.5298,584.2980
            L807.9334,584.2980L810.3370,584.2980L812.7406,584.2980L815.1441,584.2980L817.5478,584.2980L819.9513,584.2980L822.3549,584.2980L824.7585,584.2980L827.1620,584.2980L829.5656,584.2980
            L831.9692,584.2980L834.3728,584.2980L836.7764,584.2980L839.1800,584.2980L841.5835,584.2980L843.9871,584.2980L846.3907,584.2980L848.7943,584.2980L851.1979,584.2980L853.6015,584.2980
            L856.0050,584.2980L858.4086,584.2980L860.8122,584.2980L863.2158,584.2980L865.6194,584.2980L868.0229,584.2980L870.4265,584.2980L872.8301,584.2980L875.2337,584.2980L877.6373,584.2980
            L880.0409,584.2980L882.4444,584.2980L884.8480,584.2980L887.2516,584.2980L889.6551,584.2980L892.0588,584.2980L894.4623,584.2980L896.8659,584.2980L899.2695,584.2980L901.6731,584.2980
            L904.0766,584.2980L906.4802,584.2980L908.8838,584.2980L911.2874,584.2980L913.6910,584.2980L916.0945,584.2980L918.4981,584.2980L920.9017,584.2980L923.3053,584.2980L925.7089,584.2980
            L928.1125,584.2980L930.5160,584.2980L932.9196,584.2980L935.3232,584.2980L937.7268,584.2980L940.1304,584.2980L942.5340,584.2980L944.9375,584.2980L947.3411,584.2980L949.7447,584.2980
            L952.1483,584.2980L954.5519,584.2980L956.9554,584.2980L959.3590,584.2980L961.7626,584.2980L964.1662,584.2980L966.5697,584.2980L968.9734,584.2980L971.3769,584.2980L973.7805,584.2980
            L976.1841,584.2980L978.5876,584.2980L980.9912,584.2980L983.3948,584.2980L985.7984,584.2980L988.2020,584.2980L990.6056,584.2980L993.0091,584.2980L995.4127,584.2980L997.8163,584.2980
            L1000.2199,584.2980L1002.6235,584.2980L1005.0270,584.2980L1007.4306,584.2980L1009.8342,584.2980L1012.2378,584.2980L1014.6414,584.2980L1017.0450,584.2980L1019.4485,584.2980L1021.8521,584.2980
            L1024.2557,584.2980L1026.6592,584.2980L1029.0629,584.2980L1031.4664,584.2980L1033.8700,584.2980L1034.5608,584.2980"/>
  </g>
  <g style="fill:none; stroke:#008B00; stroke-width:  2.6968; stroke-linecap:butt; stroke-linejoin:miter; stroke-dasharray: 13 8">
   <path d="M194.9001,169.9546L254.8694,179.9031L314.8388,191.8395L374.8081,205.5811L434.7775,319.3214L494.7468,394.6202L554.7162,452.7734L614.6855,496.4301L674.6548,534.8484L734.6242,563.9793
            L794.5935,587.4575L854.5629,611.9128L914.5322,628.7988L974.5016,655.1966"/>
  </g>
  <g style="fill:#008B00; fill-rule:nonzero">
   <path  d="M191.0797,166.1342L191.0797,173.7750L198.7205,173.7750L198.7205,166.1342z"/>
  </g>
  <g style="fill:none; stroke:#008B00; stroke-width:  2.6968; stroke-linecap:butt; stroke-linejoin:miter; stroke-dasharray:none">
   <path d="M191.0797,166.1342L191.0797,173.7750L198.7205,173.7750L198.7205,166.1342z"/>
  </g>
  <g style="fill:#008B00; fill-rule:nonzero">
   <path  d="M251.0490,176.0827L251.0490,183.7235L258.6899,183.7235L258.6899,176.0827z"/>
  </g>
  <g style="fill:none; stroke:#008B00; stroke-width:  2.6968; stroke-linecap:butt; stroke-linejoin:miter; stroke-dasharray:none">
   <path d="M251.0490,176.0827L251.0490,183.7235L258.6899,183.7235L258.6899,176.0827z"/>
  </g>
  <g style="fill:#008B00; fill-rule:nonzero">
   <path  d="M311.0184,188.0191L311.0184,195.6600L318.6592,195.6600L318.6592,188.0191z"/>
  </g>
  <g style="fill:none; stroke:#008B00; stroke-width:  2.6968; stroke-linecap:butt; stroke-linejoin:miter; stroke-dasharray:none">
   <path d="M311.0184,188.0191L311.0184,195.6600L318.6592,195.6600L318.6592,188.0191z"/>
  </g>
  <g style="fill:#008B00; fill-rule:nonzero">
   <path  d="M370.9877,201.7607L370.9877,209.4015L378.6285,209.4015L378.6285,201.7607z"/>
  </g>
  <g style="fill:none; stroke:#008B00; stroke-width:  2.6968; stroke-linecap:butt; stroke-linejoin:miter; stroke-dasharray:none">
   <path d="M370.9877,201.7607L370.9877,209.4015L378.6285,209.4015L378.6285,201.7607z"/>
  </g>
  <g style="fill:#008B00; fill-rule:nonzero">
   <path  d="M430.9571,315.5010L430.9571,323.1418L438.5979,323.1418L438.5979,315.5010z"/>
  </g>
  <g style="fill:none; stroke:#008B00; stroke-width:  2.6968; stroke-linecap:butt; stroke-linejoin:miter; stroke-dasharray:none">
   <path d="M430.9571,315.5010L430.9571,323.1418L438.5979,323.1418L438.5979,315.5010z"/>
  </g>
  <g style="fill:#008B00; fill-rule:nonzero">
   <path  d="M490.9264,390.7998L490.9264,398.4406L498.5672,398.4406L498.5672,390.7998z"/>
  </g>
  <g style="fill:none; stroke:#008B00; stroke-width:  2.6968; stroke-linecap:butt; stroke-linejoin:miter; stroke-dasharray:none">
   <path d="M490.9264,390.7998L490.9264,398.4406L498.5672,398.4406L498.5672,390.7998z"/>
  </g>
  <g style="fill:#008B00; fill-rule:nonzero">
   <path  d="M550.8958,448.9530L550.8958,456.5938L558.5366,456.5938L558.5366,448.9530z"/>
  </g>
  <g style="fill:none; stroke:#008B00; stroke-width:  2.6968; stroke-linecap:butt; stroke-linejoin:miter; stroke-dasharray:none">
   <path d="M550.8958,448.9530L550.8958,456.5938L558.5366,456.5938L558.5366,448.9530z"/>
  </g>
  <g style="fill:#008B00; fill-rule:nonzero">
   <path  d="M610.8651,492.6097L610.8651,500.2505L618.5059,500.2505L618.5059,492.6097z"/>
  </g>
  <g style="fill:none; stroke:#008B00; stroke-width:  2.6968; stroke-linecap:butt; stroke-linejoin:miter; stroke-dasharray:none">
   <path d="M610.8651,492.6097L610.8651,500.2505L618.5059,500.2505L618.5059,492.6097z"/>
  </g>
  <g style="fill:#008B00; fill-rule:nonzero">
   <path  d="M670.8344,531.0280L670.8344,538.6688L678.4753,538.6688L678.4753,531.0280z"/>
  </g>
  <g style="fill:none; stroke:#008B00; stroke-width:  2.6968; stroke-linecap:butt; stroke-linejoin:miter; stroke-dasharray:none">
   <path d="M670.8344,531.0280L670.8344,538.6688L678.4753,538.6688L678.4753,531.0280z"/>
  </g>
  <g style="fill:#008B00; fill-rule:nonzero">
   <path  d="M730.8038,560.1589L730.8038,567.7997L738.4446,567.7997L738.4446,560.1589z"/>
  </g>
  <g style="fill:none; stroke:#008B00; stroke-width:  2.6968; stroke-linecap:butt; stroke-linejoin:miter; stroke-dasharray:none">
   <path d="M730.8038,560.1589L730.8038,567.7997L738.4446,567.7997L738.4446,560.1589z"/>
  </g>
  <g style="fill:#008B00; fill-rule:nonzero">
   <path  d="M790.7731,583.6371L790.7731,591.2779L798.4139,591.2779L798.4139,583.6371z"/>
  </g>
  <g style="fill:none; stroke:#008B00; stroke-width:  2.6968; stroke-linecap:butt; stroke-linejoin:miter; stroke-dasharray:none">
   <path d="M790.7731,583.6371L790.7731,591.2779L798.4139,591.2779L798.4139,583.6371z"/>
  </g>
  <g style="fill:#008B00; fill-rule:nonzero">
   <path  d="M850.7425,608.0924L850.7425,615.7333L858.3833,615.7333L858.3833,608.0924z"/>
  </g>
  <g style="fill:none; stroke:#008B00; stroke-width:  2.6968; stroke-linecap:butt; stroke-linejoin:miter; stroke-dasharray:none">
   <path d="M850.7425,608.0924L850.7425,615.7333L858.3833,615.7333L858.3833,608.0924z"/>
  </g>
  <g style="fill:#008B00; fill-rule:nonzero">
   <path  d="M910.7118,624.9784L910.7118,632.6192L918.3526,632.6192L918.3526,624.9784z"/>
  </g>
  <g style="fill:none; stroke:#008B00; stroke-width:  2.6968; stroke-linecap:butt; stroke-linejoin:miter; stroke-dasharray:none">
   <path d="M910.7118,624.9784L910.7118,632.6192L918.3526,632.6192L918.3526,624.9784z"/>
  </g>
  <g style="fill:#008B00; fill-rule:nonzero">
   <path  d="M970.6812,651.3762L970.6812,659.0170L978.3220,659.0170L978.3220,651.3762z"/>
  </g>
  <g style="fill:none; stroke:#008B00; stroke-width:  2.6968; stroke-linecap:butt; stroke-linejoin:miter; stroke-dasharray:none">
   <path d="M970.6812,651.3762L970.6812,659.0170L978.3220,659.0170L978.3220,651.3762z"/>
  </g>
  <g style="fill:none; stroke:#FF0000; stroke-width:  2.6968; stroke-linecap:butt; stroke-linejoin:miter; stroke-dasharray: 13 8">
   <path d="M194.9001,618.9667L254.8694,646.0590L314.8388,689.5068L374.8081,694.9552L434.7775,720.9587L494.7468,703.0646L554.7162,714.0382L614.6855,716.5959"/>
  </g>
  <g style="fill:#FF0000; fill-rule:nonzero">
   <path  d="M191.0797,615.1463L191.0797,622.7871L198.7205,622.7871L198.7205,615.1463z"/>
  </g>
  <g style="fill:none; stroke:#FF0000; stroke-width:  2.6968; stroke-linecap:butt; stroke-linejoin:miter; stroke-dasharray:none">
   <path d="M191.0797,615.1463L191.0797,622.7871L198.7205,622.7871L198.7205,615.1463z"/>
  </g>
  <g style="fill:#FF0000; fill-rule:nonzero">
   <path  d="M251.0490,642.2386L251.0490,649.8795L258.6899,649.8795L258.6899,642.2386z"/>
  </g>
  <g style="fill:none; stroke:#FF0000; stroke-width:  2.6968; stroke-linecap:butt; stroke-linejoin:miter; stroke-dasharray:none">
   <path d="M251.0490,642.2386L251.0490,649.8795L258.6899,649.8795L258.6899,642.2386z"/>
  </g>
  <g style="fill:#FF0000; fill-rule:nonzero">
   <path  d="M311.0184,685.6864L311.0184,693.3272L318.6592,693.3272L318.6592,685.6864z"/>
  </g>
  <g style="fill:none; stroke:#FF0000; stroke-width:  2.6968; stroke-linecap:butt; stroke-linejoin:miter; stroke-dasharray:none">
   <path d="M311.0184,685.6864L311.0184,693.3272L318.6592,693.3272L318.6592,685.6864z"/>
  </g>
  <g style="fill:#FF0000; fill-rule:nonzero">
   <path  d="M370.9877,691.1348L370.9877,698.7756L378.6285,698.7756L378.6285,691.1348z"/>
  </g>
  <g style="fill:none; stroke:#FF0000; stroke-width:  2.6968; stroke-linecap:butt; stroke-linejoin:miter; stroke-dasharray:none">
   <path d="M370.9877,691.1348L370.9877,698.7756L378.6285,698.7756L378.6285,691.1348z"/>
  </g>
  <g style="fill:#FF0000; fill-rule:nonzero">
   <path  d="M430.9571,717.1383L430.9571,724.7791L438.5979,724.7791L438.5979,717.1383z"/>
  </g>
  <g style="fill:none; stroke:#FF0000; stroke-width:  2.6968; stroke-linecap:butt; stroke-linejoin:miter; stroke-dasharray:none">
   <path d="M430.9571,717.1383L430.9571,724.7791L438.5979,724.7791L438.5979,717.1383z"/>
  </g>
  <g style="fill:#FF0000; fill-rule:nonzero">
   <path  d="M490.9264,699.2442L490.9264,706.8850L498.5672,706.8850L498.5672,699.2442z"/>
  </g>
  <g style="fill:none; stroke:#FF0000; stroke-width:  2.6968; stroke-linecap:butt; stroke-linejoin:miter; stroke-dasharray:none">
   <path d="M490.9264,699.2442L490.9264,706.8850L498.5672,706.8850L498.5672,699.2442z"/>
  </g>
  <g style="fill:#FF0000; fill-rule:nonzero">
   <path  d="M550.8958,710.2178L550.8958,717.8587L558.5366,717.8587L558.5366,710.2178z"/>
  </g>
  <g style="fill:none; stroke:#FF0000; stroke-width:  2.6968; stroke-linecap:butt; stroke-linejoin:miter; stroke-dasharray:none">
   <path d="M550.8958,710.2178L550.8958,717.8587L558.5366,717.8587L558.5366,710.2178z"/>
  </g>
  <g style="fill:#FF0000; fill-rule:nonzero">
   <path  d="M610.8651,712.7755L610.8651,720.4163L618.5059,720.4163L618.5059,712.7755z"/>
  </g>
  <g style="fill:none; stroke:#FF0000; stroke-width:  2.6968; stroke-linecap:butt; stroke-linejoin:miter; stroke-dasharray:none">
   <path d="M610.8651,712.7755L610.8651,720.4163L618.5059,720.4163L618.5059,712.7755z"/>
  </g>
  <g style="fill:none; stroke:#000000; stroke-width:  2.6968; stroke-linecap:butt; stroke-linejoin:miter; stroke-dasharray:none">
   <path d="M134.9308,134.8380L1034.4709,134.8380"/>
   <path d="M134.9308,764.0820L1034.4709,764.0820"/>
   <path d="M194.9001,134.8380L194.9001,143.8272"/>
   <path d="M194.9001,764.0820L194.9001,755.0928"/>
   <path d="M314.8388,134.8380L314.8388,143.8272"/>
   <path d="M314.8388,764.0820L314.8388,755.0928"/>
   <path d="M434.7775,134.8380L434.7775,143.8272"/>
   <path d="M434.7775,764.0820L434.7775,755.0928"/>
   <path d="M554.7162,134.8380L554.7162,143.8272"/>
   <path d="M554.7162,764.0820L554.7162,755.0928"/>
   <path d="M674.6548,134.8380L674.6548,143.8272"/>
   <path d="M674.6548,764.0820L674.6548,755.0928"/>
   <path d="M794.5935,134.8380L794.5935,143.8272"/>
   <path d="M794.5935,764.0820L794.5935,755.0928"/>
   <path d="M914.5322,134.8380L914.5322,143.8272"/>
   <path d="M914.5322,764.0820L914.5322,755.0928"/>
   <path d="M1034.4709,134.8380L1034.4709,143.8272"/>
   <path d="M1034.4709,764.0820L1034.4709,755.0928"/>
   <path d="M134.9308,134.8380L134.9308,152.8164"/>
   <path d="M134.9308,764.0820L134.9308,746.1036"/>
   <path d="M254.8694,134.8380L254.8694,152.8164"/>
   <path d="M254.8694,764.0820L254.8694,746.1036"/>
   <path d="M374.8081,134.8380L374.8081,152.8164"/>
   <path d="M374.8081,764.0820L374.8081,746.1036"/>
   <path d="M494.7468,134.8380L494.7468,152.8164"/>
   <path d="M494.7468,764.0820L494.7468,746.1036"/>
   <path d="M614.6855,134.8380L614.6855,152.8164"/>
   <path d="M614.6855,764.0820L614.6855,746.1036"/>
   <path d="M734.6242,134.8380L734.6242,152.8164"/>
   <path d="M734.6242,764.0820L734.6242,746.1036"/>
   <path d="M854.5629,134.8380L854.5629,152.8164"/>
   <path d="M854.5629,764.0820L854.5629,746.1036"/>
   <path d="M974.5016,134.8380L974.5016,152.8164"/>
   <path d="M974.5016,764.0820L974.5016,746.1036"/>
  </g>
  <g style="fill:#000000; fill-rule:nonzero">
   <text   style="font-family:'Times','Nimbus Roman No9 L'; font-style:normal; font-weight:bold; font-size:898.9200" transform="matrix(0.0280,0.0000,-0.0000,-0.0280,128.9908,108.5688)">0</text>
   <text   style="font-family:'Times','Nimbus Roman No9 L'; font-style:normal; font-weight:bold; font-size:898.9200" transform="matrix(0.0280,0.0000,-0.0000,-0.0280,248.9294,108.5688)">2</text>
   <text   style="font-family:'Times','Nimbus Roman No9 L'; font-style:normal; font-weight:bold; font-size:898.9200" transform="matrix(0.0280,0.0000,-0.0000,-0.0280,368.8681,108.5688)">4</text>
   <text   style="font-family:'Times','Nimbus Roman No9 L'; font-style:normal; font-weight:bold; font-size:898.9200" transform="matrix(0.0280,0.0000,-0.0000,-0.0280,488.8068,108.5688)">6</text>
   <text   style="font-family:'Times','Nimbus Roman No9 L'; font-style:normal; font-weight:bold; font-size:898.9200" transform="matrix(0.0280,0.0000,-0.0000,-0.0280,608.7455,108.5688)">8</text>
   <text   style="font-family:'Times','Nimbus Roman No9 L'; font-style:normal; font-weight:bold; font-size:898.9200" transform="matrix(0.0280,0.0000,-0.0000,-0.0280,722.3842,108.5688)">10</text>
   <text   style="font-family:'Times','Nimbus Roman No9 L'; font-style:normal; font-weight:bold; font-size:898.9200" transform="matrix(0.0280,0.0000,-0.0000,-0.0280,842.3229,108.5688)">12</text>
   <text   style="font-family:'Times','Nimbus Roman No9 L'; font-style:normal; font-weight:bold; font-size:898.9200" transform="matrix(0.0280,0.0000,-0.0000,-0.0280,962.2616,108.5688)">14</text>
   <text   style="font-family:'Times','Nimbus Roman No9 L'; font-style:normal; font-weight:bold; font-size:898.9200" transform="matrix(0.0280,0.0000,-0.0000,-0.0280,469.5008,81.9396)">Number of Hydrogen</text>
  </g>
  <g style="fill:none; stroke:#000000; stroke-width:  1.3484; stroke-linecap:butt; stroke-linejoin:miter; stroke-dasharray:none">
   <path d="M134.9308,134.8380L134.9308,764.0820"/>
   <path d="M1034.4709,134.8380L1034.4709,764.0820"/>
  </g>
  <g style="fill:none; stroke:#000000; stroke-width:  2.6968; stroke-linecap:butt; stroke-linejoin:miter; stroke-dasharray:none">
   <path d="M134.9308,157.3110L143.9200,157.3110"/>
   <path d="M1034.4709,157.3110L1025.4817,157.3110"/>
   <path d="M134.9308,202.2570L143.9200,202.2570"/>
   <path d="M1034.4709,202.2570L1025.4817,202.2570"/>
   <path d="M134.9308,247.2030L143.9200,247.2030"/>
   <path d="M1034.4709,247.2030L1025.4817,247.2030"/>
   <path d="M134.9308,292.1490L143.9200,292.1490"/>
   <path d="M1034.4709,292.1490L1025.4817,292.1490"/>
   <path d="M134.9308,337.0950L143.9200,337.0950"/>
   <path d="M1034.4709,337.0950L1025.4817,337.0950"/>
   <path d="M134.9308,382.0410L143.9200,382.0410"/>
   <path d="M1034.4709,382.0410L1025.4817,382.0410"/>
   <path d="M134.9308,426.9870L143.9200,426.9870"/>
   <path d="M1034.4709,426.9870L1025.4817,426.9870"/>
   <path d="M134.9308,471.9330L143.9200,471.9330"/>
   <path d="M1034.4709,471.9330L1025.4817,471.9330"/>
   <path d="M134.9308,516.8790L143.9200,516.8790"/>
   <path d="M1034.4709,516.8790L1025.4817,516.8790"/>
   <path d="M134.9308,561.8250L143.9200,561.8250"/>
   <path d="M1034.4709,561.8250L1025.4817,561.8250"/>
   <path d="M134.9308,606.7710L143.9200,606.7710"/>
   <path d="M1034.4709,606.7710L1025.4817,606.7710"/>
   <path d="M134.9308,651.7170L143.9200,651.7170"/>
   <path d="M1034.4709,651.7170L1025.4817,651.7170"/>
   <path d="M134.9308,696.6630L143.9200,696.6630"/>
   <path d="M1034.4709,696.6630L1025.4817,696.6630"/>
   <path d="M134.9308,741.6090L143.9200,741.6090"/>
   <path d="M1034.4709,741.6090L1025.4817,741.6090"/>
   <path d="M134.9308,134.8380L152.9092,134.8380"/>
   <path d="M1034.4709,134.8380L1016.4925,134.8380"/>
   <path d="M134.9308,179.7840L152.9092,179.7840"/>
   <path d="M1034.4709,179.7840L1016.4925,179.7840"/>
   <path d="M134.9308,224.7300L152.9092,224.7300"/>
   <path d="M1034.4709,224.7300L1016.4925,224.7300"/>
   <path d="M134.9308,269.6760L152.9092,269.6760"/>
   <path d="M1034.4709,269.6760L1016.4925,269.6760"/>
   <path d="M134.9308,314.6220L152.9092,314.6220"/>
   <path d="M1034.4709,314.6220L1016.4925,314.6220"/>
   <path d="M134.9308,359.5680L152.9092,359.5680"/>
   <path d="M1034.4709,359.5680L1016.4925,359.5680"/>
   <path d="M134.9308,404.5140L152.9092,404.5140"/>
   <path d="M1034.4709,404.5140L1016.4925,404.5140"/>
   <path d="M134.9308,449.4600L152.9092,449.4600"/>
   <path d="M1034.4709,449.4600L1016.4925,449.4600"/>
   <path d="M134.9308,494.4060L152.9092,494.4060"/>
   <path d="M1034.4709,494.4060L1016.4925,494.4060"/>
   <path d="M134.9308,539.3520L152.9092,539.3520"/>
   <path d="M1034.4709,539.3520L1016.4925,539.3520"/>
   <path d="M134.9308,584.2980L152.9092,584.2980"/>
   <path d="M1034.4709,584.2980L1016.4925,584.2980"/>
   <path d="M134.9308,629.2440L152.9092,629.2440"/>
   <path d="M1034.4709,629.2440L1016.4925,629.2440"/>
   <path d="M134.9308,674.1900L152.9092,674.1900"/>
   <path d="M1034.4709,674.1900L1016.4925,674.1900"/>
   <path d="M134.9308,719.1360L152.9092,719.1360"/>
   <path d="M1034.4709,719.1360L1016.4925,719.1360"/>
  </g>
  <g style="fill:#000000; fill-rule:nonzero">
   <text   style="font-family:'Times','Nimbus Roman No9 L'; font-style:normal; font-weight:bold; font-size:898.9200" transform="matrix(0.0280,0.0000,-0.0000,-0.0280,86.7016,126.3780)">-0.5</text>
   <text   style="font-family:'Times','Nimbus Roman No9 L'; font-style:normal; font-weight:bold; font-size:898.9200" transform="matrix(0.0280,0.0000,-0.0000,-0.0280,74.1016,171.3240)">-0.45</text>
   <text   style="font-family:'Times','Nimbus Roman No9 L'; font-style:normal; font-weight:bold; font-size:898.9200" transform="matrix(0.0280,0.0000,-0.0000,-0.0280,86.7016,216.2700)">-0.4</text>
   <text   style="font-family:'Times','Nimbus Roman No9 L'; font-style:normal; font-weight:bold; font-size:898.9200" transform="matrix(0.0280,0.0000,-0.0000,-0.0280,74.1016,261.2160)">-0.35</text>
   <text   style="font-family:'Times','Nimbus Roman No9 L'; font-style:normal; font-weight:bold; font-size:898.9200" transform="matrix(0.0280,0.0000,-0.0000,-0.0280,86.7016,306.1620)">-0.3</text>
   <text   style="font-family:'Times','Nimbus Roman No9 L'; font-style:normal; font-weight:bold; font-size:898.9200" transform="matrix(0.0280,0.0000,-0.0000,-0.0280,74.1016,351.1080)">-0.25</text>
   <text   style="font-family:'Times','Nimbus Roman No9 L'; font-style:normal; font-weight:bold; font-size:898.9200" transform="matrix(0.0280,0.0000,-0.0000,-0.0280,86.7016,396.0540)">-0.2</text>
   <text   style="font-family:'Times','Nimbus Roman No9 L'; font-style:normal; font-weight:bold; font-size:898.9200" transform="matrix(0.0280,0.0000,-0.0000,-0.0280,74.1016,441.0000)">-0.15</text>
   <text   style="font-family:'Times','Nimbus Roman No9 L'; font-style:normal; font-weight:bold; font-size:898.9200" transform="matrix(0.0280,0.0000,-0.0000,-0.0280,87.4216,485.9460)">-0.1</text>
   <text   style="font-family:'Times','Nimbus Roman No9 L'; font-style:normal; font-weight:bold; font-size:898.9200" transform="matrix(0.0280,0.0000,-0.0000,-0.0280,74.1016,530.8920)">-0.05</text>
   <text   style="font-family:'Times','Nimbus Roman No9 L'; font-style:normal; font-weight:bold; font-size:898.9200" transform="matrix(0.0280,0.0000,-0.0000,-0.0280,114.0616,575.8380)">0</text>
   <text   style="font-family:'Times','Nimbus Roman No9 L'; font-style:normal; font-weight:bold; font-size:898.9200" transform="matrix(0.0280,0.0000,-0.0000,-0.0280,82.7416,620.7840)">0.05</text>
   <text   style="font-family:'Times','Nimbus Roman No9 L'; font-style:normal; font-weight:bold; font-size:898.9200" transform="matrix(0.0280,0.0000,-0.0000,-0.0280,96.0616,665.7300)">0.1</text>
   <text   style="font-family:'Times','Nimbus Roman No9 L'; font-style:normal; font-weight:bold; font-size:898.9200" transform="matrix(0.0280,0.0000,-0.0000,-0.0280,82.7416,710.6760)">0.15</text>
   <text   style="font-family:'Times','Nimbus Roman No9 L'; font-style:normal; font-weight:bold; font-size:898.9200" transform="matrix(0.0000,0.0280,0.0280,-0.0000,59.7124,287.4600)">Gibbs Free Energy per H (eV)</text>
  </g>
  <g style="fill:none; stroke:#000000; stroke-width:  2.6968; stroke-linecap:butt; stroke-linejoin:miter; stroke-dasharray:none">
   <path d="M134.9308,134.8380L134.9308,764.0820L1034.4709,764.0820L1034.4709,134.8380z"/>
  </g>
  <g style="fill:#FFFFFF; fill-rule:nonzero">
   <path  d="M764.6087,359.5680L764.6087,277.1846L1013.0511,277.1846L1013.0511,359.5680z"/>
  </g>
  <g style="fill:none; stroke:#000000; stroke-width:  2.6968; stroke-linecap:butt; stroke-linejoin:miter; stroke-dasharray:none">
   <path d="M764.6087,359.5680L764.6087,277.1846L1013.0511,277.1846L1013.0511,359.5680z"/>
  </g>
  <g style="fill:#000000; fill-rule:nonzero">
   <text   style="font-family:'Times','Nimbus Roman No9 L'; font-style:normal; font-weight:bold; font-size:898.9200" transform="matrix(0.0280,0.0000,-0.0000,-0.0280,832.7019,333.2988)">Ni</text>
   <text   style="font-family:'Times','Nimbus Roman No9 L'; font-style:normal; font-weight:bold; font-size:898.9200" transform="matrix(0.0198,0.0000,-0.0000,-0.0198,857.9019,323.2309)">3</text>
   <text   style="font-family:'Times','Nimbus Roman No9 L'; font-style:normal; font-weight:bold; font-size:898.9200" transform="matrix(0.0280,0.0000,-0.0000,-0.0280,866.9019,333.2988)">P</text>
   <text   style="font-family:'Times','Nimbus Roman No9 L'; font-style:normal; font-weight:bold; font-size:898.9200" transform="matrix(0.0198,0.0000,-0.0000,-0.0198,882.3819,323.2309)">2</text>
   <text   style="font-family:'Times','Nimbus Roman No9 L'; font-style:normal; font-weight:bold; font-size:898.9200" transform="matrix(0.0280,0.0000,-0.0000,-0.0280,891.3819,333.2988)"> vdW</text>
  </g>
  <g style="fill:none; stroke:#008B00; stroke-width:  2.6968; stroke-linecap:butt; stroke-linejoin:miter; stroke-dasharray: 13 8">
   <path d="M778.7667,336.7248L814.7235,336.7248"/>
  </g>
  <g style="fill:#008B00; fill-rule:nonzero">
   <path  d="M774.9463,332.9044L774.9463,340.5453L782.5871,340.5453L782.5871,332.9044z"/>
  </g>
  <g style="fill:none; stroke:#008B00; stroke-width:  2.6968; stroke-linecap:butt; stroke-linejoin:miter; stroke-dasharray:none">
   <path d="M774.9463,332.9044L774.9463,340.5453L782.5871,340.5453L782.5871,332.9044z"/>
  </g>
  <g style="fill:#008B00; fill-rule:nonzero">
   <path  d="M810.9031,332.9044L810.9031,340.5453L818.5439,340.5453L818.5439,332.9044z"/>
  </g>
  <g style="fill:none; stroke:#008B00; stroke-width:  2.6968; stroke-linecap:butt; stroke-linejoin:miter; stroke-dasharray:none">
   <path d="M810.9031,332.9044L810.9031,340.5453L818.5439,340.5453L818.5439,332.9044z"/>
  </g>
  <g style="fill:#000000; fill-rule:nonzero">
   <text   style="font-family:'Times','Nimbus Roman No9 L'; font-style:normal; font-weight:bold; font-size:898.9200" transform="matrix(0.0280,0.0000,-0.0000,-0.0280,832.7019,296.6017)">Ni</text>
   <text   style="font-family:'Times','Nimbus Roman No9 L'; font-style:normal; font-weight:bold; font-size:898.9200" transform="matrix(0.0198,0.0000,-0.0000,-0.0198,857.9019,286.5338)">3</text>
   <text   style="font-family:'Times','Nimbus Roman No9 L'; font-style:normal; font-weight:bold; font-size:898.9200" transform="matrix(0.0280,0.0000,-0.0000,-0.0280,866.9019,296.6017)">P</text>
   <text   style="font-family:'Times','Nimbus Roman No9 L'; font-style:normal; font-weight:bold; font-size:898.9200" transform="matrix(0.0198,0.0000,-0.0000,-0.0198,882.3819,286.5338)">2</text>
   <text   style="font-family:'Times','Nimbus Roman No9 L'; font-style:normal; font-weight:bold; font-size:898.9200" transform="matrix(0.0280,0.0000,-0.0000,-0.0280,891.3819,296.6017)"> + 4P vdW</text>
  </g>
  <g style="fill:none; stroke:#FF0000; stroke-width:  2.6968; stroke-linecap:butt; stroke-linejoin:miter; stroke-dasharray: 13 8">
   <path d="M778.7667,300.0277L814.7235,300.0277"/>
  </g>
  <g style="fill:#FF0000; fill-rule:nonzero">
   <path  d="M774.9463,296.2073L774.9463,303.8482L782.5871,303.8482L782.5871,296.2073z"/>
  </g>
  <g style="fill:none; stroke:#FF0000; stroke-width:  2.6968; stroke-linecap:butt; stroke-linejoin:miter; stroke-dasharray:none">
   <path d="M774.9463,296.2073L774.9463,303.8482L782.5871,303.8482L782.5871,296.2073z"/>
  </g>
  <g style="fill:#FF0000; fill-rule:nonzero">
   <path  d="M810.9031,296.2073L810.9031,303.8482L818.5439,303.8482L818.5439,296.2073z"/>
  </g>
  <g style="fill:none; stroke:#FF0000; stroke-width:  2.6968; stroke-linecap:butt; stroke-linejoin:miter; stroke-dasharray:none">
   <path d="M810.9031,296.2073L810.9031,303.8482L818.5439,303.8482L818.5439,296.2073z"/>
  </g>
 </g>
</svg>
