<?xml version="1.0" encoding="ISO-8859-1"?>
<!DOCTYPE svg PUBLIC "-//W3C//DTD SVG 1.0//EN" "http://www.w3.org/TR/2001/REC-SVG-20010904/DTD/svg10.dtd">
<!-- generated by Grace-5.1.25 -->
<svg xml:space="preserve" width="16.1550in" height="12.4850in" viewBox="0.0000 0.0000 1163.1600 898.9200">
 <g transform="translate(0,898.9200) scale(1,-1)">
 <desc></desc>
  <g style="fill:#FFFFFF; fill-rule:nonzero">
   <path  d="M0.0000,0.0000L0.0000,898.9200L1163.1601,898.9200L1163.1601,0.0000z"/>
  </g>
  <g style="fill:none; stroke:#000000; stroke-width:  2.6968; stroke-linecap:butt; stroke-linejoin:miter; stroke-dasharray: 19 8">
   <path d="M134.8372,344.5860L139.3544,344.5860L143.8715,344.5860L148.3887,344.5860L152.9059,344.5860L157.4230,344.5860L161.9402,344.5860L166.4573,344.5860L170.9745,344.5860L175.4916,344.5860
            L180.0088,344.5860L184.5260,344.5860L189.0431,344.5860L193.5603,344.5860L198.0774,344.5860L202.5946,344.5860L207.1117,344.5860L211.6289,344.5860L216.1461,344.5860L220.6632,344.5860
            L225.1804,344.5860L229.6975,344.5860L234.2147,344.5860L238.7319,344.5860L243.2490,344.5860L247.7662,344.5860L252.2833,344.5860L256.8005,344.5860L261.3176,344.5860L265.8348,344.5860
            L270.3520,344.5860L274.8691,344.5860L279.3863,344.5860L283.9034,344.5860L288.4206,344.5860L292.9377,344.5860L297.4549,344.5860L301.9721,344.5860L306.4892,344.5860L311.0064,344.5860
            L315.5235,344.5860L320.0407,344.5860L324.5578,344.5860L329.0750,344.5860L333.5922,344.5860L338.1093,344.5860L342.6265,344.5860L347.1436,344.5860L351.6608,344.5860L356.1779,344.5860
            L360.6951,344.5860L365.2123,344.5860L369.7294,344.5860L374.2466,344.5860L378.7637,344.5860L383.2809,344.5860L387.7980,344.5860L392.3152,344.5860L396.8324,344.5860L401.3495,344.5860
            L405.8667,344.5860L410.3838,344.5860L414.9010,344.5860L419.4181,344.5860L423.9353,344.5860L428.4525,344.5860L432.9696,344.5860L437.4868,344.5860L442.0039,344.5860L446.5211,344.5860
            L451.0382,344.5860L455.5554,344.5860L460.0726,344.5860L464.5897,344.5860L469.1069,344.5860L473.6240,344.5860L478.1412,344.5860L482.6583,344.5860L487.1755,344.5860L491.6927,344.5860
            L496.2098,344.5860L500.7270,344.5860L505.2441,344.5860L509.7613,344.5860L514.2784,344.5860L518.7956,344.5860L523.3128,344.5860L527.8299,344.5860L532.3471,344.5860L536.8642,344.5860
            L541.3814,344.5860L545.8985,344.5860L550.4157,344.5860L554.9329,344.5860L559.4500,344.5860L563.9672,344.5860L568.4843,344.5860L573.0015,344.5860L577.5186,344.5860L582.0358,344.5860
            L586.5529,344.5860L591.0701,344.5860L595.5873,344.5860L600.1044,344.5860L604.6216,344.5860L609.1388,344.5860L613.6559,344.5860L618.1731,344.5860L622.6902,344.5860L627.2074,344.5860
            L631.7245,344.5860L636.2417,344.5860L640.7588,344.5860L645.2760,344.5860L649.7931,344.5860L654.3103,344.5860L658.8275,344.5860L663.3446,344.5860L667.8618,344.5860L672.3789,344.5860
            L676.8961,344.5860L681.4133,344.5860L685.9304,344.5860L690.4476,344.5860L694.9648,344.5860L699.4819,344.5860L703.9991,344.5860L708.5162,344.5860L713.0334,344.5860L717.5505,344.5860
            L722.0677,344.5860L726.5848,344.5860L731.1020,344.5860L735.6191,344.5860L740.1363,344.5860L744.6535,344.5860L749.1706,344.5860L753.6878,344.5860L758.2049,344.5860L762.7221,344.5860
            L767.2393,344.5860L771.7564,344.5860L776.2736,344.5860L780.7907,344.5860L785.3079,344.5860L789.8250,344.5860L794.3422,344.5860L798.8593,344.5860L803.3765,344.5860L807.8936,344.5860
            L812.4108,344.5860L816.9280,344.5860L821.4451,344.5860L825.9623,344.5860L830.4795,344.5860L834.9966,344.5860L839.5138,344.5860L844.0309,344.5860L848.5481,344.5860L853.0652,344.5860
            L857.5824,344.5860L862.0996,344.5860L866.6167,344.5860L871.1339,344.5860L875.6510,344.5860L880.1682,344.5860L884.6853,344.5860L889.2025,344.5860L893.7196,344.5860L898.2368,344.5860
            L902.7540,344.5860L907.2711,344.5860L911.7883,344.5860L916.3055,344.5860L920.8226,344.5860L925.3398,344.5860L929.8569,344.5860L934.3741,344.5860L938.8912,344.5860L943.4084,344.5860
            L947.9255,344.5860L952.4427,344.5860L956.9598,344.5860L961.4770,344.5860L965.9942,344.5860L970.5113,344.5860L975.0285,344.5860L979.5456,344.5860L984.0628,344.5860L988.5800,344.5860
            L993.0971,344.5860L997.6143,344.5860L1002.1314,344.5860L1006.6486,344.5860L1011.1657,344.5860L1015.6829,344.5860L1020.2000,344.5860L1024.7172,344.5860L1029.2343,344.5860L1033.7515,344.5860"/>
   <path d="M134.8372,449.4600L139.3544,449.4600L143.8715,449.4600L148.3887,449.4600L152.9059,449.4600L157.4230,449.4600L161.9402,449.4600L166.4573,449.4600L170.9745,449.4600L175.4916,449.4600
            L180.0088,449.4600L184.5260,449.4600L189.0431,449.4600L193.5603,449.4600L198.0774,449.4600L202.5946,449.4600L207.1117,449.4600L211.6289,449.4600L216.1461,449.4600L220.6632,449.4600
            L225.1804,449.4600L229.6975,449.4600L234.2147,449.4600L238.7319,449.4600L243.2490,449.4600L247.7662,449.4600L252.2833,449.4600L256.8005,449.4600L261.3176,449.4600L265.8348,449.4600
            L270.3520,449.4600L274.8691,449.4600L279.3863,449.4600L283.9034,449.4600L288.4206,449.4600L292.9377,449.4600L297.4549,449.4600L301.9721,449.4600L306.4892,449.4600L311.0064,449.4600
            L315.5235,449.4600L320.0407,449.4600L324.5578,449.4600L329.0750,449.4600L333.5922,449.4600L338.1093,449.4600L342.6265,449.4600L347.1436,449.4600L351.6608,449.4600L356.1779,449.4600
            L360.6951,449.4600L365.2123,449.4600L369.7294,449.4600L374.2466,449.4600L378.7637,449.4600L383.2809,449.4600L387.7980,449.4600L392.3152,449.4600L396.8324,449.4600L401.3495,449.4600
            L405.8667,449.4600L410.3838,449.4600L414.9010,449.4600L419.4181,449.4600L423.9353,449.4600L428.4525,449.4600L432.9696,449.4600L437.4868,449.4600L442.0039,449.4600L446.5211,449.4600
            L451.0382,449.4600L455.5554,449.4600L460.0726,449.4600L464.5897,449.4600L469.1069,449.4600L473.6240,449.4600L478.1412,449.4600L482.6583,449.4600L487.1755,449.4600L491.6927,449.4600
            L496.2098,449.4600L500.7270,449.4600L505.2441,449.4600L509.7613,449.4600L514.2784,449.4600L518.7956,449.4600L523.3128,449.4600L527.8299,449.4600L532.3471,449.4600L536.8642,449.4600
            L541.3814,449.4600L545.8985,449.4600L550.4157,449.4600L554.9329,449.4600L559.4500,449.4600L563.9672,449.4600L568.4843,449.4600L573.0015,449.4600L577.5186,449.4600L582.0358,449.4600
            L586.5529,449.4600L591.0701,449.4600L595.5873,449.4600L600.1044,449.4600L604.6216,449.4600L609.1388,449.4600L613.6559,449.4600L618.1731,449.4600L622.6902,449.4600L627.2074,449.4600
            L631.7245,449.4600L636.2417,449.4600L640.7588,449.4600L645.2760,449.4600L649.7931,449.4600L654.3103,449.4600L658.8275,449.4600L663.3446,449.4600L667.8618,449.4600L672.3789,449.4600
            L676.8961,449.4600L681.4133,449.4600L685.9304,449.4600L690.4476,449.4600L694.9648,449.4600L699.4819,449.4600L703.9991,449.4600L708.5162,449.4600L713.0334,449.4600L717.5505,449.4600
            L722.0677,449.4600L726.5848,449.4600L731.1020,449.4600L735.6191,449.4600L740.1363,449.4600L744.6535,449.4600L749.1706,449.4600L753.6878,449.4600L758.2049,449.4600L762.7221,449.4600
            L767.2393,449.4600L771.7564,449.4600L776.2736,449.4600L780.7907,449.4600L785.3079,449.4600L789.8250,449.4600L794.3422,449.4600L798.8593,449.4600L803.3765,449.4600L807.8936,449.4600
            L812.4108,449.4600L816.9280,449.4600L821.4451,449.4600L825.9623,449.4600L830.4795,449.4600L834.9966,449.4600L839.5138,449.4600L844.0309,449.4600L848.5481,449.4600L853.0652,449.4600
            L857.5824,449.4600L862.0996,449.4600L866.6167,449.4600L871.1339,449.4600L875.6510,449.4600L880.1682,449.4600L884.6853,449.4600L889.2025,449.4600L893.7196,449.4600L898.2368,449.4600
            L902.7540,449.4600L907.2711,449.4600L911.7883,449.4600L916.3055,449.4600L920.8226,449.4600L925.3398,449.4600L929.8569,449.4600L934.3741,449.4600L938.8912,449.4600L943.4084,449.4600
            L947.9255,449.4600L952.4427,449.4600L956.9598,449.4600L961.4770,449.4600L965.9942,449.4600L970.5113,449.4600L975.0285,449.4600L979.5456,449.4600L984.0628,449.4600L988.5800,449.4600
            L993.0971,449.4600L997.6143,449.4600L1002.1314,449.4600L1006.6486,449.4600L1011.1657,449.4600L1015.6829,449.4600L1020.2000,449.4600L1024.7172,449.4600L1029.2343,449.4600L1033.7515,449.4600"/>
   <path d="M134.8372,397.0230L139.3544,397.0230L143.8715,397.0230L148.3887,397.0230L152.9059,397.0230L157.4230,397.0230L161.9402,397.0230L166.4573,397.0230L170.9745,397.0230L175.4916,397.0230
            L180.0088,397.0230L184.5260,397.0230L189.0431,397.0230L193.5603,397.0230L198.0774,397.0230L202.5946,397.0230L207.1117,397.0230L211.6289,397.0230L216.1461,397.0230L220.6632,397.0230
            L225.1804,397.0230L229.6975,397.0230L234.2147,397.0230L238.7319,397.0230L243.2490,397.0230L247.7662,397.0230L252.2833,397.0230L256.8005,397.0230L261.3176,397.0230L265.8348,397.0230
            L270.3520,397.0230L274.8691,397.0230L279.3863,397.0230L283.9034,397.0230L288.4206,397.0230L292.9377,397.0230L297.4549,397.0230L301.9721,397.0230L306.4892,397.0230L311.0064,397.0230
            L315.5235,397.0230L320.0407,397.0230L324.5578,397.0230L329.0750,397.0230L333.5922,397.0230L338.1093,397.0230L342.6265,397.0230L347.1436,397.0230L351.6608,397.0230L356.1779,397.0230
            L360.6951,397.0230L365.2123,397.0230L369.7294,397.0230L374.2466,397.0230L378.7637,397.0230L383.2809,397.0230L387.7980,397.0230L392.3152,397.0230L396.8324,397.0230L401.3495,397.0230
            L405.8667,397.0230L410.3838,397.0230L414.9010,397.0230L419.4181,397.0230L423.9353,397.0230L428.4525,397.0230L432.9696,397.0230L437.4868,397.0230L442.0039,397.0230L446.5211,397.0230
            L451.0382,397.0230L455.5554,397.0230L460.0726,397.0230L464.5897,397.0230L469.1069,397.0230L473.6240,397.0230L478.1412,397.0230L482.6583,397.0230L487.1755,397.0230L491.6927,397.0230
            L496.2098,397.0230L500.7270,397.0230L505.2441,397.0230L509.7613,397.0230L514.2784,397.0230L518.7956,397.0230L523.3128,397.0230L527.8299,397.0230L532.3471,397.0230L536.8642,397.0230
            L541.3814,397.0230L545.8985,397.0230L550.4157,397.0230L554.9329,397.0230L559.4500,397.0230L563.9672,397.0230L568.4843,397.0230L573.0015,397.0230L577.5186,397.0230L582.0358,397.0230
            L586.5529,397.0230L591.0701,397.0230L595.5873,397.0230L600.1044,397.0230L604.6216,397.0230L609.1388,397.0230L613.6559,397.0230L618.1731,397.0230L622.6902,397.0230L627.2074,397.0230
            L631.7245,397.0230L636.2417,397.0230L640.7588,397.0230L645.2760,397.0230L649.7931,397.0230L654.3103,397.0230L658.8275,397.0230L663.3446,397.0230L667.8618,397.0230L672.3789,397.0230
            L676.8961,397.0230L681.4133,397.0230L685.9304,397.0230L690.4476,397.0230L694.9648,397.0230L699.4819,397.0230L703.9991,397.0230L708.5162,397.0230L713.0334,397.0230L717.5505,397.0230
            L722.0677,397.0230L726.5848,397.0230L731.1020,397.0230L735.6191,397.0230L740.1363,397.0230L744.6535,397.0230L749.1706,397.0230L753.6878,397.0230L758.2049,397.0230L762.7221,397.0230
            L767.2393,397.0230L771.7564,397.0230L776.2736,397.0230L780.7907,397.0230L785.3079,397.0230L789.8250,397.0230L794.3422,397.0230L798.8593,397.0230L803.3765,397.0230L807.8936,397.0230
            L812.4108,397.0230L816.9280,397.0230L821.4451,397.0230L825.9623,397.0230L830.4795,397.0230L834.9966,397.0230L839.5138,397.0230L844.0309,397.0230L848.5481,397.0230L853.0652,397.0230
            L857.5824,397.0230L862.0996,397.0230L866.6167,397.0230L871.1339,397.0230L875.6510,397.0230L880.1682,397.0230L884.6853,397.0230L889.2025,397.0230L893.7196,397.0230L898.2368,397.0230
            L902.7540,397.0230L907.2711,397.0230L911.7883,397.0230L916.3055,397.0230L920.8226,397.0230L925.3398,397.0230L929.8569,397.0230L934.3741,397.0230L938.8912,397.0230L943.4084,397.0230
            L947.9255,397.0230L952.4427,397.0230L956.9598,397.0230L961.4770,397.0230L965.9942,397.0230L970.5113,397.0230L975.0285,397.0230L979.5456,397.0230L984.0628,397.0230L988.5800,397.0230
            L993.0971,397.0230L997.6143,397.0230L1002.1314,397.0230L1006.6486,397.0230L1011.1657,397.0230L1015.6829,397.0230L1020.2000,397.0230L1024.7172,397.0230L1029.2343,397.0230L1033.7515,397.0230"/>
  </g>
  <g style="fill:none; stroke:#008B00; stroke-width:  2.6968; stroke-linecap:butt; stroke-linejoin:miter; stroke-dasharray: 13 8">
   <path d="M179.7829,186.5757L224.7287,196.9057L224.7287,197.0246L269.6744,210.4560L269.6744,210.3370L314.6201,226.2709L359.5658,560.0479L404.5115,558.9341L449.4572,577.0579L494.4030,576.7363
            L539.3487,600.5729L584.2944,584.4369L629.2401,584.2164L674.1858,624.7657L719.1315,595.5829L764.0772,689.4283L809.0230,652.3289L853.9687,624.0564L898.9144,696.9568L943.8601,721.5897
            L988.8058,654.2197L1033.7515,674.4799"/>
  </g>
  <g style="fill:#008B00; fill-rule:nonzero">
   <ellipse  rx="4.4946" ry="4.4946" cx="179.7829" cy="186.5757"/>
  </g>
  <g style="fill:none; stroke:#008B00; stroke-width:  2.6968; stroke-linecap:butt; stroke-linejoin:miter; stroke-dasharray:none">
   <ellipse  rx="4.4946" ry="4.4946" cx="179.7829" cy="186.5757"/>
  </g>
  <g style="fill:#008B00; fill-rule:nonzero">
   <ellipse  rx="4.4946" ry="4.4946" cx="224.7287" cy="196.9057"/>
  </g>
  <g style="fill:none; stroke:#008B00; stroke-width:  2.6968; stroke-linecap:butt; stroke-linejoin:miter; stroke-dasharray:none">
   <ellipse  rx="4.4946" ry="4.4946" cx="224.7287" cy="196.9057"/>
  </g>
  <g style="fill:#008B00; fill-rule:nonzero">
   <ellipse  rx="4.4946" ry="4.4946" cx="224.7287" cy="197.0246"/>
  </g>
  <g style="fill:none; stroke:#008B00; stroke-width:  2.6968; stroke-linecap:butt; stroke-linejoin:miter; stroke-dasharray:none">
   <ellipse  rx="4.4946" ry="4.4946" cx="224.7287" cy="197.0246"/>
  </g>
  <g style="fill:#008B00; fill-rule:nonzero">
   <ellipse  rx="4.4946" ry="4.4946" cx="269.6744" cy="210.4560"/>
  </g>
  <g style="fill:none; stroke:#008B00; stroke-width:  2.6968; stroke-linecap:butt; stroke-linejoin:miter; stroke-dasharray:none">
   <ellipse  rx="4.4946" ry="4.4946" cx="269.6744" cy="210.4560"/>
  </g>
  <g style="fill:#008B00; fill-rule:nonzero">
   <ellipse  rx="4.4946" ry="4.4946" cx="269.6744" cy="210.3370"/>
  </g>
  <g style="fill:none; stroke:#008B00; stroke-width:  2.6968; stroke-linecap:butt; stroke-linejoin:miter; stroke-dasharray:none">
   <ellipse  rx="4.4946" ry="4.4946" cx="269.6744" cy="210.3370"/>
  </g>
  <g style="fill:#008B00; fill-rule:nonzero">
   <ellipse  rx="4.4946" ry="4.4946" cx="314.6201" cy="226.2709"/>
  </g>
  <g style="fill:none; stroke:#008B00; stroke-width:  2.6968; stroke-linecap:butt; stroke-linejoin:miter; stroke-dasharray:none">
   <ellipse  rx="4.4946" ry="4.4946" cx="314.6201" cy="226.2709"/>
  </g>
  <g style="fill:#008B00; fill-rule:nonzero">
   <ellipse  rx="4.4946" ry="4.4946" cx="359.5658" cy="560.0479"/>
  </g>
  <g style="fill:none; stroke:#008B00; stroke-width:  2.6968; stroke-linecap:butt; stroke-linejoin:miter; stroke-dasharray:none">
   <ellipse  rx="4.4946" ry="4.4946" cx="359.5658" cy="560.0479"/>
  </g>
  <g style="fill:#008B00; fill-rule:nonzero">
   <ellipse  rx="4.4946" ry="4.4946" cx="404.5115" cy="558.9341"/>
  </g>
  <g style="fill:none; stroke:#008B00; stroke-width:  2.6968; stroke-linecap:butt; stroke-linejoin:miter; stroke-dasharray:none">
   <ellipse  rx="4.4946" ry="4.4946" cx="404.5115" cy="558.9341"/>
  </g>
  <g style="fill:#008B00; fill-rule:nonzero">
   <ellipse  rx="4.4946" ry="4.4946" cx="449.4572" cy="577.0579"/>
  </g>
  <g style="fill:none; stroke:#008B00; stroke-width:  2.6968; stroke-linecap:butt; stroke-linejoin:miter; stroke-dasharray:none">
   <ellipse  rx="4.4946" ry="4.4946" cx="449.4572" cy="577.0579"/>
  </g>
  <g style="fill:#008B00; fill-rule:nonzero">
   <ellipse  rx="4.4946" ry="4.4946" cx="494.4030" cy="576.7363"/>
  </g>
  <g style="fill:none; stroke:#008B00; stroke-width:  2.6968; stroke-linecap:butt; stroke-linejoin:miter; stroke-dasharray:none">
   <ellipse  rx="4.4946" ry="4.4946" cx="494.4030" cy="576.7363"/>
  </g>
  <g style="fill:#008B00; fill-rule:nonzero">
   <ellipse  rx="4.4946" ry="4.4946" cx="539.3487" cy="600.5729"/>
  </g>
  <g style="fill:none; stroke:#008B00; stroke-width:  2.6968; stroke-linecap:butt; stroke-linejoin:miter; stroke-dasharray:none">
   <ellipse  rx="4.4946" ry="4.4946" cx="539.3487" cy="600.5729"/>
  </g>
  <g style="fill:#008B00; fill-rule:nonzero">
   <ellipse  rx="4.4946" ry="4.4946" cx="584.2944" cy="584.4369"/>
  </g>
  <g style="fill:none; stroke:#008B00; stroke-width:  2.6968; stroke-linecap:butt; stroke-linejoin:miter; stroke-dasharray:none">
   <ellipse  rx="4.4946" ry="4.4946" cx="584.2944" cy="584.4369"/>
  </g>
  <g style="fill:#008B00; fill-rule:nonzero">
   <ellipse  rx="4.4946" ry="4.4946" cx="629.2401" cy="584.2164"/>
  </g>
  <g style="fill:none; stroke:#008B00; stroke-width:  2.6968; stroke-linecap:butt; stroke-linejoin:miter; stroke-dasharray:none">
   <ellipse  rx="4.4946" ry="4.4946" cx="629.2401" cy="584.2164"/>
  </g>
  <g style="fill:#008B00; fill-rule:nonzero">
   <ellipse  rx="4.4946" ry="4.4946" cx="674.1858" cy="624.7657"/>
  </g>
  <g style="fill:none; stroke:#008B00; stroke-width:  2.6968; stroke-linecap:butt; stroke-linejoin:miter; stroke-dasharray:none">
   <ellipse  rx="4.4946" ry="4.4946" cx="674.1858" cy="624.7657"/>
  </g>
  <g style="fill:#008B00; fill-rule:nonzero">
   <ellipse  rx="4.4946" ry="4.4946" cx="719.1315" cy="595.5829"/>
  </g>
  <g style="fill:none; stroke:#008B00; stroke-width:  2.6968; stroke-linecap:butt; stroke-linejoin:miter; stroke-dasharray:none">
   <ellipse  rx="4.4946" ry="4.4946" cx="719.1315" cy="595.5829"/>
  </g>
  <g style="fill:#008B00; fill-rule:nonzero">
   <ellipse  rx="4.4946" ry="4.4946" cx="764.0772" cy="689.4283"/>
  </g>
  <g style="fill:none; stroke:#008B00; stroke-width:  2.6968; stroke-linecap:butt; stroke-linejoin:miter; stroke-dasharray:none">
   <ellipse  rx="4.4946" ry="4.4946" cx="764.0772" cy="689.4283"/>
  </g>
  <g style="fill:#008B00; fill-rule:nonzero">
   <ellipse  rx="4.4946" ry="4.4946" cx="809.0230" cy="652.3289"/>
  </g>
  <g style="fill:none; stroke:#008B00; stroke-width:  2.6968; stroke-linecap:butt; stroke-linejoin:miter; stroke-dasharray:none">
   <ellipse  rx="4.4946" ry="4.4946" cx="809.0230" cy="652.3289"/>
  </g>
  <g style="fill:#008B00; fill-rule:nonzero">
   <ellipse  rx="4.4946" ry="4.4946" cx="853.9687" cy="624.0564"/>
  </g>
  <g style="fill:none; stroke:#008B00; stroke-width:  2.6968; stroke-linecap:butt; stroke-linejoin:miter; stroke-dasharray:none">
   <ellipse  rx="4.4946" ry="4.4946" cx="853.9687" cy="624.0564"/>
  </g>
  <g style="fill:#008B00; fill-rule:nonzero">
   <ellipse  rx="4.4946" ry="4.4946" cx="898.9144" cy="696.9568"/>
  </g>
  <g style="fill:none; stroke:#008B00; stroke-width:  2.6968; stroke-linecap:butt; stroke-linejoin:miter; stroke-dasharray:none">
   <ellipse  rx="4.4946" ry="4.4946" cx="898.9144" cy="696.9568"/>
  </g>
  <g style="fill:#008B00; fill-rule:nonzero">
   <ellipse  rx="4.4946" ry="4.4946" cx="943.8601" cy="721.5897"/>
  </g>
  <g style="fill:none; stroke:#008B00; stroke-width:  2.6968; stroke-linecap:butt; stroke-linejoin:miter; stroke-dasharray:none">
   <ellipse  rx="4.4946" ry="4.4946" cx="943.8601" cy="721.5897"/>
  </g>
  <g style="fill:#008B00; fill-rule:nonzero">
   <ellipse  rx="4.4946" ry="4.4946" cx="988.8058" cy="654.2197"/>
  </g>
  <g style="fill:none; stroke:#008B00; stroke-width:  2.6968; stroke-linecap:butt; stroke-linejoin:miter; stroke-dasharray:none">
   <ellipse  rx="4.4946" ry="4.4946" cx="988.8058" cy="654.2197"/>
  </g>
  <g style="fill:#008B00; fill-rule:nonzero">
   <ellipse  rx="4.4946" ry="4.4946" cx="1033.7515" cy="674.4799"/>
  </g>
  <g style="fill:none; stroke:#008B00; stroke-width:  2.6968; stroke-linecap:butt; stroke-linejoin:miter; stroke-dasharray:none">
   <ellipse  rx="4.4946" ry="4.4946" cx="1033.7515" cy="674.4799"/>
  </g>
  <g style="fill:none; stroke:#008B00; stroke-width:  2.6968; stroke-linecap:butt; stroke-linejoin:miter; stroke-dasharray: 3 8">
   <path d="M179.7829,155.3227L314.6201,200.1526L539.3487,547.4629L584.2944,538.1073L719.1315,541.1837L764.0772,638.5634"/>
  </g>
  <g style="fill:#008B00; fill-rule:nonzero">
   <path  d="M175.9625,151.5023L175.9625,159.1431L183.6034,159.1431L183.6034,151.5023z"/>
  </g>
  <g style="fill:none; stroke:#008B00; stroke-width:  2.6968; stroke-linecap:butt; stroke-linejoin:miter; stroke-dasharray:none">
   <path d="M175.9625,151.5023L175.9625,159.1431L183.6034,159.1431L183.6034,151.5023z"/>
  </g>
  <g style="fill:#008B00; fill-rule:nonzero">
   <path  d="M310.7997,196.3322L310.7997,203.9730L318.4405,203.9730L318.4405,196.3322z"/>
  </g>
  <g style="fill:none; stroke:#008B00; stroke-width:  2.6968; stroke-linecap:butt; stroke-linejoin:miter; stroke-dasharray:none">
   <path d="M310.7997,196.3322L310.7997,203.9730L318.4405,203.9730L318.4405,196.3322z"/>
  </g>
  <g style="fill:#008B00; fill-rule:nonzero">
   <path  d="M535.5283,543.6425L535.5283,551.2833L543.1691,551.2833L543.1691,543.6425z"/>
  </g>
  <g style="fill:none; stroke:#008B00; stroke-width:  2.6968; stroke-linecap:butt; stroke-linejoin:miter; stroke-dasharray:none">
   <path d="M535.5283,543.6425L535.5283,551.2833L543.1691,551.2833L543.1691,543.6425z"/>
  </g>
  <g style="fill:#008B00; fill-rule:nonzero">
   <path  d="M580.4740,534.2869L580.4740,541.9277L588.1148,541.9277L588.1148,534.2869z"/>
  </g>
  <g style="fill:none; stroke:#008B00; stroke-width:  2.6968; stroke-linecap:butt; stroke-linejoin:miter; stroke-dasharray:none">
   <path d="M580.4740,534.2869L580.4740,541.9277L588.1148,541.9277L588.1148,534.2869z"/>
  </g>
  <g style="fill:#008B00; fill-rule:nonzero">
   <path  d="M715.3111,537.3633L715.3111,545.0041L722.9519,545.0041L722.9519,537.3633z"/>
  </g>
  <g style="fill:none; stroke:#008B00; stroke-width:  2.6968; stroke-linecap:butt; stroke-linejoin:miter; stroke-dasharray:none">
   <path d="M715.3111,537.3633L715.3111,545.0041L722.9519,545.0041L722.9519,537.3633z"/>
  </g>
  <g style="fill:#008B00; fill-rule:nonzero">
   <path  d="M760.2568,634.7430L760.2568,642.3838L767.8976,642.3838L767.8976,634.7430z"/>
  </g>
  <g style="fill:none; stroke:#008B00; stroke-width:  2.6968; stroke-linecap:butt; stroke-linejoin:miter; stroke-dasharray:none">
   <path d="M760.2568,634.7430L760.2568,642.3838L767.8976,642.3838L767.8976,634.7430z"/>
  </g>
  <g style="fill:none; stroke:#FF0000; stroke-width:  2.6968; stroke-linecap:butt; stroke-linejoin:miter; stroke-dasharray: 13 8">
   <path d="M179.7829,439.8188L224.7287,481.9206L269.6744,551.2822L314.6201,502.4894L359.5658,573.6524L404.5115,451.8627L449.4572,556.0955L494.4030,514.3945L539.3487,556.6996L584.2944,626.1602
            L629.2401,618.8058L674.1858,640.0719"/>
  </g>
  <g style="fill:#FF0000; fill-rule:nonzero">
   <ellipse  rx="4.4946" ry="4.4946" cx="179.7829" cy="439.8188"/>
  </g>
  <g style="fill:none; stroke:#FF0000; stroke-width:  2.6968; stroke-linecap:butt; stroke-linejoin:miter; stroke-dasharray:none">
   <ellipse  rx="4.4946" ry="4.4946" cx="179.7829" cy="439.8188"/>
  </g>
  <g style="fill:#FF0000; fill-rule:nonzero">
   <ellipse  rx="4.4946" ry="4.4946" cx="224.7287" cy="481.9206"/>
  </g>
  <g style="fill:none; stroke:#FF0000; stroke-width:  2.6968; stroke-linecap:butt; stroke-linejoin:miter; stroke-dasharray:none">
   <ellipse  rx="4.4946" ry="4.4946" cx="224.7287" cy="481.9206"/>
  </g>
  <g style="fill:#FF0000; fill-rule:nonzero">
   <ellipse  rx="4.4946" ry="4.4946" cx="269.6744" cy="551.2822"/>
  </g>
  <g style="fill:none; stroke:#FF0000; stroke-width:  2.6968; stroke-linecap:butt; stroke-linejoin:miter; stroke-dasharray:none">
   <ellipse  rx="4.4946" ry="4.4946" cx="269.6744" cy="551.2822"/>
  </g>
  <g style="fill:#FF0000; fill-rule:nonzero">
   <ellipse  rx="4.4946" ry="4.4946" cx="314.6201" cy="502.4894"/>
  </g>
  <g style="fill:none; stroke:#FF0000; stroke-width:  2.6968; stroke-linecap:butt; stroke-linejoin:miter; stroke-dasharray:none">
   <ellipse  rx="4.4946" ry="4.4946" cx="314.6201" cy="502.4894"/>
  </g>
  <g style="fill:#FF0000; fill-rule:nonzero">
   <ellipse  rx="4.4946" ry="4.4946" cx="359.5658" cy="573.6524"/>
  </g>
  <g style="fill:none; stroke:#FF0000; stroke-width:  2.6968; stroke-linecap:butt; stroke-linejoin:miter; stroke-dasharray:none">
   <ellipse  rx="4.4946" ry="4.4946" cx="359.5658" cy="573.6524"/>
  </g>
  <g style="fill:#FF0000; fill-rule:nonzero">
   <ellipse  rx="4.4946" ry="4.4946" cx="404.5115" cy="451.8627"/>
  </g>
  <g style="fill:none; stroke:#FF0000; stroke-width:  2.6968; stroke-linecap:butt; stroke-linejoin:miter; stroke-dasharray:none">
   <ellipse  rx="4.4946" ry="4.4946" cx="404.5115" cy="451.8627"/>
  </g>
  <g style="fill:#FF0000; fill-rule:nonzero">
   <ellipse  rx="4.4946" ry="4.4946" cx="449.4572" cy="556.0955"/>
  </g>
  <g style="fill:none; stroke:#FF0000; stroke-width:  2.6968; stroke-linecap:butt; stroke-linejoin:miter; stroke-dasharray:none">
   <ellipse  rx="4.4946" ry="4.4946" cx="449.4572" cy="556.0955"/>
  </g>
  <g style="fill:#FF0000; fill-rule:nonzero">
   <ellipse  rx="4.4946" ry="4.4946" cx="494.4030" cy="514.3945"/>
  </g>
  <g style="fill:none; stroke:#FF0000; stroke-width:  2.6968; stroke-linecap:butt; stroke-linejoin:miter; stroke-dasharray:none">
   <ellipse  rx="4.4946" ry="4.4946" cx="494.4030" cy="514.3945"/>
  </g>
  <g style="fill:#FF0000; fill-rule:nonzero">
   <ellipse  rx="4.4946" ry="4.4946" cx="539.3487" cy="556.6996"/>
  </g>
  <g style="fill:none; stroke:#FF0000; stroke-width:  2.6968; stroke-linecap:butt; stroke-linejoin:miter; stroke-dasharray:none">
   <ellipse  rx="4.4946" ry="4.4946" cx="539.3487" cy="556.6996"/>
  </g>
  <g style="fill:#FF0000; fill-rule:nonzero">
   <ellipse  rx="4.4946" ry="4.4946" cx="584.2944" cy="626.1602"/>
  </g>
  <g style="fill:none; stroke:#FF0000; stroke-width:  2.6968; stroke-linecap:butt; stroke-linejoin:miter; stroke-dasharray:none">
   <ellipse  rx="4.4946" ry="4.4946" cx="584.2944" cy="626.1602"/>
  </g>
  <g style="fill:#FF0000; fill-rule:nonzero">
   <ellipse  rx="4.4946" ry="4.4946" cx="629.2401" cy="618.8058"/>
  </g>
  <g style="fill:none; stroke:#FF0000; stroke-width:  2.6968; stroke-linecap:butt; stroke-linejoin:miter; stroke-dasharray:none">
   <ellipse  rx="4.4946" ry="4.4946" cx="629.2401" cy="618.8058"/>
  </g>
  <g style="fill:#FF0000; fill-rule:nonzero">
   <ellipse  rx="4.4946" ry="4.4946" cx="674.1858" cy="640.0719"/>
  </g>
  <g style="fill:none; stroke:#FF0000; stroke-width:  2.6968; stroke-linecap:butt; stroke-linejoin:miter; stroke-dasharray:none">
   <ellipse  rx="4.4946" ry="4.4946" cx="674.1858" cy="640.0719"/>
  </g>
  <g style="fill:none; stroke:#FF0000; stroke-width:  2.6968; stroke-linecap:butt; stroke-linejoin:miter; stroke-dasharray: 3 8">
   <path d="M179.7829,417.2464L224.7287,448.8542"/>
  </g>
  <g style="fill:#FF0000; fill-rule:nonzero">
   <path  d="M175.9625,413.4260L175.9625,421.0668L183.6034,421.0668L183.6034,413.4260z"/>
  </g>
  <g style="fill:none; stroke:#FF0000; stroke-width:  2.6968; stroke-linecap:butt; stroke-linejoin:miter; stroke-dasharray:none">
   <path d="M175.9625,413.4260L175.9625,421.0668L183.6034,421.0668L183.6034,413.4260z"/>
  </g>
  <g style="fill:#FF0000; fill-rule:nonzero">
   <path  d="M220.9083,445.0337L220.9083,452.6746L228.5491,452.6746L228.5491,445.0337z"/>
  </g>
  <g style="fill:none; stroke:#FF0000; stroke-width:  2.6968; stroke-linecap:butt; stroke-linejoin:miter; stroke-dasharray:none">
   <path d="M220.9083,445.0337L220.9083,452.6746L228.5491,452.6746L228.5491,445.0337z"/>
  </g>
  <g style="fill:none; stroke:#000000; stroke-width:  2.6968; stroke-linecap:butt; stroke-linejoin:miter; stroke-dasharray:none">
   <path d="M134.8372,134.8380L1033.7515,134.8380"/>
   <path d="M134.8372,764.0820L1033.7515,764.0820"/>
   <path d="M179.7829,134.8380L179.7829,143.8272"/>
   <path d="M179.7829,764.0820L179.7829,755.0928"/>
   <path d="M269.6744,134.8380L269.6744,143.8272"/>
   <path d="M269.6744,764.0820L269.6744,755.0928"/>
   <path d="M359.5658,134.8380L359.5658,143.8272"/>
   <path d="M359.5658,764.0820L359.5658,755.0928"/>
   <path d="M449.4572,134.8380L449.4572,143.8272"/>
   <path d="M449.4572,764.0820L449.4572,755.0928"/>
   <path d="M539.3487,134.8380L539.3487,143.8272"/>
   <path d="M539.3487,764.0820L539.3487,755.0928"/>
   <path d="M629.2401,134.8380L629.2401,143.8272"/>
   <path d="M629.2401,764.0820L629.2401,755.0928"/>
   <path d="M719.1315,134.8380L719.1315,143.8272"/>
   <path d="M719.1315,764.0820L719.1315,755.0928"/>
   <path d="M809.0230,134.8380L809.0230,143.8272"/>
   <path d="M809.0230,764.0820L809.0230,755.0928"/>
   <path d="M898.9144,134.8380L898.9144,143.8272"/>
   <path d="M898.9144,764.0820L898.9144,755.0928"/>
   <path d="M988.8058,134.8380L988.8058,143.8272"/>
   <path d="M988.8058,764.0820L988.8058,755.0928"/>
   <path d="M134.8372,134.8380L134.8372,148.3218"/>
   <path d="M134.8372,764.0820L134.8372,750.5982"/>
   <path d="M224.7287,134.8380L224.7287,148.3218"/>
   <path d="M224.7287,764.0820L224.7287,750.5982"/>
   <path d="M314.6201,134.8380L314.6201,148.3218"/>
   <path d="M314.6201,764.0820L314.6201,750.5982"/>
   <path d="M404.5115,134.8380L404.5115,148.3218"/>
   <path d="M404.5115,764.0820L404.5115,750.5982"/>
   <path d="M494.4030,134.8380L494.4030,148.3218"/>
   <path d="M494.4030,764.0820L494.4030,750.5982"/>
   <path d="M584.2944,134.8380L584.2944,148.3218"/>
   <path d="M584.2944,764.0820L584.2944,750.5982"/>
   <path d="M674.1858,134.8380L674.1858,148.3218"/>
   <path d="M674.1858,764.0820L674.1858,750.5982"/>
   <path d="M764.0772,134.8380L764.0772,148.3218"/>
   <path d="M764.0772,764.0820L764.0772,750.5982"/>
   <path d="M853.9687,134.8380L853.9687,148.3218"/>
   <path d="M853.9687,764.0820L853.9687,750.5982"/>
   <path d="M943.8601,134.8380L943.8601,148.3218"/>
   <path d="M943.8601,764.0820L943.8601,750.5982"/>
   <path d="M1033.7515,134.8380L1033.7515,148.3218"/>
   <path d="M1033.7515,764.0820L1033.7515,750.5982"/>
  </g>
  <g style="fill:#000000; fill-rule:nonzero">
   <text   style="font-family:'Times','Nimbus Roman No9 L'; font-style:normal; font-weight:bold; font-size:898.9200" transform="matrix(0.0280,0.0000,-0.0000,-0.0280,128.8972,108.5688)">0</text>
   <text   style="font-family:'Times','Nimbus Roman No9 L'; font-style:normal; font-weight:bold; font-size:898.9200" transform="matrix(0.0280,0.0000,-0.0000,-0.0280,218.7887,108.5688)">2</text>
   <text   style="font-family:'Times','Nimbus Roman No9 L'; font-style:normal; font-weight:bold; font-size:898.9200" transform="matrix(0.0280,0.0000,-0.0000,-0.0280,308.6801,108.5688)">4</text>
   <text   style="font-family:'Times','Nimbus Roman No9 L'; font-style:normal; font-weight:bold; font-size:898.9200" transform="matrix(0.0280,0.0000,-0.0000,-0.0280,398.5715,108.5688)">6</text>
   <text   style="font-family:'Times','Nimbus Roman No9 L'; font-style:normal; font-weight:bold; font-size:898.9200" transform="matrix(0.0280,0.0000,-0.0000,-0.0280,488.4630,108.5688)">8</text>
   <text   style="font-family:'Times','Nimbus Roman No9 L'; font-style:normal; font-weight:bold; font-size:898.9200" transform="matrix(0.0280,0.0000,-0.0000,-0.0280,572.0544,108.5688)">10</text>
   <text   style="font-family:'Times','Nimbus Roman No9 L'; font-style:normal; font-weight:bold; font-size:898.9200" transform="matrix(0.0280,0.0000,-0.0000,-0.0280,661.9458,108.5688)">12</text>
   <text   style="font-family:'Times','Nimbus Roman No9 L'; font-style:normal; font-weight:bold; font-size:898.9200" transform="matrix(0.0280,0.0000,-0.0000,-0.0280,751.8372,108.5688)">14</text>
   <text   style="font-family:'Times','Nimbus Roman No9 L'; font-style:normal; font-weight:bold; font-size:898.9200" transform="matrix(0.0280,0.0000,-0.0000,-0.0280,841.7287,108.5688)">16</text>
   <text   style="font-family:'Times','Nimbus Roman No9 L'; font-style:normal; font-weight:bold; font-size:898.9200" transform="matrix(0.0280,0.0000,-0.0000,-0.0280,931.6201,108.5688)">18</text>
   <text   style="font-family:'Times','Nimbus Roman No9 L'; font-style:normal; font-weight:bold; font-size:898.9200" transform="matrix(0.0280,0.0000,-0.0000,-0.0280,1021.5115,108.5688)">20</text>
   <text   style="font-family:'Times','Nimbus Roman No9 L'; font-style:normal; font-weight:bold; font-size:898.9200" transform="matrix(0.0280,0.0000,-0.0000,-0.0280,469.0944,81.9396)">Number of Hydrogen</text>
  </g>
  <g style="fill:none; stroke:#000000; stroke-width:  1.3484; stroke-linecap:butt; stroke-linejoin:miter; stroke-dasharray:none">
   <path d="M134.8372,134.8380L134.8372,764.0820"/>
   <path d="M1033.7515,134.8380L1033.7515,764.0820"/>
  </g>
  <g style="fill:none; stroke:#000000; stroke-width:  2.6968; stroke-linecap:butt; stroke-linejoin:miter; stroke-dasharray:none">
   <path d="M134.8372,161.0565L139.3318,161.0565"/>
   <path d="M1033.7515,161.0565L1029.2569,161.0565"/>
   <path d="M134.8372,213.4935L139.3318,213.4935"/>
   <path d="M1033.7515,213.4935L1029.2569,213.4935"/>
   <path d="M134.8372,265.9305L139.3318,265.9305"/>
   <path d="M1033.7515,265.9305L1029.2569,265.9305"/>
   <path d="M134.8372,318.3675L139.3318,318.3675"/>
   <path d="M1033.7515,318.3675L1029.2569,318.3675"/>
   <path d="M134.8372,370.8045L139.3318,370.8045"/>
   <path d="M1033.7515,370.8045L1029.2569,370.8045"/>
   <path d="M134.8372,423.2415L139.3318,423.2415"/>
   <path d="M1033.7515,423.2415L1029.2569,423.2415"/>
   <path d="M134.8372,475.6785L139.3318,475.6785"/>
   <path d="M1033.7515,475.6785L1029.2569,475.6785"/>
   <path d="M134.8372,528.1155L139.3318,528.1155"/>
   <path d="M1033.7515,528.1155L1029.2569,528.1155"/>
   <path d="M134.8372,580.5525L139.3318,580.5525"/>
   <path d="M1033.7515,580.5525L1029.2569,580.5525"/>
   <path d="M134.8372,632.9895L139.3318,632.9895"/>
   <path d="M1033.7515,632.9895L1029.2569,632.9895"/>
   <path d="M134.8372,685.4265L139.3318,685.4265"/>
   <path d="M1033.7515,685.4265L1029.2569,685.4265"/>
   <path d="M134.8372,737.8635L139.3318,737.8635"/>
   <path d="M1033.7515,737.8635L1029.2569,737.8635"/>
   <path d="M134.8372,134.8380L148.3210,134.8380"/>
   <path d="M1033.7515,134.8380L1020.2677,134.8380"/>
   <path d="M134.8372,187.2750L148.3210,187.2750"/>
   <path d="M1033.7515,187.2750L1020.2677,187.2750"/>
   <path d="M134.8372,239.7120L148.3210,239.7120"/>
   <path d="M1033.7515,239.7120L1020.2677,239.7120"/>
   <path d="M134.8372,292.1490L148.3210,292.1490"/>
   <path d="M1033.7515,292.1490L1020.2677,292.1490"/>
   <path d="M134.8372,344.5860L148.3210,344.5860"/>
   <path d="M1033.7515,344.5860L1020.2677,344.5860"/>
   <path d="M134.8372,397.0230L148.3210,397.0230"/>
   <path d="M1033.7515,397.0230L1020.2677,397.0230"/>
   <path d="M134.8372,449.4600L148.3210,449.4600"/>
   <path d="M1033.7515,449.4600L1020.2677,449.4600"/>
   <path d="M134.8372,501.8970L148.3210,501.8970"/>
   <path d="M1033.7515,501.8970L1020.2677,501.8970"/>
   <path d="M134.8372,554.3340L148.3210,554.3340"/>
   <path d="M1033.7515,554.3340L1020.2677,554.3340"/>
   <path d="M134.8372,606.7710L148.3210,606.7710"/>
   <path d="M1033.7515,606.7710L1020.2677,606.7710"/>
   <path d="M134.8372,659.2080L148.3210,659.2080"/>
   <path d="M1033.7515,659.2080L1020.2677,659.2080"/>
   <path d="M134.8372,711.6450L148.3210,711.6450"/>
   <path d="M1033.7515,711.6450L1020.2677,711.6450"/>
  </g>
  <g style="fill:#000000; fill-rule:nonzero">
   <text   style="font-family:'Times','Nimbus Roman No9 L'; font-style:normal; font-weight:bold; font-size:898.9200" transform="matrix(0.0280,0.0000,-0.0000,-0.0280,86.6080,126.3780)">-0.5</text>
   <text   style="font-family:'Times','Nimbus Roman No9 L'; font-style:normal; font-weight:bold; font-size:898.9200" transform="matrix(0.0280,0.0000,-0.0000,-0.0280,86.6080,178.8150)">-0.4</text>
   <text   style="font-family:'Times','Nimbus Roman No9 L'; font-style:normal; font-weight:bold; font-size:898.9200" transform="matrix(0.0280,0.0000,-0.0000,-0.0280,86.6080,231.2520)">-0.3</text>
   <text   style="font-family:'Times','Nimbus Roman No9 L'; font-style:normal; font-weight:bold; font-size:898.9200" transform="matrix(0.0280,0.0000,-0.0000,-0.0280,86.6080,283.6890)">-0.2</text>
   <text   style="font-family:'Times','Nimbus Roman No9 L'; font-style:normal; font-weight:bold; font-size:898.9200" transform="matrix(0.0280,0.0000,-0.0000,-0.0280,87.3280,336.1260)">-0.1</text>
   <text   style="font-family:'Times','Nimbus Roman No9 L'; font-style:normal; font-weight:bold; font-size:898.9200" transform="matrix(0.0280,0.0000,-0.0000,-0.0280,113.9680,388.5630)">0</text>
   <text   style="font-family:'Times','Nimbus Roman No9 L'; font-style:normal; font-weight:bold; font-size:898.9200" transform="matrix(0.0280,0.0000,-0.0000,-0.0280,95.9680,441.0000)">0.1</text>
   <text   style="font-family:'Times','Nimbus Roman No9 L'; font-style:normal; font-weight:bold; font-size:898.9200" transform="matrix(0.0280,0.0000,-0.0000,-0.0280,95.2480,493.4370)">0.2</text>
   <text   style="font-family:'Times','Nimbus Roman No9 L'; font-style:normal; font-weight:bold; font-size:898.9200" transform="matrix(0.0280,0.0000,-0.0000,-0.0280,95.2480,545.8740)">0.3</text>
   <text   style="font-family:'Times','Nimbus Roman No9 L'; font-style:normal; font-weight:bold; font-size:898.9200" transform="matrix(0.0280,0.0000,-0.0000,-0.0280,95.2480,598.3110)">0.4</text>
   <text   style="font-family:'Times','Nimbus Roman No9 L'; font-style:normal; font-weight:bold; font-size:898.9200" transform="matrix(0.0280,0.0000,-0.0000,-0.0280,95.2480,650.7480)">0.5</text>
   <text   style="font-family:'Times','Nimbus Roman No9 L'; font-style:normal; font-weight:bold; font-size:898.9200" transform="matrix(0.0280,0.0000,-0.0000,-0.0280,95.2480,703.1850)">0.6</text>
   <text   style="font-family:'Times','Nimbus Roman No9 L'; font-style:normal; font-weight:bold; font-size:898.9200" transform="matrix(0.0000,0.0280,0.0280,-0.0000,72.2188,222.1200)">Differential Gibbs Free Energy per H (eV)</text>
  </g>
  <g style="fill:none; stroke:#000000; stroke-width:  2.6968; stroke-linecap:butt; stroke-linejoin:miter; stroke-dasharray:none">
   <path d="M134.8372,134.8380L134.8372,764.0820L1033.7515,764.0820L1033.7515,134.8380z"/>
  </g>
  <g style="fill:#FFFFFF; fill-rule:nonzero">
   <path  d="M764.0772,317.7602L764.0772,161.9826L991.5938,161.9826L991.5938,317.7602z"/>
  </g>
  <g style="fill:none; stroke:#000000; stroke-width:  2.6968; stroke-linecap:butt; stroke-linejoin:miter; stroke-dasharray:none">
   <path d="M764.0772,317.7602L764.0772,161.9826L991.5938,161.9826L991.5938,317.7602z"/>
  </g>
  <g style="fill:#000000; fill-rule:nonzero">
   <text   style="font-family:'Times','Nimbus Roman No9 L'; font-style:normal; font-weight:bold; font-size:898.9200" transform="matrix(0.0280,0.0000,-0.0000,-0.0280,832.8446,291.4910)">Ni</text>
   <text   style="font-family:'Times','Nimbus Roman No9 L'; font-style:normal; font-weight:bold; font-size:898.9200" transform="matrix(0.0198,0.0000,-0.0000,-0.0198,858.0446,281.4231)">3</text>
   <text   style="font-family:'Times','Nimbus Roman No9 L'; font-style:normal; font-weight:bold; font-size:898.9200" transform="matrix(0.0280,0.0000,-0.0000,-0.0280,867.0446,291.4910)">P</text>
   <text   style="font-family:'Times','Nimbus Roman No9 L'; font-style:normal; font-weight:bold; font-size:898.9200" transform="matrix(0.0198,0.0000,-0.0000,-0.0198,882.5246,281.4231)">2</text>
  </g>
  <g style="fill:none; stroke:#008B00; stroke-width:  2.6968; stroke-linecap:butt; stroke-linejoin:miter; stroke-dasharray: 13 8">
   <path d="M778.9094,294.9171L814.8662,294.9171"/>
  </g>
  <g style="fill:#008B00; fill-rule:nonzero">
   <ellipse  rx="4.4946" ry="4.4946" cx="778.9094" cy="294.9171"/>
  </g>
  <g style="fill:none; stroke:#008B00; stroke-width:  2.6968; stroke-linecap:butt; stroke-linejoin:miter; stroke-dasharray:none">
   <ellipse  rx="4.4946" ry="4.4946" cx="778.9094" cy="294.9171"/>
  </g>
  <g style="fill:#008B00; fill-rule:nonzero">
   <ellipse  rx="4.4946" ry="4.4946" cx="814.8662" cy="294.9171"/>
  </g>
  <g style="fill:none; stroke:#008B00; stroke-width:  2.6968; stroke-linecap:butt; stroke-linejoin:miter; stroke-dasharray:none">
   <ellipse  rx="4.4946" ry="4.4946" cx="814.8662" cy="294.9171"/>
  </g>
  <g style="fill:#000000; fill-rule:nonzero">
   <text   style="font-family:'Times','Nimbus Roman No9 L'; font-style:normal; font-weight:bold; font-size:898.9200" transform="matrix(0.0280,0.0000,-0.0000,-0.0280,832.8446,254.7939)">Ni</text>
   <text   style="font-family:'Times','Nimbus Roman No9 L'; font-style:normal; font-weight:bold; font-size:898.9200" transform="matrix(0.0198,0.0000,-0.0000,-0.0198,858.0446,244.7260)">3</text>
   <text   style="font-family:'Times','Nimbus Roman No9 L'; font-style:normal; font-weight:bold; font-size:898.9200" transform="matrix(0.0280,0.0000,-0.0000,-0.0280,867.0446,254.7939)">P</text>
   <text   style="font-family:'Times','Nimbus Roman No9 L'; font-style:normal; font-weight:bold; font-size:898.9200" transform="matrix(0.0198,0.0000,-0.0000,-0.0198,882.5246,244.7260)">2</text>
   <text   style="font-family:'Times','Nimbus Roman No9 L'; font-style:normal; font-weight:bold; font-size:898.9200" transform="matrix(0.0280,0.0000,-0.0000,-0.0280,891.5246,254.7939)"> D3</text>
  </g>
  <g style="fill:none; stroke:#008B00; stroke-width:  2.6968; stroke-linecap:butt; stroke-linejoin:miter; stroke-dasharray: 3 8">
   <path d="M778.9094,258.2200L814.8662,258.2200"/>
  </g>
  <g style="fill:#008B00; fill-rule:nonzero">
   <path  d="M775.0890,254.3996L775.0890,262.0404L782.7298,262.0404L782.7298,254.3996z"/>
  </g>
  <g style="fill:none; stroke:#008B00; stroke-width:  2.6968; stroke-linecap:butt; stroke-linejoin:miter; stroke-dasharray:none">
   <path d="M775.0890,254.3996L775.0890,262.0404L782.7298,262.0404L782.7298,254.3996z"/>
  </g>
  <g style="fill:#008B00; fill-rule:nonzero">
   <path  d="M811.0458,254.3996L811.0458,262.0404L818.6866,262.0404L818.6866,254.3996z"/>
  </g>
  <g style="fill:none; stroke:#008B00; stroke-width:  2.6968; stroke-linecap:butt; stroke-linejoin:miter; stroke-dasharray:none">
   <path d="M811.0458,254.3996L811.0458,262.0404L818.6866,262.0404L818.6866,254.3996z"/>
  </g>
  <g style="fill:#000000; fill-rule:nonzero">
   <text   style="font-family:'Times','Nimbus Roman No9 L'; font-style:normal; font-weight:bold; font-size:898.9200" transform="matrix(0.0280,0.0000,-0.0000,-0.0280,832.8446,218.0968)">Ni</text>
   <text   style="font-family:'Times','Nimbus Roman No9 L'; font-style:normal; font-weight:bold; font-size:898.9200" transform="matrix(0.0198,0.0000,-0.0000,-0.0198,858.0446,208.0289)">3</text>
   <text   style="font-family:'Times','Nimbus Roman No9 L'; font-style:normal; font-weight:bold; font-size:898.9200" transform="matrix(0.0280,0.0000,-0.0000,-0.0280,867.0446,218.0968)">P</text>
   <text   style="font-family:'Times','Nimbus Roman No9 L'; font-style:normal; font-weight:bold; font-size:898.9200" transform="matrix(0.0198,0.0000,-0.0000,-0.0198,882.5246,208.0289)">2</text>
   <text   style="font-family:'Times','Nimbus Roman No9 L'; font-style:normal; font-weight:bold; font-size:898.9200" transform="matrix(0.0280,0.0000,-0.0000,-0.0280,891.5246,218.0968)">+ 4P</text>
  </g>
  <g style="fill:none; stroke:#FF0000; stroke-width:  2.6968; stroke-linecap:butt; stroke-linejoin:miter; stroke-dasharray: 13 8">
   <path d="M778.9094,221.5229L814.8662,221.5229"/>
  </g>
  <g style="fill:#FF0000; fill-rule:nonzero">
   <ellipse  rx="4.4946" ry="4.4946" cx="778.9094" cy="221.5229"/>
  </g>
  <g style="fill:none; stroke:#FF0000; stroke-width:  2.6968; stroke-linecap:butt; stroke-linejoin:miter; stroke-dasharray:none">
   <ellipse  rx="4.4946" ry="4.4946" cx="778.9094" cy="221.5229"/>
  </g>
  <g style="fill:#FF0000; fill-rule:nonzero">
   <ellipse  rx="4.4946" ry="4.4946" cx="814.8662" cy="221.5229"/>
  </g>
  <g style="fill:none; stroke:#FF0000; stroke-width:  2.6968; stroke-linecap:butt; stroke-linejoin:miter; stroke-dasharray:none">
   <ellipse  rx="4.4946" ry="4.4946" cx="814.8662" cy="221.5229"/>
  </g>
  <g style="fill:#000000; fill-rule:nonzero">
   <text   style="font-family:'Times','Nimbus Roman No9 L'; font-style:normal; font-weight:bold; font-size:898.9200" transform="matrix(0.0280,0.0000,-0.0000,-0.0280,832.8446,181.3997)">Ni</text>
   <text   style="font-family:'Times','Nimbus Roman No9 L'; font-style:normal; font-weight:bold; font-size:898.9200" transform="matrix(0.0198,0.0000,-0.0000,-0.0198,858.0446,171.3318)">3</text>
   <text   style="font-family:'Times','Nimbus Roman No9 L'; font-style:normal; font-weight:bold; font-size:898.9200" transform="matrix(0.0280,0.0000,-0.0000,-0.0280,867.0446,181.3997)">P</text>
   <text   style="font-family:'Times','Nimbus Roman No9 L'; font-style:normal; font-weight:bold; font-size:898.9200" transform="matrix(0.0198,0.0000,-0.0000,-0.0198,882.5246,171.3318)">2</text>
   <text   style="font-family:'Times','Nimbus Roman No9 L'; font-style:normal; font-weight:bold; font-size:898.9200" transform="matrix(0.0280,0.0000,-0.0000,-0.0280,891.5246,181.3997)"> + 4P D3</text>
  </g>
  <g style="fill:none; stroke:#FF0000; stroke-width:  2.6968; stroke-linecap:butt; stroke-linejoin:miter; stroke-dasharray: 3 8">
   <path d="M778.9094,184.8258L814.8662,184.8258"/>
  </g>
  <g style="fill:#FF0000; fill-rule:nonzero">
   <path  d="M775.0890,181.0054L775.0890,188.6462L782.7298,188.6462L782.7298,181.0054z"/>
  </g>
  <g style="fill:none; stroke:#FF0000; stroke-width:  2.6968; stroke-linecap:butt; stroke-linejoin:miter; stroke-dasharray:none">
   <path d="M775.0890,181.0054L775.0890,188.6462L782.7298,188.6462L782.7298,181.0054z"/>
  </g>
  <g style="fill:#FF0000; fill-rule:nonzero">
   <path  d="M811.0458,181.0054L811.0458,188.6462L818.6866,188.6462L818.6866,181.0054z"/>
  </g>
  <g style="fill:none; stroke:#FF0000; stroke-width:  2.6968; stroke-linecap:butt; stroke-linejoin:miter; stroke-dasharray:none">
   <path d="M811.0458,181.0054L811.0458,188.6462L818.6866,188.6462L818.6866,181.0054z"/>
  </g>
  <g style="fill:#008B00; fill-rule:nonzero">
   <text   style="font-family:'Times','Nimbus Roman No9 L'; font-style:normal; font-weight:bold; font-size:898.9200" transform="matrix(0.0280,0.0000,-0.0000,-0.0280,485.4360,309.8732)">n   </text>
   <text   style="font-family:'Symbol','Standard Symbols L'; font-style:normal; font-weight:normal; font-size:898.9200" transform="matrix(0.0280,0.0000,-0.0000,-0.0280,518.1960,309.8732)">D</text>
   <text   style="font-family:'Times','Nimbus Roman No9 L'; font-style:normal; font-weight:bold; font-size:898.9200" transform="matrix(0.0280,0.0000,-0.0000,-0.0280,533.6760,309.8732)">E (eV)</text>
   <text   style="font-family:'Times','Nimbus Roman No9 L'; font-style:normal; font-weight:bold; font-size:898.9200" transform="matrix(0.0280,0.0000,-0.0000,-0.0280,485.4360,284.7034)">1   0.06</text>
   <text   style="font-family:'Times','Nimbus Roman No9 L'; font-style:normal; font-weight:bold; font-size:898.9200" transform="matrix(0.0280,0.0000,-0.0000,-0.0280,485.4360,259.5336)">4   0.05</text>
   <text   style="font-family:'Times','Nimbus Roman No9 L'; font-style:normal; font-weight:bold; font-size:898.9200" transform="matrix(0.0280,0.0000,-0.0000,-0.0280,485.4360,234.3639)">9   0.1</text>
   <text   style="font-family:'Times','Nimbus Roman No9 L'; font-style:normal; font-weight:bold; font-size:898.9200" transform="matrix(0.0280,0.0000,-0.0000,-0.0280,485.4360,209.1941)">10 0.09</text>
   <text   style="font-family:'Times','Nimbus Roman No9 L'; font-style:normal; font-weight:bold; font-size:898.9200" transform="matrix(0.0280,0.0000,-0.0000,-0.0280,485.4360,184.0244)">13 0.1</text>
   <text   style="font-family:'Times','Nimbus Roman No9 L'; font-style:normal; font-weight:bold; font-size:898.9200" transform="matrix(0.0280,0.0000,-0.0000,-0.0280,485.4360,158.8546)">14 0.1</text>
  </g>
  <g style="fill:#FF0000; fill-rule:nonzero">
   <text   style="font-family:'Times','Nimbus Roman No9 L'; font-style:normal; font-weight:bold; font-size:898.9200" transform="matrix(0.0280,0.0000,-0.0000,-0.0280,194.7500,698.4138)">n   </text>
   <text   style="font-family:'Symbol','Standard Symbols L'; font-style:normal; font-weight:normal; font-size:898.9200" transform="matrix(0.0280,0.0000,-0.0000,-0.0280,227.5100,698.4138)">D</text>
   <text   style="font-family:'Times','Nimbus Roman No9 L'; font-style:normal; font-weight:bold; font-size:898.9200" transform="matrix(0.0280,0.0000,-0.0000,-0.0280,242.9900,698.4138)">E (eV)</text>
   <text   style="font-family:'Times','Nimbus Roman No9 L'; font-style:normal; font-weight:bold; font-size:898.9200" transform="matrix(0.0280,0.0000,-0.0000,-0.0280,194.7500,673.2441)">1   0.04</text>
   <text   style="font-family:'Times','Nimbus Roman No9 L'; font-style:normal; font-weight:bold; font-size:898.9200" transform="matrix(0.0280,0.0000,-0.0000,-0.0280,194.7500,648.0743)">2   0.06</text>
  </g>
 </g>
</svg>
