<?xml version="1.0" encoding="ISO-8859-1"?>
<!DOCTYPE svg PUBLIC "-//W3C//DTD SVG 1.0//EN" "http://www.w3.org/TR/2001/REC-SVG-20010904/DTD/svg10.dtd">
<!-- generated by Grace-5.1.25 -->
<svg xml:space="preserve" width="16.1550in" height="12.4850in" viewBox="0.0000 0.0000 1163.1600 898.9200">
 <g transform="translate(0,898.9200) scale(1,-1)">
  <g style="fill:#FFFFFF; fill-rule:nonzero">
   <path  d="M0.0000,0.0000L0.0000,898.9200L1163.1601,898.9200L1163.1601,0.0000z"/>
  </g>
  <defs>
   <pattern id="pattern4" viewBox="0 0 16 16" width="16" height="16" patternUnits="userSpaceOnUse">
     <rect fill="#FFFFFF" x="0" y="0" width="16" height="16"/>
     <rect x="0" y="15" width="1" height="1"/>
     <rect x="2" y="15" width="1" height="1"/>
     <rect x="4" y="15" width="1" height="1"/>
     <rect x="6" y="15" width="1" height="1"/>
     <rect x="8" y="15" width="1" height="1"/>
     <rect x="10" y="15" width="1" height="1"/>
     <rect x="12" y="15" width="1" height="1"/>
     <rect x="14" y="15" width="1" height="1"/>
     <rect x="1" y="14" width="1" height="1"/>
     <rect x="3" y="14" width="1" height="1"/>
     <rect x="5" y="14" width="1" height="1"/>
     <rect x="7" y="14" width="1" height="1"/>
     <rect x="9" y="14" width="1" height="1"/>
     <rect x="11" y="14" width="1" height="1"/>
     <rect x="13" y="14" width="1" height="1"/>
     <rect x="15" y="14" width="1" height="1"/>
     <rect x="0" y="13" width="1" height="1"/>
     <rect x="2" y="13" width="1" height="1"/>
     <rect x="4" y="13" width="1" height="1"/>
     <rect x="6" y="13" width="1" height="1"/>
     <rect x="8" y="13" width="1" height="1"/>
     <rect x="10" y="13" width="1" height="1"/>
     <rect x="12" y="13" width="1" height="1"/>
     <rect x="14" y="13" width="1" height="1"/>
     <rect x="1" y="12" width="1" height="1"/>
     <rect x="3" y="12" width="1" height="1"/>
     <rect x="5" y="12" width="1" height="1"/>
     <rect x="7" y="12" width="1" height="1"/>
     <rect x="9" y="12" width="1" height="1"/>
     <rect x="11" y="12" width="1" height="1"/>
     <rect x="13" y="12" width="1" height="1"/>
     <rect x="15" y="12" width="1" height="1"/>
     <rect x="0" y="11" width="1" height="1"/>
     <rect x="2" y="11" width="1" height="1"/>
     <rect x="4" y="11" width="1" height="1"/>
     <rect x="6" y="11" width="1" height="1"/>
     <rect x="8" y="11" width="1" height="1"/>
     <rect x="10" y="11" width="1" height="1"/>
     <rect x="12" y="11" width="1" height="1"/>
     <rect x="14" y="11" width="1" height="1"/>
     <rect x="1" y="10" width="1" height="1"/>
     <rect x="3" y="10" width="1" height="1"/>
     <rect x="5" y="10" width="1" height="1"/>
     <rect x="7" y="10" width="1" height="1"/>
     <rect x="9" y="10" width="1" height="1"/>
     <rect x="11" y="10" width="1" height="1"/>
     <rect x="13" y="10" width="1" height="1"/>
     <rect x="15" y="10" width="1" height="1"/>
     <rect x="0" y="9" width="1" height="1"/>
     <rect x="2" y="9" width="1" height="1"/>
     <rect x="4" y="9" width="1" height="1"/>
     <rect x="6" y="9" width="1" height="1"/>
     <rect x="8" y="9" width="1" height="1"/>
     <rect x="10" y="9" width="1" height="1"/>
     <rect x="12" y="9" width="1" height="1"/>
     <rect x="14" y="9" width="1" height="1"/>
     <rect x="1" y="8" width="1" height="1"/>
     <rect x="3" y="8" width="1" height="1"/>
     <rect x="5" y="8" width="1" height="1"/>
     <rect x="7" y="8" width="1" height="1"/>
     <rect x="9" y="8" width="1" height="1"/>
     <rect x="11" y="8" width="1" height="1"/>
     <rect x="13" y="8" width="1" height="1"/>
     <rect x="15" y="8" width="1" height="1"/>
     <rect x="0" y="7" width="1" height="1"/>
     <rect x="2" y="7" width="1" height="1"/>
     <rect x="4" y="7" width="1" height="1"/>
     <rect x="6" y="7" width="1" height="1"/>
     <rect x="8" y="7" width="1" height="1"/>
     <rect x="10" y="7" width="1" height="1"/>
     <rect x="12" y="7" width="1" height="1"/>
     <rect x="14" y="7" width="1" height="1"/>
     <rect x="1" y="6" width="1" height="1"/>
     <rect x="3" y="6" width="1" height="1"/>
     <rect x="5" y="6" width="1" height="1"/>
     <rect x="7" y="6" width="1" height="1"/>
     <rect x="9" y="6" width="1" height="1"/>
     <rect x="11" y="6" width="1" height="1"/>
     <rect x="13" y="6" width="1" height="1"/>
     <rect x="15" y="6" width="1" height="1"/>
     <rect x="0" y="5" width="1" height="1"/>
     <rect x="2" y="5" width="1" height="1"/>
     <rect x="4" y="5" width="1" height="1"/>
     <rect x="6" y="5" width="1" height="1"/>
     <rect x="8" y="5" width="1" height="1"/>
     <rect x="10" y="5" width="1" height="1"/>
     <rect x="12" y="5" width="1" height="1"/>
     <rect x="14" y="5" width="1" height="1"/>
     <rect x="1" y="4" width="1" height="1"/>
     <rect x="3" y="4" width="1" height="1"/>
     <rect x="5" y="4" width="1" height="1"/>
     <rect x="7" y="4" width="1" height="1"/>
     <rect x="9" y="4" width="1" height="1"/>
     <rect x="11" y="4" width="1" height="1"/>
     <rect x="13" y="4" width="1" height="1"/>
     <rect x="15" y="4" width="1" height="1"/>
     <rect x="0" y="3" width="1" height="1"/>
     <rect x="2" y="3" width="1" height="1"/>
     <rect x="4" y="3" width="1" height="1"/>
     <rect x="6" y="3" width="1" height="1"/>
     <rect x="8" y="3" width="1" height="1"/>
     <rect x="10" y="3" width="1" height="1"/>
     <rect x="12" y="3" width="1" height="1"/>
     <rect x="14" y="3" width="1" height="1"/>
     <rect x="1" y="2" width="1" height="1"/>
     <rect x="3" y="2" width="1" height="1"/>
     <rect x="5" y="2" width="1" height="1"/>
     <rect x="7" y="2" width="1" height="1"/>
     <rect x="9" y="2" width="1" height="1"/>
     <rect x="11" y="2" width="1" height="1"/>
     <rect x="13" y="2" width="1" height="1"/>
     <rect x="15" y="2" width="1" height="1"/>
     <rect x="0" y="1" width="1" height="1"/>
     <rect x="2" y="1" width="1" height="1"/>
     <rect x="4" y="1" width="1" height="1"/>
     <rect x="6" y="1" width="1" height="1"/>
     <rect x="8" y="1" width="1" height="1"/>
     <rect x="10" y="1" width="1" height="1"/>
     <rect x="12" y="1" width="1" height="1"/>
     <rect x="14" y="1" width="1" height="1"/>
     <rect x="1" y="0" width="1" height="1"/>
     <rect x="3" y="0" width="1" height="1"/>
     <rect x="5" y="0" width="1" height="1"/>
     <rect x="7" y="0" width="1" height="1"/>
     <rect x="9" y="0" width="1" height="1"/>
     <rect x="11" y="0" width="1" height="1"/>
     <rect x="13" y="0" width="1" height="1"/>
     <rect x="15" y="0" width="1" height="1"/>
   </pattern>
   <filter id="tocolor5" filterUnits="objectBoundingBox"
    color-interpolation-filters="sRGB" x="0%" y="0%" width="100%" height="100%">
    <feComponentTransfer>
      <feFuncR type="discrete" tableValues="1.000000 1.000000"/>
      <feFuncG type="discrete" tableValues="1.000000 1.000000"/>
      <feFuncB type="discrete" tableValues="0.000000 1.000000"/>
    </feComponentTransfer>
   </filter>
  </defs>
  <g style="filter:url(#tocolor5); fill:url(#pattern4); fill-rule:nonzero">
   <path  d="M134.9308,596.2836L136.7334,596.2836L138.5361,596.2836L140.3388,596.2836L142.1415,596.2836L143.9442,596.2836L145.7469,596.2836L147.5496,596.2836L149.3522,596.2836L151.1549,596.2836
             L152.9576,596.2836L154.7603,596.2836L156.5630,596.2836L158.3657,596.2836L160.1684,596.2836L161.9710,596.2836L163.7737,596.2836L165.5764,596.2836L167.3791,596.2836L169.1818,596.2836
             L170.9845,596.2836L172.7872,596.2836L174.5898,596.2836L176.3925,596.2836L178.1952,596.2836L179.9979,596.2836L181.8006,596.2836L183.6033,596.2836L185.4060,596.2836L187.2086,596.2836
             L189.0113,596.2836L190.8140,596.2836L192.6167,596.2836L194.4194,596.2836L196.2221,596.2836L198.0248,596.2836L199.8274,596.2836L201.6301,596.2836L203.4328,596.2836L205.2355,596.2836
             L207.0382,596.2836L208.8409,596.2836L210.6436,596.2836L212.4462,596.2836L214.2489,596.2836L216.0516,596.2836L217.8543,596.2836L219.6570,596.2836L221.4597,596.2836L223.2624,596.2836
             L225.0650,596.2836L226.8677,596.2836L228.6704,596.2836L230.4731,596.2836L232.2758,596.2836L234.0785,596.2836L235.8812,596.2836L237.6838,596.2836L239.4865,596.2836L241.2892,596.2836
             L243.0919,596.2836L244.8946,596.2836L246.6973,596.2836L248.5000,596.2836L250.3026,596.2836L252.1053,596.2836L253.9080,596.2836L255.7107,596.2836L257.5134,596.2836L259.3161,596.2836
             L261.1188,596.2836L262.9214,596.2836L264.7241,596.2836L266.5268,596.2836L268.3295,596.2836L270.1322,596.2836L271.9349,596.2836L273.7376,596.2836L275.5402,596.2836L277.3429,596.2836
             L279.1456,596.2836L280.9483,596.2836L282.7510,596.2836L284.5537,596.2836L286.3564,596.2836L288.1590,596.2836L289.9617,596.2836L291.7644,596.2836L293.5671,596.2836L295.3698,596.2836
             L297.1725,596.2836L298.9752,596.2836L300.7778,596.2836L302.5805,596.2836L304.3832,596.2836L306.1859,596.2836L307.9886,596.2836L309.7913,596.2836L311.5940,596.2836L313.3966,596.2836
             L315.1993,596.2836L317.0020,596.2836L318.8047,596.2836L320.6074,596.2836L322.4101,596.2836L324.2127,596.2836L326.0154,596.2836L327.8181,596.2836L329.6208,596.2836L331.4235,596.2836
             L333.2262,596.2836L335.0289,596.2836L336.8316,596.2836L338.6342,596.2836L340.4369,596.2836L342.2396,596.2836L344.0423,596.2836L345.8450,596.2836L347.6477,596.2836L349.4504,596.2836
             L351.2530,596.2836L353.0557,596.2836L354.8584,596.2836L356.6611,596.2836L358.4638,596.2836L360.2665,596.2836L362.0692,596.2836L363.8718,596.2836L365.6745,596.2836L367.4772,596.2836
             L369.2799,596.2836L371.0826,596.2836L372.8853,596.2836L374.6879,596.2836L376.4906,596.2836L378.2933,596.2836L380.0960,596.2836L381.8987,596.2836L383.7014,596.2836L385.5041,596.2836
             L387.3067,596.2836L389.1094,596.2836L390.9121,596.2836L392.7148,596.2836L394.5175,596.2836L396.3202,596.2836L398.1229,596.2836L399.9256,596.2836L401.7282,596.2836L403.5309,596.2836
             L405.3336,596.2836L407.1363,596.2836L408.9390,596.2836L410.7417,596.2836L412.5444,596.2836L414.3470,596.2836L416.1497,596.2836L417.9524,596.2836L419.7551,596.2836L421.5578,596.2836
             L423.3605,596.2836L425.1631,596.2836L426.9658,596.2836L428.7685,596.2836L430.5712,596.2836L432.3739,596.2836L434.1766,596.2836L435.9793,596.2836L437.7819,596.2836L439.5846,596.2836
             L441.3873,596.2836L443.1900,596.2836L444.9927,596.2836L446.7954,596.2836L448.5981,596.2836L450.4008,596.2836L452.2034,596.2836L454.0061,596.2836L455.8088,596.2836L457.6115,596.2836
             L459.4142,596.2836L461.2169,596.2836L463.0196,596.2836L464.8222,596.2836L466.6249,596.2836L468.4276,596.2836L470.2303,596.2836L472.0330,596.2836L473.8357,596.2836L475.6383,596.2836
             L477.4410,596.2836L479.2437,596.2836L481.0464,596.2836L482.8491,596.2836L484.6518,596.2836L486.4545,596.2836L488.2571,596.2836L490.0598,596.2836L491.8625,596.2836L493.6652,596.2836
             L495.4679,596.2836L497.2706,596.2836L499.0733,596.2836L500.8759,596.2836L502.6786,596.2836L504.4813,596.2836L506.2840,596.2836L508.0867,596.2836L509.8894,596.2836L511.6921,596.2836
             L513.4948,596.2836L515.2974,596.2836L517.1001,596.2836L518.9028,596.2836L520.7055,596.2836L522.5082,596.2836L524.3109,596.2836L526.1135,596.2836L527.9162,596.2836L529.7189,596.2836
             L531.5216,596.2836L533.3243,596.2836L535.1270,596.2836L536.9297,596.2836L538.7323,596.2836L540.5350,596.2836L542.3377,596.2836L544.1404,596.2836L545.9431,596.2836L547.7458,596.2836
             L549.5485,596.2836L551.3511,596.2836L553.1538,596.2836L554.9565,596.2836L556.7592,596.2836L558.5619,596.2836L560.3646,596.2836L562.1673,596.2836L563.9700,596.2836L565.7726,596.2836
             L567.5753,596.2836L569.3780,596.2836L571.1807,596.2836L572.9834,596.2836L574.7861,596.2836L576.5887,596.2836L578.3914,596.2836L580.1941,596.2836L581.9968,596.2836L583.7995,596.2836
             L585.6022,596.2836L587.4049,596.2836L589.2075,596.2836L591.0103,596.2836L592.8129,596.2836L594.6156,596.2836L596.4183,596.2836L598.2210,596.2836L600.0236,596.2836L601.8264,596.2836
             L603.6290,596.2836L605.4317,596.2836L607.2344,596.2836L609.0371,596.2836L610.8398,596.2836L612.6424,596.2836L614.4452,596.2836L616.2478,596.2836L618.0505,596.2836L619.8532,596.2836
             L621.6559,596.2836L623.4586,596.2836L625.2613,596.2836L627.0640,596.2836L628.8666,596.2836L630.6693,596.2836L632.4720,596.2836L634.2747,596.2836L636.0774,596.2836L637.8801,596.2836
             L639.6828,596.2836L641.4854,596.2836L643.2881,596.2836L645.0908,596.2836L646.8935,596.2836L648.6962,596.2836L650.4989,596.2836L652.3015,596.2836L654.1042,596.2836L655.9069,596.2836
             L657.7096,596.2836L659.5123,596.2836L661.3150,596.2836L663.1177,596.2836L664.9203,596.2836L666.7230,596.2836L668.5257,596.2836L670.3284,596.2836L672.1311,596.2836L673.9338,596.2836
             L675.7365,596.2836L677.5391,596.2836L679.3418,596.2836L681.1445,596.2836L682.9472,596.2836L684.7499,596.2836L686.5526,596.2836L688.3553,596.2836L690.1579,596.2836L691.9607,596.2836
             L693.7633,596.2836L695.5660,596.2836L697.3687,596.2836L699.1714,596.2836L700.9740,596.2836L702.7768,596.2836L704.5794,596.2836L706.3821,596.2836L708.1848,596.2836L709.9875,596.2836
             L711.7902,596.2836L713.5928,596.2836L715.3956,596.2836L717.1982,596.2836L719.0009,596.2836L720.8036,596.2836L722.6063,596.2836L724.4090,596.2836L726.2117,596.2836L728.0144,596.2836
             L729.8170,596.2836L731.6197,596.2836L733.4224,596.2836L735.2251,596.2836L737.0278,596.2836L738.8305,596.2836L740.6332,596.2836L742.4358,596.2836L744.2385,596.2836L746.0412,596.2836
             L747.8439,596.2836L749.6466,596.2836L751.4493,596.2836L753.2519,596.2836L755.0546,596.2836L756.8573,596.2836L758.6600,596.2836L760.4627,596.2836L762.2654,596.2836L764.0681,596.2836
             L765.8707,596.2836L767.6734,596.2836L769.4761,596.2836L771.2788,596.2836L773.0815,596.2836L774.8842,596.2836L776.6869,596.2836L778.4895,596.2836L780.2922,596.2836L782.0949,596.2836
             L783.8976,596.2836L785.7003,596.2836L787.5030,596.2836L789.3057,596.2836L791.1083,596.2836L792.9111,596.2836L794.7137,596.2836L796.5164,596.2836L798.3191,596.2836L800.1218,596.2836
             L801.9244,596.2836L803.7271,596.2836L805.5298,596.2836L807.3325,596.2836L809.1352,596.2836L810.9379,596.2836L812.7406,596.2836L814.5432,596.2836L816.3460,596.2836L818.1486,596.2836
             L819.9513,596.2836L821.7540,596.2836L823.5567,596.2836L825.3594,596.2836L827.1621,596.2836L828.9648,596.2836L830.7674,596.2836L832.5701,596.2836L834.3728,596.2836L836.1755,596.2836
             L837.9782,596.2836L839.7809,596.2836L841.5836,596.2836L843.3862,596.2836L845.1889,596.2836L846.9916,596.2836L848.7943,596.2836L850.5970,596.2836L852.3997,596.2836L854.2023,596.2836
             L856.0050,596.2836L857.8077,596.2836L859.6104,596.2836L861.4131,596.2836L863.2158,596.2836L865.0185,596.2836L866.8211,596.2836L868.6238,596.2836L870.4265,596.2836L872.2292,596.2836
             L874.0319,596.2836L875.8346,596.2836L877.6373,596.2836L879.4399,596.2836L881.2426,596.2836L883.0453,596.2836L884.8480,596.2836L886.6507,596.2836L888.4534,596.2836L890.2560,596.2836
             L892.0587,596.2836L893.8614,596.2836L895.6641,596.2836L897.4668,596.2836L899.2695,596.2836L901.0722,596.2836L902.8748,596.2836L904.6775,596.2836L906.4802,596.2836L908.2829,596.2836
             L910.0856,596.2836L911.8883,596.2836L913.6910,596.2836L915.4936,596.2836L917.2964,596.2836L919.0990,596.2836L920.9017,596.2836L922.7044,596.2836L924.5071,596.2836L926.3098,596.2836
             L928.1125,596.2836L929.9152,596.2836L931.7178,596.2836L933.5205,596.2836L935.3232,596.2836L937.1259,596.2836L938.9286,596.2836L940.7313,596.2836L942.5340,596.2836L944.3366,596.2836
             L946.1393,596.2836L947.9420,596.2836L949.7447,596.2836L951.5474,596.2836L953.3501,596.2836L955.1527,596.2836L956.9554,596.2836L958.7581,596.2836L960.5608,596.2836L962.3635,596.2836
             L964.1662,596.2836L965.9689,596.2836L967.7715,596.2836L969.5742,596.2836L971.3769,596.2836L973.1796,596.2836L974.9823,596.2836L976.7850,596.2836L978.5877,596.2836L980.3903,596.2836
             L982.1930,596.2836L983.9957,596.2836L985.7984,596.2836L987.6011,596.2836L989.4038,596.2836L991.2064,596.2836L993.0091,596.2836L994.8118,596.2836L996.6145,596.2836L998.4172,596.2836
             L1000.2199,596.2836L1002.0226,596.2836L1003.8252,596.2836L1005.6279,596.2836L1007.4306,596.2836L1009.2333,596.2836L1011.0360,596.2836L1012.8387,596.2836L1014.6414,596.2836L1016.4440,596.2836
             L1018.2468,596.2836L1020.0494,596.2836L1021.8521,596.2836L1023.6548,596.2836L1025.4575,596.2836L1027.2602,596.2836L1029.0629,596.2836L1030.8656,596.2836L1032.6682,596.2836L1034.4709,596.2836
             L1034.4709,512.3844L134.9308,512.3844z"/>
  </g>
  <g style="fill:none; stroke:#000000; stroke-width:  2.6968; stroke-linecap:butt; stroke-linejoin:miter; stroke-dasharray: 3 8">
   <path d="M134.9308,596.2836L136.7334,596.2836L138.5361,596.2836L140.3388,596.2836L142.1415,596.2836L143.9442,596.2836L145.7469,596.2836L147.5496,596.2836L149.3522,596.2836L151.1549,596.2836
            L152.9576,596.2836L154.7603,596.2836L156.5630,596.2836L158.3657,596.2836L160.1684,596.2836L161.9710,596.2836L163.7737,596.2836L165.5764,596.2836L167.3791,596.2836L169.1818,596.2836
            L170.9845,596.2836L172.7872,596.2836L174.5898,596.2836L176.3925,596.2836L178.1952,596.2836L179.9979,596.2836L181.8006,596.2836L183.6033,596.2836L185.4060,596.2836L187.2086,596.2836
            L189.0113,596.2836L190.8140,596.2836L192.6167,596.2836L194.4194,596.2836L196.2221,596.2836L198.0248,596.2836L199.8274,596.2836L201.6301,596.2836L203.4328,596.2836L205.2355,596.2836
            L207.0382,596.2836L208.8409,596.2836L210.6436,596.2836L212.4462,596.2836L214.2489,596.2836L216.0516,596.2836L217.8543,596.2836L219.6570,596.2836L221.4597,596.2836L223.2624,596.2836
            L225.0650,596.2836L226.8677,596.2836L228.6704,596.2836L230.4731,596.2836L232.2758,596.2836L234.0785,596.2836L235.8812,596.2836L237.6838,596.2836L239.4865,596.2836L241.2892,596.2836
            L243.0919,596.2836L244.8946,596.2836L246.6973,596.2836L248.5000,596.2836L250.3026,596.2836L252.1053,596.2836L253.9080,596.2836L255.7107,596.2836L257.5134,596.2836L259.3161,596.2836
            L261.1188,596.2836L262.9214,596.2836L264.7241,596.2836L266.5268,596.2836L268.3295,596.2836L270.1322,596.2836L271.9349,596.2836L273.7376,596.2836L275.5402,596.2836L277.3429,596.2836
            L279.1456,596.2836L280.9483,596.2836L282.7510,596.2836L284.5537,596.2836L286.3564,596.2836L288.1590,596.2836L289.9617,596.2836L291.7644,596.2836L293.5671,596.2836L295.3698,596.2836
            L297.1725,596.2836L298.9752,596.2836L300.7778,596.2836L302.5805,596.2836L304.3832,596.2836L306.1859,596.2836L307.9886,596.2836L309.7913,596.2836L311.5940,596.2836L313.3966,596.2836
            L315.1993,596.2836L317.0020,596.2836L318.8047,596.2836L320.6074,596.2836L322.4101,596.2836L324.2127,596.2836L326.0154,596.2836L327.8181,596.2836L329.6208,596.2836L331.4235,596.2836
            L333.2262,596.2836L335.0289,596.2836L336.8316,596.2836L338.6342,596.2836L340.4369,596.2836L342.2396,596.2836L344.0423,596.2836L345.8450,596.2836L347.6477,596.2836L349.4504,596.2836
            L351.2530,596.2836L353.0557,596.2836L354.8584,596.2836L356.6611,596.2836L358.4638,596.2836L360.2665,596.2836L362.0692,596.2836L363.8718,596.2836L365.6745,596.2836L367.4772,596.2836
            L369.2799,596.2836L371.0826,596.2836L372.8853,596.2836L374.6879,596.2836L376.4906,596.2836L378.2933,596.2836L380.0960,596.2836L381.8987,596.2836L383.7014,596.2836L385.5041,596.2836
            L387.3067,596.2836L389.1094,596.2836L390.9121,596.2836L392.7148,596.2836L394.5175,596.2836L396.3202,596.2836L398.1229,596.2836L399.9256,596.2836L401.7282,596.2836L403.5309,596.2836
            L405.3336,596.2836L407.1363,596.2836L408.9390,596.2836L410.7417,596.2836L412.5444,596.2836L414.3470,596.2836L416.1497,596.2836L417.9524,596.2836L419.7551,596.2836L421.5578,596.2836
            L423.3605,596.2836L425.1631,596.2836L426.9658,596.2836L428.7685,596.2836L430.5712,596.2836L432.3739,596.2836L434.1766,596.2836L435.9793,596.2836L437.7819,596.2836L439.5846,596.2836
            L441.3873,596.2836L443.1900,596.2836L444.9927,596.2836L446.7954,596.2836L448.5981,596.2836L450.4008,596.2836L452.2034,596.2836L454.0061,596.2836L455.8088,596.2836L457.6115,596.2836
            L459.4142,596.2836L461.2169,596.2836L463.0196,596.2836L464.8222,596.2836L466.6249,596.2836L468.4276,596.2836L470.2303,596.2836L472.0330,596.2836L473.8357,596.2836L475.6383,596.2836
            L477.4410,596.2836L479.2437,596.2836L481.0464,596.2836L482.8491,596.2836L484.6518,596.2836L486.4545,596.2836L488.2571,596.2836L490.0598,596.2836L491.8625,596.2836L493.6652,596.2836
            L495.4679,596.2836L497.2706,596.2836L499.0733,596.2836L500.8759,596.2836L502.6786,596.2836L504.4813,596.2836L506.2840,596.2836L508.0867,596.2836L509.8894,596.2836L511.6921,596.2836
            L513.4948,596.2836L515.2974,596.2836L517.1001,596.2836L518.9028,596.2836L520.7055,596.2836L522.5082,596.2836L524.3109,596.2836L526.1135,596.2836L527.9162,596.2836L529.7189,596.2836
            L531.5216,596.2836L533.3243,596.2836L535.1270,596.2836L536.9297,596.2836L538.7323,596.2836L540.5350,596.2836L542.3377,596.2836L544.1404,596.2836L545.9431,596.2836L547.7458,596.2836
            L549.5485,596.2836L551.3511,596.2836L553.1538,596.2836L554.9565,596.2836L556.7592,596.2836L558.5619,596.2836L560.3646,596.2836L562.1673,596.2836L563.9700,596.2836L565.7726,596.2836
            L567.5753,596.2836L569.3780,596.2836L571.1807,596.2836L572.9834,596.2836L574.7861,596.2836L576.5887,596.2836L578.3914,596.2836L580.1941,596.2836L581.9968,596.2836L583.7995,596.2836
            L585.6022,596.2836L587.4049,596.2836L589.2075,596.2836L591.0103,596.2836L592.8129,596.2836L594.6156,596.2836L596.4183,596.2836L598.2210,596.2836L600.0236,596.2836L601.8264,596.2836
            L603.6290,596.2836L605.4317,596.2836L607.2344,596.2836L609.0371,596.2836L610.8398,596.2836L612.6424,596.2836L614.4452,596.2836L616.2478,596.2836L618.0505,596.2836L619.8532,596.2836
            L621.6559,596.2836L623.4586,596.2836L625.2613,596.2836L627.0640,596.2836L628.8666,596.2836L630.6693,596.2836L632.4720,596.2836L634.2747,596.2836L636.0774,596.2836L637.8801,596.2836
            L639.6828,596.2836L641.4854,596.2836L643.2881,596.2836L645.0908,596.2836L646.8935,596.2836L648.6962,596.2836L650.4989,596.2836L652.3015,596.2836L654.1042,596.2836L655.9069,596.2836
            L657.7096,596.2836L659.5123,596.2836L661.3150,596.2836L663.1177,596.2836L664.9203,596.2836L666.7230,596.2836L668.5257,596.2836L670.3284,596.2836L672.1311,596.2836L673.9338,596.2836
            L675.7365,596.2836L677.5391,596.2836L679.3418,596.2836L681.1445,596.2836L682.9472,596.2836L684.7499,596.2836L686.5526,596.2836L688.3553,596.2836L690.1579,596.2836L691.9607,596.2836
            L693.7633,596.2836L695.5660,596.2836L697.3687,596.2836L699.1714,596.2836L700.9740,596.2836L702.7768,596.2836L704.5794,596.2836L706.3821,596.2836L708.1848,596.2836L709.9875,596.2836
            L711.7902,596.2836L713.5928,596.2836L715.3956,596.2836L717.1982,596.2836L719.0009,596.2836L720.8036,596.2836L722.6063,596.2836L724.4090,596.2836L726.2117,596.2836L728.0144,596.2836
            L729.8170,596.2836L731.6197,596.2836L733.4224,596.2836L735.2251,596.2836L737.0278,596.2836L738.8305,596.2836L740.6332,596.2836L742.4358,596.2836L744.2385,596.2836L746.0412,596.2836
            L747.8439,596.2836L749.6466,596.2836L751.4493,596.2836L753.2519,596.2836L755.0546,596.2836L756.8573,596.2836L758.6600,596.2836L760.4627,596.2836L762.2654,596.2836L764.0681,596.2836
            L765.8707,596.2836L767.6734,596.2836L769.4761,596.2836L771.2788,596.2836L773.0815,596.2836L774.8842,596.2836L776.6869,596.2836L778.4895,596.2836L780.2922,596.2836L782.0949,596.2836
            L783.8976,596.2836L785.7003,596.2836L787.5030,596.2836L789.3057,596.2836L791.1083,596.2836L792.9111,596.2836L794.7137,596.2836L796.5164,596.2836L798.3191,596.2836L800.1218,596.2836
            L801.9244,596.2836L803.7271,596.2836L805.5298,596.2836L807.3325,596.2836L809.1352,596.2836L810.9379,596.2836L812.7406,596.2836L814.5432,596.2836L816.3460,596.2836L818.1486,596.2836
            L819.9513,596.2836L821.7540,596.2836L823.5567,596.2836L825.3594,596.2836L827.1621,596.2836L828.9648,596.2836L830.7674,596.2836L832.5701,596.2836L834.3728,596.2836L836.1755,596.2836
            L837.9782,596.2836L839.7809,596.2836L841.5836,596.2836L843.3862,596.2836L845.1889,596.2836L846.9916,596.2836L848.7943,596.2836L850.5970,596.2836L852.3997,596.2836L854.2023,596.2836
            L856.0050,596.2836L857.8077,596.2836L859.6104,596.2836L861.4131,596.2836L863.2158,596.2836L865.0185,596.2836L866.8211,596.2836L868.6238,596.2836L870.4265,596.2836L872.2292,596.2836
            L874.0319,596.2836L875.8346,596.2836L877.6373,596.2836L879.4399,596.2836L881.2426,596.2836L883.0453,596.2836L884.8480,596.2836L886.6507,596.2836L888.4534,596.2836L890.2560,596.2836
            L892.0587,596.2836L893.8614,596.2836L895.6641,596.2836L897.4668,596.2836L899.2695,596.2836L901.0722,596.2836L902.8748,596.2836L904.6775,596.2836L906.4802,596.2836L908.2829,596.2836
            L910.0856,596.2836L911.8883,596.2836L913.6910,596.2836L915.4936,596.2836L917.2964,596.2836L919.0990,596.2836L920.9017,596.2836L922.7044,596.2836L924.5071,596.2836L926.3098,596.2836
            L928.1125,596.2836L929.9152,596.2836L931.7178,596.2836L933.5205,596.2836L935.3232,596.2836L937.1259,596.2836L938.9286,596.2836L940.7313,596.2836L942.5340,596.2836L944.3366,596.2836
            L946.1393,596.2836L947.9420,596.2836L949.7447,596.2836L951.5474,596.2836L953.3501,596.2836L955.1527,596.2836L956.9554,596.2836L958.7581,596.2836L960.5608,596.2836L962.3635,596.2836
            L964.1662,596.2836L965.9689,596.2836L967.7715,596.2836L969.5742,596.2836L971.3769,596.2836L973.1796,596.2836L974.9823,596.2836L976.7850,596.2836L978.5877,596.2836L980.3903,596.2836
            L982.1930,596.2836L983.9957,596.2836L985.7984,596.2836L987.6011,596.2836L989.4038,596.2836L991.2064,596.2836L993.0091,596.2836L994.8118,596.2836L996.6145,596.2836L998.4172,596.2836
            L1000.2199,596.2836L1002.0226,596.2836L1003.8252,596.2836L1005.6279,596.2836L1007.4306,596.2836L1009.2333,596.2836L1011.0360,596.2836L1012.8387,596.2836L1014.6414,596.2836L1016.4440,596.2836
            L1018.2468,596.2836L1020.0494,596.2836L1021.8521,596.2836L1023.6548,596.2836L1025.4575,596.2836L1027.2602,596.2836L1029.0629,596.2836L1030.8656,596.2836L1032.6682,596.2836L1034.4709,596.2836"/>
  </g>
  <g style="filter:url(#tocolor5); fill:url(#pattern4); fill-rule:nonzero">
   <path  d="M134.9308,428.4852L136.7334,428.4852L138.5361,428.4852L140.3388,428.4852L142.1415,428.4852L143.9442,428.4852L145.7469,428.4852L147.5496,428.4852L149.3522,428.4852L151.1549,428.4852
             L152.9576,428.4852L154.7603,428.4852L156.5630,428.4852L158.3657,428.4852L160.1684,428.4852L161.9710,428.4852L163.7737,428.4852L165.5764,428.4852L167.3791,428.4852L169.1818,428.4852
             L170.9845,428.4852L172.7872,428.4852L174.5898,428.4852L176.3925,428.4852L178.1952,428.4852L179.9979,428.4852L181.8006,428.4852L183.6033,428.4852L185.4060,428.4852L187.2086,428.4852
             L189.0113,428.4852L190.8140,428.4852L192.6167,428.4852L194.4194,428.4852L196.2221,428.4852L198.0248,428.4852L199.8274,428.4852L201.6301,428.4852L203.4328,428.4852L205.2355,428.4852
             L207.0382,428.4852L208.8409,428.4852L210.6436,428.4852L212.4462,428.4852L214.2489,428.4852L216.0516,428.4852L217.8543,428.4852L219.6570,428.4852L221.4597,428.4852L223.2624,428.4852
             L225.0650,428.4852L226.8677,428.4852L228.6704,428.4852L230.4731,428.4852L232.2758,428.4852L234.0785,428.4852L235.8812,428.4852L237.6838,428.4852L239.4865,428.4852L241.2892,428.4852
             L243.0919,428.4852L244.8946,428.4852L246.6973,428.4852L248.5000,428.4852L250.3026,428.4852L252.1053,428.4852L253.9080,428.4852L255.7107,428.4852L257.5134,428.4852L259.3161,428.4852
             L261.1188,428.4852L262.9214,428.4852L264.7241,428.4852L266.5268,428.4852L268.3295,428.4852L270.1322,428.4852L271.9349,428.4852L273.7376,428.4852L275.5402,428.4852L277.3429,428.4852
             L279.1456,428.4852L280.9483,428.4852L282.7510,428.4852L284.5537,428.4852L286.3564,428.4852L288.1590,428.4852L289.9617,428.4852L291.7644,428.4852L293.5671,428.4852L295.3698,428.4852
             L297.1725,428.4852L298.9752,428.4852L300.7778,428.4852L302.5805,428.4852L304.3832,428.4852L306.1859,428.4852L307.9886,428.4852L309.7913,428.4852L311.5940,428.4852L313.3966,428.4852
             L315.1993,428.4852L317.0020,428.4852L318.8047,428.4852L320.6074,428.4852L322.4101,428.4852L324.2127,428.4852L326.0154,428.4852L327.8181,428.4852L329.6208,428.4852L331.4235,428.4852
             L333.2262,428.4852L335.0289,428.4852L336.8316,428.4852L338.6342,428.4852L340.4369,428.4852L342.2396,428.4852L344.0423,428.4852L345.8450,428.4852L347.6477,428.4852L349.4504,428.4852
             L351.2530,428.4852L353.0557,428.4852L354.8584,428.4852L356.6611,428.4852L358.4638,428.4852L360.2665,428.4852L362.0692,428.4852L363.8718,428.4852L365.6745,428.4852L367.4772,428.4852
             L369.2799,428.4852L371.0826,428.4852L372.8853,428.4852L374.6879,428.4852L376.4906,428.4852L378.2933,428.4852L380.0960,428.4852L381.8987,428.4852L383.7014,428.4852L385.5041,428.4852
             L387.3067,428.4852L389.1094,428.4852L390.9121,428.4852L392.7148,428.4852L394.5175,428.4852L396.3202,428.4852L398.1229,428.4852L399.9256,428.4852L401.7282,428.4852L403.5309,428.4852
             L405.3336,428.4852L407.1363,428.4852L408.9390,428.4852L410.7417,428.4852L412.5444,428.4852L414.3470,428.4852L416.1497,428.4852L417.9524,428.4852L419.7551,428.4852L421.5578,428.4852
             L423.3605,428.4852L425.1631,428.4852L426.9658,428.4852L428.7685,428.4852L430.5712,428.4852L432.3739,428.4852L434.1766,428.4852L435.9793,428.4852L437.7819,428.4852L439.5846,428.4852
             L441.3873,428.4852L443.1900,428.4852L444.9927,428.4852L446.7954,428.4852L448.5981,428.4852L450.4008,428.4852L452.2034,428.4852L454.0061,428.4852L455.8088,428.4852L457.6115,428.4852
             L459.4142,428.4852L461.2169,428.4852L463.0196,428.4852L464.8222,428.4852L466.6249,428.4852L468.4276,428.4852L470.2303,428.4852L472.0330,428.4852L473.8357,428.4852L475.6383,428.4852
             L477.4410,428.4852L479.2437,428.4852L481.0464,428.4852L482.8491,428.4852L484.6518,428.4852L486.4545,428.4852L488.2571,428.4852L490.0598,428.4852L491.8625,428.4852L493.6652,428.4852
             L495.4679,428.4852L497.2706,428.4852L499.0733,428.4852L500.8759,428.4852L502.6786,428.4852L504.4813,428.4852L506.2840,428.4852L508.0867,428.4852L509.8894,428.4852L511.6921,428.4852
             L513.4948,428.4852L515.2974,428.4852L517.1001,428.4852L518.9028,428.4852L520.7055,428.4852L522.5082,428.4852L524.3109,428.4852L526.1135,428.4852L527.9162,428.4852L529.7189,428.4852
             L531.5216,428.4852L533.3243,428.4852L535.1270,428.4852L536.9297,428.4852L538.7323,428.4852L540.5350,428.4852L542.3377,428.4852L544.1404,428.4852L545.9431,428.4852L547.7458,428.4852
             L549.5485,428.4852L551.3511,428.4852L553.1538,428.4852L554.9565,428.4852L556.7592,428.4852L558.5619,428.4852L560.3646,428.4852L562.1673,428.4852L563.9700,428.4852L565.7726,428.4852
             L567.5753,428.4852L569.3780,428.4852L571.1807,428.4852L572.9834,428.4852L574.7861,428.4852L576.5887,428.4852L578.3914,428.4852L580.1941,428.4852L581.9968,428.4852L583.7995,428.4852
             L585.6022,428.4852L587.4049,428.4852L589.2075,428.4852L591.0103,428.4852L592.8129,428.4852L594.6156,428.4852L596.4183,428.4852L598.2210,428.4852L600.0236,428.4852L601.8264,428.4852
             L603.6290,428.4852L605.4317,428.4852L607.2344,428.4852L609.0371,428.4852L610.8398,428.4852L612.6424,428.4852L614.4452,428.4852L616.2478,428.4852L618.0505,428.4852L619.8532,428.4852
             L621.6559,428.4852L623.4586,428.4852L625.2613,428.4852L627.0640,428.4852L628.8666,428.4852L630.6693,428.4852L632.4720,428.4852L634.2747,428.4852L636.0774,428.4852L637.8801,428.4852
             L639.6828,428.4852L641.4854,428.4852L643.2881,428.4852L645.0908,428.4852L646.8935,428.4852L648.6962,428.4852L650.4989,428.4852L652.3015,428.4852L654.1042,428.4852L655.9069,428.4852
             L657.7096,428.4852L659.5123,428.4852L661.3150,428.4852L663.1177,428.4852L664.9203,428.4852L666.7230,428.4852L668.5257,428.4852L670.3284,428.4852L672.1311,428.4852L673.9338,428.4852
             L675.7365,428.4852L677.5391,428.4852L679.3418,428.4852L681.1445,428.4852L682.9472,428.4852L684.7499,428.4852L686.5526,428.4852L688.3553,428.4852L690.1579,428.4852L691.9607,428.4852
             L693.7633,428.4852L695.5660,428.4852L697.3687,428.4852L699.1714,428.4852L700.9740,428.4852L702.7768,428.4852L704.5794,428.4852L706.3821,428.4852L708.1848,428.4852L709.9875,428.4852
             L711.7902,428.4852L713.5928,428.4852L715.3956,428.4852L717.1982,428.4852L719.0009,428.4852L720.8036,428.4852L722.6063,428.4852L724.4090,428.4852L726.2117,428.4852L728.0144,428.4852
             L729.8170,428.4852L731.6197,428.4852L733.4224,428.4852L735.2251,428.4852L737.0278,428.4852L738.8305,428.4852L740.6332,428.4852L742.4358,428.4852L744.2385,428.4852L746.0412,428.4852
             L747.8439,428.4852L749.6466,428.4852L751.4493,428.4852L753.2519,428.4852L755.0546,428.4852L756.8573,428.4852L758.6600,428.4852L760.4627,428.4852L762.2654,428.4852L764.0681,428.4852
             L765.8707,428.4852L767.6734,428.4852L769.4761,428.4852L771.2788,428.4852L773.0815,428.4852L774.8842,428.4852L776.6869,428.4852L778.4895,428.4852L780.2922,428.4852L782.0949,428.4852
             L783.8976,428.4852L785.7003,428.4852L787.5030,428.4852L789.3057,428.4852L791.1083,428.4852L792.9111,428.4852L794.7137,428.4852L796.5164,428.4852L798.3191,428.4852L800.1218,428.4852
             L801.9244,428.4852L803.7271,428.4852L805.5298,428.4852L807.3325,428.4852L809.1352,428.4852L810.9379,428.4852L812.7406,428.4852L814.5432,428.4852L816.3460,428.4852L818.1486,428.4852
             L819.9513,428.4852L821.7540,428.4852L823.5567,428.4852L825.3594,428.4852L827.1621,428.4852L828.9648,428.4852L830.7674,428.4852L832.5701,428.4852L834.3728,428.4852L836.1755,428.4852
             L837.9782,428.4852L839.7809,428.4852L841.5836,428.4852L843.3862,428.4852L845.1889,428.4852L846.9916,428.4852L848.7943,428.4852L850.5970,428.4852L852.3997,428.4852L854.2023,428.4852
             L856.0050,428.4852L857.8077,428.4852L859.6104,428.4852L861.4131,428.4852L863.2158,428.4852L865.0185,428.4852L866.8211,428.4852L868.6238,428.4852L870.4265,428.4852L872.2292,428.4852
             L874.0319,428.4852L875.8346,428.4852L877.6373,428.4852L879.4399,428.4852L881.2426,428.4852L883.0453,428.4852L884.8480,428.4852L886.6507,428.4852L888.4534,428.4852L890.2560,428.4852
             L892.0587,428.4852L893.8614,428.4852L895.6641,428.4852L897.4668,428.4852L899.2695,428.4852L901.0722,428.4852L902.8748,428.4852L904.6775,428.4852L906.4802,428.4852L908.2829,428.4852
             L910.0856,428.4852L911.8883,428.4852L913.6910,428.4852L915.4936,428.4852L917.2964,428.4852L919.0990,428.4852L920.9017,428.4852L922.7044,428.4852L924.5071,428.4852L926.3098,428.4852
             L928.1125,428.4852L929.9152,428.4852L931.7178,428.4852L933.5205,428.4852L935.3232,428.4852L937.1259,428.4852L938.9286,428.4852L940.7313,428.4852L942.5340,428.4852L944.3366,428.4852
             L946.1393,428.4852L947.9420,428.4852L949.7447,428.4852L951.5474,428.4852L953.3501,428.4852L955.1527,428.4852L956.9554,428.4852L958.7581,428.4852L960.5608,428.4852L962.3635,428.4852
             L964.1662,428.4852L965.9689,428.4852L967.7715,428.4852L969.5742,428.4852L971.3769,428.4852L973.1796,428.4852L974.9823,428.4852L976.7850,428.4852L978.5877,428.4852L980.3903,428.4852
             L982.1930,428.4852L983.9957,428.4852L985.7984,428.4852L987.6011,428.4852L989.4038,428.4852L991.2064,428.4852L993.0091,428.4852L994.8118,428.4852L996.6145,428.4852L998.4172,428.4852
             L1000.2199,428.4852L1002.0226,428.4852L1003.8252,428.4852L1005.6279,428.4852L1007.4306,428.4852L1009.2333,428.4852L1011.0360,428.4852L1012.8387,428.4852L1014.6414,428.4852L1016.4440,428.4852
             L1018.2468,428.4852L1020.0494,428.4852L1021.8521,428.4852L1023.6548,428.4852L1025.4575,428.4852L1027.2602,428.4852L1029.0629,428.4852L1030.8656,428.4852L1032.6682,428.4852L1034.4709,428.4852
             L1034.4709,512.3844L134.9308,512.3844z"/>
  </g>
  <g style="fill:none; stroke:#000000; stroke-width:  2.6968; stroke-linecap:butt; stroke-linejoin:miter; stroke-dasharray: 3 8">
   <path d="M134.9308,428.4852L136.7334,428.4852L138.5361,428.4852L140.3388,428.4852L142.1415,428.4852L143.9442,428.4852L145.7469,428.4852L147.5496,428.4852L149.3522,428.4852L151.1549,428.4852
            L152.9576,428.4852L154.7603,428.4852L156.5630,428.4852L158.3657,428.4852L160.1684,428.4852L161.9710,428.4852L163.7737,428.4852L165.5764,428.4852L167.3791,428.4852L169.1818,428.4852
            L170.9845,428.4852L172.7872,428.4852L174.5898,428.4852L176.3925,428.4852L178.1952,428.4852L179.9979,428.4852L181.8006,428.4852L183.6033,428.4852L185.4060,428.4852L187.2086,428.4852
            L189.0113,428.4852L190.8140,428.4852L192.6167,428.4852L194.4194,428.4852L196.2221,428.4852L198.0248,428.4852L199.8274,428.4852L201.6301,428.4852L203.4328,428.4852L205.2355,428.4852
            L207.0382,428.4852L208.8409,428.4852L210.6436,428.4852L212.4462,428.4852L214.2489,428.4852L216.0516,428.4852L217.8543,428.4852L219.6570,428.4852L221.4597,428.4852L223.2624,428.4852
            L225.0650,428.4852L226.8677,428.4852L228.6704,428.4852L230.4731,428.4852L232.2758,428.4852L234.0785,428.4852L235.8812,428.4852L237.6838,428.4852L239.4865,428.4852L241.2892,428.4852
            L243.0919,428.4852L244.8946,428.4852L246.6973,428.4852L248.5000,428.4852L250.3026,428.4852L252.1053,428.4852L253.9080,428.4852L255.7107,428.4852L257.5134,428.4852L259.3161,428.4852
            L261.1188,428.4852L262.9214,428.4852L264.7241,428.4852L266.5268,428.4852L268.3295,428.4852L270.1322,428.4852L271.9349,428.4852L273.7376,428.4852L275.5402,428.4852L277.3429,428.4852
            L279.1456,428.4852L280.9483,428.4852L282.7510,428.4852L284.5537,428.4852L286.3564,428.4852L288.1590,428.4852L289.9617,428.4852L291.7644,428.4852L293.5671,428.4852L295.3698,428.4852
            L297.1725,428.4852L298.9752,428.4852L300.7778,428.4852L302.5805,428.4852L304.3832,428.4852L306.1859,428.4852L307.9886,428.4852L309.7913,428.4852L311.5940,428.4852L313.3966,428.4852
            L315.1993,428.4852L317.0020,428.4852L318.8047,428.4852L320.6074,428.4852L322.4101,428.4852L324.2127,428.4852L326.0154,428.4852L327.8181,428.4852L329.6208,428.4852L331.4235,428.4852
            L333.2262,428.4852L335.0289,428.4852L336.8316,428.4852L338.6342,428.4852L340.4369,428.4852L342.2396,428.4852L344.0423,428.4852L345.8450,428.4852L347.6477,428.4852L349.4504,428.4852
            L351.2530,428.4852L353.0557,428.4852L354.8584,428.4852L356.6611,428.4852L358.4638,428.4852L360.2665,428.4852L362.0692,428.4852L363.8718,428.4852L365.6745,428.4852L367.4772,428.4852
            L369.2799,428.4852L371.0826,428.4852L372.8853,428.4852L374.6879,428.4852L376.4906,428.4852L378.2933,428.4852L380.0960,428.4852L381.8987,428.4852L383.7014,428.4852L385.5041,428.4852
            L387.3067,428.4852L389.1094,428.4852L390.9121,428.4852L392.7148,428.4852L394.5175,428.4852L396.3202,428.4852L398.1229,428.4852L399.9256,428.4852L401.7282,428.4852L403.5309,428.4852
            L405.3336,428.4852L407.1363,428.4852L408.9390,428.4852L410.7417,428.4852L412.5444,428.4852L414.3470,428.4852L416.1497,428.4852L417.9524,428.4852L419.7551,428.4852L421.5578,428.4852
            L423.3605,428.4852L425.1631,428.4852L426.9658,428.4852L428.7685,428.4852L430.5712,428.4852L432.3739,428.4852L434.1766,428.4852L435.9793,428.4852L437.7819,428.4852L439.5846,428.4852
            L441.3873,428.4852L443.1900,428.4852L444.9927,428.4852L446.7954,428.4852L448.5981,428.4852L450.4008,428.4852L452.2034,428.4852L454.0061,428.4852L455.8088,428.4852L457.6115,428.4852
            L459.4142,428.4852L461.2169,428.4852L463.0196,428.4852L464.8222,428.4852L466.6249,428.4852L468.4276,428.4852L470.2303,428.4852L472.0330,428.4852L473.8357,428.4852L475.6383,428.4852
            L477.4410,428.4852L479.2437,428.4852L481.0464,428.4852L482.8491,428.4852L484.6518,428.4852L486.4545,428.4852L488.2571,428.4852L490.0598,428.4852L491.8625,428.4852L493.6652,428.4852
            L495.4679,428.4852L497.2706,428.4852L499.0733,428.4852L500.8759,428.4852L502.6786,428.4852L504.4813,428.4852L506.2840,428.4852L508.0867,428.4852L509.8894,428.4852L511.6921,428.4852
            L513.4948,428.4852L515.2974,428.4852L517.1001,428.4852L518.9028,428.4852L520.7055,428.4852L522.5082,428.4852L524.3109,428.4852L526.1135,428.4852L527.9162,428.4852L529.7189,428.4852
            L531.5216,428.4852L533.3243,428.4852L535.1270,428.4852L536.9297,428.4852L538.7323,428.4852L540.5350,428.4852L542.3377,428.4852L544.1404,428.4852L545.9431,428.4852L547.7458,428.4852
            L549.5485,428.4852L551.3511,428.4852L553.1538,428.4852L554.9565,428.4852L556.7592,428.4852L558.5619,428.4852L560.3646,428.4852L562.1673,428.4852L563.9700,428.4852L565.7726,428.4852
            L567.5753,428.4852L569.3780,428.4852L571.1807,428.4852L572.9834,428.4852L574.7861,428.4852L576.5887,428.4852L578.3914,428.4852L580.1941,428.4852L581.9968,428.4852L583.7995,428.4852
            L585.6022,428.4852L587.4049,428.4852L589.2075,428.4852L591.0103,428.4852L592.8129,428.4852L594.6156,428.4852L596.4183,428.4852L598.2210,428.4852L600.0236,428.4852L601.8264,428.4852
            L603.6290,428.4852L605.4317,428.4852L607.2344,428.4852L609.0371,428.4852L610.8398,428.4852L612.6424,428.4852L614.4452,428.4852L616.2478,428.4852L618.0505,428.4852L619.8532,428.4852
            L621.6559,428.4852L623.4586,428.4852L625.2613,428.4852L627.0640,428.4852L628.8666,428.4852L630.6693,428.4852L632.4720,428.4852L634.2747,428.4852L636.0774,428.4852L637.8801,428.4852
            L639.6828,428.4852L641.4854,428.4852L643.2881,428.4852L645.0908,428.4852L646.8935,428.4852L648.6962,428.4852L650.4989,428.4852L652.3015,428.4852L654.1042,428.4852L655.9069,428.4852
            L657.7096,428.4852L659.5123,428.4852L661.3150,428.4852L663.1177,428.4852L664.9203,428.4852L666.7230,428.4852L668.5257,428.4852L670.3284,428.4852L672.1311,428.4852L673.9338,428.4852
            L675.7365,428.4852L677.5391,428.4852L679.3418,428.4852L681.1445,428.4852L682.9472,428.4852L684.7499,428.4852L686.5526,428.4852L688.3553,428.4852L690.1579,428.4852L691.9607,428.4852
            L693.7633,428.4852L695.5660,428.4852L697.3687,428.4852L699.1714,428.4852L700.9740,428.4852L702.7768,428.4852L704.5794,428.4852L706.3821,428.4852L708.1848,428.4852L709.9875,428.4852
            L711.7902,428.4852L713.5928,428.4852L715.3956,428.4852L717.1982,428.4852L719.0009,428.4852L720.8036,428.4852L722.6063,428.4852L724.4090,428.4852L726.2117,428.4852L728.0144,428.4852
            L729.8170,428.4852L731.6197,428.4852L733.4224,428.4852L735.2251,428.4852L737.0278,428.4852L738.8305,428.4852L740.6332,428.4852L742.4358,428.4852L744.2385,428.4852L746.0412,428.4852
            L747.8439,428.4852L749.6466,428.4852L751.4493,428.4852L753.2519,428.4852L755.0546,428.4852L756.8573,428.4852L758.6600,428.4852L760.4627,428.4852L762.2654,428.4852L764.0681,428.4852
            L765.8707,428.4852L767.6734,428.4852L769.4761,428.4852L771.2788,428.4852L773.0815,428.4852L774.8842,428.4852L776.6869,428.4852L778.4895,428.4852L780.2922,428.4852L782.0949,428.4852
            L783.8976,428.4852L785.7003,428.4852L787.5030,428.4852L789.3057,428.4852L791.1083,428.4852L792.9111,428.4852L794.7137,428.4852L796.5164,428.4852L798.3191,428.4852L800.1218,428.4852
            L801.9244,428.4852L803.7271,428.4852L805.5298,428.4852L807.3325,428.4852L809.1352,428.4852L810.9379,428.4852L812.7406,428.4852L814.5432,428.4852L816.3460,428.4852L818.1486,428.4852
            L819.9513,428.4852L821.7540,428.4852L823.5567,428.4852L825.3594,428.4852L827.1621,428.4852L828.9648,428.4852L830.7674,428.4852L832.5701,428.4852L834.3728,428.4852L836.1755,428.4852
            L837.9782,428.4852L839.7809,428.4852L841.5836,428.4852L843.3862,428.4852L845.1889,428.4852L846.9916,428.4852L848.7943,428.4852L850.5970,428.4852L852.3997,428.4852L854.2023,428.4852
            L856.0050,428.4852L857.8077,428.4852L859.6104,428.4852L861.4131,428.4852L863.2158,428.4852L865.0185,428.4852L866.8211,428.4852L868.6238,428.4852L870.4265,428.4852L872.2292,428.4852
            L874.0319,428.4852L875.8346,428.4852L877.6373,428.4852L879.4399,428.4852L881.2426,428.4852L883.0453,428.4852L884.8480,428.4852L886.6507,428.4852L888.4534,428.4852L890.2560,428.4852
            L892.0587,428.4852L893.8614,428.4852L895.6641,428.4852L897.4668,428.4852L899.2695,428.4852L901.0722,428.4852L902.8748,428.4852L904.6775,428.4852L906.4802,428.4852L908.2829,428.4852
            L910.0856,428.4852L911.8883,428.4852L913.6910,428.4852L915.4936,428.4852L917.2964,428.4852L919.0990,428.4852L920.9017,428.4852L922.7044,428.4852L924.5071,428.4852L926.3098,428.4852
            L928.1125,428.4852L929.9152,428.4852L931.7178,428.4852L933.5205,428.4852L935.3232,428.4852L937.1259,428.4852L938.9286,428.4852L940.7313,428.4852L942.5340,428.4852L944.3366,428.4852
            L946.1393,428.4852L947.9420,428.4852L949.7447,428.4852L951.5474,428.4852L953.3501,428.4852L955.1527,428.4852L956.9554,428.4852L958.7581,428.4852L960.5608,428.4852L962.3635,428.4852
            L964.1662,428.4852L965.9689,428.4852L967.7715,428.4852L969.5742,428.4852L971.3769,428.4852L973.1796,428.4852L974.9823,428.4852L976.7850,428.4852L978.5877,428.4852L980.3903,428.4852
            L982.1930,428.4852L983.9957,428.4852L985.7984,428.4852L987.6011,428.4852L989.4038,428.4852L991.2064,428.4852L993.0091,428.4852L994.8118,428.4852L996.6145,428.4852L998.4172,428.4852
            L1000.2199,428.4852L1002.0226,428.4852L1003.8252,428.4852L1005.6279,428.4852L1007.4306,428.4852L1009.2333,428.4852L1011.0360,428.4852L1012.8387,428.4852L1014.6414,428.4852L1016.4440,428.4852
            L1018.2468,428.4852L1020.0494,428.4852L1021.8521,428.4852L1023.6548,428.4852L1025.4575,428.4852L1027.2602,428.4852L1029.0629,428.4852L1030.8656,428.4852L1032.6682,428.4852L1034.4709,428.4852"/>
   <path d="M134.9308,512.3844L136.7334,512.3844L138.5361,512.3844L140.3388,512.3844L142.1415,512.3844L143.9442,512.3844L145.7469,512.3844L147.5496,512.3844L149.3522,512.3844L151.1549,512.3844
            L152.9576,512.3844L154.7603,512.3844L156.5630,512.3844L158.3657,512.3844L160.1684,512.3844L161.9710,512.3844L163.7737,512.3844L165.5764,512.3844L167.3791,512.3844L169.1818,512.3844
            L170.9845,512.3844L172.7872,512.3844L174.5898,512.3844L176.3925,512.3844L178.1952,512.3844L179.9979,512.3844L181.8006,512.3844L183.6033,512.3844L185.4060,512.3844L187.2086,512.3844
            L189.0113,512.3844L190.8140,512.3844L192.6167,512.3844L194.4194,512.3844L196.2221,512.3844L198.0248,512.3844L199.8274,512.3844L201.6301,512.3844L203.4328,512.3844L205.2355,512.3844
            L207.0382,512.3844L208.8409,512.3844L210.6436,512.3844L212.4462,512.3844L214.2489,512.3844L216.0516,512.3844L217.8543,512.3844L219.6570,512.3844L221.4597,512.3844L223.2624,512.3844
            L225.0650,512.3844L226.8677,512.3844L228.6704,512.3844L230.4731,512.3844L232.2758,512.3844L234.0785,512.3844L235.8812,512.3844L237.6838,512.3844L239.4865,512.3844L241.2892,512.3844
            L243.0919,512.3844L244.8946,512.3844L246.6973,512.3844L248.5000,512.3844L250.3026,512.3844L252.1053,512.3844L253.9080,512.3844L255.7107,512.3844L257.5134,512.3844L259.3161,512.3844
            L261.1188,512.3844L262.9214,512.3844L264.7241,512.3844L266.5268,512.3844L268.3295,512.3844L270.1322,512.3844L271.9349,512.3844L273.7376,512.3844L275.5402,512.3844L277.3429,512.3844
            L279.1456,512.3844L280.9483,512.3844L282.7510,512.3844L284.5537,512.3844L286.3564,512.3844L288.1590,512.3844L289.9617,512.3844L291.7644,512.3844L293.5671,512.3844L295.3698,512.3844
            L297.1725,512.3844L298.9752,512.3844L300.7778,512.3844L302.5805,512.3844L304.3832,512.3844L306.1859,512.3844L307.9886,512.3844L309.7913,512.3844L311.5940,512.3844L313.3966,512.3844
            L315.1993,512.3844L317.0020,512.3844L318.8047,512.3844L320.6074,512.3844L322.4101,512.3844L324.2127,512.3844L326.0154,512.3844L327.8181,512.3844L329.6208,512.3844L331.4235,512.3844
            L333.2262,512.3844L335.0289,512.3844L336.8316,512.3844L338.6342,512.3844L340.4369,512.3844L342.2396,512.3844L344.0423,512.3844L345.8450,512.3844L347.6477,512.3844L349.4504,512.3844
            L351.2530,512.3844L353.0557,512.3844L354.8584,512.3844L356.6611,512.3844L358.4638,512.3844L360.2665,512.3844L362.0692,512.3844L363.8718,512.3844L365.6745,512.3844L367.4772,512.3844
            L369.2799,512.3844L371.0826,512.3844L372.8853,512.3844L374.6879,512.3844L376.4906,512.3844L378.2933,512.3844L380.0960,512.3844L381.8987,512.3844L383.7014,512.3844L385.5041,512.3844
            L387.3067,512.3844L389.1094,512.3844L390.9121,512.3844L392.7148,512.3844L394.5175,512.3844L396.3202,512.3844L398.1229,512.3844L399.9256,512.3844L401.7282,512.3844L403.5309,512.3844
            L405.3336,512.3844L407.1363,512.3844L408.9390,512.3844L410.7417,512.3844L412.5444,512.3844L414.3470,512.3844L416.1497,512.3844L417.9524,512.3844L419.7551,512.3844L421.5578,512.3844
            L423.3605,512.3844L425.1631,512.3844L426.9658,512.3844L428.7685,512.3844L430.5712,512.3844L432.3739,512.3844L434.1766,512.3844L435.9793,512.3844L437.7819,512.3844L439.5846,512.3844
            L441.3873,512.3844L443.1900,512.3844L444.9927,512.3844L446.7954,512.3844L448.5981,512.3844L450.4008,512.3844L452.2034,512.3844L454.0061,512.3844L455.8088,512.3844L457.6115,512.3844
            L459.4142,512.3844L461.2169,512.3844L463.0196,512.3844L464.8222,512.3844L466.6249,512.3844L468.4276,512.3844L470.2303,512.3844L472.0330,512.3844L473.8357,512.3844L475.6383,512.3844
            L477.4410,512.3844L479.2437,512.3844L481.0464,512.3844L482.8491,512.3844L484.6518,512.3844L486.4545,512.3844L488.2571,512.3844L490.0598,512.3844L491.8625,512.3844L493.6652,512.3844
            L495.4679,512.3844L497.2706,512.3844L499.0733,512.3844L500.8759,512.3844L502.6786,512.3844L504.4813,512.3844L506.2840,512.3844L508.0867,512.3844L509.8894,512.3844L511.6921,512.3844
            L513.4948,512.3844L515.2974,512.3844L517.1001,512.3844L518.9028,512.3844L520.7055,512.3844L522.5082,512.3844L524.3109,512.3844L526.1135,512.3844L527.9162,512.3844L529.7189,512.3844
            L531.5216,512.3844L533.3243,512.3844L535.1270,512.3844L536.9297,512.3844L538.7323,512.3844L540.5350,512.3844L542.3377,512.3844L544.1404,512.3844L545.9431,512.3844L547.7458,512.3844
            L549.5485,512.3844L551.3511,512.3844L553.1538,512.3844L554.9565,512.3844L556.7592,512.3844L558.5619,512.3844L560.3646,512.3844L562.1673,512.3844L563.9700,512.3844L565.7726,512.3844
            L567.5753,512.3844L569.3780,512.3844L571.1807,512.3844L572.9834,512.3844L574.7861,512.3844L576.5887,512.3844L578.3914,512.3844L580.1941,512.3844L581.9968,512.3844L583.7995,512.3844
            L585.6022,512.3844L587.4049,512.3844L589.2075,512.3844L591.0103,512.3844L592.8129,512.3844L594.6156,512.3844L596.4183,512.3844L598.2210,512.3844L600.0236,512.3844L601.8264,512.3844
            L603.6290,512.3844L605.4317,512.3844L607.2344,512.3844L609.0371,512.3844L610.8398,512.3844L612.6424,512.3844L614.4452,512.3844L616.2478,512.3844L618.0505,512.3844L619.8532,512.3844
            L621.6559,512.3844L623.4586,512.3844L625.2613,512.3844L627.0640,512.3844L628.8666,512.3844L630.6693,512.3844L632.4720,512.3844L634.2747,512.3844L636.0774,512.3844L637.8801,512.3844
            L639.6828,512.3844L641.4854,512.3844L643.2881,512.3844L645.0908,512.3844L646.8935,512.3844L648.6962,512.3844L650.4989,512.3844L652.3015,512.3844L654.1042,512.3844L655.9069,512.3844
            L657.7096,512.3844L659.5123,512.3844L661.3150,512.3844L663.1177,512.3844L664.9203,512.3844L666.7230,512.3844L668.5257,512.3844L670.3284,512.3844L672.1311,512.3844L673.9338,512.3844
            L675.7365,512.3844L677.5391,512.3844L679.3418,512.3844L681.1445,512.3844L682.9472,512.3844L684.7499,512.3844L686.5526,512.3844L688.3553,512.3844L690.1579,512.3844L691.9607,512.3844
            L693.7633,512.3844L695.5660,512.3844L697.3687,512.3844L699.1714,512.3844L700.9740,512.3844L702.7768,512.3844L704.5794,512.3844L706.3821,512.3844L708.1848,512.3844L709.9875,512.3844
            L711.7902,512.3844L713.5928,512.3844L715.3956,512.3844L717.1982,512.3844L719.0009,512.3844L720.8036,512.3844L722.6063,512.3844L724.4090,512.3844L726.2117,512.3844L728.0144,512.3844
            L729.8170,512.3844L731.6197,512.3844L733.4224,512.3844L735.2251,512.3844L737.0278,512.3844L738.8305,512.3844L740.6332,512.3844L742.4358,512.3844L744.2385,512.3844L746.0412,512.3844
            L747.8439,512.3844L749.6466,512.3844L751.4493,512.3844L753.2519,512.3844L755.0546,512.3844L756.8573,512.3844L758.6600,512.3844L760.4627,512.3844L762.2654,512.3844L764.0681,512.3844
            L765.8707,512.3844L767.6734,512.3844L769.4761,512.3844L771.2788,512.3844L773.0815,512.3844L774.8842,512.3844L776.6869,512.3844L778.4895,512.3844L780.2922,512.3844L782.0949,512.3844
            L783.8976,512.3844L785.7003,512.3844L787.5030,512.3844L789.3057,512.3844L791.1083,512.3844L792.9111,512.3844L794.7137,512.3844L796.5164,512.3844L798.3191,512.3844L800.1218,512.3844
            L801.9244,512.3844L803.7271,512.3844L805.5298,512.3844L807.3325,512.3844L809.1352,512.3844L810.9379,512.3844L812.7406,512.3844L814.5432,512.3844L816.3460,512.3844L818.1486,512.3844
            L819.9513,512.3844L821.7540,512.3844L823.5567,512.3844L825.3594,512.3844L827.1621,512.3844L828.9648,512.3844L830.7674,512.3844L832.5701,512.3844L834.3728,512.3844L836.1755,512.3844
            L837.9782,512.3844L839.7809,512.3844L841.5836,512.3844L843.3862,512.3844L845.1889,512.3844L846.9916,512.3844L848.7943,512.3844L850.5970,512.3844L852.3997,512.3844L854.2023,512.3844
            L856.0050,512.3844L857.8077,512.3844L859.6104,512.3844L861.4131,512.3844L863.2158,512.3844L865.0185,512.3844L866.8211,512.3844L868.6238,512.3844L870.4265,512.3844L872.2292,512.3844
            L874.0319,512.3844L875.8346,512.3844L877.6373,512.3844L879.4399,512.3844L881.2426,512.3844L883.0453,512.3844L884.8480,512.3844L886.6507,512.3844L888.4534,512.3844L890.2560,512.3844
            L892.0587,512.3844L893.8614,512.3844L895.6641,512.3844L897.4668,512.3844L899.2695,512.3844L901.0722,512.3844L902.8748,512.3844L904.6775,512.3844L906.4802,512.3844L908.2829,512.3844
            L910.0856,512.3844L911.8883,512.3844L913.6910,512.3844L915.4936,512.3844L917.2964,512.3844L919.0990,512.3844L920.9017,512.3844L922.7044,512.3844L924.5071,512.3844L926.3098,512.3844
            L928.1125,512.3844L929.9152,512.3844L931.7178,512.3844L933.5205,512.3844L935.3232,512.3844L937.1259,512.3844L938.9286,512.3844L940.7313,512.3844L942.5340,512.3844L944.3366,512.3844
            L946.1393,512.3844L947.9420,512.3844L949.7447,512.3844L951.5474,512.3844L953.3501,512.3844L955.1527,512.3844L956.9554,512.3844L958.7581,512.3844L960.5608,512.3844L962.3635,512.3844
            L964.1662,512.3844L965.9689,512.3844L967.7715,512.3844L969.5742,512.3844L971.3769,512.3844L973.1796,512.3844L974.9823,512.3844L976.7850,512.3844L978.5877,512.3844L980.3903,512.3844
            L982.1930,512.3844L983.9957,512.3844L985.7984,512.3844L987.6011,512.3844L989.4038,512.3844L991.2064,512.3844L993.0091,512.3844L994.8118,512.3844L996.6145,512.3844L998.4172,512.3844
            L1000.2199,512.3844L1002.0226,512.3844L1003.8252,512.3844L1005.6279,512.3844L1007.4306,512.3844L1009.2333,512.3844L1011.0360,512.3844L1012.8387,512.3844L1014.6414,512.3844L1016.4440,512.3844
            L1018.2468,512.3844L1020.0494,512.3844L1021.8521,512.3844L1023.6548,512.3844L1025.4575,512.3844L1027.2602,512.3844L1029.0629,512.3844L1030.8656,512.3844L1032.6682,512.3844L1034.4709,512.3844"/>
  </g>
  <g style="fill:none; stroke:#008B00; stroke-width:  2.6968; stroke-linecap:butt; stroke-linejoin:miter; stroke-dasharray:none">
   <path d="M179.9078,175.6687L224.8848,183.9327L269.8618,193.9142L314.8388,205.2309L359.8158,318.8295L404.7928,394.2650L449.7698,452.2900L494.7468,495.7445L539.7238,533.7800L584.7008,561.6267
            L629.6778,584.3782L674.6548,608.7444L719.6319,625.7703L764.6089,651.0890L809.5859,669.0747L854.5629,681.9849L899.5399,700.2374L944.5169,718.6515L989.4939,729.4540L1034.4709,740.7971"/>
  </g>
  <g style="fill:#008B00; fill-rule:nonzero">
   <ellipse  rx="4.4946" ry="4.4946" cx="179.9078" cy="175.6687"/>
  </g>
  <g style="fill:none; stroke:#008B00; stroke-width:  2.6968; stroke-linecap:butt; stroke-linejoin:miter; stroke-dasharray:none">
   <ellipse  rx="4.4946" ry="4.4946" cx="179.9078" cy="175.6687"/>
  </g>
  <g style="fill:#008B00; fill-rule:nonzero">
   <ellipse  rx="4.4946" ry="4.4946" cx="224.8848" cy="183.9327"/>
  </g>
  <g style="fill:none; stroke:#008B00; stroke-width:  2.6968; stroke-linecap:butt; stroke-linejoin:miter; stroke-dasharray:none">
   <ellipse  rx="4.4946" ry="4.4946" cx="224.8848" cy="183.9327"/>
  </g>
  <g style="fill:#008B00; fill-rule:nonzero">
   <ellipse  rx="4.4946" ry="4.4946" cx="269.8618" cy="193.9142"/>
  </g>
  <g style="fill:none; stroke:#008B00; stroke-width:  2.6968; stroke-linecap:butt; stroke-linejoin:miter; stroke-dasharray:none">
   <ellipse  rx="4.4946" ry="4.4946" cx="269.8618" cy="193.9142"/>
  </g>
  <g style="fill:#008B00; fill-rule:nonzero">
   <ellipse  rx="4.4946" ry="4.4946" cx="314.8388" cy="205.2309"/>
  </g>
  <g style="fill:none; stroke:#008B00; stroke-width:  2.6968; stroke-linecap:butt; stroke-linejoin:miter; stroke-dasharray:none">
   <ellipse  rx="4.4946" ry="4.4946" cx="314.8388" cy="205.2309"/>
  </g>
  <g style="fill:#008B00; fill-rule:nonzero">
   <ellipse  rx="4.4946" ry="4.4946" cx="359.8158" cy="318.8295"/>
  </g>
  <g style="fill:none; stroke:#008B00; stroke-width:  2.6968; stroke-linecap:butt; stroke-linejoin:miter; stroke-dasharray:none">
   <ellipse  rx="4.4946" ry="4.4946" cx="359.8158" cy="318.8295"/>
  </g>
  <g style="fill:#008B00; fill-rule:nonzero">
   <ellipse  rx="4.4946" ry="4.4946" cx="404.7928" cy="394.2650"/>
  </g>
  <g style="fill:none; stroke:#008B00; stroke-width:  2.6968; stroke-linecap:butt; stroke-linejoin:miter; stroke-dasharray:none">
   <ellipse  rx="4.4946" ry="4.4946" cx="404.7928" cy="394.2650"/>
  </g>
  <g style="fill:#008B00; fill-rule:nonzero">
   <ellipse  rx="4.4946" ry="4.4946" cx="449.7698" cy="452.2900"/>
  </g>
  <g style="fill:none; stroke:#008B00; stroke-width:  2.6968; stroke-linecap:butt; stroke-linejoin:miter; stroke-dasharray:none">
   <ellipse  rx="4.4946" ry="4.4946" cx="449.7698" cy="452.2900"/>
  </g>
  <g style="fill:#008B00; fill-rule:nonzero">
   <ellipse  rx="4.4946" ry="4.4946" cx="494.7468" cy="495.7445"/>
  </g>
  <g style="fill:none; stroke:#008B00; stroke-width:  2.6968; stroke-linecap:butt; stroke-linejoin:miter; stroke-dasharray:none">
   <ellipse  rx="4.4946" ry="4.4946" cx="494.7468" cy="495.7445"/>
  </g>
  <g style="fill:#008B00; fill-rule:nonzero">
   <ellipse  rx="4.4946" ry="4.4946" cx="539.7238" cy="533.7800"/>
  </g>
  <g style="fill:none; stroke:#008B00; stroke-width:  2.6968; stroke-linecap:butt; stroke-linejoin:miter; stroke-dasharray:none">
   <ellipse  rx="4.4946" ry="4.4946" cx="539.7238" cy="533.7800"/>
  </g>
  <g style="fill:#008B00; fill-rule:nonzero">
   <ellipse  rx="4.4946" ry="4.4946" cx="584.7008" cy="561.6267"/>
  </g>
  <g style="fill:none; stroke:#008B00; stroke-width:  2.6968; stroke-linecap:butt; stroke-linejoin:miter; stroke-dasharray:none">
   <ellipse  rx="4.4946" ry="4.4946" cx="584.7008" cy="561.6267"/>
  </g>
  <g style="fill:#008B00; fill-rule:nonzero">
   <ellipse  rx="4.4946" ry="4.4946" cx="629.6778" cy="584.3782"/>
  </g>
  <g style="fill:none; stroke:#008B00; stroke-width:  2.6968; stroke-linecap:butt; stroke-linejoin:miter; stroke-dasharray:none">
   <ellipse  rx="4.4946" ry="4.4946" cx="629.6778" cy="584.3782"/>
  </g>
  <g style="fill:#008B00; fill-rule:nonzero">
   <ellipse  rx="4.4946" ry="4.4946" cx="674.6548" cy="608.7444"/>
  </g>
  <g style="fill:none; stroke:#008B00; stroke-width:  2.6968; stroke-linecap:butt; stroke-linejoin:miter; stroke-dasharray:none">
   <ellipse  rx="4.4946" ry="4.4946" cx="674.6548" cy="608.7444"/>
  </g>
  <g style="fill:#008B00; fill-rule:nonzero">
   <ellipse  rx="4.4946" ry="4.4946" cx="719.6319" cy="625.7703"/>
  </g>
  <g style="fill:none; stroke:#008B00; stroke-width:  2.6968; stroke-linecap:butt; stroke-linejoin:miter; stroke-dasharray:none">
   <ellipse  rx="4.4946" ry="4.4946" cx="719.6319" cy="625.7703"/>
  </g>
  <g style="fill:#008B00; fill-rule:nonzero">
   <ellipse  rx="4.4946" ry="4.4946" cx="764.6089" cy="651.0890"/>
  </g>
  <g style="fill:none; stroke:#008B00; stroke-width:  2.6968; stroke-linecap:butt; stroke-linejoin:miter; stroke-dasharray:none">
   <ellipse  rx="4.4946" ry="4.4946" cx="764.6089" cy="651.0890"/>
  </g>
  <g style="fill:#008B00; fill-rule:nonzero">
   <ellipse  rx="4.4946" ry="4.4946" cx="809.5859" cy="669.0747"/>
  </g>
  <g style="fill:none; stroke:#008B00; stroke-width:  2.6968; stroke-linecap:butt; stroke-linejoin:miter; stroke-dasharray:none">
   <ellipse  rx="4.4946" ry="4.4946" cx="809.5859" cy="669.0747"/>
  </g>
  <g style="fill:#008B00; fill-rule:nonzero">
   <ellipse  rx="4.4946" ry="4.4946" cx="854.5629" cy="681.9849"/>
  </g>
  <g style="fill:none; stroke:#008B00; stroke-width:  2.6968; stroke-linecap:butt; stroke-linejoin:miter; stroke-dasharray:none">
   <ellipse  rx="4.4946" ry="4.4946" cx="854.5629" cy="681.9849"/>
  </g>
  <g style="fill:#008B00; fill-rule:nonzero">
   <ellipse  rx="4.4946" ry="4.4946" cx="899.5399" cy="700.2374"/>
  </g>
  <g style="fill:none; stroke:#008B00; stroke-width:  2.6968; stroke-linecap:butt; stroke-linejoin:miter; stroke-dasharray:none">
   <ellipse  rx="4.4946" ry="4.4946" cx="899.5399" cy="700.2374"/>
  </g>
  <g style="fill:#008B00; fill-rule:nonzero">
   <ellipse  rx="4.4946" ry="4.4946" cx="944.5169" cy="718.6515"/>
  </g>
  <g style="fill:none; stroke:#008B00; stroke-width:  2.6968; stroke-linecap:butt; stroke-linejoin:miter; stroke-dasharray:none">
   <ellipse  rx="4.4946" ry="4.4946" cx="944.5169" cy="718.6515"/>
  </g>
  <g style="fill:#008B00; fill-rule:nonzero">
   <ellipse  rx="4.4946" ry="4.4946" cx="989.4939" cy="729.4540"/>
  </g>
  <g style="fill:none; stroke:#008B00; stroke-width:  2.6968; stroke-linecap:butt; stroke-linejoin:miter; stroke-dasharray:none">
   <ellipse  rx="4.4946" ry="4.4946" cx="989.4939" cy="729.4540"/>
  </g>
  <g style="fill:#008B00; fill-rule:nonzero">
   <ellipse  rx="4.4946" ry="4.4946" cx="1034.4709" cy="740.7971"/>
  </g>
  <g style="fill:none; stroke:#008B00; stroke-width:  2.6968; stroke-linecap:butt; stroke-linejoin:miter; stroke-dasharray:none">
   <ellipse  rx="4.4946" ry="4.4946" cx="1034.4709" cy="740.7971"/>
  </g>
  <g style="fill:none; stroke:#FF0000; stroke-width:  2.6968; stroke-linecap:butt; stroke-linejoin:miter; stroke-dasharray:none">
   <path d="M179.9078,580.8577L224.8848,614.5392L269.8618,662.7591L314.8388,667.3520L359.8158,692.8799L404.7928,677.4212L449.7698,690.2040L494.7468,691.4508L539.7238,699.9415L584.7008,717.8478
            L629.6778,731.4286L674.6548,745.5814"/>
  </g>
  <g style="fill:#FF0000; fill-rule:nonzero">
   <ellipse  rx="4.4946" ry="4.4946" cx="179.9078" cy="580.8577"/>
  </g>
  <g style="fill:none; stroke:#FF0000; stroke-width:  2.6968; stroke-linecap:butt; stroke-linejoin:miter; stroke-dasharray:none">
   <ellipse  rx="4.4946" ry="4.4946" cx="179.9078" cy="580.8577"/>
  </g>
  <g style="fill:#FF0000; fill-rule:nonzero">
   <ellipse  rx="4.4946" ry="4.4946" cx="224.8848" cy="614.5392"/>
  </g>
  <g style="fill:none; stroke:#FF0000; stroke-width:  2.6968; stroke-linecap:butt; stroke-linejoin:miter; stroke-dasharray:none">
   <ellipse  rx="4.4946" ry="4.4946" cx="224.8848" cy="614.5392"/>
  </g>
  <g style="fill:#FF0000; fill-rule:nonzero">
   <ellipse  rx="4.4946" ry="4.4946" cx="269.8618" cy="662.7591"/>
  </g>
  <g style="fill:none; stroke:#FF0000; stroke-width:  2.6968; stroke-linecap:butt; stroke-linejoin:miter; stroke-dasharray:none">
   <ellipse  rx="4.4946" ry="4.4946" cx="269.8618" cy="662.7591"/>
  </g>
  <g style="fill:#FF0000; fill-rule:nonzero">
   <ellipse  rx="4.4946" ry="4.4946" cx="314.8388" cy="667.3520"/>
  </g>
  <g style="fill:none; stroke:#FF0000; stroke-width:  2.6968; stroke-linecap:butt; stroke-linejoin:miter; stroke-dasharray:none">
   <ellipse  rx="4.4946" ry="4.4946" cx="314.8388" cy="667.3520"/>
  </g>
  <g style="fill:#FF0000; fill-rule:nonzero">
   <ellipse  rx="4.4946" ry="4.4946" cx="359.8158" cy="692.8799"/>
  </g>
  <g style="fill:none; stroke:#FF0000; stroke-width:  2.6968; stroke-linecap:butt; stroke-linejoin:miter; stroke-dasharray:none">
   <ellipse  rx="4.4946" ry="4.4946" cx="359.8158" cy="692.8799"/>
  </g>
  <g style="fill:#FF0000; fill-rule:nonzero">
   <ellipse  rx="4.4946" ry="4.4946" cx="404.7928" cy="677.4212"/>
  </g>
  <g style="fill:none; stroke:#FF0000; stroke-width:  2.6968; stroke-linecap:butt; stroke-linejoin:miter; stroke-dasharray:none">
   <ellipse  rx="4.4946" ry="4.4946" cx="404.7928" cy="677.4212"/>
  </g>
  <g style="fill:#FF0000; fill-rule:nonzero">
   <ellipse  rx="4.4946" ry="4.4946" cx="449.7698" cy="690.2040"/>
  </g>
  <g style="fill:none; stroke:#FF0000; stroke-width:  2.6968; stroke-linecap:butt; stroke-linejoin:miter; stroke-dasharray:none">
   <ellipse  rx="4.4946" ry="4.4946" cx="449.7698" cy="690.2040"/>
  </g>
  <g style="fill:#FF0000; fill-rule:nonzero">
   <ellipse  rx="4.4946" ry="4.4946" cx="494.7468" cy="691.4508"/>
  </g>
  <g style="fill:none; stroke:#FF0000; stroke-width:  2.6968; stroke-linecap:butt; stroke-linejoin:miter; stroke-dasharray:none">
   <ellipse  rx="4.4946" ry="4.4946" cx="494.7468" cy="691.4508"/>
  </g>
  <g style="fill:#FF0000; fill-rule:nonzero">
   <ellipse  rx="4.4946" ry="4.4946" cx="539.7238" cy="699.9415"/>
  </g>
  <g style="fill:none; stroke:#FF0000; stroke-width:  2.6968; stroke-linecap:butt; stroke-linejoin:miter; stroke-dasharray:none">
   <ellipse  rx="4.4946" ry="4.4946" cx="539.7238" cy="699.9415"/>
  </g>
  <g style="fill:#FF0000; fill-rule:nonzero">
   <ellipse  rx="4.4946" ry="4.4946" cx="584.7008" cy="717.8478"/>
  </g>
  <g style="fill:none; stroke:#FF0000; stroke-width:  2.6968; stroke-linecap:butt; stroke-linejoin:miter; stroke-dasharray:none">
   <ellipse  rx="4.4946" ry="4.4946" cx="584.7008" cy="717.8478"/>
  </g>
  <g style="fill:#FF0000; fill-rule:nonzero">
   <ellipse  rx="4.4946" ry="4.4946" cx="629.6778" cy="731.4286"/>
  </g>
  <g style="fill:none; stroke:#FF0000; stroke-width:  2.6968; stroke-linecap:butt; stroke-linejoin:miter; stroke-dasharray:none">
   <ellipse  rx="4.4946" ry="4.4946" cx="629.6778" cy="731.4286"/>
  </g>
  <g style="fill:#FF0000; fill-rule:nonzero">
   <ellipse  rx="4.4946" ry="4.4946" cx="674.6548" cy="745.5814"/>
  </g>
  <g style="fill:none; stroke:#FF0000; stroke-width:  2.6968; stroke-linecap:butt; stroke-linejoin:miter; stroke-dasharray:none">
   <ellipse  rx="4.4946" ry="4.4946" cx="674.6548" cy="745.5814"/>
  </g>
  <g style="fill:none; stroke:#000000; stroke-width:  2.6968; stroke-linecap:butt; stroke-linejoin:miter; stroke-dasharray:none">
   <path d="M134.9308,134.8380L1034.4709,134.8380"/>
   <path d="M134.9308,764.0820L1034.4709,764.0820"/>
   <path d="M179.9078,134.8380L179.9078,143.8272"/>
   <path d="M179.9078,764.0820L179.9078,755.0928"/>
   <path d="M269.8618,134.8380L269.8618,143.8272"/>
   <path d="M269.8618,764.0820L269.8618,755.0928"/>
   <path d="M359.8158,134.8380L359.8158,143.8272"/>
   <path d="M359.8158,764.0820L359.8158,755.0928"/>
   <path d="M449.7698,134.8380L449.7698,143.8272"/>
   <path d="M449.7698,764.0820L449.7698,755.0928"/>
   <path d="M539.7238,134.8380L539.7238,143.8272"/>
   <path d="M539.7238,764.0820L539.7238,755.0928"/>
   <path d="M629.6778,134.8380L629.6778,143.8272"/>
   <path d="M629.6778,764.0820L629.6778,755.0928"/>
   <path d="M719.6319,134.8380L719.6319,143.8272"/>
   <path d="M719.6319,764.0820L719.6319,755.0928"/>
   <path d="M809.5859,134.8380L809.5859,143.8272"/>
   <path d="M809.5859,764.0820L809.5859,755.0928"/>
   <path d="M899.5399,134.8380L899.5399,143.8272"/>
   <path d="M899.5399,764.0820L899.5399,755.0928"/>
   <path d="M989.4939,134.8380L989.4939,143.8272"/>
   <path d="M989.4939,764.0820L989.4939,755.0928"/>
   <path d="M134.9308,134.8380L134.9308,152.8164"/>
   <path d="M134.9308,764.0820L134.9308,746.1036"/>
   <path d="M224.8848,134.8380L224.8848,152.8164"/>
   <path d="M224.8848,764.0820L224.8848,746.1036"/>
   <path d="M314.8388,134.8380L314.8388,152.8164"/>
   <path d="M314.8388,764.0820L314.8388,746.1036"/>
   <path d="M404.7928,134.8380L404.7928,152.8164"/>
   <path d="M404.7928,764.0820L404.7928,746.1036"/>
   <path d="M494.7468,134.8380L494.7468,152.8164"/>
   <path d="M494.7468,764.0820L494.7468,746.1036"/>
   <path d="M584.7008,134.8380L584.7008,152.8164"/>
   <path d="M584.7008,764.0820L584.7008,746.1036"/>
   <path d="M674.6548,134.8380L674.6548,152.8164"/>
   <path d="M674.6548,764.0820L674.6548,746.1036"/>
   <path d="M764.6089,134.8380L764.6089,152.8164"/>
   <path d="M764.6089,764.0820L764.6089,746.1036"/>
   <path d="M854.5629,134.8380L854.5629,152.8164"/>
   <path d="M854.5629,764.0820L854.5629,746.1036"/>
   <path d="M944.5169,134.8380L944.5169,152.8164"/>
   <path d="M944.5169,764.0820L944.5169,746.1036"/>
   <path d="M1034.4709,134.8380L1034.4709,152.8164"/>
   <path d="M1034.4709,764.0820L1034.4709,746.1036"/>
  </g>
  <g style="fill:#000000; fill-rule:nonzero">
   <text   style="font-family:'Times','Nimbus Roman No9 L'; font-style:normal; font-weight:bold; font-size:898.9200" transform="matrix(0.0280,0.0000,-0.0000,-0.0280,128.9908,108.5688)">0</text>
   <text   style="font-family:'Times','Nimbus Roman No9 L'; font-style:normal; font-weight:bold; font-size:898.9200" transform="matrix(0.0280,0.0000,-0.0000,-0.0280,218.9448,108.5688)">2</text>
   <text   style="font-family:'Times','Nimbus Roman No9 L'; font-style:normal; font-weight:bold; font-size:898.9200" transform="matrix(0.0280,0.0000,-0.0000,-0.0280,308.8988,108.5688)">4</text>
   <text   style="font-family:'Times','Nimbus Roman No9 L'; font-style:normal; font-weight:bold; font-size:898.9200" transform="matrix(0.0280,0.0000,-0.0000,-0.0280,398.8528,108.5688)">6</text>
   <text   style="font-family:'Times','Nimbus Roman No9 L'; font-style:normal; font-weight:bold; font-size:898.9200" transform="matrix(0.0280,0.0000,-0.0000,-0.0280,488.8068,108.5688)">8</text>
   <text   style="font-family:'Times','Nimbus Roman No9 L'; font-style:normal; font-weight:bold; font-size:898.9200" transform="matrix(0.0280,0.0000,-0.0000,-0.0280,572.4608,108.5688)">10</text>
   <text   style="font-family:'Times','Nimbus Roman No9 L'; font-style:normal; font-weight:bold; font-size:898.9200" transform="matrix(0.0280,0.0000,-0.0000,-0.0280,662.4148,108.5688)">12</text>
   <text   style="font-family:'Times','Nimbus Roman No9 L'; font-style:normal; font-weight:bold; font-size:898.9200" transform="matrix(0.0280,0.0000,-0.0000,-0.0280,752.3689,108.5688)">14</text>
   <text   style="font-family:'Times','Nimbus Roman No9 L'; font-style:normal; font-weight:bold; font-size:898.9200" transform="matrix(0.0280,0.0000,-0.0000,-0.0280,842.3229,108.5688)">16</text>
   <text   style="font-family:'Times','Nimbus Roman No9 L'; font-style:normal; font-weight:bold; font-size:898.9200" transform="matrix(0.0280,0.0000,-0.0000,-0.0280,932.2769,108.5688)">18</text>
   <text   style="font-family:'Times','Nimbus Roman No9 L'; font-style:normal; font-weight:bold; font-size:898.9200" transform="matrix(0.0280,0.0000,-0.0000,-0.0280,1022.2309,108.5688)">20</text>
   <text   style="font-family:'Times','Nimbus Roman No9 L'; font-style:normal; font-weight:bold; font-size:898.9200" transform="matrix(0.0280,0.0000,-0.0000,-0.0280,469.5008,81.9396)">Number of Hydrogen</text>
  </g>
  <g style="fill:none; stroke:#000000; stroke-width:  1.3484; stroke-linecap:butt; stroke-linejoin:miter; stroke-dasharray:none">
   <path d="M134.9308,134.8380L134.9308,764.0820"/>
   <path d="M1034.4709,134.8380L1034.4709,764.0820"/>
  </g>
  <g style="fill:none; stroke:#000000; stroke-width:  2.6968; stroke-linecap:butt; stroke-linejoin:miter; stroke-dasharray:none">
   <path d="M134.9308,134.8380L143.9200,134.8380"/>
   <path d="M1034.4709,134.8380L1025.4817,134.8380"/>
   <path d="M134.9308,218.7372L143.9200,218.7372"/>
   <path d="M1034.4709,218.7372L1025.4817,218.7372"/>
   <path d="M134.9308,302.6364L143.9200,302.6364"/>
   <path d="M1034.4709,302.6364L1025.4817,302.6364"/>
   <path d="M134.9308,386.5356L143.9200,386.5356"/>
   <path d="M1034.4709,386.5356L1025.4817,386.5356"/>
   <path d="M134.9308,470.4348L143.9200,470.4348"/>
   <path d="M1034.4709,470.4348L1025.4817,470.4348"/>
   <path d="M134.9308,554.3340L143.9200,554.3340"/>
   <path d="M1034.4709,554.3340L1025.4817,554.3340"/>
   <path d="M134.9308,638.2332L143.9200,638.2332"/>
   <path d="M1034.4709,638.2332L1025.4817,638.2332"/>
   <path d="M134.9308,722.1324L143.9200,722.1324"/>
   <path d="M1034.4709,722.1324L1025.4817,722.1324"/>
   <path d="M134.9308,176.7876L152.9092,176.7876"/>
   <path d="M1034.4709,176.7876L1016.4925,176.7876"/>
   <path d="M134.9308,260.6868L152.9092,260.6868"/>
   <path d="M1034.4709,260.6868L1016.4925,260.6868"/>
   <path d="M134.9308,344.5860L152.9092,344.5860"/>
   <path d="M1034.4709,344.5860L1016.4925,344.5860"/>
   <path d="M134.9308,428.4852L152.9092,428.4852"/>
   <path d="M1034.4709,428.4852L1016.4925,428.4852"/>
   <path d="M134.9308,512.3844L152.9092,512.3844"/>
   <path d="M1034.4709,512.3844L1016.4925,512.3844"/>
   <path d="M134.9308,596.2836L152.9092,596.2836"/>
   <path d="M1034.4709,596.2836L1016.4925,596.2836"/>
   <path d="M134.9308,680.1828L152.9092,680.1828"/>
   <path d="M1034.4709,680.1828L1016.4925,680.1828"/>
  </g>
  <g style="fill:#000000; fill-rule:nonzero">
   <text   style="font-family:'Times','Nimbus Roman No9 L'; font-style:normal; font-weight:bold; font-size:898.9200" transform="matrix(0.0280,0.0000,-0.0000,-0.0280,86.7016,168.3276)">-0.4</text>
   <text   style="font-family:'Times','Nimbus Roman No9 L'; font-style:normal; font-weight:bold; font-size:898.9200" transform="matrix(0.0280,0.0000,-0.0000,-0.0280,86.7016,252.2268)">-0.3</text>
   <text   style="font-family:'Times','Nimbus Roman No9 L'; font-style:normal; font-weight:bold; font-size:898.9200" transform="matrix(0.0280,0.0000,-0.0000,-0.0280,86.7016,336.1260)">-0.2</text>
   <text   style="font-family:'Times','Nimbus Roman No9 L'; font-style:normal; font-weight:bold; font-size:898.9200" transform="matrix(0.0280,0.0000,-0.0000,-0.0280,87.4216,420.0252)">-0.1</text>
   <text   style="font-family:'Times','Nimbus Roman No9 L'; font-style:normal; font-weight:bold; font-size:898.9200" transform="matrix(0.0280,0.0000,-0.0000,-0.0280,114.0616,503.9244)">0</text>
   <text   style="font-family:'Times','Nimbus Roman No9 L'; font-style:normal; font-weight:bold; font-size:898.9200" transform="matrix(0.0280,0.0000,-0.0000,-0.0280,96.0616,587.8236)">0.1</text>
   <text   style="font-family:'Times','Nimbus Roman No9 L'; font-style:normal; font-weight:bold; font-size:898.9200" transform="matrix(0.0280,0.0000,-0.0000,-0.0280,95.3416,671.7228)">0.2</text>
   <text   style="font-family:'Times','Nimbus Roman No9 L'; font-style:normal; font-weight:bold; font-size:898.9200" transform="matrix(0.0000,0.0280,0.0280,-0.0000,72.3124,287.4600)">Gibbs Free Energy per H (eV)</text>
  </g>
  <g style="fill:none; stroke:#000000; stroke-width:  2.6968; stroke-linecap:butt; stroke-linejoin:miter; stroke-dasharray:none">
   <path d="M134.9308,134.8380L134.9308,764.0820L1034.4709,764.0820L1034.4709,134.8380z"/>
  </g>
  <g style="fill:#FFFFFF; fill-rule:nonzero">
   <path  d="M764.6087,359.5680L764.6087,277.1846L955.7653,277.1846L955.7653,359.5680z"/>
  </g>
  <g style="fill:none; stroke:#000000; stroke-width:  2.6968; stroke-linecap:butt; stroke-linejoin:miter; stroke-dasharray:none">
   <path d="M764.6087,359.5680L764.6087,277.1846L955.7653,277.1846L955.7653,359.5680z"/>
  </g>
  <g style="fill:#000000; fill-rule:nonzero">
   <text   style="font-family:'Times','Nimbus Roman No9 L'; font-style:normal; font-weight:bold; font-size:898.9200" transform="matrix(0.0280,0.0000,-0.0000,-0.0280,833.3761,333.2988)">Ni</text>
   <text   style="font-family:'Times','Nimbus Roman No9 L'; font-style:normal; font-weight:bold; font-size:898.9200" transform="matrix(0.0198,0.0000,-0.0000,-0.0198,858.5761,323.2309)">3</text>
   <text   style="font-family:'Times','Nimbus Roman No9 L'; font-style:normal; font-weight:bold; font-size:898.9200" transform="matrix(0.0280,0.0000,-0.0000,-0.0280,867.5761,333.2988)">P</text>
   <text   style="font-family:'Times','Nimbus Roman No9 L'; font-style:normal; font-weight:bold; font-size:898.9200" transform="matrix(0.0198,0.0000,-0.0000,-0.0198,883.0561,323.2309)">2</text>
  </g>
  <g style="fill:none; stroke:#008B00; stroke-width:  2.6968; stroke-linecap:butt; stroke-linejoin:miter; stroke-dasharray:none">
   <path d="M779.4409,336.7248L815.3977,336.7248"/>
  </g>
  <g style="fill:#008B00; fill-rule:nonzero">
   <ellipse  rx="4.4946" ry="4.4946" cx="779.4409" cy="336.7248"/>
  </g>
  <g style="fill:none; stroke:#008B00; stroke-width:  2.6968; stroke-linecap:butt; stroke-linejoin:miter; stroke-dasharray:none">
   <ellipse  rx="4.4946" ry="4.4946" cx="779.4409" cy="336.7248"/>
  </g>
  <g style="fill:#008B00; fill-rule:nonzero">
   <ellipse  rx="4.4946" ry="4.4946" cx="815.3977" cy="336.7248"/>
  </g>
  <g style="fill:none; stroke:#008B00; stroke-width:  2.6968; stroke-linecap:butt; stroke-linejoin:miter; stroke-dasharray:none">
   <ellipse  rx="4.4946" ry="4.4946" cx="815.3977" cy="336.7248"/>
  </g>
  <g style="fill:#000000; fill-rule:nonzero">
   <text   style="font-family:'Times','Nimbus Roman No9 L'; font-style:normal; font-weight:bold; font-size:898.9200" transform="matrix(0.0280,0.0000,-0.0000,-0.0280,833.3761,296.6017)">Ni</text>
   <text   style="font-family:'Times','Nimbus Roman No9 L'; font-style:normal; font-weight:bold; font-size:898.9200" transform="matrix(0.0198,0.0000,-0.0000,-0.0198,858.5761,286.5338)">3</text>
   <text   style="font-family:'Times','Nimbus Roman No9 L'; font-style:normal; font-weight:bold; font-size:898.9200" transform="matrix(0.0280,0.0000,-0.0000,-0.0280,867.5761,296.6017)">P</text>
   <text   style="font-family:'Times','Nimbus Roman No9 L'; font-style:normal; font-weight:bold; font-size:898.9200" transform="matrix(0.0198,0.0000,-0.0000,-0.0198,883.0561,286.5338)">2</text>
   <text   style="font-family:'Times','Nimbus Roman No9 L'; font-style:normal; font-weight:bold; font-size:898.9200" transform="matrix(0.0280,0.0000,-0.0000,-0.0280,892.0561,296.6017)"> + 4P</text>
  </g>
  <g style="fill:none; stroke:#FF0000; stroke-width:  2.6968; stroke-linecap:butt; stroke-linejoin:miter; stroke-dasharray:none">
   <path d="M779.4409,300.0277L815.3977,300.0277"/>
  </g>
  <g style="fill:#FF0000; fill-rule:nonzero">
   <ellipse  rx="4.4946" ry="4.4946" cx="779.4409" cy="300.0277"/>
  </g>
  <g style="fill:none; stroke:#FF0000; stroke-width:  2.6968; stroke-linecap:butt; stroke-linejoin:miter; stroke-dasharray:none">
   <ellipse  rx="4.4946" ry="4.4946" cx="779.4409" cy="300.0277"/>
  </g>
  <g style="fill:#FF0000; fill-rule:nonzero">
   <ellipse  rx="4.4946" ry="4.4946" cx="815.3977" cy="300.0277"/>
  </g>
  <g style="fill:none; stroke:#FF0000; stroke-width:  2.6968; stroke-linecap:butt; stroke-linejoin:miter; stroke-dasharray:none">
   <ellipse  rx="4.4946" ry="4.4946" cx="815.3977" cy="300.0277"/>
  </g>
 </g>
</svg>
