<?xml version="1.0" encoding="ISO-8859-1"?>
<!DOCTYPE svg PUBLIC "-//W3C//DTD SVG 1.0//EN" "http://www.w3.org/TR/2001/REC-SVG-20010904/DTD/svg10.dtd">
<!-- generated by Grace-5.1.25 -->
<svg xml:space="preserve" width="16.1550in" height="12.4850in" viewBox="0.0000 0.0000 1163.1600 898.9200">
 <g transform="translate(0,898.9200) scale(1,-1)">
  <g style="fill:#FFFFFF; fill-rule:nonzero">
   <path  d="M0.0000,0.0000L0.0000,898.9200L1163.1601,898.9200L1163.1601,0.0000z"/>
  </g>
  <defs>
   <pattern id="pattern4" viewBox="0 0 16 16" width="16" height="16" patternUnits="userSpaceOnUse">
     <rect fill="#FFFFFF" x="0" y="0" width="16" height="16"/>
     <rect x="0" y="15" width="1" height="1"/>
     <rect x="2" y="15" width="1" height="1"/>
     <rect x="4" y="15" width="1" height="1"/>
     <rect x="6" y="15" width="1" height="1"/>
     <rect x="8" y="15" width="1" height="1"/>
     <rect x="10" y="15" width="1" height="1"/>
     <rect x="12" y="15" width="1" height="1"/>
     <rect x="14" y="15" width="1" height="1"/>
     <rect x="1" y="14" width="1" height="1"/>
     <rect x="3" y="14" width="1" height="1"/>
     <rect x="5" y="14" width="1" height="1"/>
     <rect x="7" y="14" width="1" height="1"/>
     <rect x="9" y="14" width="1" height="1"/>
     <rect x="11" y="14" width="1" height="1"/>
     <rect x="13" y="14" width="1" height="1"/>
     <rect x="15" y="14" width="1" height="1"/>
     <rect x="0" y="13" width="1" height="1"/>
     <rect x="2" y="13" width="1" height="1"/>
     <rect x="4" y="13" width="1" height="1"/>
     <rect x="6" y="13" width="1" height="1"/>
     <rect x="8" y="13" width="1" height="1"/>
     <rect x="10" y="13" width="1" height="1"/>
     <rect x="12" y="13" width="1" height="1"/>
     <rect x="14" y="13" width="1" height="1"/>
     <rect x="1" y="12" width="1" height="1"/>
     <rect x="3" y="12" width="1" height="1"/>
     <rect x="5" y="12" width="1" height="1"/>
     <rect x="7" y="12" width="1" height="1"/>
     <rect x="9" y="12" width="1" height="1"/>
     <rect x="11" y="12" width="1" height="1"/>
     <rect x="13" y="12" width="1" height="1"/>
     <rect x="15" y="12" width="1" height="1"/>
     <rect x="0" y="11" width="1" height="1"/>
     <rect x="2" y="11" width="1" height="1"/>
     <rect x="4" y="11" width="1" height="1"/>
     <rect x="6" y="11" width="1" height="1"/>
     <rect x="8" y="11" width="1" height="1"/>
     <rect x="10" y="11" width="1" height="1"/>
     <rect x="12" y="11" width="1" height="1"/>
     <rect x="14" y="11" width="1" height="1"/>
     <rect x="1" y="10" width="1" height="1"/>
     <rect x="3" y="10" width="1" height="1"/>
     <rect x="5" y="10" width="1" height="1"/>
     <rect x="7" y="10" width="1" height="1"/>
     <rect x="9" y="10" width="1" height="1"/>
     <rect x="11" y="10" width="1" height="1"/>
     <rect x="13" y="10" width="1" height="1"/>
     <rect x="15" y="10" width="1" height="1"/>
     <rect x="0" y="9" width="1" height="1"/>
     <rect x="2" y="9" width="1" height="1"/>
     <rect x="4" y="9" width="1" height="1"/>
     <rect x="6" y="9" width="1" height="1"/>
     <rect x="8" y="9" width="1" height="1"/>
     <rect x="10" y="9" width="1" height="1"/>
     <rect x="12" y="9" width="1" height="1"/>
     <rect x="14" y="9" width="1" height="1"/>
     <rect x="1" y="8" width="1" height="1"/>
     <rect x="3" y="8" width="1" height="1"/>
     <rect x="5" y="8" width="1" height="1"/>
     <rect x="7" y="8" width="1" height="1"/>
     <rect x="9" y="8" width="1" height="1"/>
     <rect x="11" y="8" width="1" height="1"/>
     <rect x="13" y="8" width="1" height="1"/>
     <rect x="15" y="8" width="1" height="1"/>
     <rect x="0" y="7" width="1" height="1"/>
     <rect x="2" y="7" width="1" height="1"/>
     <rect x="4" y="7" width="1" height="1"/>
     <rect x="6" y="7" width="1" height="1"/>
     <rect x="8" y="7" width="1" height="1"/>
     <rect x="10" y="7" width="1" height="1"/>
     <rect x="12" y="7" width="1" height="1"/>
     <rect x="14" y="7" width="1" height="1"/>
     <rect x="1" y="6" width="1" height="1"/>
     <rect x="3" y="6" width="1" height="1"/>
     <rect x="5" y="6" width="1" height="1"/>
     <rect x="7" y="6" width="1" height="1"/>
     <rect x="9" y="6" width="1" height="1"/>
     <rect x="11" y="6" width="1" height="1"/>
     <rect x="13" y="6" width="1" height="1"/>
     <rect x="15" y="6" width="1" height="1"/>
     <rect x="0" y="5" width="1" height="1"/>
     <rect x="2" y="5" width="1" height="1"/>
     <rect x="4" y="5" width="1" height="1"/>
     <rect x="6" y="5" width="1" height="1"/>
     <rect x="8" y="5" width="1" height="1"/>
     <rect x="10" y="5" width="1" height="1"/>
     <rect x="12" y="5" width="1" height="1"/>
     <rect x="14" y="5" width="1" height="1"/>
     <rect x="1" y="4" width="1" height="1"/>
     <rect x="3" y="4" width="1" height="1"/>
     <rect x="5" y="4" width="1" height="1"/>
     <rect x="7" y="4" width="1" height="1"/>
     <rect x="9" y="4" width="1" height="1"/>
     <rect x="11" y="4" width="1" height="1"/>
     <rect x="13" y="4" width="1" height="1"/>
     <rect x="15" y="4" width="1" height="1"/>
     <rect x="0" y="3" width="1" height="1"/>
     <rect x="2" y="3" width="1" height="1"/>
     <rect x="4" y="3" width="1" height="1"/>
     <rect x="6" y="3" width="1" height="1"/>
     <rect x="8" y="3" width="1" height="1"/>
     <rect x="10" y="3" width="1" height="1"/>
     <rect x="12" y="3" width="1" height="1"/>
     <rect x="14" y="3" width="1" height="1"/>
     <rect x="1" y="2" width="1" height="1"/>
     <rect x="3" y="2" width="1" height="1"/>
     <rect x="5" y="2" width="1" height="1"/>
     <rect x="7" y="2" width="1" height="1"/>
     <rect x="9" y="2" width="1" height="1"/>
     <rect x="11" y="2" width="1" height="1"/>
     <rect x="13" y="2" width="1" height="1"/>
     <rect x="15" y="2" width="1" height="1"/>
     <rect x="0" y="1" width="1" height="1"/>
     <rect x="2" y="1" width="1" height="1"/>
     <rect x="4" y="1" width="1" height="1"/>
     <rect x="6" y="1" width="1" height="1"/>
     <rect x="8" y="1" width="1" height="1"/>
     <rect x="10" y="1" width="1" height="1"/>
     <rect x="12" y="1" width="1" height="1"/>
     <rect x="14" y="1" width="1" height="1"/>
     <rect x="1" y="0" width="1" height="1"/>
     <rect x="3" y="0" width="1" height="1"/>
     <rect x="5" y="0" width="1" height="1"/>
     <rect x="7" y="0" width="1" height="1"/>
     <rect x="9" y="0" width="1" height="1"/>
     <rect x="11" y="0" width="1" height="1"/>
     <rect x="13" y="0" width="1" height="1"/>
     <rect x="15" y="0" width="1" height="1"/>
   </pattern>
   <filter id="tocolor5" filterUnits="objectBoundingBox"
    color-interpolation-filters="sRGB" x="0%" y="0%" width="100%" height="100%">
    <feComponentTransfer>
      <feFuncR type="discrete" tableValues="1.000000 1.000000"/>
      <feFuncG type="discrete" tableValues="1.000000 1.000000"/>
      <feFuncB type="discrete" tableValues="0.000000 1.000000"/>
    </feComponentTransfer>
   </filter>
  </defs>
  <g style="filter:url(#tocolor5); fill:url(#pattern4); fill-rule:nonzero">
   <path  d="M134.8840,606.7710L136.6861,606.7710L138.4881,606.7710L140.2902,606.7710L142.0922,606.7710L143.8943,606.7710L145.6963,606.7710L147.4984,606.7710L149.3005,606.7710L151.1025,606.7710
             L152.9046,606.7710L154.7066,606.7710L156.5087,606.7710L158.3108,606.7710L160.1128,606.7710L161.9149,606.7710L163.7169,606.7710L165.5190,606.7710L167.3210,606.7710L169.1231,606.7710
             L170.9252,606.7710L172.7272,606.7710L174.5293,606.7710L176.3313,606.7710L178.1334,606.7710L179.9355,606.7710L181.7375,606.7710L183.5396,606.7710L185.3416,606.7710L187.1437,606.7710
             L188.9458,606.7710L190.7478,606.7710L192.5499,606.7710L194.3519,606.7710L196.1540,606.7710L197.9560,606.7710L199.7581,606.7710L201.5602,606.7710L203.3622,606.7710L205.1643,606.7710
             L206.9663,606.7710L208.7684,606.7710L210.5705,606.7710L212.3725,606.7710L214.1746,606.7710L215.9766,606.7710L217.7787,606.7710L219.5807,606.7710L221.3828,606.7710L223.1849,606.7710
             L224.9869,606.7710L226.7890,606.7710L228.5910,606.7710L230.3931,606.7710L232.1952,606.7710L233.9972,606.7710L235.7993,606.7710L237.6013,606.7710L239.4034,606.7710L241.2055,606.7710
             L243.0075,606.7710L244.8096,606.7710L246.6116,606.7710L248.4137,606.7710L250.2157,606.7710L252.0178,606.7710L253.8199,606.7710L255.6219,606.7710L257.4240,606.7710L259.2260,606.7710
             L261.0281,606.7710L262.8302,606.7710L264.6322,606.7710L266.4343,606.7710L268.2363,606.7710L270.0384,606.7710L271.8404,606.7710L273.6425,606.7710L275.4446,606.7710L277.2466,606.7710
             L279.0487,606.7710L280.8507,606.7710L282.6528,606.7710L284.4549,606.7710L286.2569,606.7710L288.0590,606.7710L289.8610,606.7710L291.6631,606.7710L293.4651,606.7710L295.2672,606.7710
             L297.0693,606.7710L298.8713,606.7710L300.6734,606.7710L302.4754,606.7710L304.2775,606.7710L306.0796,606.7710L307.8816,606.7710L309.6837,606.7710L311.4857,606.7710L313.2878,606.7710
             L315.0898,606.7710L316.8919,606.7710L318.6940,606.7710L320.4960,606.7710L322.2981,606.7710L324.1001,606.7710L325.9022,606.7710L327.7043,606.7710L329.5063,606.7710L331.3084,606.7710
             L333.1104,606.7710L334.9125,606.7710L336.7146,606.7710L338.5166,606.7710L340.3187,606.7710L342.1207,606.7710L343.9228,606.7710L345.7248,606.7710L347.5269,606.7710L349.3290,606.7710
             L351.1310,606.7710L352.9331,606.7710L354.7351,606.7710L356.5372,606.7710L358.3393,606.7710L360.1413,606.7710L361.9434,606.7710L363.7454,606.7710L365.5475,606.7710L367.3496,606.7710
             L369.1516,606.7710L370.9537,606.7710L372.7557,606.7710L374.5578,606.7710L376.3598,606.7710L378.1619,606.7710L379.9640,606.7710L381.7660,606.7710L383.5681,606.7710L385.3701,606.7710
             L387.1722,606.7710L388.9743,606.7710L390.7763,606.7710L392.5784,606.7710L394.3804,606.7710L396.1825,606.7710L397.9845,606.7710L399.7866,606.7710L401.5887,606.7710L403.3907,606.7710
             L405.1928,606.7710L406.9948,606.7710L408.7969,606.7710L410.5990,606.7710L412.4010,606.7710L414.2031,606.7710L416.0051,606.7710L417.8072,606.7710L419.6092,606.7710L421.4113,606.7710
             L423.2134,606.7710L425.0154,606.7710L426.8175,606.7710L428.6195,606.7710L430.4216,606.7710L432.2237,606.7710L434.0257,606.7710L435.8278,606.7710L437.6298,606.7710L439.4319,606.7710
             L441.2340,606.7710L443.0360,606.7710L444.8381,606.7710L446.6401,606.7710L448.4422,606.7710L450.2442,606.7710L452.0463,606.7710L453.8484,606.7710L455.6504,606.7710L457.4525,606.7710
             L459.2545,606.7710L461.0566,606.7710L462.8587,606.7710L464.6607,606.7710L466.4628,606.7710L468.2648,606.7710L470.0669,606.7710L471.8689,606.7710L473.6710,606.7710L475.4731,606.7710
             L477.2751,606.7710L479.0772,606.7710L480.8792,606.7710L482.6813,606.7710L484.4834,606.7710L486.2854,606.7710L488.0875,606.7710L489.8895,606.7710L491.6916,606.7710L493.4936,606.7710
             L495.2957,606.7710L497.0978,606.7710L498.8998,606.7710L500.7019,606.7710L502.5039,606.7710L504.3060,606.7710L506.1081,606.7710L507.9101,606.7710L509.7122,606.7710L511.5142,606.7710
             L513.3163,606.7710L515.1184,606.7710L516.9204,606.7710L518.7225,606.7710L520.5245,606.7710L522.3266,606.7710L524.1286,606.7710L525.9307,606.7710L527.7328,606.7710L529.5348,606.7710
             L531.3369,606.7710L533.1389,606.7710L534.9410,606.7710L536.7431,606.7710L538.5451,606.7710L540.3472,606.7710L542.1492,606.7710L543.9513,606.7710L545.7533,606.7710L547.5554,606.7710
             L549.3575,606.7710L551.1595,606.7710L552.9616,606.7710L554.7636,606.7710L556.5657,606.7710L558.3678,606.7710L560.1698,606.7710L561.9719,606.7710L563.7739,606.7710L565.5760,606.7710
             L567.3781,606.7710L569.1801,606.7710L570.9822,606.7710L572.7842,606.7710L574.5863,606.7710L576.3883,606.7710L578.1904,606.7710L579.9925,606.7710L581.7945,606.7710L583.5966,606.7710
             L585.3986,606.7710L587.2007,606.7710L589.0027,606.7710L590.8048,606.7710L592.6069,606.7710L594.4089,606.7710L596.2110,606.7710L598.0130,606.7710L599.8151,606.7710L601.6172,606.7710
             L603.4192,606.7710L605.2213,606.7710L607.0233,606.7710L608.8254,606.7710L610.6274,606.7710L612.4295,606.7710L614.2316,606.7710L616.0336,606.7710L617.8357,606.7710L619.6377,606.7710
             L621.4398,606.7710L623.2418,606.7710L625.0439,606.7710L626.8460,606.7710L628.6480,606.7710L630.4501,606.7710L632.2521,606.7710L634.0542,606.7710L635.8563,606.7710L637.6583,606.7710
             L639.4604,606.7710L641.2624,606.7710L643.0645,606.7710L644.8666,606.7710L646.6686,606.7710L648.4707,606.7710L650.2728,606.7710L652.0748,606.7710L653.8769,606.7710L655.6789,606.7710
             L657.4810,606.7710L659.2831,606.7710L661.0851,606.7710L662.8872,606.7710L664.6892,606.7710L666.4913,606.7710L668.2933,606.7710L670.0954,606.7710L671.8975,606.7710L673.6995,606.7710
             L675.5016,606.7710L677.3036,606.7710L679.1057,606.7710L680.9078,606.7710L682.7098,606.7710L684.5119,606.7710L686.3139,606.7710L688.1160,606.7710L689.9180,606.7710L691.7201,606.7710
             L693.5222,606.7710L695.3242,606.7710L697.1263,606.7710L698.9283,606.7710L700.7304,606.7710L702.5325,606.7710L704.3345,606.7710L706.1366,606.7710L707.9386,606.7710L709.7407,606.7710
             L711.5427,606.7710L713.3448,606.7710L715.1469,606.7710L716.9489,606.7710L718.7510,606.7710L720.5530,606.7710L722.3551,606.7710L724.1571,606.7710L725.9592,606.7710L727.7613,606.7710
             L729.5633,606.7710L731.3654,606.7710L733.1674,606.7710L734.9695,606.7710L736.7716,606.7710L738.5736,606.7710L740.3757,606.7710L742.1777,606.7710L743.9798,606.7710L745.7818,606.7710
             L747.5839,606.7710L749.3860,606.7710L751.1880,606.7710L752.9901,606.7710L754.7921,606.7710L756.5942,606.7710L758.3962,606.7710L760.1983,606.7710L762.0004,606.7710L763.8024,606.7710
             L765.6045,606.7710L767.4065,606.7710L769.2086,606.7710L771.0107,606.7710L772.8127,606.7710L774.6148,606.7710L776.4168,606.7710L778.2189,606.7710L780.0209,606.7710L781.8230,606.7710
             L783.6251,606.7710L785.4271,606.7710L787.2292,606.7710L789.0312,606.7710L790.8333,606.7710L792.6354,606.7710L794.4374,606.7710L796.2395,606.7710L798.0415,606.7710L799.8436,606.7710
             L801.6457,606.7710L803.4477,606.7710L805.2498,606.7710L807.0518,606.7710L808.8539,606.7710L810.6560,606.7710L812.4580,606.7710L814.2601,606.7710L816.0622,606.7710L817.8642,606.7710
             L819.6663,606.7710L821.4683,606.7710L823.2704,606.7710L825.0724,606.7710L826.8745,606.7710L828.6766,606.7710L830.4786,606.7710L832.2807,606.7710L834.0827,606.7710L835.8848,606.7710
             L837.6869,606.7710L839.4889,606.7710L841.2910,606.7710L843.0930,606.7710L844.8951,606.7710L846.6971,606.7710L848.4992,606.7710L850.3013,606.7710L852.1033,606.7710L853.9054,606.7710
             L855.7074,606.7710L857.5095,606.7710L859.3115,606.7710L861.1136,606.7710L862.9157,606.7710L864.7177,606.7710L866.5198,606.7710L868.3218,606.7710L870.1239,606.7710L871.9260,606.7710
             L873.7280,606.7710L875.5301,606.7710L877.3321,606.7710L879.1342,606.7710L880.9362,606.7710L882.7383,606.7710L884.5404,606.7710L886.3424,606.7710L888.1445,606.7710L889.9465,606.7710
             L891.7486,606.7710L893.5506,606.7710L895.3527,606.7710L897.1548,606.7710L898.9568,606.7710L900.7589,606.7710L902.5609,606.7710L904.3630,606.7710L906.1651,606.7710L907.9671,606.7710
             L909.7692,606.7710L911.5712,606.7710L913.3733,606.7710L915.1753,606.7710L916.9774,606.7710L918.7795,606.7710L920.5815,606.7710L922.3836,606.7710L924.1856,606.7710L925.9877,606.7710
             L927.7898,606.7710L929.5918,606.7710L931.3939,606.7710L933.1959,606.7710L934.9980,606.7710L936.8000,606.7710L938.6021,606.7710L940.4042,606.7710L942.2062,606.7710L944.0083,606.7710
             L945.8103,606.7710L947.6124,606.7710L949.4144,606.7710L951.2165,606.7710L953.0186,606.7710L954.8206,606.7710L956.6227,606.7710L958.4247,606.7710L960.2268,606.7710L962.0289,606.7710
             L963.8309,606.7710L965.6330,606.7710L967.4350,606.7710L969.2371,606.7710L971.0392,606.7710L972.8412,606.7710L974.6433,606.7710L976.4454,606.7710L978.2474,606.7710L980.0495,606.7710
             L981.8515,606.7710L983.6536,606.7710L985.4557,606.7710L987.2577,606.7710L989.0598,606.7710L990.8618,606.7710L992.6639,606.7710L994.4659,606.7710L996.2680,606.7710L998.0701,606.7710
             L999.8721,606.7710L1001.6742,606.7710L1003.4762,606.7710L1005.2783,606.7710L1007.0804,606.7710L1008.8824,606.7710L1010.6845,606.7710L1012.4865,606.7710L1014.2886,606.7710L1016.0906,606.7710
             L1017.8927,606.7710L1019.6948,606.7710L1021.4968,606.7710L1023.2989,606.7710L1025.1009,606.7710L1026.9030,606.7710L1028.7051,606.7710L1030.5071,606.7710L1032.3092,606.7710L1034.1112,606.7710
             L1034.1112,528.1155L134.8840,528.1155z"/>
  </g>
  <g style="fill:none; stroke:#000000; stroke-width:  2.6968; stroke-linecap:butt; stroke-linejoin:miter; stroke-dasharray: 3 8">
   <path d="M134.8840,606.7710L136.6861,606.7710L138.4881,606.7710L140.2902,606.7710L142.0922,606.7710L143.8943,606.7710L145.6963,606.7710L147.4984,606.7710L149.3005,606.7710L151.1025,606.7710
            L152.9046,606.7710L154.7066,606.7710L156.5087,606.7710L158.3108,606.7710L160.1128,606.7710L161.9149,606.7710L163.7169,606.7710L165.5190,606.7710L167.3210,606.7710L169.1231,606.7710
            L170.9252,606.7710L172.7272,606.7710L174.5293,606.7710L176.3313,606.7710L178.1334,606.7710L179.9355,606.7710L181.7375,606.7710L183.5396,606.7710L185.3416,606.7710L187.1437,606.7710
            L188.9458,606.7710L190.7478,606.7710L192.5499,606.7710L194.3519,606.7710L196.1540,606.7710L197.9560,606.7710L199.7581,606.7710L201.5602,606.7710L203.3622,606.7710L205.1643,606.7710
            L206.9663,606.7710L208.7684,606.7710L210.5705,606.7710L212.3725,606.7710L214.1746,606.7710L215.9766,606.7710L217.7787,606.7710L219.5807,606.7710L221.3828,606.7710L223.1849,606.7710
            L224.9869,606.7710L226.7890,606.7710L228.5910,606.7710L230.3931,606.7710L232.1952,606.7710L233.9972,606.7710L235.7993,606.7710L237.6013,606.7710L239.4034,606.7710L241.2055,606.7710
            L243.0075,606.7710L244.8096,606.7710L246.6116,606.7710L248.4137,606.7710L250.2157,606.7710L252.0178,606.7710L253.8199,606.7710L255.6219,606.7710L257.4240,606.7710L259.2260,606.7710
            L261.0281,606.7710L262.8302,606.7710L264.6322,606.7710L266.4343,606.7710L268.2363,606.7710L270.0384,606.7710L271.8404,606.7710L273.6425,606.7710L275.4446,606.7710L277.2466,606.7710
            L279.0487,606.7710L280.8507,606.7710L282.6528,606.7710L284.4549,606.7710L286.2569,606.7710L288.0590,606.7710L289.8610,606.7710L291.6631,606.7710L293.4651,606.7710L295.2672,606.7710
            L297.0693,606.7710L298.8713,606.7710L300.6734,606.7710L302.4754,606.7710L304.2775,606.7710L306.0796,606.7710L307.8816,606.7710L309.6837,606.7710L311.4857,606.7710L313.2878,606.7710
            L315.0898,606.7710L316.8919,606.7710L318.6940,606.7710L320.4960,606.7710L322.2981,606.7710L324.1001,606.7710L325.9022,606.7710L327.7043,606.7710L329.5063,606.7710L331.3084,606.7710
            L333.1104,606.7710L334.9125,606.7710L336.7146,606.7710L338.5166,606.7710L340.3187,606.7710L342.1207,606.7710L343.9228,606.7710L345.7248,606.7710L347.5269,606.7710L349.3290,606.7710
            L351.1310,606.7710L352.9331,606.7710L354.7351,606.7710L356.5372,606.7710L358.3393,606.7710L360.1413,606.7710L361.9434,606.7710L363.7454,606.7710L365.5475,606.7710L367.3496,606.7710
            L369.1516,606.7710L370.9537,606.7710L372.7557,606.7710L374.5578,606.7710L376.3598,606.7710L378.1619,606.7710L379.9640,606.7710L381.7660,606.7710L383.5681,606.7710L385.3701,606.7710
            L387.1722,606.7710L388.9743,606.7710L390.7763,606.7710L392.5784,606.7710L394.3804,606.7710L396.1825,606.7710L397.9845,606.7710L399.7866,606.7710L401.5887,606.7710L403.3907,606.7710
            L405.1928,606.7710L406.9948,606.7710L408.7969,606.7710L410.5990,606.7710L412.4010,606.7710L414.2031,606.7710L416.0051,606.7710L417.8072,606.7710L419.6092,606.7710L421.4113,606.7710
            L423.2134,606.7710L425.0154,606.7710L426.8175,606.7710L428.6195,606.7710L430.4216,606.7710L432.2237,606.7710L434.0257,606.7710L435.8278,606.7710L437.6298,606.7710L439.4319,606.7710
            L441.2340,606.7710L443.0360,606.7710L444.8381,606.7710L446.6401,606.7710L448.4422,606.7710L450.2442,606.7710L452.0463,606.7710L453.8484,606.7710L455.6504,606.7710L457.4525,606.7710
            L459.2545,606.7710L461.0566,606.7710L462.8587,606.7710L464.6607,606.7710L466.4628,606.7710L468.2648,606.7710L470.0669,606.7710L471.8689,606.7710L473.6710,606.7710L475.4731,606.7710
            L477.2751,606.7710L479.0772,606.7710L480.8792,606.7710L482.6813,606.7710L484.4834,606.7710L486.2854,606.7710L488.0875,606.7710L489.8895,606.7710L491.6916,606.7710L493.4936,606.7710
            L495.2957,606.7710L497.0978,606.7710L498.8998,606.7710L500.7019,606.7710L502.5039,606.7710L504.3060,606.7710L506.1081,606.7710L507.9101,606.7710L509.7122,606.7710L511.5142,606.7710
            L513.3163,606.7710L515.1184,606.7710L516.9204,606.7710L518.7225,606.7710L520.5245,606.7710L522.3266,606.7710L524.1286,606.7710L525.9307,606.7710L527.7328,606.7710L529.5348,606.7710
            L531.3369,606.7710L533.1389,606.7710L534.9410,606.7710L536.7431,606.7710L538.5451,606.7710L540.3472,606.7710L542.1492,606.7710L543.9513,606.7710L545.7533,606.7710L547.5554,606.7710
            L549.3575,606.7710L551.1595,606.7710L552.9616,606.7710L554.7636,606.7710L556.5657,606.7710L558.3678,606.7710L560.1698,606.7710L561.9719,606.7710L563.7739,606.7710L565.5760,606.7710
            L567.3781,606.7710L569.1801,606.7710L570.9822,606.7710L572.7842,606.7710L574.5863,606.7710L576.3883,606.7710L578.1904,606.7710L579.9925,606.7710L581.7945,606.7710L583.5966,606.7710
            L585.3986,606.7710L587.2007,606.7710L589.0027,606.7710L590.8048,606.7710L592.6069,606.7710L594.4089,606.7710L596.2110,606.7710L598.0130,606.7710L599.8151,606.7710L601.6172,606.7710
            L603.4192,606.7710L605.2213,606.7710L607.0233,606.7710L608.8254,606.7710L610.6274,606.7710L612.4295,606.7710L614.2316,606.7710L616.0336,606.7710L617.8357,606.7710L619.6377,606.7710
            L621.4398,606.7710L623.2418,606.7710L625.0439,606.7710L626.8460,606.7710L628.6480,606.7710L630.4501,606.7710L632.2521,606.7710L634.0542,606.7710L635.8563,606.7710L637.6583,606.7710
            L639.4604,606.7710L641.2624,606.7710L643.0645,606.7710L644.8666,606.7710L646.6686,606.7710L648.4707,606.7710L650.2728,606.7710L652.0748,606.7710L653.8769,606.7710L655.6789,606.7710
            L657.4810,606.7710L659.2831,606.7710L661.0851,606.7710L662.8872,606.7710L664.6892,606.7710L666.4913,606.7710L668.2933,606.7710L670.0954,606.7710L671.8975,606.7710L673.6995,606.7710
            L675.5016,606.7710L677.3036,606.7710L679.1057,606.7710L680.9078,606.7710L682.7098,606.7710L684.5119,606.7710L686.3139,606.7710L688.1160,606.7710L689.9180,606.7710L691.7201,606.7710
            L693.5222,606.7710L695.3242,606.7710L697.1263,606.7710L698.9283,606.7710L700.7304,606.7710L702.5325,606.7710L704.3345,606.7710L706.1366,606.7710L707.9386,606.7710L709.7407,606.7710
            L711.5427,606.7710L713.3448,606.7710L715.1469,606.7710L716.9489,606.7710L718.7510,606.7710L720.5530,606.7710L722.3551,606.7710L724.1571,606.7710L725.9592,606.7710L727.7613,606.7710
            L729.5633,606.7710L731.3654,606.7710L733.1674,606.7710L734.9695,606.7710L736.7716,606.7710L738.5736,606.7710L740.3757,606.7710L742.1777,606.7710L743.9798,606.7710L745.7818,606.7710
            L747.5839,606.7710L749.3860,606.7710L751.1880,606.7710L752.9901,606.7710L754.7921,606.7710L756.5942,606.7710L758.3962,606.7710L760.1983,606.7710L762.0004,606.7710L763.8024,606.7710
            L765.6045,606.7710L767.4065,606.7710L769.2086,606.7710L771.0107,606.7710L772.8127,606.7710L774.6148,606.7710L776.4168,606.7710L778.2189,606.7710L780.0209,606.7710L781.8230,606.7710
            L783.6251,606.7710L785.4271,606.7710L787.2292,606.7710L789.0312,606.7710L790.8333,606.7710L792.6354,606.7710L794.4374,606.7710L796.2395,606.7710L798.0415,606.7710L799.8436,606.7710
            L801.6457,606.7710L803.4477,606.7710L805.2498,606.7710L807.0518,606.7710L808.8539,606.7710L810.6560,606.7710L812.4580,606.7710L814.2601,606.7710L816.0622,606.7710L817.8642,606.7710
            L819.6663,606.7710L821.4683,606.7710L823.2704,606.7710L825.0724,606.7710L826.8745,606.7710L828.6766,606.7710L830.4786,606.7710L832.2807,606.7710L834.0827,606.7710L835.8848,606.7710
            L837.6869,606.7710L839.4889,606.7710L841.2910,606.7710L843.0930,606.7710L844.8951,606.7710L846.6971,606.7710L848.4992,606.7710L850.3013,606.7710L852.1033,606.7710L853.9054,606.7710
            L855.7074,606.7710L857.5095,606.7710L859.3115,606.7710L861.1136,606.7710L862.9157,606.7710L864.7177,606.7710L866.5198,606.7710L868.3218,606.7710L870.1239,606.7710L871.9260,606.7710
            L873.7280,606.7710L875.5301,606.7710L877.3321,606.7710L879.1342,606.7710L880.9362,606.7710L882.7383,606.7710L884.5404,606.7710L886.3424,606.7710L888.1445,606.7710L889.9465,606.7710
            L891.7486,606.7710L893.5506,606.7710L895.3527,606.7710L897.1548,606.7710L898.9568,606.7710L900.7589,606.7710L902.5609,606.7710L904.3630,606.7710L906.1651,606.7710L907.9671,606.7710
            L909.7692,606.7710L911.5712,606.7710L913.3733,606.7710L915.1753,606.7710L916.9774,606.7710L918.7795,606.7710L920.5815,606.7710L922.3836,606.7710L924.1856,606.7710L925.9877,606.7710
            L927.7898,606.7710L929.5918,606.7710L931.3939,606.7710L933.1959,606.7710L934.9980,606.7710L936.8000,606.7710L938.6021,606.7710L940.4042,606.7710L942.2062,606.7710L944.0083,606.7710
            L945.8103,606.7710L947.6124,606.7710L949.4144,606.7710L951.2165,606.7710L953.0186,606.7710L954.8206,606.7710L956.6227,606.7710L958.4247,606.7710L960.2268,606.7710L962.0289,606.7710
            L963.8309,606.7710L965.6330,606.7710L967.4350,606.7710L969.2371,606.7710L971.0392,606.7710L972.8412,606.7710L974.6433,606.7710L976.4454,606.7710L978.2474,606.7710L980.0495,606.7710
            L981.8515,606.7710L983.6536,606.7710L985.4557,606.7710L987.2577,606.7710L989.0598,606.7710L990.8618,606.7710L992.6639,606.7710L994.4659,606.7710L996.2680,606.7710L998.0701,606.7710
            L999.8721,606.7710L1001.6742,606.7710L1003.4762,606.7710L1005.2783,606.7710L1007.0804,606.7710L1008.8824,606.7710L1010.6845,606.7710L1012.4865,606.7710L1014.2886,606.7710L1016.0906,606.7710
            L1017.8927,606.7710L1019.6948,606.7710L1021.4968,606.7710L1023.2989,606.7710L1025.1009,606.7710L1026.9030,606.7710L1028.7051,606.7710L1030.5071,606.7710L1032.3092,606.7710L1034.1112,606.7710"/>
  </g>
  <g style="filter:url(#tocolor5); fill:url(#pattern4); fill-rule:nonzero">
   <path  d="M134.8840,449.4600L136.6861,449.4600L138.4881,449.4600L140.2902,449.4600L142.0922,449.4600L143.8943,449.4600L145.6963,449.4600L147.4984,449.4600L149.3005,449.4600L151.1025,449.4600
             L152.9046,449.4600L154.7066,449.4600L156.5087,449.4600L158.3108,449.4600L160.1128,449.4600L161.9149,449.4600L163.7169,449.4600L165.5190,449.4600L167.3210,449.4600L169.1231,449.4600
             L170.9252,449.4600L172.7272,449.4600L174.5293,449.4600L176.3313,449.4600L178.1334,449.4600L179.9355,449.4600L181.7375,449.4600L183.5396,449.4600L185.3416,449.4600L187.1437,449.4600
             L188.9458,449.4600L190.7478,449.4600L192.5499,449.4600L194.3519,449.4600L196.1540,449.4600L197.9560,449.4600L199.7581,449.4600L201.5602,449.4600L203.3622,449.4600L205.1643,449.4600
             L206.9663,449.4600L208.7684,449.4600L210.5705,449.4600L212.3725,449.4600L214.1746,449.4600L215.9766,449.4600L217.7787,449.4600L219.5807,449.4600L221.3828,449.4600L223.1849,449.4600
             L224.9869,449.4600L226.7890,449.4600L228.5910,449.4600L230.3931,449.4600L232.1952,449.4600L233.9972,449.4600L235.7993,449.4600L237.6013,449.4600L239.4034,449.4600L241.2055,449.4600
             L243.0075,449.4600L244.8096,449.4600L246.6116,449.4600L248.4137,449.4600L250.2157,449.4600L252.0178,449.4600L253.8199,449.4600L255.6219,449.4600L257.4240,449.4600L259.2260,449.4600
             L261.0281,449.4600L262.8302,449.4600L264.6322,449.4600L266.4343,449.4600L268.2363,449.4600L270.0384,449.4600L271.8404,449.4600L273.6425,449.4600L275.4446,449.4600L277.2466,449.4600
             L279.0487,449.4600L280.8507,449.4600L282.6528,449.4600L284.4549,449.4600L286.2569,449.4600L288.0590,449.4600L289.8610,449.4600L291.6631,449.4600L293.4651,449.4600L295.2672,449.4600
             L297.0693,449.4600L298.8713,449.4600L300.6734,449.4600L302.4754,449.4600L304.2775,449.4600L306.0796,449.4600L307.8816,449.4600L309.6837,449.4600L311.4857,449.4600L313.2878,449.4600
             L315.0898,449.4600L316.8919,449.4600L318.6940,449.4600L320.4960,449.4600L322.2981,449.4600L324.1001,449.4600L325.9022,449.4600L327.7043,449.4600L329.5063,449.4600L331.3084,449.4600
             L333.1104,449.4600L334.9125,449.4600L336.7146,449.4600L338.5166,449.4600L340.3187,449.4600L342.1207,449.4600L343.9228,449.4600L345.7248,449.4600L347.5269,449.4600L349.3290,449.4600
             L351.1310,449.4600L352.9331,449.4600L354.7351,449.4600L356.5372,449.4600L358.3393,449.4600L360.1413,449.4600L361.9434,449.4600L363.7454,449.4600L365.5475,449.4600L367.3496,449.4600
             L369.1516,449.4600L370.9537,449.4600L372.7557,449.4600L374.5578,449.4600L376.3598,449.4600L378.1619,449.4600L379.9640,449.4600L381.7660,449.4600L383.5681,449.4600L385.3701,449.4600
             L387.1722,449.4600L388.9743,449.4600L390.7763,449.4600L392.5784,449.4600L394.3804,449.4600L396.1825,449.4600L397.9845,449.4600L399.7866,449.4600L401.5887,449.4600L403.3907,449.4600
             L405.1928,449.4600L406.9948,449.4600L408.7969,449.4600L410.5990,449.4600L412.4010,449.4600L414.2031,449.4600L416.0051,449.4600L417.8072,449.4600L419.6092,449.4600L421.4113,449.4600
             L423.2134,449.4600L425.0154,449.4600L426.8175,449.4600L428.6195,449.4600L430.4216,449.4600L432.2237,449.4600L434.0257,449.4600L435.8278,449.4600L437.6298,449.4600L439.4319,449.4600
             L441.2340,449.4600L443.0360,449.4600L444.8381,449.4600L446.6401,449.4600L448.4422,449.4600L450.2442,449.4600L452.0463,449.4600L453.8484,449.4600L455.6504,449.4600L457.4525,449.4600
             L459.2545,449.4600L461.0566,449.4600L462.8587,449.4600L464.6607,449.4600L466.4628,449.4600L468.2648,449.4600L470.0669,449.4600L471.8689,449.4600L473.6710,449.4600L475.4731,449.4600
             L477.2751,449.4600L479.0772,449.4600L480.8792,449.4600L482.6813,449.4600L484.4834,449.4600L486.2854,449.4600L488.0875,449.4600L489.8895,449.4600L491.6916,449.4600L493.4936,449.4600
             L495.2957,449.4600L497.0978,449.4600L498.8998,449.4600L500.7019,449.4600L502.5039,449.4600L504.3060,449.4600L506.1081,449.4600L507.9101,449.4600L509.7122,449.4600L511.5142,449.4600
             L513.3163,449.4600L515.1184,449.4600L516.9204,449.4600L518.7225,449.4600L520.5245,449.4600L522.3266,449.4600L524.1286,449.4600L525.9307,449.4600L527.7328,449.4600L529.5348,449.4600
             L531.3369,449.4600L533.1389,449.4600L534.9410,449.4600L536.7431,449.4600L538.5451,449.4600L540.3472,449.4600L542.1492,449.4600L543.9513,449.4600L545.7533,449.4600L547.5554,449.4600
             L549.3575,449.4600L551.1595,449.4600L552.9616,449.4600L554.7636,449.4600L556.5657,449.4600L558.3678,449.4600L560.1698,449.4600L561.9719,449.4600L563.7739,449.4600L565.5760,449.4600
             L567.3781,449.4600L569.1801,449.4600L570.9822,449.4600L572.7842,449.4600L574.5863,449.4600L576.3883,449.4600L578.1904,449.4600L579.9925,449.4600L581.7945,449.4600L583.5966,449.4600
             L585.3986,449.4600L587.2007,449.4600L589.0027,449.4600L590.8048,449.4600L592.6069,449.4600L594.4089,449.4600L596.2110,449.4600L598.0130,449.4600L599.8151,449.4600L601.6172,449.4600
             L603.4192,449.4600L605.2213,449.4600L607.0233,449.4600L608.8254,449.4600L610.6274,449.4600L612.4295,449.4600L614.2316,449.4600L616.0336,449.4600L617.8357,449.4600L619.6377,449.4600
             L621.4398,449.4600L623.2418,449.4600L625.0439,449.4600L626.8460,449.4600L628.6480,449.4600L630.4501,449.4600L632.2521,449.4600L634.0542,449.4600L635.8563,449.4600L637.6583,449.4600
             L639.4604,449.4600L641.2624,449.4600L643.0645,449.4600L644.8666,449.4600L646.6686,449.4600L648.4707,449.4600L650.2728,449.4600L652.0748,449.4600L653.8769,449.4600L655.6789,449.4600
             L657.4810,449.4600L659.2831,449.4600L661.0851,449.4600L662.8872,449.4600L664.6892,449.4600L666.4913,449.4600L668.2933,449.4600L670.0954,449.4600L671.8975,449.4600L673.6995,449.4600
             L675.5016,449.4600L677.3036,449.4600L679.1057,449.4600L680.9078,449.4600L682.7098,449.4600L684.5119,449.4600L686.3139,449.4600L688.1160,449.4600L689.9180,449.4600L691.7201,449.4600
             L693.5222,449.4600L695.3242,449.4600L697.1263,449.4600L698.9283,449.4600L700.7304,449.4600L702.5325,449.4600L704.3345,449.4600L706.1366,449.4600L707.9386,449.4600L709.7407,449.4600
             L711.5427,449.4600L713.3448,449.4600L715.1469,449.4600L716.9489,449.4600L718.7510,449.4600L720.5530,449.4600L722.3551,449.4600L724.1571,449.4600L725.9592,449.4600L727.7613,449.4600
             L729.5633,449.4600L731.3654,449.4600L733.1674,449.4600L734.9695,449.4600L736.7716,449.4600L738.5736,449.4600L740.3757,449.4600L742.1777,449.4600L743.9798,449.4600L745.7818,449.4600
             L747.5839,449.4600L749.3860,449.4600L751.1880,449.4600L752.9901,449.4600L754.7921,449.4600L756.5942,449.4600L758.3962,449.4600L760.1983,449.4600L762.0004,449.4600L763.8024,449.4600
             L765.6045,449.4600L767.4065,449.4600L769.2086,449.4600L771.0107,449.4600L772.8127,449.4600L774.6148,449.4600L776.4168,449.4600L778.2189,449.4600L780.0209,449.4600L781.8230,449.4600
             L783.6251,449.4600L785.4271,449.4600L787.2292,449.4600L789.0312,449.4600L790.8333,449.4600L792.6354,449.4600L794.4374,449.4600L796.2395,449.4600L798.0415,449.4600L799.8436,449.4600
             L801.6457,449.4600L803.4477,449.4600L805.2498,449.4600L807.0518,449.4600L808.8539,449.4600L810.6560,449.4600L812.4580,449.4600L814.2601,449.4600L816.0622,449.4600L817.8642,449.4600
             L819.6663,449.4600L821.4683,449.4600L823.2704,449.4600L825.0724,449.4600L826.8745,449.4600L828.6766,449.4600L830.4786,449.4600L832.2807,449.4600L834.0827,449.4600L835.8848,449.4600
             L837.6869,449.4600L839.4889,449.4600L841.2910,449.4600L843.0930,449.4600L844.8951,449.4600L846.6971,449.4600L848.4992,449.4600L850.3013,449.4600L852.1033,449.4600L853.9054,449.4600
             L855.7074,449.4600L857.5095,449.4600L859.3115,449.4600L861.1136,449.4600L862.9157,449.4600L864.7177,449.4600L866.5198,449.4600L868.3218,449.4600L870.1239,449.4600L871.9260,449.4600
             L873.7280,449.4600L875.5301,449.4600L877.3321,449.4600L879.1342,449.4600L880.9362,449.4600L882.7383,449.4600L884.5404,449.4600L886.3424,449.4600L888.1445,449.4600L889.9465,449.4600
             L891.7486,449.4600L893.5506,449.4600L895.3527,449.4600L897.1548,449.4600L898.9568,449.4600L900.7589,449.4600L902.5609,449.4600L904.3630,449.4600L906.1651,449.4600L907.9671,449.4600
             L909.7692,449.4600L911.5712,449.4600L913.3733,449.4600L915.1753,449.4600L916.9774,449.4600L918.7795,449.4600L920.5815,449.4600L922.3836,449.4600L924.1856,449.4600L925.9877,449.4600
             L927.7898,449.4600L929.5918,449.4600L931.3939,449.4600L933.1959,449.4600L934.9980,449.4600L936.8000,449.4600L938.6021,449.4600L940.4042,449.4600L942.2062,449.4600L944.0083,449.4600
             L945.8103,449.4600L947.6124,449.4600L949.4144,449.4600L951.2165,449.4600L953.0186,449.4600L954.8206,449.4600L956.6227,449.4600L958.4247,449.4600L960.2268,449.4600L962.0289,449.4600
             L963.8309,449.4600L965.6330,449.4600L967.4350,449.4600L969.2371,449.4600L971.0392,449.4600L972.8412,449.4600L974.6433,449.4600L976.4454,449.4600L978.2474,449.4600L980.0495,449.4600
             L981.8515,449.4600L983.6536,449.4600L985.4557,449.4600L987.2577,449.4600L989.0598,449.4600L990.8618,449.4600L992.6639,449.4600L994.4659,449.4600L996.2680,449.4600L998.0701,449.4600
             L999.8721,449.4600L1001.6742,449.4600L1003.4762,449.4600L1005.2783,449.4600L1007.0804,449.4600L1008.8824,449.4600L1010.6845,449.4600L1012.4865,449.4600L1014.2886,449.4600L1016.0906,449.4600
             L1017.8927,449.4600L1019.6948,449.4600L1021.4968,449.4600L1023.2989,449.4600L1025.1009,449.4600L1026.9030,449.4600L1028.7051,449.4600L1030.5071,449.4600L1032.3092,449.4600L1034.1112,449.4600
             L1034.1112,528.1155L134.8840,528.1155z"/>
  </g>
  <g style="fill:none; stroke:#000000; stroke-width:  2.6968; stroke-linecap:butt; stroke-linejoin:miter; stroke-dasharray: 3 8">
   <path d="M134.8840,449.4600L136.6861,449.4600L138.4881,449.4600L140.2902,449.4600L142.0922,449.4600L143.8943,449.4600L145.6963,449.4600L147.4984,449.4600L149.3005,449.4600L151.1025,449.4600
            L152.9046,449.4600L154.7066,449.4600L156.5087,449.4600L158.3108,449.4600L160.1128,449.4600L161.9149,449.4600L163.7169,449.4600L165.5190,449.4600L167.3210,449.4600L169.1231,449.4600
            L170.9252,449.4600L172.7272,449.4600L174.5293,449.4600L176.3313,449.4600L178.1334,449.4600L179.9355,449.4600L181.7375,449.4600L183.5396,449.4600L185.3416,449.4600L187.1437,449.4600
            L188.9458,449.4600L190.7478,449.4600L192.5499,449.4600L194.3519,449.4600L196.1540,449.4600L197.9560,449.4600L199.7581,449.4600L201.5602,449.4600L203.3622,449.4600L205.1643,449.4600
            L206.9663,449.4600L208.7684,449.4600L210.5705,449.4600L212.3725,449.4600L214.1746,449.4600L215.9766,449.4600L217.7787,449.4600L219.5807,449.4600L221.3828,449.4600L223.1849,449.4600
            L224.9869,449.4600L226.7890,449.4600L228.5910,449.4600L230.3931,449.4600L232.1952,449.4600L233.9972,449.4600L235.7993,449.4600L237.6013,449.4600L239.4034,449.4600L241.2055,449.4600
            L243.0075,449.4600L244.8096,449.4600L246.6116,449.4600L248.4137,449.4600L250.2157,449.4600L252.0178,449.4600L253.8199,449.4600L255.6219,449.4600L257.4240,449.4600L259.2260,449.4600
            L261.0281,449.4600L262.8302,449.4600L264.6322,449.4600L266.4343,449.4600L268.2363,449.4600L270.0384,449.4600L271.8404,449.4600L273.6425,449.4600L275.4446,449.4600L277.2466,449.4600
            L279.0487,449.4600L280.8507,449.4600L282.6528,449.4600L284.4549,449.4600L286.2569,449.4600L288.0590,449.4600L289.8610,449.4600L291.6631,449.4600L293.4651,449.4600L295.2672,449.4600
            L297.0693,449.4600L298.8713,449.4600L300.6734,449.4600L302.4754,449.4600L304.2775,449.4600L306.0796,449.4600L307.8816,449.4600L309.6837,449.4600L311.4857,449.4600L313.2878,449.4600
            L315.0898,449.4600L316.8919,449.4600L318.6940,449.4600L320.4960,449.4600L322.2981,449.4600L324.1001,449.4600L325.9022,449.4600L327.7043,449.4600L329.5063,449.4600L331.3084,449.4600
            L333.1104,449.4600L334.9125,449.4600L336.7146,449.4600L338.5166,449.4600L340.3187,449.4600L342.1207,449.4600L343.9228,449.4600L345.7248,449.4600L347.5269,449.4600L349.3290,449.4600
            L351.1310,449.4600L352.9331,449.4600L354.7351,449.4600L356.5372,449.4600L358.3393,449.4600L360.1413,449.4600L361.9434,449.4600L363.7454,449.4600L365.5475,449.4600L367.3496,449.4600
            L369.1516,449.4600L370.9537,449.4600L372.7557,449.4600L374.5578,449.4600L376.3598,449.4600L378.1619,449.4600L379.9640,449.4600L381.7660,449.4600L383.5681,449.4600L385.3701,449.4600
            L387.1722,449.4600L388.9743,449.4600L390.7763,449.4600L392.5784,449.4600L394.3804,449.4600L396.1825,449.4600L397.9845,449.4600L399.7866,449.4600L401.5887,449.4600L403.3907,449.4600
            L405.1928,449.4600L406.9948,449.4600L408.7969,449.4600L410.5990,449.4600L412.4010,449.4600L414.2031,449.4600L416.0051,449.4600L417.8072,449.4600L419.6092,449.4600L421.4113,449.4600
            L423.2134,449.4600L425.0154,449.4600L426.8175,449.4600L428.6195,449.4600L430.4216,449.4600L432.2237,449.4600L434.0257,449.4600L435.8278,449.4600L437.6298,449.4600L439.4319,449.4600
            L441.2340,449.4600L443.0360,449.4600L444.8381,449.4600L446.6401,449.4600L448.4422,449.4600L450.2442,449.4600L452.0463,449.4600L453.8484,449.4600L455.6504,449.4600L457.4525,449.4600
            L459.2545,449.4600L461.0566,449.4600L462.8587,449.4600L464.6607,449.4600L466.4628,449.4600L468.2648,449.4600L470.0669,449.4600L471.8689,449.4600L473.6710,449.4600L475.4731,449.4600
            L477.2751,449.4600L479.0772,449.4600L480.8792,449.4600L482.6813,449.4600L484.4834,449.4600L486.2854,449.4600L488.0875,449.4600L489.8895,449.4600L491.6916,449.4600L493.4936,449.4600
            L495.2957,449.4600L497.0978,449.4600L498.8998,449.4600L500.7019,449.4600L502.5039,449.4600L504.3060,449.4600L506.1081,449.4600L507.9101,449.4600L509.7122,449.4600L511.5142,449.4600
            L513.3163,449.4600L515.1184,449.4600L516.9204,449.4600L518.7225,449.4600L520.5245,449.4600L522.3266,449.4600L524.1286,449.4600L525.9307,449.4600L527.7328,449.4600L529.5348,449.4600
            L531.3369,449.4600L533.1389,449.4600L534.9410,449.4600L536.7431,449.4600L538.5451,449.4600L540.3472,449.4600L542.1492,449.4600L543.9513,449.4600L545.7533,449.4600L547.5554,449.4600
            L549.3575,449.4600L551.1595,449.4600L552.9616,449.4600L554.7636,449.4600L556.5657,449.4600L558.3678,449.4600L560.1698,449.4600L561.9719,449.4600L563.7739,449.4600L565.5760,449.4600
            L567.3781,449.4600L569.1801,449.4600L570.9822,449.4600L572.7842,449.4600L574.5863,449.4600L576.3883,449.4600L578.1904,449.4600L579.9925,449.4600L581.7945,449.4600L583.5966,449.4600
            L585.3986,449.4600L587.2007,449.4600L589.0027,449.4600L590.8048,449.4600L592.6069,449.4600L594.4089,449.4600L596.2110,449.4600L598.0130,449.4600L599.8151,449.4600L601.6172,449.4600
            L603.4192,449.4600L605.2213,449.4600L607.0233,449.4600L608.8254,449.4600L610.6274,449.4600L612.4295,449.4600L614.2316,449.4600L616.0336,449.4600L617.8357,449.4600L619.6377,449.4600
            L621.4398,449.4600L623.2418,449.4600L625.0439,449.4600L626.8460,449.4600L628.6480,449.4600L630.4501,449.4600L632.2521,449.4600L634.0542,449.4600L635.8563,449.4600L637.6583,449.4600
            L639.4604,449.4600L641.2624,449.4600L643.0645,449.4600L644.8666,449.4600L646.6686,449.4600L648.4707,449.4600L650.2728,449.4600L652.0748,449.4600L653.8769,449.4600L655.6789,449.4600
            L657.4810,449.4600L659.2831,449.4600L661.0851,449.4600L662.8872,449.4600L664.6892,449.4600L666.4913,449.4600L668.2933,449.4600L670.0954,449.4600L671.8975,449.4600L673.6995,449.4600
            L675.5016,449.4600L677.3036,449.4600L679.1057,449.4600L680.9078,449.4600L682.7098,449.4600L684.5119,449.4600L686.3139,449.4600L688.1160,449.4600L689.9180,449.4600L691.7201,449.4600
            L693.5222,449.4600L695.3242,449.4600L697.1263,449.4600L698.9283,449.4600L700.7304,449.4600L702.5325,449.4600L704.3345,449.4600L706.1366,449.4600L707.9386,449.4600L709.7407,449.4600
            L711.5427,449.4600L713.3448,449.4600L715.1469,449.4600L716.9489,449.4600L718.7510,449.4600L720.5530,449.4600L722.3551,449.4600L724.1571,449.4600L725.9592,449.4600L727.7613,449.4600
            L729.5633,449.4600L731.3654,449.4600L733.1674,449.4600L734.9695,449.4600L736.7716,449.4600L738.5736,449.4600L740.3757,449.4600L742.1777,449.4600L743.9798,449.4600L745.7818,449.4600
            L747.5839,449.4600L749.3860,449.4600L751.1880,449.4600L752.9901,449.4600L754.7921,449.4600L756.5942,449.4600L758.3962,449.4600L760.1983,449.4600L762.0004,449.4600L763.8024,449.4600
            L765.6045,449.4600L767.4065,449.4600L769.2086,449.4600L771.0107,449.4600L772.8127,449.4600L774.6148,449.4600L776.4168,449.4600L778.2189,449.4600L780.0209,449.4600L781.8230,449.4600
            L783.6251,449.4600L785.4271,449.4600L787.2292,449.4600L789.0312,449.4600L790.8333,449.4600L792.6354,449.4600L794.4374,449.4600L796.2395,449.4600L798.0415,449.4600L799.8436,449.4600
            L801.6457,449.4600L803.4477,449.4600L805.2498,449.4600L807.0518,449.4600L808.8539,449.4600L810.6560,449.4600L812.4580,449.4600L814.2601,449.4600L816.0622,449.4600L817.8642,449.4600
            L819.6663,449.4600L821.4683,449.4600L823.2704,449.4600L825.0724,449.4600L826.8745,449.4600L828.6766,449.4600L830.4786,449.4600L832.2807,449.4600L834.0827,449.4600L835.8848,449.4600
            L837.6869,449.4600L839.4889,449.4600L841.2910,449.4600L843.0930,449.4600L844.8951,449.4600L846.6971,449.4600L848.4992,449.4600L850.3013,449.4600L852.1033,449.4600L853.9054,449.4600
            L855.7074,449.4600L857.5095,449.4600L859.3115,449.4600L861.1136,449.4600L862.9157,449.4600L864.7177,449.4600L866.5198,449.4600L868.3218,449.4600L870.1239,449.4600L871.9260,449.4600
            L873.7280,449.4600L875.5301,449.4600L877.3321,449.4600L879.1342,449.4600L880.9362,449.4600L882.7383,449.4600L884.5404,449.4600L886.3424,449.4600L888.1445,449.4600L889.9465,449.4600
            L891.7486,449.4600L893.5506,449.4600L895.3527,449.4600L897.1548,449.4600L898.9568,449.4600L900.7589,449.4600L902.5609,449.4600L904.3630,449.4600L906.1651,449.4600L907.9671,449.4600
            L909.7692,449.4600L911.5712,449.4600L913.3733,449.4600L915.1753,449.4600L916.9774,449.4600L918.7795,449.4600L920.5815,449.4600L922.3836,449.4600L924.1856,449.4600L925.9877,449.4600
            L927.7898,449.4600L929.5918,449.4600L931.3939,449.4600L933.1959,449.4600L934.9980,449.4600L936.8000,449.4600L938.6021,449.4600L940.4042,449.4600L942.2062,449.4600L944.0083,449.4600
            L945.8103,449.4600L947.6124,449.4600L949.4144,449.4600L951.2165,449.4600L953.0186,449.4600L954.8206,449.4600L956.6227,449.4600L958.4247,449.4600L960.2268,449.4600L962.0289,449.4600
            L963.8309,449.4600L965.6330,449.4600L967.4350,449.4600L969.2371,449.4600L971.0392,449.4600L972.8412,449.4600L974.6433,449.4600L976.4454,449.4600L978.2474,449.4600L980.0495,449.4600
            L981.8515,449.4600L983.6536,449.4600L985.4557,449.4600L987.2577,449.4600L989.0598,449.4600L990.8618,449.4600L992.6639,449.4600L994.4659,449.4600L996.2680,449.4600L998.0701,449.4600
            L999.8721,449.4600L1001.6742,449.4600L1003.4762,449.4600L1005.2783,449.4600L1007.0804,449.4600L1008.8824,449.4600L1010.6845,449.4600L1012.4865,449.4600L1014.2886,449.4600L1016.0906,449.4600
            L1017.8927,449.4600L1019.6948,449.4600L1021.4968,449.4600L1023.2989,449.4600L1025.1009,449.4600L1026.9030,449.4600L1028.7051,449.4600L1030.5071,449.4600L1032.3092,449.4600L1034.1112,449.4600"/>
   <path d="M134.8840,528.1155L136.6861,528.1155L138.4881,528.1155L140.2902,528.1155L142.0922,528.1155L143.8943,528.1155L145.6963,528.1155L147.4984,528.1155L149.3005,528.1155L151.1025,528.1155
            L152.9046,528.1155L154.7066,528.1155L156.5087,528.1155L158.3108,528.1155L160.1128,528.1155L161.9149,528.1155L163.7169,528.1155L165.5190,528.1155L167.3210,528.1155L169.1231,528.1155
            L170.9252,528.1155L172.7272,528.1155L174.5293,528.1155L176.3313,528.1155L178.1334,528.1155L179.9355,528.1155L181.7375,528.1155L183.5396,528.1155L185.3416,528.1155L187.1437,528.1155
            L188.9458,528.1155L190.7478,528.1155L192.5499,528.1155L194.3519,528.1155L196.1540,528.1155L197.9560,528.1155L199.7581,528.1155L201.5602,528.1155L203.3622,528.1155L205.1643,528.1155
            L206.9663,528.1155L208.7684,528.1155L210.5705,528.1155L212.3725,528.1155L214.1746,528.1155L215.9766,528.1155L217.7787,528.1155L219.5807,528.1155L221.3828,528.1155L223.1849,528.1155
            L224.9869,528.1155L226.7890,528.1155L228.5910,528.1155L230.3931,528.1155L232.1952,528.1155L233.9972,528.1155L235.7993,528.1155L237.6013,528.1155L239.4034,528.1155L241.2055,528.1155
            L243.0075,528.1155L244.8096,528.1155L246.6116,528.1155L248.4137,528.1155L250.2157,528.1155L252.0178,528.1155L253.8199,528.1155L255.6219,528.1155L257.4240,528.1155L259.2260,528.1155
            L261.0281,528.1155L262.8302,528.1155L264.6322,528.1155L266.4343,528.1155L268.2363,528.1155L270.0384,528.1155L271.8404,528.1155L273.6425,528.1155L275.4446,528.1155L277.2466,528.1155
            L279.0487,528.1155L280.8507,528.1155L282.6528,528.1155L284.4549,528.1155L286.2569,528.1155L288.0590,528.1155L289.8610,528.1155L291.6631,528.1155L293.4651,528.1155L295.2672,528.1155
            L297.0693,528.1155L298.8713,528.1155L300.6734,528.1155L302.4754,528.1155L304.2775,528.1155L306.0796,528.1155L307.8816,528.1155L309.6837,528.1155L311.4857,528.1155L313.2878,528.1155
            L315.0898,528.1155L316.8919,528.1155L318.6940,528.1155L320.4960,528.1155L322.2981,528.1155L324.1001,528.1155L325.9022,528.1155L327.7043,528.1155L329.5063,528.1155L331.3084,528.1155
            L333.1104,528.1155L334.9125,528.1155L336.7146,528.1155L338.5166,528.1155L340.3187,528.1155L342.1207,528.1155L343.9228,528.1155L345.7248,528.1155L347.5269,528.1155L349.3290,528.1155
            L351.1310,528.1155L352.9331,528.1155L354.7351,528.1155L356.5372,528.1155L358.3393,528.1155L360.1413,528.1155L361.9434,528.1155L363.7454,528.1155L365.5475,528.1155L367.3496,528.1155
            L369.1516,528.1155L370.9537,528.1155L372.7557,528.1155L374.5578,528.1155L376.3598,528.1155L378.1619,528.1155L379.9640,528.1155L381.7660,528.1155L383.5681,528.1155L385.3701,528.1155
            L387.1722,528.1155L388.9743,528.1155L390.7763,528.1155L392.5784,528.1155L394.3804,528.1155L396.1825,528.1155L397.9845,528.1155L399.7866,528.1155L401.5887,528.1155L403.3907,528.1155
            L405.1928,528.1155L406.9948,528.1155L408.7969,528.1155L410.5990,528.1155L412.4010,528.1155L414.2031,528.1155L416.0051,528.1155L417.8072,528.1155L419.6092,528.1155L421.4113,528.1155
            L423.2134,528.1155L425.0154,528.1155L426.8175,528.1155L428.6195,528.1155L430.4216,528.1155L432.2237,528.1155L434.0257,528.1155L435.8278,528.1155L437.6298,528.1155L439.4319,528.1155
            L441.2340,528.1155L443.0360,528.1155L444.8381,528.1155L446.6401,528.1155L448.4422,528.1155L450.2442,528.1155L452.0463,528.1155L453.8484,528.1155L455.6504,528.1155L457.4525,528.1155
            L459.2545,528.1155L461.0566,528.1155L462.8587,528.1155L464.6607,528.1155L466.4628,528.1155L468.2648,528.1155L470.0669,528.1155L471.8689,528.1155L473.6710,528.1155L475.4731,528.1155
            L477.2751,528.1155L479.0772,528.1155L480.8792,528.1155L482.6813,528.1155L484.4834,528.1155L486.2854,528.1155L488.0875,528.1155L489.8895,528.1155L491.6916,528.1155L493.4936,528.1155
            L495.2957,528.1155L497.0978,528.1155L498.8998,528.1155L500.7019,528.1155L502.5039,528.1155L504.3060,528.1155L506.1081,528.1155L507.9101,528.1155L509.7122,528.1155L511.5142,528.1155
            L513.3163,528.1155L515.1184,528.1155L516.9204,528.1155L518.7225,528.1155L520.5245,528.1155L522.3266,528.1155L524.1286,528.1155L525.9307,528.1155L527.7328,528.1155L529.5348,528.1155
            L531.3369,528.1155L533.1389,528.1155L534.9410,528.1155L536.7431,528.1155L538.5451,528.1155L540.3472,528.1155L542.1492,528.1155L543.9513,528.1155L545.7533,528.1155L547.5554,528.1155
            L549.3575,528.1155L551.1595,528.1155L552.9616,528.1155L554.7636,528.1155L556.5657,528.1155L558.3678,528.1155L560.1698,528.1155L561.9719,528.1155L563.7739,528.1155L565.5760,528.1155
            L567.3781,528.1155L569.1801,528.1155L570.9822,528.1155L572.7842,528.1155L574.5863,528.1155L576.3883,528.1155L578.1904,528.1155L579.9925,528.1155L581.7945,528.1155L583.5966,528.1155
            L585.3986,528.1155L587.2007,528.1155L589.0027,528.1155L590.8048,528.1155L592.6069,528.1155L594.4089,528.1155L596.2110,528.1155L598.0130,528.1155L599.8151,528.1155L601.6172,528.1155
            L603.4192,528.1155L605.2213,528.1155L607.0233,528.1155L608.8254,528.1155L610.6274,528.1155L612.4295,528.1155L614.2316,528.1155L616.0336,528.1155L617.8357,528.1155L619.6377,528.1155
            L621.4398,528.1155L623.2418,528.1155L625.0439,528.1155L626.8460,528.1155L628.6480,528.1155L630.4501,528.1155L632.2521,528.1155L634.0542,528.1155L635.8563,528.1155L637.6583,528.1155
            L639.4604,528.1155L641.2624,528.1155L643.0645,528.1155L644.8666,528.1155L646.6686,528.1155L648.4707,528.1155L650.2728,528.1155L652.0748,528.1155L653.8769,528.1155L655.6789,528.1155
            L657.4810,528.1155L659.2831,528.1155L661.0851,528.1155L662.8872,528.1155L664.6892,528.1155L666.4913,528.1155L668.2933,528.1155L670.0954,528.1155L671.8975,528.1155L673.6995,528.1155
            L675.5016,528.1155L677.3036,528.1155L679.1057,528.1155L680.9078,528.1155L682.7098,528.1155L684.5119,528.1155L686.3139,528.1155L688.1160,528.1155L689.9180,528.1155L691.7201,528.1155
            L693.5222,528.1155L695.3242,528.1155L697.1263,528.1155L698.9283,528.1155L700.7304,528.1155L702.5325,528.1155L704.3345,528.1155L706.1366,528.1155L707.9386,528.1155L709.7407,528.1155
            L711.5427,528.1155L713.3448,528.1155L715.1469,528.1155L716.9489,528.1155L718.7510,528.1155L720.5530,528.1155L722.3551,528.1155L724.1571,528.1155L725.9592,528.1155L727.7613,528.1155
            L729.5633,528.1155L731.3654,528.1155L733.1674,528.1155L734.9695,528.1155L736.7716,528.1155L738.5736,528.1155L740.3757,528.1155L742.1777,528.1155L743.9798,528.1155L745.7818,528.1155
            L747.5839,528.1155L749.3860,528.1155L751.1880,528.1155L752.9901,528.1155L754.7921,528.1155L756.5942,528.1155L758.3962,528.1155L760.1983,528.1155L762.0004,528.1155L763.8024,528.1155
            L765.6045,528.1155L767.4065,528.1155L769.2086,528.1155L771.0107,528.1155L772.8127,528.1155L774.6148,528.1155L776.4168,528.1155L778.2189,528.1155L780.0209,528.1155L781.8230,528.1155
            L783.6251,528.1155L785.4271,528.1155L787.2292,528.1155L789.0312,528.1155L790.8333,528.1155L792.6354,528.1155L794.4374,528.1155L796.2395,528.1155L798.0415,528.1155L799.8436,528.1155
            L801.6457,528.1155L803.4477,528.1155L805.2498,528.1155L807.0518,528.1155L808.8539,528.1155L810.6560,528.1155L812.4580,528.1155L814.2601,528.1155L816.0622,528.1155L817.8642,528.1155
            L819.6663,528.1155L821.4683,528.1155L823.2704,528.1155L825.0724,528.1155L826.8745,528.1155L828.6766,528.1155L830.4786,528.1155L832.2807,528.1155L834.0827,528.1155L835.8848,528.1155
            L837.6869,528.1155L839.4889,528.1155L841.2910,528.1155L843.0930,528.1155L844.8951,528.1155L846.6971,528.1155L848.4992,528.1155L850.3013,528.1155L852.1033,528.1155L853.9054,528.1155
            L855.7074,528.1155L857.5095,528.1155L859.3115,528.1155L861.1136,528.1155L862.9157,528.1155L864.7177,528.1155L866.5198,528.1155L868.3218,528.1155L870.1239,528.1155L871.9260,528.1155
            L873.7280,528.1155L875.5301,528.1155L877.3321,528.1155L879.1342,528.1155L880.9362,528.1155L882.7383,528.1155L884.5404,528.1155L886.3424,528.1155L888.1445,528.1155L889.9465,528.1155
            L891.7486,528.1155L893.5506,528.1155L895.3527,528.1155L897.1548,528.1155L898.9568,528.1155L900.7589,528.1155L902.5609,528.1155L904.3630,528.1155L906.1651,528.1155L907.9671,528.1155
            L909.7692,528.1155L911.5712,528.1155L913.3733,528.1155L915.1753,528.1155L916.9774,528.1155L918.7795,528.1155L920.5815,528.1155L922.3836,528.1155L924.1856,528.1155L925.9877,528.1155
            L927.7898,528.1155L929.5918,528.1155L931.3939,528.1155L933.1959,528.1155L934.9980,528.1155L936.8000,528.1155L938.6021,528.1155L940.4042,528.1155L942.2062,528.1155L944.0083,528.1155
            L945.8103,528.1155L947.6124,528.1155L949.4144,528.1155L951.2165,528.1155L953.0186,528.1155L954.8206,528.1155L956.6227,528.1155L958.4247,528.1155L960.2268,528.1155L962.0289,528.1155
            L963.8309,528.1155L965.6330,528.1155L967.4350,528.1155L969.2371,528.1155L971.0392,528.1155L972.8412,528.1155L974.6433,528.1155L976.4454,528.1155L978.2474,528.1155L980.0495,528.1155
            L981.8515,528.1155L983.6536,528.1155L985.4557,528.1155L987.2577,528.1155L989.0598,528.1155L990.8618,528.1155L992.6639,528.1155L994.4659,528.1155L996.2680,528.1155L998.0701,528.1155
            L999.8721,528.1155L1001.6742,528.1155L1003.4762,528.1155L1005.2783,528.1155L1007.0804,528.1155L1008.8824,528.1155L1010.6845,528.1155L1012.4865,528.1155L1014.2886,528.1155L1016.0906,528.1155
            L1017.8927,528.1155L1019.6948,528.1155L1021.4968,528.1155L1023.2989,528.1155L1025.1009,528.1155L1026.9030,528.1155L1028.7051,528.1155L1030.5071,528.1155L1032.3092,528.1155L1034.1112,528.1155"/>
  </g>
  <g style="fill:none; stroke:#008B00; stroke-width:  2.6968; stroke-linecap:butt; stroke-linejoin:miter; stroke-dasharray:none">
   <path d="M179.8454,212.4445L224.8067,220.1920L269.7681,229.5497L314.7294,240.1591L359.6908,346.6578L404.6522,417.3785L449.6135,471.7770L494.5749,512.5156L539.5362,548.1739L584.4976,574.2801
            L629.4590,595.6097L674.4203,618.4530L719.3817,634.4147L764.3431,658.1511L809.3044,675.0126L854.2658,687.1159L899.2271,704.2277L944.1885,721.4909L989.1499,731.6183L1034.1112,742.2524"/>
  </g>
  <g style="fill:#008B00; fill-rule:nonzero">
   <ellipse  rx="4.4946" ry="4.4946" cx="179.8454" cy="212.4445"/>
  </g>
  <g style="fill:none; stroke:#008B00; stroke-width:  2.6968; stroke-linecap:butt; stroke-linejoin:miter; stroke-dasharray:none">
   <ellipse  rx="4.4946" ry="4.4946" cx="179.8454" cy="212.4445"/>
  </g>
  <g style="fill:#008B00; fill-rule:nonzero">
   <ellipse  rx="4.4946" ry="4.4946" cx="224.8067" cy="220.1920"/>
  </g>
  <g style="fill:none; stroke:#008B00; stroke-width:  2.6968; stroke-linecap:butt; stroke-linejoin:miter; stroke-dasharray:none">
   <ellipse  rx="4.4946" ry="4.4946" cx="224.8067" cy="220.1920"/>
  </g>
  <g style="fill:#008B00; fill-rule:nonzero">
   <ellipse  rx="4.4946" ry="4.4946" cx="269.7681" cy="229.5497"/>
  </g>
  <g style="fill:none; stroke:#008B00; stroke-width:  2.6968; stroke-linecap:butt; stroke-linejoin:miter; stroke-dasharray:none">
   <ellipse  rx="4.4946" ry="4.4946" cx="269.7681" cy="229.5497"/>
  </g>
  <g style="fill:#008B00; fill-rule:nonzero">
   <ellipse  rx="4.4946" ry="4.4946" cx="314.7294" cy="240.1591"/>
  </g>
  <g style="fill:none; stroke:#008B00; stroke-width:  2.6968; stroke-linecap:butt; stroke-linejoin:miter; stroke-dasharray:none">
   <ellipse  rx="4.4946" ry="4.4946" cx="314.7294" cy="240.1591"/>
  </g>
  <g style="fill:#008B00; fill-rule:nonzero">
   <ellipse  rx="4.4946" ry="4.4946" cx="359.6908" cy="346.6578"/>
  </g>
  <g style="fill:none; stroke:#008B00; stroke-width:  2.6968; stroke-linecap:butt; stroke-linejoin:miter; stroke-dasharray:none">
   <ellipse  rx="4.4946" ry="4.4946" cx="359.6908" cy="346.6578"/>
  </g>
  <g style="fill:#008B00; fill-rule:nonzero">
   <ellipse  rx="4.4946" ry="4.4946" cx="404.6522" cy="417.3785"/>
  </g>
  <g style="fill:none; stroke:#008B00; stroke-width:  2.6968; stroke-linecap:butt; stroke-linejoin:miter; stroke-dasharray:none">
   <ellipse  rx="4.4946" ry="4.4946" cx="404.6522" cy="417.3785"/>
  </g>
  <g style="fill:#008B00; fill-rule:nonzero">
   <ellipse  rx="4.4946" ry="4.4946" cx="449.6135" cy="471.7770"/>
  </g>
  <g style="fill:none; stroke:#008B00; stroke-width:  2.6968; stroke-linecap:butt; stroke-linejoin:miter; stroke-dasharray:none">
   <ellipse  rx="4.4946" ry="4.4946" cx="449.6135" cy="471.7770"/>
  </g>
  <g style="fill:#008B00; fill-rule:nonzero">
   <ellipse  rx="4.4946" ry="4.4946" cx="494.5749" cy="512.5156"/>
  </g>
  <g style="fill:none; stroke:#008B00; stroke-width:  2.6968; stroke-linecap:butt; stroke-linejoin:miter; stroke-dasharray:none">
   <ellipse  rx="4.4946" ry="4.4946" cx="494.5749" cy="512.5156"/>
  </g>
  <g style="fill:#008B00; fill-rule:nonzero">
   <ellipse  rx="4.4946" ry="4.4946" cx="539.5362" cy="548.1739"/>
  </g>
  <g style="fill:none; stroke:#008B00; stroke-width:  2.6968; stroke-linecap:butt; stroke-linejoin:miter; stroke-dasharray:none">
   <ellipse  rx="4.4946" ry="4.4946" cx="539.5362" cy="548.1739"/>
  </g>
  <g style="fill:#008B00; fill-rule:nonzero">
   <ellipse  rx="4.4946" ry="4.4946" cx="584.4976" cy="574.2801"/>
  </g>
  <g style="fill:none; stroke:#008B00; stroke-width:  2.6968; stroke-linecap:butt; stroke-linejoin:miter; stroke-dasharray:none">
   <ellipse  rx="4.4946" ry="4.4946" cx="584.4976" cy="574.2801"/>
  </g>
  <g style="fill:#008B00; fill-rule:nonzero">
   <ellipse  rx="4.4946" ry="4.4946" cx="629.4590" cy="595.6097"/>
  </g>
  <g style="fill:none; stroke:#008B00; stroke-width:  2.6968; stroke-linecap:butt; stroke-linejoin:miter; stroke-dasharray:none">
   <ellipse  rx="4.4946" ry="4.4946" cx="629.4590" cy="595.6097"/>
  </g>
  <g style="fill:#008B00; fill-rule:nonzero">
   <ellipse  rx="4.4946" ry="4.4946" cx="674.4203" cy="618.4530"/>
  </g>
  <g style="fill:none; stroke:#008B00; stroke-width:  2.6968; stroke-linecap:butt; stroke-linejoin:miter; stroke-dasharray:none">
   <ellipse  rx="4.4946" ry="4.4946" cx="674.4203" cy="618.4530"/>
  </g>
  <g style="fill:#008B00; fill-rule:nonzero">
   <ellipse  rx="4.4946" ry="4.4946" cx="719.3817" cy="634.4147"/>
  </g>
  <g style="fill:none; stroke:#008B00; stroke-width:  2.6968; stroke-linecap:butt; stroke-linejoin:miter; stroke-dasharray:none">
   <ellipse  rx="4.4946" ry="4.4946" cx="719.3817" cy="634.4147"/>
  </g>
  <g style="fill:#008B00; fill-rule:nonzero">
   <ellipse  rx="4.4946" ry="4.4946" cx="764.3431" cy="658.1511"/>
  </g>
  <g style="fill:none; stroke:#008B00; stroke-width:  2.6968; stroke-linecap:butt; stroke-linejoin:miter; stroke-dasharray:none">
   <ellipse  rx="4.4946" ry="4.4946" cx="764.3431" cy="658.1511"/>
  </g>
  <g style="fill:#008B00; fill-rule:nonzero">
   <ellipse  rx="4.4946" ry="4.4946" cx="809.3044" cy="675.0126"/>
  </g>
  <g style="fill:none; stroke:#008B00; stroke-width:  2.6968; stroke-linecap:butt; stroke-linejoin:miter; stroke-dasharray:none">
   <ellipse  rx="4.4946" ry="4.4946" cx="809.3044" cy="675.0126"/>
  </g>
  <g style="fill:#008B00; fill-rule:nonzero">
   <ellipse  rx="4.4946" ry="4.4946" cx="854.2658" cy="687.1159"/>
  </g>
  <g style="fill:none; stroke:#008B00; stroke-width:  2.6968; stroke-linecap:butt; stroke-linejoin:miter; stroke-dasharray:none">
   <ellipse  rx="4.4946" ry="4.4946" cx="854.2658" cy="687.1159"/>
  </g>
  <g style="fill:#008B00; fill-rule:nonzero">
   <ellipse  rx="4.4946" ry="4.4946" cx="899.2271" cy="704.2277"/>
  </g>
  <g style="fill:none; stroke:#008B00; stroke-width:  2.6968; stroke-linecap:butt; stroke-linejoin:miter; stroke-dasharray:none">
   <ellipse  rx="4.4946" ry="4.4946" cx="899.2271" cy="704.2277"/>
  </g>
  <g style="fill:#008B00; fill-rule:nonzero">
   <ellipse  rx="4.4946" ry="4.4946" cx="944.1885" cy="721.4909"/>
  </g>
  <g style="fill:none; stroke:#008B00; stroke-width:  2.6968; stroke-linecap:butt; stroke-linejoin:miter; stroke-dasharray:none">
   <ellipse  rx="4.4946" ry="4.4946" cx="944.1885" cy="721.4909"/>
  </g>
  <g style="fill:#008B00; fill-rule:nonzero">
   <ellipse  rx="4.4946" ry="4.4946" cx="989.1499" cy="731.6183"/>
  </g>
  <g style="fill:none; stroke:#008B00; stroke-width:  2.6968; stroke-linecap:butt; stroke-linejoin:miter; stroke-dasharray:none">
   <ellipse  rx="4.4946" ry="4.4946" cx="989.1499" cy="731.6183"/>
  </g>
  <g style="fill:#008B00; fill-rule:nonzero">
   <ellipse  rx="4.4946" ry="4.4946" cx="1034.1112" cy="742.2524"/>
  </g>
  <g style="fill:none; stroke:#008B00; stroke-width:  2.6968; stroke-linecap:butt; stroke-linejoin:miter; stroke-dasharray:none">
   <ellipse  rx="4.4946" ry="4.4946" cx="1034.1112" cy="742.2524"/>
  </g>
  <g style="fill:none; stroke:#008B00; stroke-width:  2.6968; stroke-linecap:butt; stroke-linejoin:miter; stroke-dasharray: 13 8">
   <path d="M179.8454,165.5650L224.8067,174.2699L269.7681,184.7143L314.7294,196.7382L359.6908,296.2609L404.6522,362.1474L449.6135,413.0315L494.5749,451.2311L539.5362,484.8471L584.4976,510.3366
            L629.4590,530.8800L674.4203,552.2785L719.3817,567.0537L764.3431,590.1518"/>
  </g>
  <g style="fill:#008B00; fill-rule:nonzero">
   <path  d="M176.0249,161.7446L176.0249,169.3854L183.6658,169.3854L183.6658,161.7446z"/>
  </g>
  <g style="fill:none; stroke:#008B00; stroke-width:  2.6968; stroke-linecap:butt; stroke-linejoin:miter; stroke-dasharray:none">
   <path d="M176.0249,161.7446L176.0249,169.3854L183.6658,169.3854L183.6658,161.7446z"/>
  </g>
  <g style="fill:#008B00; fill-rule:nonzero">
   <path  d="M220.9863,170.4495L220.9863,178.0903L228.6271,178.0903L228.6271,170.4495z"/>
  </g>
  <g style="fill:none; stroke:#008B00; stroke-width:  2.6968; stroke-linecap:butt; stroke-linejoin:miter; stroke-dasharray:none">
   <path d="M220.9863,170.4495L220.9863,178.0903L228.6271,178.0903L228.6271,170.4495z"/>
  </g>
  <g style="fill:#008B00; fill-rule:nonzero">
   <path  d="M265.9477,180.8939L265.9477,188.5348L273.5885,188.5348L273.5885,180.8939z"/>
  </g>
  <g style="fill:none; stroke:#008B00; stroke-width:  2.6968; stroke-linecap:butt; stroke-linejoin:miter; stroke-dasharray:none">
   <path d="M265.9477,180.8939L265.9477,188.5348L273.5885,188.5348L273.5885,180.8939z"/>
  </g>
  <g style="fill:#008B00; fill-rule:nonzero">
   <path  d="M310.9090,192.9178L310.9090,200.5587L318.5498,200.5587L318.5498,192.9178z"/>
  </g>
  <g style="fill:none; stroke:#008B00; stroke-width:  2.6968; stroke-linecap:butt; stroke-linejoin:miter; stroke-dasharray:none">
   <path d="M310.9090,192.9178L310.9090,200.5587L318.5498,200.5587L318.5498,192.9178z"/>
  </g>
  <g style="fill:#008B00; fill-rule:nonzero">
   <path  d="M355.8704,292.4405L355.8704,300.0814L363.5112,300.0814L363.5112,292.4405z"/>
  </g>
  <g style="fill:none; stroke:#008B00; stroke-width:  2.6968; stroke-linecap:butt; stroke-linejoin:miter; stroke-dasharray:none">
   <path d="M355.8704,292.4405L355.8704,300.0814L363.5112,300.0814L363.5112,292.4405z"/>
  </g>
  <g style="fill:#008B00; fill-rule:nonzero">
   <path  d="M400.8318,358.3270L400.8318,365.9678L408.4726,365.9678L408.4726,358.3270z"/>
  </g>
  <g style="fill:none; stroke:#008B00; stroke-width:  2.6968; stroke-linecap:butt; stroke-linejoin:miter; stroke-dasharray:none">
   <path d="M400.8318,358.3270L400.8318,365.9678L408.4726,365.9678L408.4726,358.3270z"/>
  </g>
  <g style="fill:#008B00; fill-rule:nonzero">
   <path  d="M445.7931,409.2111L445.7931,416.8519L453.4339,416.8519L453.4339,409.2111z"/>
  </g>
  <g style="fill:none; stroke:#008B00; stroke-width:  2.6968; stroke-linecap:butt; stroke-linejoin:miter; stroke-dasharray:none">
   <path d="M445.7931,409.2111L445.7931,416.8519L453.4339,416.8519L453.4339,409.2111z"/>
  </g>
  <g style="fill:#008B00; fill-rule:nonzero">
   <path  d="M490.7545,447.4107L490.7545,455.0515L498.3953,455.0515L498.3953,447.4107z"/>
  </g>
  <g style="fill:none; stroke:#008B00; stroke-width:  2.6968; stroke-linecap:butt; stroke-linejoin:miter; stroke-dasharray:none">
   <path d="M490.7545,447.4107L490.7545,455.0515L498.3953,455.0515L498.3953,447.4107z"/>
  </g>
  <g style="fill:#008B00; fill-rule:nonzero">
   <path  d="M535.7158,481.0267L535.7158,488.6675L543.3567,488.6675L543.3567,481.0267z"/>
  </g>
  <g style="fill:none; stroke:#008B00; stroke-width:  2.6968; stroke-linecap:butt; stroke-linejoin:miter; stroke-dasharray:none">
   <path d="M535.7158,481.0267L535.7158,488.6675L543.3567,488.6675L543.3567,481.0267z"/>
  </g>
  <g style="fill:#008B00; fill-rule:nonzero">
   <path  d="M580.6772,506.5162L580.6772,514.1570L588.3180,514.1570L588.3180,506.5162z"/>
  </g>
  <g style="fill:none; stroke:#008B00; stroke-width:  2.6968; stroke-linecap:butt; stroke-linejoin:miter; stroke-dasharray:none">
   <path d="M580.6772,506.5162L580.6772,514.1570L588.3180,514.1570L588.3180,506.5162z"/>
  </g>
  <g style="fill:#008B00; fill-rule:nonzero">
   <path  d="M625.6386,527.0596L625.6386,534.7004L633.2794,534.7004L633.2794,527.0596z"/>
  </g>
  <g style="fill:none; stroke:#008B00; stroke-width:  2.6968; stroke-linecap:butt; stroke-linejoin:miter; stroke-dasharray:none">
   <path d="M625.6386,527.0596L625.6386,534.7004L633.2794,534.7004L633.2794,527.0596z"/>
  </g>
  <g style="fill:#008B00; fill-rule:nonzero">
   <path  d="M670.5999,548.4581L670.5999,556.0989L678.2407,556.0989L678.2407,548.4581z"/>
  </g>
  <g style="fill:none; stroke:#008B00; stroke-width:  2.6968; stroke-linecap:butt; stroke-linejoin:miter; stroke-dasharray:none">
   <path d="M670.5999,548.4581L670.5999,556.0989L678.2407,556.0989L678.2407,548.4581z"/>
  </g>
  <g style="fill:#008B00; fill-rule:nonzero">
   <path  d="M715.5613,563.2333L715.5613,570.8741L723.2021,570.8741L723.2021,563.2333z"/>
  </g>
  <g style="fill:none; stroke:#008B00; stroke-width:  2.6968; stroke-linecap:butt; stroke-linejoin:miter; stroke-dasharray:none">
   <path d="M715.5613,563.2333L715.5613,570.8741L723.2021,570.8741L723.2021,563.2333z"/>
  </g>
  <g style="fill:#008B00; fill-rule:nonzero">
   <path  d="M760.5226,586.3313L760.5226,593.9722L768.1635,593.9722L768.1635,586.3313z"/>
  </g>
  <g style="fill:none; stroke:#008B00; stroke-width:  2.6968; stroke-linecap:butt; stroke-linejoin:miter; stroke-dasharray:none">
   <path d="M760.5226,586.3313L760.5226,593.9722L768.1635,593.9722L768.1635,586.3313z"/>
  </g>
  <g style="fill:none; stroke:#FF0000; stroke-width:  2.6968; stroke-linecap:butt; stroke-linejoin:miter; stroke-dasharray:none">
   <path d="M179.8454,592.3092L224.8067,623.8856L269.7681,669.0918L314.7294,673.3976L359.6908,697.3300L404.6522,682.8375L449.6135,694.8213L494.5749,695.9903L539.5362,703.9503L584.4976,720.7374
            L629.4590,733.4694L674.4203,746.7377"/>
  </g>
  <g style="fill:#FF0000; fill-rule:nonzero">
   <ellipse  rx="4.4946" ry="4.4946" cx="179.8454" cy="592.3092"/>
  </g>
  <g style="fill:none; stroke:#FF0000; stroke-width:  2.6968; stroke-linecap:butt; stroke-linejoin:miter; stroke-dasharray:none">
   <ellipse  rx="4.4946" ry="4.4946" cx="179.8454" cy="592.3092"/>
  </g>
  <g style="fill:#FF0000; fill-rule:nonzero">
   <ellipse  rx="4.4946" ry="4.4946" cx="224.8067" cy="623.8856"/>
  </g>
  <g style="fill:none; stroke:#FF0000; stroke-width:  2.6968; stroke-linecap:butt; stroke-linejoin:miter; stroke-dasharray:none">
   <ellipse  rx="4.4946" ry="4.4946" cx="224.8067" cy="623.8856"/>
  </g>
  <g style="fill:#FF0000; fill-rule:nonzero">
   <ellipse  rx="4.4946" ry="4.4946" cx="269.7681" cy="669.0918"/>
  </g>
  <g style="fill:none; stroke:#FF0000; stroke-width:  2.6968; stroke-linecap:butt; stroke-linejoin:miter; stroke-dasharray:none">
   <ellipse  rx="4.4946" ry="4.4946" cx="269.7681" cy="669.0918"/>
  </g>
  <g style="fill:#FF0000; fill-rule:nonzero">
   <ellipse  rx="4.4946" ry="4.4946" cx="314.7294" cy="673.3976"/>
  </g>
  <g style="fill:none; stroke:#FF0000; stroke-width:  2.6968; stroke-linecap:butt; stroke-linejoin:miter; stroke-dasharray:none">
   <ellipse  rx="4.4946" ry="4.4946" cx="314.7294" cy="673.3976"/>
  </g>
  <g style="fill:#FF0000; fill-rule:nonzero">
   <ellipse  rx="4.4946" ry="4.4946" cx="359.6908" cy="697.3300"/>
  </g>
  <g style="fill:none; stroke:#FF0000; stroke-width:  2.6968; stroke-linecap:butt; stroke-linejoin:miter; stroke-dasharray:none">
   <ellipse  rx="4.4946" ry="4.4946" cx="359.6908" cy="697.3300"/>
  </g>
  <g style="fill:#FF0000; fill-rule:nonzero">
   <ellipse  rx="4.4946" ry="4.4946" cx="404.6522" cy="682.8375"/>
  </g>
  <g style="fill:none; stroke:#FF0000; stroke-width:  2.6968; stroke-linecap:butt; stroke-linejoin:miter; stroke-dasharray:none">
   <ellipse  rx="4.4946" ry="4.4946" cx="404.6522" cy="682.8375"/>
  </g>
  <g style="fill:#FF0000; fill-rule:nonzero">
   <ellipse  rx="4.4946" ry="4.4946" cx="449.6135" cy="694.8213"/>
  </g>
  <g style="fill:none; stroke:#FF0000; stroke-width:  2.6968; stroke-linecap:butt; stroke-linejoin:miter; stroke-dasharray:none">
   <ellipse  rx="4.4946" ry="4.4946" cx="449.6135" cy="694.8213"/>
  </g>
  <g style="fill:#FF0000; fill-rule:nonzero">
   <ellipse  rx="4.4946" ry="4.4946" cx="494.5749" cy="695.9903"/>
  </g>
  <g style="fill:none; stroke:#FF0000; stroke-width:  2.6968; stroke-linecap:butt; stroke-linejoin:miter; stroke-dasharray:none">
   <ellipse  rx="4.4946" ry="4.4946" cx="494.5749" cy="695.9903"/>
  </g>
  <g style="fill:#FF0000; fill-rule:nonzero">
   <ellipse  rx="4.4946" ry="4.4946" cx="539.5362" cy="703.9503"/>
  </g>
  <g style="fill:none; stroke:#FF0000; stroke-width:  2.6968; stroke-linecap:butt; stroke-linejoin:miter; stroke-dasharray:none">
   <ellipse  rx="4.4946" ry="4.4946" cx="539.5362" cy="703.9503"/>
  </g>
  <g style="fill:#FF0000; fill-rule:nonzero">
   <ellipse  rx="4.4946" ry="4.4946" cx="584.4976" cy="720.7374"/>
  </g>
  <g style="fill:none; stroke:#FF0000; stroke-width:  2.6968; stroke-linecap:butt; stroke-linejoin:miter; stroke-dasharray:none">
   <ellipse  rx="4.4946" ry="4.4946" cx="584.4976" cy="720.7374"/>
  </g>
  <g style="fill:#FF0000; fill-rule:nonzero">
   <ellipse  rx="4.4946" ry="4.4946" cx="629.4590" cy="733.4694"/>
  </g>
  <g style="fill:none; stroke:#FF0000; stroke-width:  2.6968; stroke-linecap:butt; stroke-linejoin:miter; stroke-dasharray:none">
   <ellipse  rx="4.4946" ry="4.4946" cx="629.4590" cy="733.4694"/>
  </g>
  <g style="fill:#FF0000; fill-rule:nonzero">
   <ellipse  rx="4.4946" ry="4.4946" cx="674.4203" cy="746.7377"/>
  </g>
  <g style="fill:none; stroke:#FF0000; stroke-width:  2.6968; stroke-linecap:butt; stroke-linejoin:miter; stroke-dasharray:none">
   <ellipse  rx="4.4946" ry="4.4946" cx="674.4203" cy="746.7377"/>
  </g>
  <g style="fill:none; stroke:#FF0000; stroke-width:  2.6968; stroke-linecap:butt; stroke-linejoin:miter; stroke-dasharray: 13 8">
   <path d="M179.8454,558.4506L224.8067,582.1564L269.7681,620.1732L314.7294,624.9405L359.6908,647.6936L404.6522,632.0363L449.6135,641.6382L494.5749,643.8762"/>
  </g>
  <g style="fill:#FF0000; fill-rule:nonzero">
   <path  d="M176.0249,554.6302L176.0249,562.2710L183.6658,562.2710L183.6658,554.6302z"/>
  </g>
  <g style="fill:none; stroke:#FF0000; stroke-width:  2.6968; stroke-linecap:butt; stroke-linejoin:miter; stroke-dasharray:none">
   <path d="M176.0249,554.6302L176.0249,562.2710L183.6658,562.2710L183.6658,554.6302z"/>
  </g>
  <g style="fill:#FF0000; fill-rule:nonzero">
   <path  d="M220.9863,578.3360L220.9863,585.9768L228.6271,585.9768L228.6271,578.3360z"/>
  </g>
  <g style="fill:none; stroke:#FF0000; stroke-width:  2.6968; stroke-linecap:butt; stroke-linejoin:miter; stroke-dasharray:none">
   <path d="M220.9863,578.3360L220.9863,585.9768L228.6271,585.9768L228.6271,578.3360z"/>
  </g>
  <g style="fill:#FF0000; fill-rule:nonzero">
   <path  d="M265.9477,616.3528L265.9477,623.9936L273.5885,623.9936L273.5885,616.3528z"/>
  </g>
  <g style="fill:none; stroke:#FF0000; stroke-width:  2.6968; stroke-linecap:butt; stroke-linejoin:miter; stroke-dasharray:none">
   <path d="M265.9477,616.3528L265.9477,623.9936L273.5885,623.9936L273.5885,616.3528z"/>
  </g>
  <g style="fill:#FF0000; fill-rule:nonzero">
   <path  d="M310.9090,621.1201L310.9090,628.7610L318.5498,628.7610L318.5498,621.1201z"/>
  </g>
  <g style="fill:none; stroke:#FF0000; stroke-width:  2.6968; stroke-linecap:butt; stroke-linejoin:miter; stroke-dasharray:none">
   <path d="M310.9090,621.1201L310.9090,628.7610L318.5498,628.7610L318.5498,621.1201z"/>
  </g>
  <g style="fill:#FF0000; fill-rule:nonzero">
   <path  d="M355.8704,643.8732L355.8704,651.5140L363.5112,651.5140L363.5112,643.8732z"/>
  </g>
  <g style="fill:none; stroke:#FF0000; stroke-width:  2.6968; stroke-linecap:butt; stroke-linejoin:miter; stroke-dasharray:none">
   <path d="M355.8704,643.8732L355.8704,651.5140L363.5112,651.5140L363.5112,643.8732z"/>
  </g>
  <g style="fill:#FF0000; fill-rule:nonzero">
   <path  d="M400.8318,628.2159L400.8318,635.8567L408.4726,635.8567L408.4726,628.2159z"/>
  </g>
  <g style="fill:none; stroke:#FF0000; stroke-width:  2.6968; stroke-linecap:butt; stroke-linejoin:miter; stroke-dasharray:none">
   <path d="M400.8318,628.2159L400.8318,635.8567L408.4726,635.8567L408.4726,628.2159z"/>
  </g>
  <g style="fill:#FF0000; fill-rule:nonzero">
   <path  d="M445.7931,637.8178L445.7931,645.4586L453.4339,645.4586L453.4339,637.8178z"/>
  </g>
  <g style="fill:none; stroke:#FF0000; stroke-width:  2.6968; stroke-linecap:butt; stroke-linejoin:miter; stroke-dasharray:none">
   <path d="M445.7931,637.8178L445.7931,645.4586L453.4339,645.4586L453.4339,637.8178z"/>
  </g>
  <g style="fill:#FF0000; fill-rule:nonzero">
   <path  d="M490.7545,640.0558L490.7545,647.6966L498.3953,647.6966L498.3953,640.0558z"/>
  </g>
  <g style="fill:none; stroke:#FF0000; stroke-width:  2.6968; stroke-linecap:butt; stroke-linejoin:miter; stroke-dasharray:none">
   <path d="M490.7545,640.0558L490.7545,647.6966L498.3953,647.6966L498.3953,640.0558z"/>
  </g>
  <g style="fill:none; stroke:#000000; stroke-width:  2.6968; stroke-linecap:butt; stroke-linejoin:miter; stroke-dasharray:none">
   <path d="M134.8840,134.8380L1034.1112,134.8380"/>
   <path d="M134.8840,764.0820L1034.1112,764.0820"/>
   <path d="M179.8454,134.8380L179.8454,143.8272"/>
   <path d="M179.8454,764.0820L179.8454,755.0928"/>
   <path d="M269.7681,134.8380L269.7681,143.8272"/>
   <path d="M269.7681,764.0820L269.7681,755.0928"/>
   <path d="M359.6908,134.8380L359.6908,143.8272"/>
   <path d="M359.6908,764.0820L359.6908,755.0928"/>
   <path d="M449.6135,134.8380L449.6135,143.8272"/>
   <path d="M449.6135,764.0820L449.6135,755.0928"/>
   <path d="M539.5362,134.8380L539.5362,143.8272"/>
   <path d="M539.5362,764.0820L539.5362,755.0928"/>
   <path d="M629.4590,134.8380L629.4590,143.8272"/>
   <path d="M629.4590,764.0820L629.4590,755.0928"/>
   <path d="M719.3817,134.8380L719.3817,143.8272"/>
   <path d="M719.3817,764.0820L719.3817,755.0928"/>
   <path d="M809.3044,134.8380L809.3044,143.8272"/>
   <path d="M809.3044,764.0820L809.3044,755.0928"/>
   <path d="M899.2271,134.8380L899.2271,143.8272"/>
   <path d="M899.2271,764.0820L899.2271,755.0928"/>
   <path d="M989.1499,134.8380L989.1499,143.8272"/>
   <path d="M989.1499,764.0820L989.1499,755.0928"/>
   <path d="M134.8840,134.8380L134.8840,152.8164"/>
   <path d="M134.8840,764.0820L134.8840,746.1036"/>
   <path d="M224.8067,134.8380L224.8067,152.8164"/>
   <path d="M224.8067,764.0820L224.8067,746.1036"/>
   <path d="M314.7294,134.8380L314.7294,152.8164"/>
   <path d="M314.7294,764.0820L314.7294,746.1036"/>
   <path d="M404.6522,134.8380L404.6522,152.8164"/>
   <path d="M404.6522,764.0820L404.6522,746.1036"/>
   <path d="M494.5749,134.8380L494.5749,152.8164"/>
   <path d="M494.5749,764.0820L494.5749,746.1036"/>
   <path d="M584.4976,134.8380L584.4976,152.8164"/>
   <path d="M584.4976,764.0820L584.4976,746.1036"/>
   <path d="M674.4203,134.8380L674.4203,152.8164"/>
   <path d="M674.4203,764.0820L674.4203,746.1036"/>
   <path d="M764.3431,134.8380L764.3431,152.8164"/>
   <path d="M764.3431,764.0820L764.3431,746.1036"/>
   <path d="M854.2658,134.8380L854.2658,152.8164"/>
   <path d="M854.2658,764.0820L854.2658,746.1036"/>
   <path d="M944.1885,134.8380L944.1885,152.8164"/>
   <path d="M944.1885,764.0820L944.1885,746.1036"/>
   <path d="M1034.1112,134.8380L1034.1112,152.8164"/>
   <path d="M1034.1112,764.0820L1034.1112,746.1036"/>
  </g>
  <g style="fill:#000000; fill-rule:nonzero">
   <text   style="font-family:'Times','Nimbus Roman No9 L'; font-style:normal; font-weight:bold; font-size:898.9200" transform="matrix(0.0280,0.0000,-0.0000,-0.0280,128.9440,108.5688)">0</text>
   <text   style="font-family:'Times','Nimbus Roman No9 L'; font-style:normal; font-weight:bold; font-size:898.9200" transform="matrix(0.0280,0.0000,-0.0000,-0.0280,218.8667,108.5688)">2</text>
   <text   style="font-family:'Times','Nimbus Roman No9 L'; font-style:normal; font-weight:bold; font-size:898.9200" transform="matrix(0.0280,0.0000,-0.0000,-0.0280,308.7894,108.5688)">4</text>
   <text   style="font-family:'Times','Nimbus Roman No9 L'; font-style:normal; font-weight:bold; font-size:898.9200" transform="matrix(0.0280,0.0000,-0.0000,-0.0280,398.7122,108.5688)">6</text>
   <text   style="font-family:'Times','Nimbus Roman No9 L'; font-style:normal; font-weight:bold; font-size:898.9200" transform="matrix(0.0280,0.0000,-0.0000,-0.0280,488.6349,108.5688)">8</text>
   <text   style="font-family:'Times','Nimbus Roman No9 L'; font-style:normal; font-weight:bold; font-size:898.9200" transform="matrix(0.0280,0.0000,-0.0000,-0.0280,572.2576,108.5688)">10</text>
   <text   style="font-family:'Times','Nimbus Roman No9 L'; font-style:normal; font-weight:bold; font-size:898.9200" transform="matrix(0.0280,0.0000,-0.0000,-0.0280,662.1803,108.5688)">12</text>
   <text   style="font-family:'Times','Nimbus Roman No9 L'; font-style:normal; font-weight:bold; font-size:898.9200" transform="matrix(0.0280,0.0000,-0.0000,-0.0280,752.1031,108.5688)">14</text>
   <text   style="font-family:'Times','Nimbus Roman No9 L'; font-style:normal; font-weight:bold; font-size:898.9200" transform="matrix(0.0280,0.0000,-0.0000,-0.0280,842.0258,108.5688)">16</text>
   <text   style="font-family:'Times','Nimbus Roman No9 L'; font-style:normal; font-weight:bold; font-size:898.9200" transform="matrix(0.0280,0.0000,-0.0000,-0.0280,931.9485,108.5688)">18</text>
   <text   style="font-family:'Times','Nimbus Roman No9 L'; font-style:normal; font-weight:bold; font-size:898.9200" transform="matrix(0.0280,0.0000,-0.0000,-0.0280,1021.8712,108.5688)">20</text>
   <text   style="font-family:'Times','Nimbus Roman No9 L'; font-style:normal; font-weight:bold; font-size:898.9200" transform="matrix(0.0280,0.0000,-0.0000,-0.0280,469.2976,81.9396)">Number of Hydrogen</text>
  </g>
  <g style="fill:none; stroke:#000000; stroke-width:  1.3484; stroke-linecap:butt; stroke-linejoin:miter; stroke-dasharray:none">
   <path d="M134.8840,134.8380L134.8840,764.0820"/>
   <path d="M1034.1112,134.8380L1034.1112,764.0820"/>
  </g>
  <g style="fill:none; stroke:#000000; stroke-width:  2.6968; stroke-linecap:butt; stroke-linejoin:miter; stroke-dasharray:none">
   <path d="M134.8840,174.1658L143.8732,174.1658"/>
   <path d="M1034.1112,174.1658L1025.1220,174.1658"/>
   <path d="M134.8840,252.8212L143.8732,252.8212"/>
   <path d="M1034.1112,252.8212L1025.1220,252.8212"/>
   <path d="M134.8840,331.4767L143.8732,331.4767"/>
   <path d="M1034.1112,331.4767L1025.1220,331.4767"/>
   <path d="M134.8840,410.1322L143.8732,410.1322"/>
   <path d="M1034.1112,410.1322L1025.1220,410.1322"/>
   <path d="M134.8840,488.7878L143.8732,488.7878"/>
   <path d="M1034.1112,488.7878L1025.1220,488.7878"/>
   <path d="M134.8840,567.4432L143.8732,567.4432"/>
   <path d="M1034.1112,567.4432L1025.1220,567.4432"/>
   <path d="M134.8840,646.0987L143.8732,646.0987"/>
   <path d="M1034.1112,646.0987L1025.1220,646.0987"/>
   <path d="M134.8840,724.7542L143.8732,724.7542"/>
   <path d="M1034.1112,724.7542L1025.1220,724.7542"/>
   <path d="M134.8840,134.8380L152.8624,134.8380"/>
   <path d="M1034.1112,134.8380L1016.1328,134.8380"/>
   <path d="M134.8840,213.4935L152.8624,213.4935"/>
   <path d="M1034.1112,213.4935L1016.1328,213.4935"/>
   <path d="M134.8840,292.1490L152.8624,292.1490"/>
   <path d="M1034.1112,292.1490L1016.1328,292.1490"/>
   <path d="M134.8840,370.8045L152.8624,370.8045"/>
   <path d="M1034.1112,370.8045L1016.1328,370.8045"/>
   <path d="M134.8840,449.4600L152.8624,449.4600"/>
   <path d="M1034.1112,449.4600L1016.1328,449.4600"/>
   <path d="M134.8840,528.1155L152.8624,528.1155"/>
   <path d="M1034.1112,528.1155L1016.1328,528.1155"/>
   <path d="M134.8840,606.7710L152.8624,606.7710"/>
   <path d="M1034.1112,606.7710L1016.1328,606.7710"/>
   <path d="M134.8840,685.4265L152.8624,685.4265"/>
   <path d="M1034.1112,685.4265L1016.1328,685.4265"/>
  </g>
  <g style="fill:#000000; fill-rule:nonzero">
   <text   style="font-family:'Times','Nimbus Roman No9 L'; font-style:normal; font-weight:bold; font-size:898.9200" transform="matrix(0.0280,0.0000,-0.0000,-0.0280,86.6548,126.3780)">-0.5</text>
   <text   style="font-family:'Times','Nimbus Roman No9 L'; font-style:normal; font-weight:bold; font-size:898.9200" transform="matrix(0.0280,0.0000,-0.0000,-0.0280,86.6548,205.0335)">-0.4</text>
   <text   style="font-family:'Times','Nimbus Roman No9 L'; font-style:normal; font-weight:bold; font-size:898.9200" transform="matrix(0.0280,0.0000,-0.0000,-0.0280,86.6548,283.6890)">-0.3</text>
   <text   style="font-family:'Times','Nimbus Roman No9 L'; font-style:normal; font-weight:bold; font-size:898.9200" transform="matrix(0.0280,0.0000,-0.0000,-0.0280,86.6548,362.3445)">-0.2</text>
   <text   style="font-family:'Times','Nimbus Roman No9 L'; font-style:normal; font-weight:bold; font-size:898.9200" transform="matrix(0.0280,0.0000,-0.0000,-0.0280,87.3748,441.0000)">-0.1</text>
   <text   style="font-family:'Times','Nimbus Roman No9 L'; font-style:normal; font-weight:bold; font-size:898.9200" transform="matrix(0.0280,0.0000,-0.0000,-0.0280,114.0148,519.6555)">0</text>
   <text   style="font-family:'Times','Nimbus Roman No9 L'; font-style:normal; font-weight:bold; font-size:898.9200" transform="matrix(0.0280,0.0000,-0.0000,-0.0280,96.0148,598.3110)">0.1</text>
   <text   style="font-family:'Times','Nimbus Roman No9 L'; font-style:normal; font-weight:bold; font-size:898.9200" transform="matrix(0.0280,0.0000,-0.0000,-0.0280,95.2948,676.9665)">0.2</text>
   <text   style="font-family:'Times','Nimbus Roman No9 L'; font-style:normal; font-weight:bold; font-size:898.9200" transform="matrix(0.0000,0.0280,0.0280,-0.0000,72.2656,287.4600)">Gibbs Free Energy per H (eV)</text>
  </g>
  <g style="fill:none; stroke:#000000; stroke-width:  2.6968; stroke-linecap:butt; stroke-linejoin:miter; stroke-dasharray:none">
   <path d="M134.8840,134.8380L134.8840,764.0820L1034.1112,764.0820L1034.1112,134.8380z"/>
  </g>
  <g style="fill:#FFFFFF; fill-rule:nonzero">
   <path  d="M764.3429,359.5680L764.3429,203.7904L1013.4595,203.7904L1013.4595,359.5680z"/>
  </g>
  <g style="fill:none; stroke:#000000; stroke-width:  2.6968; stroke-linecap:butt; stroke-linejoin:miter; stroke-dasharray:none">
   <path d="M764.3429,359.5680L764.3429,203.7904L1013.4595,203.7904L1013.4595,359.5680z"/>
  </g>
  <g style="fill:#000000; fill-rule:nonzero">
   <text   style="font-family:'Times','Nimbus Roman No9 L'; font-style:normal; font-weight:bold; font-size:898.9200" transform="matrix(0.0280,0.0000,-0.0000,-0.0280,833.1103,333.2988)">Ni</text>
   <text   style="font-family:'Times','Nimbus Roman No9 L'; font-style:normal; font-weight:bold; font-size:898.9200" transform="matrix(0.0198,0.0000,-0.0000,-0.0198,858.3103,323.2309)">3</text>
   <text   style="font-family:'Times','Nimbus Roman No9 L'; font-style:normal; font-weight:bold; font-size:898.9200" transform="matrix(0.0280,0.0000,-0.0000,-0.0280,867.3103,333.2988)">P</text>
   <text   style="font-family:'Times','Nimbus Roman No9 L'; font-style:normal; font-weight:bold; font-size:898.9200" transform="matrix(0.0198,0.0000,-0.0000,-0.0198,882.7903,323.2309)">2</text>
  </g>
  <g style="fill:none; stroke:#008B00; stroke-width:  2.6968; stroke-linecap:butt; stroke-linejoin:miter; stroke-dasharray:none">
   <path d="M779.1751,336.7248L815.1319,336.7248"/>
  </g>
  <g style="fill:#008B00; fill-rule:nonzero">
   <ellipse  rx="4.4946" ry="4.4946" cx="779.1751" cy="336.7248"/>
  </g>
  <g style="fill:none; stroke:#008B00; stroke-width:  2.6968; stroke-linecap:butt; stroke-linejoin:miter; stroke-dasharray:none">
   <ellipse  rx="4.4946" ry="4.4946" cx="779.1751" cy="336.7248"/>
  </g>
  <g style="fill:#008B00; fill-rule:nonzero">
   <ellipse  rx="4.4946" ry="4.4946" cx="815.1319" cy="336.7248"/>
  </g>
  <g style="fill:none; stroke:#008B00; stroke-width:  2.6968; stroke-linecap:butt; stroke-linejoin:miter; stroke-dasharray:none">
   <ellipse  rx="4.4946" ry="4.4946" cx="815.1319" cy="336.7248"/>
  </g>
  <g style="fill:#000000; fill-rule:nonzero">
   <text   style="font-family:'Times','Nimbus Roman No9 L'; font-style:normal; font-weight:bold; font-size:898.9200" transform="matrix(0.0280,0.0000,-0.0000,-0.0280,833.1103,296.6017)">Ni</text>
   <text   style="font-family:'Times','Nimbus Roman No9 L'; font-style:normal; font-weight:bold; font-size:898.9200" transform="matrix(0.0198,0.0000,-0.0000,-0.0198,858.3103,286.5338)">3</text>
   <text   style="font-family:'Times','Nimbus Roman No9 L'; font-style:normal; font-weight:bold; font-size:898.9200" transform="matrix(0.0280,0.0000,-0.0000,-0.0280,867.3103,296.6017)">P</text>
   <text   style="font-family:'Times','Nimbus Roman No9 L'; font-style:normal; font-weight:bold; font-size:898.9200" transform="matrix(0.0198,0.0000,-0.0000,-0.0198,882.7903,286.5338)">2</text>
   <text   style="font-family:'Times','Nimbus Roman No9 L'; font-style:normal; font-weight:bold; font-size:898.9200" transform="matrix(0.0280,0.0000,-0.0000,-0.0280,891.7903,296.6017)"> vdW</text>
  </g>
  <g style="fill:none; stroke:#008B00; stroke-width:  2.6968; stroke-linecap:butt; stroke-linejoin:miter; stroke-dasharray: 13 8">
   <path d="M779.1751,300.0277L815.1319,300.0277"/>
  </g>
  <g style="fill:#008B00; fill-rule:nonzero">
   <path  d="M775.3547,296.2073L775.3547,303.8482L782.9955,303.8482L782.9955,296.2073z"/>
  </g>
  <g style="fill:none; stroke:#008B00; stroke-width:  2.6968; stroke-linecap:butt; stroke-linejoin:miter; stroke-dasharray:none">
   <path d="M775.3547,296.2073L775.3547,303.8482L782.9955,303.8482L782.9955,296.2073z"/>
  </g>
  <g style="fill:#008B00; fill-rule:nonzero">
   <path  d="M811.3115,296.2073L811.3115,303.8482L818.9523,303.8482L818.9523,296.2073z"/>
  </g>
  <g style="fill:none; stroke:#008B00; stroke-width:  2.6968; stroke-linecap:butt; stroke-linejoin:miter; stroke-dasharray:none">
   <path d="M811.3115,296.2073L811.3115,303.8482L818.9523,303.8482L818.9523,296.2073z"/>
  </g>
  <g style="fill:#000000; fill-rule:nonzero">
   <text   style="font-family:'Times','Nimbus Roman No9 L'; font-style:normal; font-weight:bold; font-size:898.9200" transform="matrix(0.0280,0.0000,-0.0000,-0.0280,833.1103,259.9046)">Ni</text>
   <text   style="font-family:'Times','Nimbus Roman No9 L'; font-style:normal; font-weight:bold; font-size:898.9200" transform="matrix(0.0198,0.0000,-0.0000,-0.0198,858.3103,249.8367)">3</text>
   <text   style="font-family:'Times','Nimbus Roman No9 L'; font-style:normal; font-weight:bold; font-size:898.9200" transform="matrix(0.0280,0.0000,-0.0000,-0.0280,867.3103,259.9046)">P</text>
   <text   style="font-family:'Times','Nimbus Roman No9 L'; font-style:normal; font-weight:bold; font-size:898.9200" transform="matrix(0.0198,0.0000,-0.0000,-0.0198,882.7903,249.8367)">2</text>
   <text   style="font-family:'Times','Nimbus Roman No9 L'; font-style:normal; font-weight:bold; font-size:898.9200" transform="matrix(0.0280,0.0000,-0.0000,-0.0280,891.7903,259.9046)"> + 4P</text>
  </g>
  <g style="fill:none; stroke:#FF0000; stroke-width:  2.6968; stroke-linecap:butt; stroke-linejoin:miter; stroke-dasharray:none">
   <path d="M779.1751,263.3306L815.1319,263.3306"/>
  </g>
  <g style="fill:#FF0000; fill-rule:nonzero">
   <ellipse  rx="4.4946" ry="4.4946" cx="779.1751" cy="263.3306"/>
  </g>
  <g style="fill:none; stroke:#FF0000; stroke-width:  2.6968; stroke-linecap:butt; stroke-linejoin:miter; stroke-dasharray:none">
   <ellipse  rx="4.4946" ry="4.4946" cx="779.1751" cy="263.3306"/>
  </g>
  <g style="fill:#FF0000; fill-rule:nonzero">
   <ellipse  rx="4.4946" ry="4.4946" cx="815.1319" cy="263.3306"/>
  </g>
  <g style="fill:none; stroke:#FF0000; stroke-width:  2.6968; stroke-linecap:butt; stroke-linejoin:miter; stroke-dasharray:none">
   <ellipse  rx="4.4946" ry="4.4946" cx="815.1319" cy="263.3306"/>
  </g>
  <g style="fill:#000000; fill-rule:nonzero">
   <text   style="font-family:'Times','Nimbus Roman No9 L'; font-style:normal; font-weight:bold; font-size:898.9200" transform="matrix(0.0280,0.0000,-0.0000,-0.0280,833.1103,223.2075)">Ni</text>
   <text   style="font-family:'Times','Nimbus Roman No9 L'; font-style:normal; font-weight:bold; font-size:898.9200" transform="matrix(0.0198,0.0000,-0.0000,-0.0198,858.3103,213.1396)">3</text>
   <text   style="font-family:'Times','Nimbus Roman No9 L'; font-style:normal; font-weight:bold; font-size:898.9200" transform="matrix(0.0280,0.0000,-0.0000,-0.0280,867.3103,223.2075)">P</text>
   <text   style="font-family:'Times','Nimbus Roman No9 L'; font-style:normal; font-weight:bold; font-size:898.9200" transform="matrix(0.0198,0.0000,-0.0000,-0.0198,882.7903,213.1396)">2</text>
   <text   style="font-family:'Times','Nimbus Roman No9 L'; font-style:normal; font-weight:bold; font-size:898.9200" transform="matrix(0.0280,0.0000,-0.0000,-0.0280,891.7903,223.2075)"> + 4P vdW</text>
  </g>
  <g style="fill:none; stroke:#FF0000; stroke-width:  2.6968; stroke-linecap:butt; stroke-linejoin:miter; stroke-dasharray: 13 8">
   <path d="M779.1751,226.6335L815.1319,226.6335"/>
  </g>
  <g style="fill:#FF0000; fill-rule:nonzero">
   <path  d="M775.3547,222.8131L775.3547,230.4539L782.9955,230.4539L782.9955,222.8131z"/>
  </g>
  <g style="fill:none; stroke:#FF0000; stroke-width:  2.6968; stroke-linecap:butt; stroke-linejoin:miter; stroke-dasharray:none">
   <path d="M775.3547,222.8131L775.3547,230.4539L782.9955,230.4539L782.9955,222.8131z"/>
  </g>
  <g style="fill:#FF0000; fill-rule:nonzero">
   <path  d="M811.3115,222.8131L811.3115,230.4539L818.9523,230.4539L818.9523,222.8131z"/>
  </g>
  <g style="fill:none; stroke:#FF0000; stroke-width:  2.6968; stroke-linecap:butt; stroke-linejoin:miter; stroke-dasharray:none">
   <path d="M811.3115,222.8131L811.3115,230.4539L818.9523,230.4539L818.9523,222.8131z"/>
  </g>
 </g>
</svg>
